<?xml version="1.0" encoding="UTF-8"?>
<svg version="1.1" xmlns="http://www.w3.org/2000/svg" xmlns:xlink="http://www.w3.org/1999/xlink" x="0" y="0" width="2500" height="1000" viewBox="0, 0, 2500, 1000">
  <g id="Background">
    <path d="M0,0 L2500,0 L2500,1000 L0,1000 z" fill="#FFFFFF"/>
  </g>
  <g id="Background">
    <path d="M0,0 L2500,0 L2500,1000 L0,1000 z" fill="#FFFFFF"/>
  </g>
  <g id="Layer_2">
    <path d="M-52.881,-48.414 L2655.413,-13.005 L2655.413,1046.414 L-52.881,1046.414 L-52.881,-48.414 z" fill="#6DD0FF"/>
    <path d="M-96.621,173.077 L2338.556,173.077 L2338.556,1104.361 L-96.621,1104.361 L-96.621,173.077 z" fill="#A4E2FF"/>
    <path d="M-75.935,288.556 L2335.601,288.556 L2335.601,1093.186 L-75.935,1093.186 L-75.935,288.556 z" fill="#C0EBFF"/>
    <path d="M128.924,1084.712 L285.926,864.028 L292.231,756.838 L346.877,569.782 L399.421,420.237 L443.558,332.284 L470.88,212.484 L498.203,90.262 L538.137,64.107 L544.442,-73.675 L3001.57,-60.473 L3024.692,1188.68 L77.853,1172.985 L128.924,1084.712 z" fill="#696969"/>
    <path d="M473.982,307.063 L516.017,102.873 L558.052,89.536 L3024.692,103.793 L3024.692,328.023 L473.982,307.063 z" fill="#000000"/>
    <path d="M330.063,691.684 L401.523,506.409 L449.863,468.227 L3024.692,478.009 L3024.692,695.888 L330.063,691.684 z" fill="#000000"/>
    <path d="M743.721,90.763 L745.088,287.545 L777.885,287.545 L779.251,92.13 L743.721,90.763 z" fill="#2E2E2E"/>
    <path d="M1045.726,94.863 L1047.093,291.645 L1079.89,291.645 L1081.256,96.23 L1045.726,94.863 z" fill="#2E2E2E"/>
    <path d="M1698.933,98.963 L1700.299,299.844 L1733.096,299.844 L1734.463,100.358 L1698.933,98.963 z" fill="#2E2E2E"/>
    <path d="M2399.968,103.062 L2401.334,303.944 L2434.132,303.944 L2435.498,104.457 L2399.968,103.062 z" fill="#2E2E2E"/>
    <path d="M2401.687,476.025 L2403.053,676.907 L2435.85,676.907 L2437.217,477.42 L2401.687,476.025 z" fill="#2E2E2E"/>
    <path d="M1700.447,474.307 L1701.814,675.188 L1734.611,675.188 L1735.977,475.702 L1700.447,474.307 z" fill="#2E2E2E"/>
    <path d="M1043.894,472.588 L1045.261,673.469 L1078.058,673.469 L1079.424,473.983 L1043.894,472.588 z" fill="#2E2E2E"/>
    <path d="M748.274,470.869 L749.64,671.751 L782.437,671.751 L783.804,472.264 L748.274,470.869 z" fill="#2E2E2E"/>
    <path d="M1365.296,472.588 L1366.662,673.469 L1399.459,673.469 L1400.826,473.983 L1365.296,472.588 z" fill="#2E2E2E"/>
    <path d="M2035.598,480.182 L2036.965,681.063 L2069.762,681.063 L2071.128,481.577 L2035.598,480.182 z" fill="#2E2E2E"/>
    <path d="M2796.265,105.795 L2797.631,310.776 L2830.428,310.776 L2831.795,107.219 L2796.265,105.795 z" fill="#2E2E2E"/>
    <path d="M2033.735,100.329 L2035.102,301.211 L2067.899,301.211 L2069.265,101.724 L2033.735,100.329 z" fill="#2E2E2E"/>
    <path d="M1361.134,97.596 L1362.501,294.378 L1395.298,294.378 L1396.664,98.963 L1361.134,97.596 z" fill="#2E2E2E"/>
    <path d="M560.052,92.536 L1003.863,303.165 L485.211,300.86 L518.017,105.873 L560.052,92.536 z" fill="#5D5D5D" fill-opacity="0.666"/>
    <path d="M1162.002,478.009 L753.996,681.48 L1791.3,695.888 L1380.989,478.009 L1162.002,478.009 z" fill="#5D5D5D" fill-opacity="0.666"/>
    <path d="M1984.003,479.009 L1575.996,682.48 L2613.301,696.888 L2202.989,479.009 L1984.003,479.009 z" fill="#5D5D5D" fill-opacity="0.666"/>
    <path d="M2757.383,483.009 L2349.376,686.48 L3386.681,700.888 L2976.37,483.009 L2757.383,483.009 z" fill="#5D5D5D" fill-opacity="0.666"/>
    <path d="M1178.138,102.793 L770.131,302.165 L1807.436,316.572 L1397.125,102.793 L1178.138,102.793 z" fill="#5D5D5D" fill-opacity="0.666"/>
    <path d="M1991.003,110.45 L1582.996,313.36 L2620.301,328.023 L2209.989,110.45 L1991.003,110.45 z" fill="#5D5D5D" fill-opacity="0.666"/>
    <path d="M2792.876,113.793 L2384.869,313.165 L3422.174,327.572 L3011.862,113.793 L2792.876,113.793 z" fill="#5D5D5D" fill-opacity="0.666"/>
    <path d="M449.863,468.227 L891.217,695.888 L340.293,695.888 L401.523,506.409 L449.863,468.227 z" fill="#5D5D5D" fill-opacity="0.666"/>
    <path d="M-201.411,303.165 L460.159,303.165 L441.718,355.488 L-201.411,357.793 L-201.411,303.165 z" fill="#747474"/>
    <path d="M-201.411,691 L319.547,691 L305.716,746.392 L-201.411,746.392 L-201.411,691 z" fill="#747474"/>
    <path d="M-3.17,1075.414 L6.05,812.514 L38.322,768.375 L95.947,742.821 L-52.881,742.821 L-52.881,1075.414 L-3.17,1075.414 z" fill="#747474"/>
    <path d="M5.549,690.985 L6.05,412.784 L38.322,372.716 L95.947,351.652 L-52.881,351.652 L-52.881,692 L5.549,690.985 z" fill="#747474"/>
    <path d="M2129.866,322.028 L2125.314,473.322 L2552.42,478.009 L2545.592,325.661 L2129.866,322.028 z" fill="#3B3B3B"/>
    <path d="M319.525,143.133 L331.032,149.46 L359.159,154.639 L400.709,137.242 L416.051,146.937 L441.621,142.494 L460.159,121.399 L435.868,88.893 L396.874,88.893 L366.776,74.095 L343.817,100.413 L307.38,95.829 L283.088,133.544 L296.512,149.716 L319.525,143.133 z" fill="#F3FAFD"/>
    <path d="M60.337,154.584 L71.844,160.911 L99.971,166.09 L141.521,148.693 L156.863,158.388 L182.433,153.945 L200.971,132.85 L176.68,100.344 L137.686,100.344 L107.588,85.546 L84.629,111.864 L48.192,107.28 L23.9,144.995 L37.324,161.167 L60.337,154.584 z" fill="#F3FAFD"/>
    <path d="M157.944,553.163 L169.451,559.49 L197.578,564.669 L239.128,547.271 L254.47,556.966 L280.04,552.523 L298.578,531.429 L274.287,498.923 L235.293,498.923 L205.195,484.125 L182.236,510.443 L145.799,505.859 L121.507,543.573 L134.931,559.745 L157.944,553.163 z" fill="#F3FAFD"/>
    <path d="M465.468,332.847 L493.468,312.847 L512.468,321.847 L525.468,322.847 L520.468,342.847 L465.468,332.847 z" fill="#4C4C4C"/>
    <path d="M571.505,325.235 L573.505,337.235 L591.505,342.235 L619.505,337.235 L619.505,316.235 L571.505,325.235 z" fill="#4C4C4C"/>
    <path d="M536.196,319.61 L530.185,327.958 L550.888,344.654 L569.254,324.953 L562.909,315.937 L536.196,319.61 z" fill="#4C4C4C"/>
    <path d="M681.761,314.382 L684.099,330.41 L705.136,340.761 L727.842,325.067 L681.761,314.382 z" fill="#4C4C4C"/>
    <path d="M630.242,325.937 L629.574,345.304 L671.982,338.626 L671.314,314.918 L652.281,315.919 L630.242,325.937 z" fill="#4C4C4C"/>
    <path d="M733.807,318.784 L749.027,344.553 L764.919,338.283 L774.52,339.422 L775.852,317.529 L733.807,318.784 z" fill="#4C4C4C"/>
    <path d="M828.768,335.768 L830.768,323.768 L848.768,318.768 L876.768,323.768 L876.768,344.768 L828.768,335.768 z" fill="#4C4C4C"/>
    <path d="M789.254,340.598 L783.243,332.25 L803.947,315.554 L822.312,335.256 L815.968,344.272 L789.254,340.598 z" fill="#4C4C4C"/>
    <path d="M940.093,344.554 L942.43,328.526 L963.467,318.174 L986.174,333.868 L940.093,344.554 z" fill="#4C4C4C"/>
    <path d="M890.368,338.658 L889.7,319.29 L932.108,325.969 L931.44,349.677 L912.407,348.675 L890.368,338.658 z" fill="#4C4C4C"/>
    <path d="M324.659,722.074 L352.659,702.074 L371.659,711.074 L384.659,712.074 L379.659,732.074 L324.659,722.074 z" fill="#4C4C4C"/>
    <path d="M430.696,714.462 L432.696,726.462 L450.696,731.462 L478.696,726.462 L478.696,705.462 L430.696,714.462 z" fill="#4C4C4C"/>
    <path d="M395.387,708.837 L389.376,717.185 L410.079,733.881 L428.445,714.18 L422.1,705.164 L395.387,708.837 z" fill="#4C4C4C"/>
    <path d="M540.952,701.609 L543.29,717.637 L564.327,727.988 L587.033,712.294 L540.952,701.609 z" fill="#4C4C4C"/>
    <path d="M489.433,713.164 L488.765,732.531 L531.173,725.853 L530.505,702.145 L511.472,703.146 L489.433,713.164 z" fill="#4C4C4C"/>
    <path d="M592.998,706.011 L608.218,731.78 L624.11,725.51 L633.712,726.649 L635.043,704.756 L592.998,706.011 z" fill="#4C4C4C"/>
    <path d="M687.959,722.995 L689.959,710.995 L707.959,705.995 L735.959,710.995 L735.959,731.995 L687.959,722.995 z" fill="#4C4C4C"/>
    <path d="M648.445,727.825 L642.434,719.477 L663.138,702.781 L681.503,722.483 L675.159,731.499 L648.445,727.825 z" fill="#4C4C4C"/>
    <path d="M799.284,731.781 L801.621,715.753 L822.658,705.401 L845.365,721.095 L799.284,731.781 z" fill="#4C4C4C"/>
    <path d="M749.559,725.885 L748.891,706.517 L791.299,713.196 L790.631,736.904 L771.598,735.902 L749.559,725.885 z" fill="#4C4C4C"/>
    <path d="M852.406,720.364 L880.406,700.364 L899.406,709.364 L912.406,710.364 L907.406,730.364 L852.406,720.364 z" fill="#4C4C4C"/>
    <path d="M958.443,712.752 L960.443,724.752 L978.443,729.752 L1006.443,724.752 L1006.443,703.752 L958.443,712.752 z" fill="#4C4C4C"/>
    <path d="M923.133,707.127 L917.122,715.475 L937.826,732.171 L956.191,712.47 L949.846,703.454 L923.133,707.127 z" fill="#4C4C4C"/>
    <path d="M1068.698,701.899 L1071.036,717.927 L1092.073,728.278 L1114.78,712.584 L1068.698,701.899 z" fill="#4C4C4C"/>
    <path d="M1017.18,713.454 L1016.511,732.821 L1058.919,726.143 L1058.251,702.435 L1039.219,703.436 L1017.18,713.454 z" fill="#4C4C4C"/>
    <path d="M1120.744,706.301 L1135.964,732.07 L1151.856,725.8 L1161.458,726.938 L1162.79,705.046 L1120.744,706.301 z" fill="#4C4C4C"/>
    <path d="M1215.705,723.285 L1217.705,711.285 L1235.705,706.285 L1263.705,711.285 L1263.705,732.285 L1215.705,723.285 z" fill="#4C4C4C"/>
    <path d="M1176.191,728.114 L1170.18,719.766 L1190.884,703.07 L1209.249,722.772 L1202.905,731.788 L1176.191,728.114 z" fill="#4C4C4C"/>
    <path d="M1327.03,732.07 L1329.367,716.042 L1350.404,705.69 L1373.111,721.384 L1327.03,732.07 z" fill="#4C4C4C"/>
    <path d="M1277.306,726.174 L1276.638,706.806 L1319.046,713.485 L1318.378,737.193 L1299.345,736.191 L1277.306,726.174 z" fill="#4C4C4C"/>
    <path d="M1379.007,721.508 L1407.007,701.508 L1426.007,710.508 L1439.007,711.508 L1434.007,731.508 L1379.007,721.508 z" fill="#4C4C4C"/>
    <path d="M1485.044,713.896 L1487.044,725.896 L1505.044,730.896 L1533.044,725.896 L1533.044,704.896 L1485.044,713.896 z" fill="#4C4C4C"/>
    <path d="M1449.735,708.271 L1443.724,716.619 L1464.427,733.315 L1482.793,713.614 L1476.448,704.598 L1449.735,708.271 z" fill="#4C4C4C"/>
    <path d="M1595.3,703.043 L1597.638,719.071 L1618.675,729.422 L1641.381,713.728 L1595.3,703.043 z" fill="#4C4C4C"/>
    <path d="M1543.781,714.598 L1543.113,733.965 L1585.521,727.287 L1584.853,703.579 L1565.82,704.58 L1543.781,714.598 z" fill="#4C4C4C"/>
    <path d="M1647.346,707.446 L1662.566,733.214 L1678.457,726.944 L1688.059,728.083 L1689.391,706.191 L1647.346,707.446 z" fill="#4C4C4C"/>
    <path d="M1742.306,724.429 L1744.306,712.429 L1762.306,707.429 L1790.306,712.429 L1790.306,733.429 L1742.306,724.429 z" fill="#4C4C4C"/>
    <path d="M1702.793,729.259 L1696.782,720.911 L1717.486,704.215 L1735.851,723.917 L1729.507,732.933 L1702.793,729.259 z" fill="#4C4C4C"/>
    <path d="M1853.632,733.215 L1855.969,717.187 L1877.005,706.835 L1899.713,722.529 L1853.632,733.215 z" fill="#4C4C4C"/>
    <path d="M1803.907,727.319 L1803.239,707.951 L1845.647,714.63 L1844.979,738.338 L1825.946,737.336 L1803.907,727.319 z" fill="#4C4C4C"/>
    <path d="M1907.898,722.653 L1935.898,702.653 L1954.898,711.653 L1967.898,712.653 L1962.898,732.653 L1907.898,722.653 z" fill="#4C4C4C"/>
    <path d="M2013.935,715.041 L2015.935,727.041 L2033.935,732.041 L2061.935,727.041 L2061.935,706.041 L2013.935,715.041 z" fill="#4C4C4C"/>
    <path d="M1978.626,709.416 L1972.615,717.764 L1993.318,734.46 L2011.684,714.759 L2005.339,705.743 L1978.626,709.416 z" fill="#4C4C4C"/>
    <path d="M2124.191,704.188 L2126.529,720.216 L2147.566,730.567 L2170.272,714.873 L2124.191,704.188 z" fill="#4C4C4C"/>
    <path d="M2072.672,715.743 L2072.004,735.11 L2114.412,728.432 L2113.744,704.724 L2094.711,705.725 L2072.672,715.743 z" fill="#4C4C4C"/>
    <path d="M2176.236,708.591 L2191.457,734.359 L2207.348,728.089 L2216.95,729.228 L2218.282,707.336 L2176.236,708.591 z" fill="#4C4C4C"/>
    <path d="M2271.197,725.574 L2273.197,713.574 L2291.197,708.574 L2319.197,713.574 L2319.197,734.574 L2271.197,725.574 z" fill="#4C4C4C"/>
    <path d="M2231.684,730.404 L2225.672,722.056 L2246.376,705.36 L2264.741,725.062 L2258.397,734.078 L2231.684,730.404 z" fill="#4C4C4C"/>
    <path d="M2382.522,734.36 L2384.859,718.332 L2405.896,707.98 L2428.604,723.674 L2382.522,734.36 z" fill="#4C4C4C"/>
    <path d="M2332.798,728.464 L2332.13,709.096 L2374.538,715.775 L2373.87,739.483 L2354.837,738.481 L2332.798,728.464 z" fill="#4C4C4C"/>
    <path d="M2433.354,726.088 L2461.354,706.088 L2480.354,715.088 L2493.354,716.088 L2488.354,736.088 L2433.354,726.088 z" fill="#4C4C4C"/>
    <path d="M2539.391,718.476 L2541.391,730.476 L2559.391,735.476 L2587.391,730.476 L2587.391,709.476 L2539.391,718.476 z" fill="#4C4C4C"/>
    <path d="M2504.082,712.851 L2498.071,721.199 L2518.774,737.895 L2537.14,718.194 L2530.795,709.177 L2504.082,712.851 z" fill="#4C4C4C"/>
    <path d="M2649.647,707.622 L2651.985,723.651 L2673.022,734.002 L2695.728,718.307 L2649.647,707.622 z" fill="#4C4C4C"/>
    <path d="M2598.128,719.177 L2597.46,738.544 L2639.868,731.867 L2639.2,708.159 L2620.167,709.159 L2598.128,719.177 z" fill="#4C4C4C"/>
    <path d="M2701.693,712.025 L2716.913,737.793 L2732.805,731.523 L2742.407,732.662 L2743.738,710.77 L2701.693,712.025 z" fill="#4C4C4C"/>
    <path d="M2796.654,729.009 L2798.654,717.009 L2816.654,712.009 L2844.654,717.009 L2844.654,738.009 L2796.654,729.009 z" fill="#4C4C4C"/>
    <path d="M2757.14,733.838 L2751.129,725.49 L2771.833,708.794 L2790.198,728.496 L2783.854,737.512 L2757.14,733.838 z" fill="#4C4C4C"/>
    <path d="M2907.979,737.794 L2910.316,721.766 L2931.353,711.414 L2954.06,727.108 L2907.979,737.794 z" fill="#4C4C4C"/>
    <path d="M2858.254,731.898 L2857.586,712.53 L2899.994,719.209 L2899.326,742.917 L2880.293,741.915 L2858.254,731.898 z" fill="#4C4C4C"/>
    <path d="M983.54,340.301 L1011.54,320.301 L1030.54,329.301 L1043.54,330.301 L1038.54,350.301 L983.54,340.301 z" fill="#4C4C4C"/>
    <path d="M1089.577,332.689 L1091.577,344.689 L1109.577,349.689 L1137.577,344.689 L1137.577,323.689 L1089.577,332.689 z" fill="#4C4C4C"/>
    <path d="M1054.268,327.064 L1048.257,335.412 L1068.96,352.108 L1087.326,332.407 L1080.981,323.391 L1054.268,327.064 z" fill="#4C4C4C"/>
    <path d="M1199.833,321.836 L1202.171,337.864 L1223.208,348.215 L1245.914,332.521 L1199.833,321.836 z" fill="#4C4C4C"/>
    <path d="M1148.314,333.391 L1147.646,352.758 L1190.054,346.08 L1189.386,322.372 L1170.353,323.373 L1148.314,333.391 z" fill="#4C4C4C"/>
    <path d="M553.273,81.917 L555.611,65.889 L576.648,55.538 L599.354,71.232 L553.273,81.917 z" fill="#4C4C4C"/>
    <path d="M605.319,77.515 L620.539,51.747 L636.431,58.017 L646.033,56.878 L647.364,78.77 L605.319,77.515 z" fill="#4C4C4C"/>
    <path d="M699.355,64.229 L701.355,76.229 L719.355,81.229 L747.355,76.229 L747.355,55.229 L699.355,64.229 z" fill="#4C4C4C"/>
    <path d="M660.766,55.702 L654.755,64.05 L675.459,80.746 L693.824,61.044 L687.48,52.028 L660.766,55.702 z" fill="#4C4C4C"/>
    <path d="M806.983,57.292 L809.32,73.32 L830.357,83.672 L853.064,67.978 L806.983,57.292 z" fill="#4C4C4C"/>
    <path d="M758.183,64.112 L757.515,83.48 L799.923,76.801 L799.255,53.093 L780.222,54.095 L758.183,64.112 z" fill="#4C4C4C"/>
    <path d="M851.355,62.469 L879.355,82.469 L898.355,73.469 L911.355,72.469 L906.355,52.469 L851.355,62.469 z" fill="#4C4C4C"/>
    <path d="M961.089,75.627 L963.089,63.627 L981.089,58.627 L1009.089,63.627 L1009.089,84.627 L961.089,75.627 z" fill="#4C4C4C"/>
    <path d="M921.158,79.403 L915.147,71.055 L935.85,54.359 L954.216,74.06 L947.871,83.076 L921.158,79.403 z" fill="#4C4C4C"/>
    <path d="M1018.204,78.076 L1017.536,58.709 L1059.944,65.387 L1059.276,89.095 L1040.243,88.094 L1018.204,78.076 z" fill="#4C4C4C"/>
    <path d="M422.768,460.841 L425.106,444.813 L446.143,434.462 L468.849,450.156 L422.768,460.841 z" fill="#4C4C4C"/>
    <path d="M474.814,456.439 L490.034,430.671 L505.925,436.941 L515.527,435.802 L516.859,457.694 L474.814,456.439 z" fill="#4C4C4C"/>
    <path d="M568.85,443.153 L570.85,455.153 L588.85,460.153 L616.85,455.153 L616.85,434.153 L568.85,443.153 z" fill="#4C4C4C"/>
    <path d="M530.261,434.626 L524.25,442.974 L544.954,459.67 L563.319,439.968 L556.975,430.952 L530.261,434.626 z" fill="#4C4C4C"/>
    <path d="M676.478,436.216 L678.815,452.244 L699.852,462.596 L722.559,446.902 L676.478,436.216 z" fill="#4C4C4C"/>
    <path d="M627.677,443.036 L627.009,462.404 L669.417,455.725 L668.749,432.017 L649.716,433.019 L627.677,443.036 z" fill="#4C4C4C"/>
    <path d="M720.849,441.393 L748.849,461.393 L767.849,452.393 L780.849,451.393 L775.849,431.393 L720.849,441.393 z" fill="#4C4C4C"/>
    <path d="M830.584,454.551 L832.584,442.551 L850.584,437.551 L878.584,442.551 L878.584,463.551 L830.584,454.551 z" fill="#4C4C4C"/>
    <path d="M790.653,458.327 L784.642,449.979 L805.345,433.283 L823.711,452.984 L817.366,462 L790.653,458.327 z" fill="#4C4C4C"/>
    <path d="M887.699,457 L887.031,437.633 L929.439,444.311 L928.771,468.019 L909.738,467.018 L887.699,457 z" fill="#4C4C4C"/>
    <path d="M947.08,463.131 L949.418,447.103 L970.455,436.752 L993.161,452.446 L947.08,463.131 z" fill="#4C4C4C"/>
    <path d="M999.125,458.729 L1014.346,432.96 L1030.237,439.23 L1039.839,438.092 L1041.171,459.984 L999.125,458.729 z" fill="#4C4C4C"/>
    <path d="M1093.162,445.442 L1095.162,457.442 L1113.162,462.442 L1141.162,457.442 L1141.162,436.442 L1093.162,445.442 z" fill="#4C4C4C"/>
    <path d="M1054.572,436.915 L1048.561,445.263 L1069.265,461.959 L1087.63,442.257 L1081.286,433.241 L1054.572,436.915 z" fill="#4C4C4C"/>
    <path d="M1200.789,438.505 L1203.126,454.533 L1224.163,464.885 L1246.87,449.191 L1200.789,438.505 z" fill="#4C4C4C"/>
    <path d="M1151.989,445.326 L1151.321,464.694 L1193.729,458.015 L1193.061,434.307 L1174.028,435.309 L1151.989,445.326 z" fill="#4C4C4C"/>
    <path d="M1245.161,443.682 L1273.161,463.682 L1292.161,454.682 L1305.161,453.682 L1300.161,433.682 L1245.161,443.682 z" fill="#4C4C4C"/>
    <path d="M1354.896,456.841 L1356.896,444.841 L1374.896,439.841 L1402.896,444.841 L1402.896,465.841 L1354.896,456.841 z" fill="#4C4C4C"/>
    <path d="M1314.965,460.617 L1308.954,452.269 L1329.657,435.573 L1348.023,455.274 L1341.678,464.29 L1314.965,460.617 z" fill="#4C4C4C"/>
    <path d="M1412.011,459.29 L1411.343,439.923 L1453.751,446.601 L1453.083,470.309 L1434.05,469.308 L1412.011,459.29 z" fill="#4C4C4C"/>
    <path d="M1471.391,463.131 L1473.729,447.103 L1494.766,436.752 L1517.472,452.446 L1471.391,463.131 z" fill="#4C4C4C"/>
    <path d="M1523.437,458.729 L1538.657,432.96 L1554.549,439.23 L1564.151,438.092 L1565.482,459.984 L1523.437,458.729 z" fill="#4C4C4C"/>
    <path d="M1617.474,445.442 L1619.474,457.442 L1637.474,462.442 L1665.474,457.442 L1665.474,436.442 L1617.474,445.442 z" fill="#4C4C4C"/>
    <path d="M1578.884,436.915 L1572.873,445.263 L1593.577,461.959 L1611.942,442.257 L1605.598,433.241 L1578.884,436.915 z" fill="#4C4C4C"/>
    <path d="M1725.101,438.505 L1727.438,454.533 L1748.475,464.885 L1771.182,449.191 L1725.101,438.505 z" fill="#4C4C4C"/>
    <path d="M1676.301,445.326 L1675.633,464.694 L1718.041,458.015 L1717.373,434.307 L1698.34,435.309 L1676.301,445.326 z" fill="#4C4C4C"/>
    <path d="M1769.473,443.682 L1797.473,463.682 L1816.473,454.682 L1829.473,453.682 L1824.473,433.682 L1769.473,443.682 z" fill="#4C4C4C"/>
    <path d="M1879.207,456.841 L1881.207,444.841 L1899.207,439.841 L1927.207,444.841 L1927.207,465.841 L1879.207,456.841 z" fill="#4C4C4C"/>
    <path d="M1839.276,460.617 L1833.265,452.269 L1853.968,435.573 L1872.334,455.274 L1865.99,464.29 L1839.276,460.617 z" fill="#4C4C4C"/>
    <path d="M1936.322,459.29 L1935.654,439.923 L1978.062,446.601 L1977.394,470.309 L1958.361,469.308 L1936.322,459.29 z" fill="#4C4C4C"/>
    <path d="M1081.089,83.766 L1083.427,67.738 L1104.464,57.387 L1127.17,73.081 L1081.089,83.766 z" fill="#4C4C4C"/>
    <path d="M1133.135,79.364 L1148.355,53.595 L1164.247,59.865 L1173.849,58.727 L1175.18,80.619 L1133.135,79.364 z" fill="#4C4C4C"/>
    <path d="M1228.096,69.38 L1230.096,81.38 L1248.096,86.38 L1276.096,81.38 L1276.096,60.38 L1228.096,69.38 z" fill="#4C4C4C"/>
    <path d="M1188.582,62.55 L1182.571,70.898 L1203.275,87.594 L1221.64,67.892 L1215.296,58.876 L1188.582,62.55 z" fill="#4C4C4C"/>
    <path d="M1339.421,60.594 L1341.758,76.622 L1362.795,86.974 L1385.502,71.28 L1339.421,60.594 z" fill="#4C4C4C"/>
    <path d="M1289.696,68.49 L1289.028,87.858 L1331.436,81.179 L1330.768,57.471 L1311.735,58.473 L1289.696,68.49 z" fill="#4C4C4C"/>
    <path d="M1382.868,67.847 L1410.868,87.847 L1429.868,78.847 L1442.868,77.847 L1437.868,57.847 L1382.868,67.847 z" fill="#4C4C4C"/>
    <path d="M1491.905,76.459 L1493.905,64.459 L1511.905,59.459 L1539.905,64.459 L1539.905,85.459 L1491.905,76.459 z" fill="#4C4C4C"/>
    <path d="M1453.596,83.084 L1447.585,74.736 L1468.288,58.04 L1486.654,77.741 L1480.309,86.757 L1453.596,83.084 z" fill="#4C4C4C"/>
    <path d="M1547.642,73.757 L1546.974,54.39 L1589.382,61.068 L1588.714,84.776 L1569.681,83.775 L1547.642,73.757 z" fill="#4C4C4C"/>
    <path d="M1603.359,84.691 L1605.697,68.663 L1626.734,58.312 L1649.44,74.006 L1603.359,84.691 z" fill="#4C4C4C"/>
    <path d="M1655.405,80.288 L1670.625,54.52 L1686.517,60.79 L1696.119,59.651 L1697.45,81.543 L1655.405,80.288 z" fill="#4C4C4C"/>
    <path d="M1750.366,70.305 L1752.366,82.305 L1770.366,87.305 L1798.366,82.305 L1798.366,61.305 L1750.366,70.305 z" fill="#4C4C4C"/>
    <path d="M1710.852,63.475 L1704.841,71.823 L1725.545,88.519 L1743.91,68.817 L1737.566,59.801 L1710.852,63.475 z" fill="#4C4C4C"/>
    <path d="M1861.691,61.519 L1864.028,77.547 L1885.065,87.899 L1907.772,72.205 L1861.691,61.519 z" fill="#4C4C4C"/>
    <path d="M1811.966,69.415 L1811.298,88.783 L1853.706,82.104 L1853.038,58.396 L1834.005,59.398 L1811.966,69.415 z" fill="#4C4C4C"/>
    <path d="M1905.138,68.771 L1933.138,88.771 L1952.138,79.771 L1965.138,78.771 L1960.138,58.771 L1905.138,68.771 z" fill="#4C4C4C"/>
    <path d="M2014.175,77.383 L2016.175,65.383 L2034.175,60.383 L2062.175,65.383 L2062.175,86.383 L2014.175,77.383 z" fill="#4C4C4C"/>
    <path d="M1975.866,84.008 L1969.855,75.66 L1990.558,58.964 L2008.924,78.665 L2002.579,87.681 L1975.866,84.008 z" fill="#4C4C4C"/>
    <path d="M2069.912,74.681 L2069.244,55.314 L2111.652,61.992 L2110.984,85.7 L2091.951,84.699 L2069.912,74.681 z" fill="#4C4C4C"/>
    <path d="M2121.932,87.464 L2124.27,71.436 L2145.307,61.085 L2168.013,76.779 L2121.932,87.464 z" fill="#4C4C4C"/>
    <path d="M2173.977,83.061 L2189.198,57.293 L2205.089,63.563 L2214.691,62.424 L2216.023,84.316 L2173.977,83.061 z" fill="#4C4C4C"/>
    <path d="M2268.938,73.078 L2270.938,85.078 L2288.938,90.078 L2316.938,85.078 L2316.938,64.078 L2268.938,73.078 z" fill="#4C4C4C"/>
    <path d="M2229.425,66.248 L2223.414,74.596 L2244.117,91.292 L2262.482,71.59 L2256.138,62.574 L2229.425,66.248 z" fill="#4C4C4C"/>
    <path d="M2380.263,64.292 L2382.6,80.32 L2403.637,90.672 L2426.344,74.978 L2380.263,64.292 z" fill="#4C4C4C"/>
    <path d="M2330.539,72.188 L2329.871,91.556 L2372.279,84.877 L2371.611,61.169 L2352.578,62.171 L2330.539,72.188 z" fill="#4C4C4C"/>
    <path d="M2423.711,71.544 L2451.711,91.544 L2470.711,82.544 L2483.711,81.544 L2478.711,61.544 L2423.711,71.544 z" fill="#4C4C4C"/>
    <path d="M2532.748,80.156 L2534.748,68.156 L2552.748,63.156 L2580.748,68.156 L2580.748,89.156 L2532.748,80.156 z" fill="#4C4C4C"/>
    <path d="M2494.439,86.781 L2488.428,78.433 L2509.131,61.737 L2527.497,81.438 L2521.152,90.454 L2494.439,86.781 z" fill="#4C4C4C"/>
    <path d="M2588.485,77.454 L2587.817,58.087 L2630.225,64.765 L2629.557,88.473 L2610.524,87.472 L2588.485,77.454 z" fill="#4C4C4C"/>
    <path d="M2645.126,89.312 L2647.464,73.284 L2668.501,62.933 L2691.207,78.627 L2645.126,89.312 z" fill="#4C4C4C"/>
    <path d="M2697.172,84.91 L2712.392,59.142 L2728.284,65.411 L2737.885,64.273 L2739.217,86.165 L2697.172,84.91 z" fill="#4C4C4C"/>
    <path d="M2792.133,74.926 L2794.133,86.926 L2812.133,91.926 L2840.133,86.926 L2840.133,65.926 L2792.133,74.926 z" fill="#4C4C4C"/>
    <path d="M2752.619,68.097 L2746.608,76.445 L2767.312,93.141 L2785.677,73.439 L2779.333,64.423 L2752.619,68.097 z" fill="#4C4C4C"/>
    <path d="M2903.458,66.141 L2905.795,82.169 L2926.832,92.521 L2949.539,76.827 L2903.458,66.141 z" fill="#4C4C4C"/>
    <path d="M2853.733,74.037 L2853.065,93.405 L2895.473,86.726 L2894.805,63.018 L2875.772,64.02 L2853.733,74.037 z" fill="#4C4C4C"/>
    <path d="M1251.879,326.239 L1267.099,352.007 L1282.991,345.737 L1292.592,346.876 L1293.924,324.984 L1251.879,326.239 z" fill="#4C4C4C"/>
    <path d="M1346.839,343.222 L1348.839,331.222 L1366.839,326.222 L1394.839,331.222 L1394.839,352.222 L1346.839,343.222 z" fill="#4C4C4C"/>
    <path d="M1307.326,348.052 L1301.315,339.704 L1322.019,323.008 L1340.384,342.71 L1334.04,351.726 L1307.326,348.052 z" fill="#4C4C4C"/>
    <path d="M1458.165,352.008 L1460.502,335.98 L1481.539,325.628 L1504.246,341.322 L1458.165,352.008 z" fill="#4C4C4C"/>
    <path d="M1408.44,346.112 L1407.772,326.744 L1450.18,333.423 L1449.512,357.131 L1430.479,356.129 L1408.44,346.112 z" fill="#4C4C4C"/>
    <path d="M1511.862,345.892 L1539.862,325.892 L1558.862,334.892 L1571.862,335.892 L1566.862,355.892 L1511.862,345.892 z" fill="#4C4C4C"/>
    <path d="M1617.899,338.28 L1619.899,350.28 L1637.899,355.28 L1665.899,350.28 L1665.899,329.28 L1617.899,338.28 z" fill="#4C4C4C"/>
    <path d="M1582.59,332.655 L1576.579,341.003 L1597.281,357.699 L1615.648,337.998 L1609.303,328.982 L1582.59,332.655 z" fill="#4C4C4C"/>
    <path d="M1728.155,327.427 L1730.493,343.455 L1751.53,353.806 L1774.236,338.112 L1728.155,327.427 z" fill="#4C4C4C"/>
    <path d="M1676.635,338.982 L1675.968,358.349 L1718.375,351.671 L1717.708,327.963 L1698.675,328.964 L1676.635,338.982 z" fill="#4C4C4C"/>
    <path d="M1780.2,331.829 L1795.421,357.598 L1811.312,351.328 L1820.914,352.466 L1822.246,330.574 L1780.2,331.829 z" fill="#4C4C4C"/>
    <path d="M1875.161,348.813 L1877.161,336.813 L1895.161,331.813 L1923.161,336.813 L1923.161,357.813 L1875.161,348.813 z" fill="#4C4C4C"/>
    <path d="M1835.647,353.643 L1829.636,345.295 L1850.34,328.599 L1868.705,348.301 L1862.361,357.317 L1835.647,353.643 z" fill="#4C4C4C"/>
    <path d="M2028.088,439.616 L2030.426,455.644 L2051.463,465.995 L2074.169,450.301 L2028.088,439.616 z" fill="#4C4C4C"/>
    <path d="M1985.583,451.171 L1985.06,470.538 L2018.309,463.86 L2017.786,440.152 L2002.863,441.153 L1985.583,451.171 z" fill="#4C4C4C"/>
    <path d="M2080.134,444.018 L2095.354,469.787 L2111.246,463.517 L2120.848,464.655 L2122.179,442.763 L2080.134,444.018 z" fill="#4C4C4C"/>
    <path d="M2561.777,458.96 L2563.777,446.96 L2581.777,441.96 L2609.777,446.96 L2609.777,467.96 L2561.777,458.96 z" fill="#4C4C4C"/>
    <path d="M2618.892,461.41 L2618.224,442.043 L2660.632,448.721 L2659.964,472.429 L2640.931,471.428 L2618.892,461.41 z" fill="#4C4C4C"/>
    <path d="M2710.658,441.736 L2712.996,457.764 L2734.033,468.115 L2756.739,452.421 L2710.658,441.736 z" fill="#4C4C4C"/>
    <path d="M2668.153,453.291 L2667.629,472.658 L2700.879,465.98 L2700.355,442.272 L2685.432,443.273 L2668.153,453.291 z" fill="#4C4C4C"/>
    <path d="M2762.704,446.138 L2777.924,471.907 L2793.815,465.637 L2803.417,466.775 L2804.749,444.883 L2762.704,446.138 z" fill="#4C4C4C"/>
    <path d="M1986.486,357.599 L1988.823,341.571 L2009.86,331.219 L2032.567,346.913 L1986.486,357.599 z" fill="#4C4C4C"/>
    <path d="M1936.762,351.703 L1936.094,332.335 L1978.502,339.014 L1977.834,362.722 L1958.801,361.72 L1936.762,351.703 z" fill="#4C4C4C"/>
    <path d="M2613.115,330.831 L2615.453,346.859 L2636.49,357.21 L2659.196,341.516 L2613.115,330.831 z" fill="#4C4C4C"/>
    <path d="M2561.596,342.386 L2560.928,361.753 L2603.336,355.075 L2602.668,331.367 L2583.635,332.368 L2561.596,342.386 z" fill="#4C4C4C"/>
    <path d="M2665.161,335.233 L2680.381,361.002 L2696.273,354.732 L2705.875,355.87 L2707.206,333.978 L2665.161,335.233 z" fill="#4C4C4C"/>
    <path d="M2876.051,338.489 L2878.389,354.517 L2899.426,364.868 L2922.132,349.174 L2876.051,338.489 z" fill="#4C4C4C"/>
    <path d="M2928.097,342.891 L2943.317,368.66 L2959.208,362.39 L2968.81,363.529 L2970.142,341.636 L2928.097,342.891 z" fill="#4C4C4C"/>
    <path d="M2760.122,352.217 L2762.122,340.217 L2780.122,335.217 L2808.122,340.217 L2808.122,361.217 L2760.122,352.217 z" fill="#4C4C4C"/>
    <path d="M2720.608,357.046 L2714.597,348.698 L2735.301,332.002 L2753.666,351.704 L2747.322,360.72 L2720.608,357.046 z" fill="#4C4C4C"/>
    <path d="M2821.722,355.106 L2821.054,335.738 L2863.462,342.417 L2862.794,366.125 L2843.761,365.123 L2821.722,355.106 z" fill="#4C4C4C"/>
    <path d="M2028.07,357.073 L2056.07,337.073 L2075.07,346.073 L2088.07,347.073 L2083.07,367.073 L2028.07,357.073 z" fill="#4C4C4C"/>
    <path d="M2088.548,330.791 L2082.537,339.139 L2103.24,355.835 L2121.606,336.134 L2115.261,327.118 L2088.548,330.791 z" fill="#4C4C4C"/>
    <path d="M1178.578,93.025 L1172.978,103.975 L1403.898,106.094 L1396.711,95.313 L1178.578,93.025 z" fill="#FFFFFF"/>
    <path d="M1992.42,99.613 L1986.82,110.563 L2217.741,112.682 L2210.554,101.901 L1992.42,99.613 z" fill="#FFFFFF"/>
    <path d="M1162.266,468.571 L1156.666,479.521 L1387.587,481.64 L1380.399,470.859 L1162.266,468.571 z" fill="#FFFFFF"/>
    <path d="M2796.778,105.305 L2791.178,116.254 L3022.098,118.373 L3014.911,107.592 L2796.778,105.305 z" fill="#FFFFFF"/>
    <path d="M2753.145,475.233 L2747.545,486.183 L2978.466,488.302 L2971.278,477.521 L2753.145,475.233 z" fill="#FFFFFF"/>
    <path d="M1976.818,475.233 L1970.85,486.183 L2216.947,488.302 L2209.287,477.521 L1976.818,475.233 z" fill="#FFFFFF"/>
    <path d="M6.149,674.227 L6.676,422.768 L21.242,393.636 L45.233,369.645 L80.363,354.222 L208.031,353.365 L82.077,340.513 L46.947,350.795 L17.814,373.072 L-3.606,404.775 L-9.604,437.335 L-9.604,673.82 L6.149,674.227 z" fill="#4E4E4E"/>
    <path d="M2.391,1072.246 L4.105,824.622 L19.528,793.776 L38.322,768.375 L64.94,752.648 L89.788,745.793 L136.057,743.223 L91.502,737.225 L63.226,741.509 L28.096,762.93 L6.676,792.062 L-6.177,822.908 L-9.604,1073.959 L2.391,1072.246 z" fill="#4E4E4E"/>
    <path d="M183.77,341.47 L222.14,350.732 L265.803,348.747 L276.388,338.824 L183.77,341.47 z" fill="#8D8D8D"/>
    <path d="M382.237,335.516 L380.914,347.424 L399.438,350.732 L410.023,338.163 L382.237,335.516 z" fill="#8D8D8D"/>
    <path d="M-33.221,333.532 L-27.928,354.701 L-16.682,346.101 L9.119,334.855 L-33.221,333.532 z" fill="#8D8D8D"/>
    <path d="M103.06,313.023 L163.923,310.377 L153.338,317.654 L148.708,330.224 L134.153,318.316 L114.968,320.962 L103.06,313.023 z" fill="#8D8D8D"/>
    <path d="M-27.267,668.28 L-19.99,639.833 L-15.359,650.417 L-27.267,668.28 z" fill="#8D8D8D"/>
    <path d="M-40.498,513.475 L-33.882,539.938 L-31.898,515.46 L-40.498,513.475 z" fill="#8D8D8D"/>
    <path d="M-18.005,420.196 L-12.712,398.364 L-23.959,397.703 L-18.005,420.196 z" fill="#8D8D8D"/>
    <path d="M169.216,709.296 L180.462,717.896 L182.447,729.143 L194.355,719.219 L218.171,709.958 L205.601,703.342 L169.216,709.296 z" fill="#8D8D8D"/>
    <path d="M265.803,707.311 L283.665,718.558 L287.635,735.097 L292.927,708.635 L265.803,707.311 z" fill="#8D8D8D"/>
    <path d="M76.598,710.619 L87.183,720.543 L107.029,702.681 L76.598,710.619 z" fill="#8D8D8D"/>
    <path d="M-19.99,710.619 L-8.081,729.143 L7.134,705.988 L-19.99,710.619 z" fill="#8D8D8D"/>
    <path d="M-8.743,776.113 L-6.758,793.975 L2.503,772.144 L-8.743,776.113 z" fill="#8D8D8D"/>
  </g>
  <g id="Surfaces">
    <path d="M55.097,147.19 L57.521,287.615 L464.892,287.415 L878.871,291.54 L1292.345,296.672 L1618.554,299.115 L1935.658,301.629 L2305.867,303.452 L2531.453,306.085 L2557.497,192.049" fill-opacity="0" stroke="#000000" stroke-width="1"/>
    <path d="M2537.22,593.227 L2533.36,677.013 L2239.959,675.163 L1873.5,675.163 L1426.969,674.663 L1002.063,674.663 L565.468,674.663 L254.533,674.663 L6.149,675.941 L6.689,558.398" fill-opacity="0" stroke="#000000" stroke-width="1"/>
    <path d="M2417.052,303.452 L2271.52,417.72 L2157.988,417.72" fill-opacity="0" stroke="#000000" stroke-width="1"/>
    <path d="M2271.52,417.72 L2419.715,536.679 L2537.22,539.456" fill-opacity="0" stroke="#000000" stroke-width="1"/>
    <path d="M2419.715,536.679 L2243.466,674.663" fill-opacity="0" stroke="#000000" stroke-width="1"/>
  </g>
  <g id="Layer_3">
    <g id="Rail">
      <path d="M129.369,303.727 L128.924,295.115 L143.75,295.542 L143.75,304.452 L129.369,303.727 z" fill="#6D3F00"/>
      <path d="M163.444,303.727 L162.999,295.115 L177.825,295.542 L177.825,304.452 L163.444,303.727 z" fill="#6D3F00"/>
      <path d="M197.938,303.727 L197.493,295.115 L212.319,295.542 L212.319,304.452 L197.938,303.727 z" fill="#6D3F00"/>
      <path d="M233.34,303.727 L232.895,295.115 L247.721,295.542 L247.721,304.452 L233.34,303.727 z" fill="#6D3F00"/>
      <path d="M107.431,287.615 L107.431,296.115 L247.721,296.115 L247.721,287.881 L107.431,287.615 z" fill="#7A7A7A"/>
    </g>
    <g id="Rail">
      <path d="M-8.801,303.727 L-9.246,295.115 L5.581,295.542 L5.58,304.452 L-8.801,303.727 z" fill="#6D3F00"/>
      <path d="M25.274,303.727 L24.83,295.115 L39.656,295.542 L39.655,304.452 L25.274,303.727 z" fill="#6D3F00"/>
      <path d="M59.768,303.727 L59.324,295.115 L74.15,295.542 L74.149,304.452 L59.768,303.727 z" fill="#6D3F00"/>
      <path d="M95.17,303.727 L94.725,295.115 L109.552,295.542 L109.551,304.452 L95.17,303.727 z" fill="#6D3F00"/>
      <path d="M-30.738,287.615 L-30.738,296.115 L109.552,296.115 L109.552,287.881 L-30.738,287.615 z" fill="#7A7A7A"/>
    </g>
    <g id="Rail">
      <path d="M-147.091,303.727 L-147.536,295.115 L-132.709,295.542 L-132.71,304.452 L-147.091,303.727 z" fill="#6D3F00"/>
      <path d="M-113.016,303.727 L-113.46,295.115 L-98.634,295.542 L-98.635,304.452 L-113.016,303.727 z" fill="#6D3F00"/>
      <path d="M-78.522,303.727 L-78.966,295.115 L-64.14,295.542 L-64.141,304.452 L-78.522,303.727 z" fill="#6D3F00"/>
      <path d="M-43.12,303.727 L-43.565,295.115 L-28.738,295.542 L-28.739,304.452 L-43.12,303.727 z" fill="#6D3F00"/>
      <path d="M-169.028,287.615 L-169.028,296.115 L-28.738,296.115 L-28.738,287.881 L-169.028,287.615 z" fill="#7A7A7A"/>
    </g>
    <g id="Rail">
      <path d="M-150.091,690.775 L-150.536,682.163 L-135.709,682.59 L-135.71,691.5 L-150.091,690.775 z" fill="#6D3F00"/>
      <path d="M-116.016,690.775 L-116.46,682.163 L-101.634,682.59 L-101.634,691.5 L-116.016,690.775 z" fill="#6D3F00"/>
      <path d="M-81.522,690.775 L-81.966,682.163 L-67.14,682.59 L-67.14,691.5 L-81.522,690.775 z" fill="#6D3F00"/>
      <path d="M-46.12,690.775 L-46.565,682.163 L-31.738,682.59 L-31.739,691.5 L-46.12,690.775 z" fill="#6D3F00"/>
      <path d="M-172.028,674.663 L-172.028,683.163 L-31.738,683.163 L-31.738,674.929 L-172.028,674.663 z" fill="#7A7A7A"/>
    </g>
    <g id="Rail">
      <path d="M-11.921,690.775 L-12.366,682.163 L2.46,682.59 L2.46,691.5 L-11.921,690.775 z" fill="#6D3F00"/>
      <path d="M22.154,690.775 L21.709,682.163 L36.536,682.59 L36.535,691.5 L22.154,690.775 z" fill="#6D3F00"/>
      <path d="M56.648,690.775 L56.203,682.163 L71.03,682.59 L71.029,691.5 L56.648,690.775 z" fill="#6D3F00"/>
      <path d="M92.05,690.775 L91.605,682.163 L106.431,682.59 L106.431,691.5 L92.05,690.775 z" fill="#6D3F00"/>
      <path d="M-33.858,674.663 L-33.858,683.163 L106.431,683.163 L106.431,674.929 L-33.858,674.663 z" fill="#7A7A7A"/>
    </g>
    <g id="Rail">
      <path d="M127.369,691.275 L126.924,682.663 L141.75,683.09 L141.75,692 L127.369,691.275 z" fill="#6D3F00"/>
      <path d="M161.444,691.275 L160.999,682.663 L175.826,683.09 L175.825,692 L161.444,691.275 z" fill="#6D3F00"/>
      <path d="M195.938,691.275 L195.493,682.663 L210.32,683.09 L210.319,692 L195.938,691.275 z" fill="#6D3F00"/>
      <path d="M231.34,691.275 L230.895,682.663 L245.721,683.09 L245.721,692 L231.34,691.275 z" fill="#6D3F00"/>
      <path d="M105.431,675.163 L105.431,683.663 L245.721,683.663 L245.721,675.429 L105.431,675.163 z" fill="#7A7A7A"/>
    </g>
    <g id="Rail">
      <path d="M267.658,691.275 L267.214,682.663 L282.04,683.09 L282.039,692 L267.658,691.275 z" fill="#6D3F00"/>
      <path d="M301.734,691.275 L301.289,682.663 L316.115,683.09 L316.115,692 L301.734,691.275 z" fill="#6D3F00"/>
      <path d="M336.228,691.275 L335.783,682.663 L350.609,683.09 L350.609,692 L336.228,691.275 z" fill="#6D3F00"/>
      <path d="M371.629,691.275 L371.185,682.663 L386.011,683.09 L386.01,692 L371.629,691.275 z" fill="#6D3F00"/>
      <path d="M245.721,675.163 L245.721,683.663 L386.011,683.663 L386.011,675.429 L245.721,675.163 z" fill="#7A7A7A"/>
    </g>
    <g id="Rail">
      <path d="M407.767,691.275 L407.323,682.663 L422.149,683.09 L422.149,692 L407.767,691.275 z" fill="#6D3F00"/>
      <path d="M441.843,691.275 L441.398,682.663 L456.224,683.09 L456.224,692 L441.843,691.275 z" fill="#6D3F00"/>
      <path d="M476.337,691.275 L475.892,682.663 L490.718,683.09 L490.718,692 L476.337,691.275 z" fill="#6D3F00"/>
      <path d="M511.738,691.275 L511.294,682.663 L526.12,683.09 L526.12,692 L511.738,691.275 z" fill="#6D3F00"/>
      <path d="M385.83,675.163 L385.83,683.663 L526.12,683.663 L526.12,675.429 L385.83,675.163 z" fill="#7A7A7A"/>
    </g>
    <g id="Rail">
      <path d="M548.057,691.275 L547.613,682.663 L562.439,683.09 L562.438,692 L548.057,691.275 z" fill="#6D3F00"/>
      <path d="M582.133,691.275 L581.688,682.663 L596.514,683.09 L596.514,692 L582.133,691.275 z" fill="#6D3F00"/>
      <path d="M616.627,691.275 L616.182,682.663 L631.008,683.09 L631.008,692 L616.627,691.275 z" fill="#6D3F00"/>
      <path d="M652.028,691.275 L651.584,682.663 L666.41,683.09 L666.409,692 L652.028,691.275 z" fill="#6D3F00"/>
      <path d="M526.12,675.163 L526.12,683.663 L666.41,683.663 L666.41,675.429 L526.12,675.163 z" fill="#7A7A7A"/>
    </g>
    <g id="Rail">
      <path d="M688.347,691.275 L687.902,682.663 L702.729,683.09 L702.728,692 L688.347,691.275 z" fill="#6D3F00"/>
      <path d="M722.422,691.275 L721.978,682.663 L736.804,683.09 L736.803,692 L722.422,691.275 z" fill="#6D3F00"/>
      <path d="M756.916,691.275 L756.472,682.663 L771.298,683.09 L771.297,692 L756.916,691.275 z" fill="#6D3F00"/>
      <path d="M792.318,691.275 L791.873,682.663 L806.7,683.09 L806.699,692 L792.318,691.275 z" fill="#6D3F00"/>
      <path d="M666.41,675.163 L666.41,683.663 L806.7,683.663 L806.7,675.429 L666.41,675.163 z" fill="#7A7A7A"/>
    </g>
    <g id="Rail">
      <path d="M828.637,691.275 L828.192,682.663 L843.018,683.09 L843.018,692 L828.637,691.275 z" fill="#6D3F00"/>
      <path d="M862.712,691.275 L862.267,682.663 L877.094,683.09 L877.093,692 L862.712,691.275 z" fill="#6D3F00"/>
      <path d="M897.206,691.275 L896.761,682.663 L911.588,683.09 L911.587,692 L897.206,691.275 z" fill="#6D3F00"/>
      <path d="M932.608,691.275 L932.163,682.663 L946.99,683.09 L946.989,692 L932.608,691.275 z" fill="#6D3F00"/>
      <path d="M806.7,675.163 L806.7,683.663 L946.99,683.663 L946.99,675.429 L806.7,675.163 z" fill="#7A7A7A"/>
    </g>
    <g id="Rail">
      <path d="M968.927,691.275 L968.482,682.663 L983.308,683.09 L983.308,692 L968.927,691.275 z" fill="#6D3F00"/>
      <path d="M1003.002,691.275 L1002.557,682.663 L1017.384,683.09 L1017.383,692 L1003.002,691.275 z" fill="#6D3F00"/>
      <path d="M1037.496,691.275 L1037.051,682.663 L1051.878,683.09 L1051.877,692 L1037.496,691.275 z" fill="#6D3F00"/>
      <path d="M1072.898,691.275 L1072.453,682.663 L1087.279,683.09 L1087.279,692 L1072.898,691.275 z" fill="#6D3F00"/>
      <path d="M946.99,675.163 L946.99,683.663 L1087.279,683.663 L1087.279,675.429 L946.99,675.163 z" fill="#7A7A7A"/>
    </g>
    <g id="Rail">
      <path d="M1107.316,691.275 L1106.871,682.663 L1121.697,683.09 L1121.697,692 L1107.316,691.275 z" fill="#6D3F00"/>
      <path d="M1141.391,691.275 L1140.946,682.663 L1155.773,683.09 L1155.772,692 L1141.391,691.275 z" fill="#6D3F00"/>
      <path d="M1175.885,691.275 L1175.44,682.663 L1190.267,683.09 L1190.266,692 L1175.885,691.275 z" fill="#6D3F00"/>
      <path d="M1211.287,691.275 L1210.842,682.663 L1225.668,683.09 L1225.668,692 L1211.287,691.275 z" fill="#6D3F00"/>
      <path d="M1085.379,675.163 L1085.379,683.663 L1225.668,683.663 L1225.668,675.429 L1085.379,675.163 z" fill="#7A7A7A"/>
    </g>
    <g id="Rail">
      <path d="M1247.605,691.275 L1247.161,682.663 L1261.987,683.09 L1261.987,692 L1247.605,691.275 z" fill="#6D3F00"/>
      <path d="M1281.681,691.275 L1281.236,682.663 L1296.062,683.09 L1296.062,692 L1281.681,691.275 z" fill="#6D3F00"/>
      <path d="M1316.175,691.275 L1315.73,682.663 L1330.556,683.09 L1330.556,692 L1316.175,691.275 z" fill="#6D3F00"/>
      <path d="M1351.577,691.275 L1351.132,682.663 L1365.958,683.09 L1365.958,692 L1351.577,691.275 z" fill="#6D3F00"/>
      <path d="M1225.668,675.163 L1225.668,683.663 L1365.958,683.663 L1365.958,675.429 L1225.668,675.163 z" fill="#7A7A7A"/>
    </g>
    <g id="Rail">
      <path d="M1387.895,691.275 L1387.451,682.663 L1402.277,683.09 L1402.276,692 L1387.895,691.275 z" fill="#6D3F00"/>
      <path d="M1421.971,691.275 L1421.526,682.663 L1436.352,683.09 L1436.352,692 L1421.971,691.275 z" fill="#6D3F00"/>
      <path d="M1456.465,691.275 L1456.02,682.663 L1470.846,683.09 L1470.846,692 L1456.465,691.275 z" fill="#6D3F00"/>
      <path d="M1491.866,691.275 L1491.422,682.663 L1506.248,683.09 L1506.247,692 L1491.866,691.275 z" fill="#6D3F00"/>
      <path d="M1365.958,675.163 L1365.958,683.663 L1506.248,683.663 L1506.248,675.429 L1365.958,675.163 z" fill="#7A7A7A"/>
    </g>
    <g id="Rail">
      <path d="M1528.185,691.275 L1527.74,682.663 L1542.567,683.09 L1542.566,692 L1528.185,691.275 z" fill="#6D3F00"/>
      <path d="M1562.26,691.275 L1561.816,682.663 L1576.642,683.09 L1576.641,692 L1562.26,691.275 z" fill="#6D3F00"/>
      <path d="M1596.754,691.275 L1596.31,682.663 L1611.136,683.09 L1611.135,692 L1596.754,691.275 z" fill="#6D3F00"/>
      <path d="M1632.156,691.275 L1631.711,682.663 L1646.538,683.09 L1646.537,692 L1632.156,691.275 z" fill="#6D3F00"/>
      <path d="M1506.248,675.163 L1506.248,683.663 L1646.538,683.663 L1646.538,675.429 L1506.248,675.163 z" fill="#7A7A7A"/>
    </g>
    <g id="Rail">
      <path d="M1668.475,691.275 L1668.03,682.663 L1682.857,683.09 L1682.856,692 L1668.475,691.275 z" fill="#6D3F00"/>
      <path d="M1702.55,691.275 L1702.105,682.663 L1716.932,683.09 L1716.931,692 L1702.55,691.275 z" fill="#6D3F00"/>
      <path d="M1737.044,691.275 L1736.599,682.663 L1751.426,683.09 L1751.425,692 L1737.044,691.275 z" fill="#6D3F00"/>
      <path d="M1772.446,691.275 L1772.001,682.663 L1786.828,683.09 L1786.827,692 L1772.446,691.275 z" fill="#6D3F00"/>
      <path d="M1646.538,675.163 L1646.538,683.663 L1786.828,683.663 L1786.828,675.429 L1646.538,675.163 z" fill="#7A7A7A"/>
    </g>
    <g id="Rail">
      <path d="M1808.765,691.275 L1808.32,682.663 L1823.146,683.09 L1823.146,692 L1808.765,691.275 z" fill="#6D3F00"/>
      <path d="M1842.84,691.275 L1842.395,682.663 L1857.222,683.09 L1857.221,692 L1842.84,691.275 z" fill="#6D3F00"/>
      <path d="M1877.334,691.275 L1876.889,682.663 L1891.716,683.09 L1891.715,692 L1877.334,691.275 z" fill="#6D3F00"/>
      <path d="M1912.736,691.275 L1912.291,682.663 L1927.117,683.09 L1927.117,692 L1912.736,691.275 z" fill="#6D3F00"/>
      <path d="M1786.828,675.163 L1786.828,683.663 L1927.117,683.663 L1927.117,675.429 L1786.828,675.163 z" fill="#7A7A7A"/>
    </g>
    <g id="Rail">
      <path d="M1949.054,691.275 L1948.61,682.663 L1963.436,683.09 L1963.436,692 L1949.054,691.275 z" fill="#6D3F00"/>
      <path d="M1983.13,691.275 L1982.685,682.663 L1997.511,683.09 L1997.511,692 L1983.13,691.275 z" fill="#6D3F00"/>
      <path d="M2017.624,691.275 L2017.179,682.663 L2032.005,683.09 L2032.005,692 L2017.624,691.275 z" fill="#6D3F00"/>
      <path d="M2053.025,691.275 L2052.581,682.663 L2067.407,683.09 L2067.406,692 L2053.025,691.275 z" fill="#6D3F00"/>
      <path d="M1927.117,675.163 L1927.117,683.663 L2067.407,683.663 L2067.407,675.429 L1927.117,675.163 z" fill="#7A7A7A"/>
    </g>
    <g id="Rail">
      <path d="M2089.344,691.275 L2088.9,682.663 L2103.726,683.09 L2103.726,692 L2089.344,691.275 z" fill="#6D3F00"/>
      <path d="M2123.42,691.275 L2122.975,682.663 L2137.802,683.09 L2137.801,692 L2123.42,691.275 z" fill="#6D3F00"/>
      <path d="M2157.914,691.275 L2157.469,682.663 L2172.295,683.09 L2172.295,692 L2157.914,691.275 z" fill="#6D3F00"/>
      <path d="M2193.315,691.275 L2192.871,682.663 L2207.697,683.09 L2207.697,692 L2193.315,691.275 z" fill="#6D3F00"/>
      <path d="M2067.407,675.163 L2067.407,683.663 L2207.697,683.663 L2207.697,675.429 L2067.407,675.163 z" fill="#7A7A7A"/>
    </g>
    <g id="Rail">
      <path d="M2229.55,691.722 L2229.204,683.106 L2244.024,683.703 L2243.921,692.612 L2229.55,691.722 z" fill="#6D3F00"/>
      <path d="M2263.623,692.113 L2263.277,683.496 L2278.097,684.093 L2277.994,693.002 L2263.623,692.113 z" fill="#6D3F00"/>
      <path d="M2298.115,692.508 L2297.768,683.891 L2312.589,684.488 L2312.486,693.397 L2298.115,692.508 z" fill="#6D3F00"/>
      <path d="M2333.514,692.913 L2333.168,684.296 L2347.988,684.893 L2347.885,693.803 L2333.514,692.913 z" fill="#6D3F00"/>
      <path d="M2207.798,675.36 L2207.701,683.86 L2347.982,685.466 L2348.076,677.233 L2207.798,675.36 z" fill="#7A7A7A"/>
    </g>
    <g id="Rail">
      <path d="M2369.293,693.172 L2368.867,684.559 L2383.692,685.018 L2383.672,693.928 L2369.293,693.172 z" fill="#6D3F00"/>
      <path d="M2403.368,693.245 L2402.942,684.632 L2417.767,685.091 L2417.748,694.001 L2403.368,693.245 z" fill="#6D3F00"/>
      <path d="M2437.862,693.319 L2437.436,684.706 L2452.261,685.165 L2452.241,694.075 L2437.862,693.319 z" fill="#6D3F00"/>
      <path d="M2473.264,693.395 L2472.837,684.782 L2487.663,685.241 L2487.643,694.151 L2473.264,693.395 z" fill="#6D3F00"/>
      <path d="M2347.39,677.013 L2347.372,685.513 L2487.662,685.813 L2487.679,677.579 L2347.39,677.013 z" fill="#7A7A7A"/>
    </g>
    <g id="Rail">
      <path d="M2509.6,693.172 L2509.174,684.559 L2523.999,685.018 L2523.979,693.928 L2509.6,693.172 z" fill="#6D3F00"/>
      <path d="M2543.675,693.245 L2543.249,684.632 L2558.074,685.091 L2558.055,694.001 L2543.675,693.245 z" fill="#6D3F00"/>
      <path d="M2578.169,693.319 L2577.743,684.706 L2592.568,685.165 L2592.549,694.075 L2578.169,693.319 z" fill="#6D3F00"/>
      <path d="M2613.571,693.395 L2613.145,684.782 L2627.97,685.241 L2627.95,694.151 L2613.571,693.395 z" fill="#6D3F00"/>
      <path d="M2487.698,677.013 L2487.679,685.513 L2627.969,685.813 L2627.986,677.579 L2487.698,677.013 z" fill="#7A7A7A"/>
    </g>
    <g id="Rail">
      <path d="M2649.907,693.172 L2649.481,684.559 L2664.306,685.018 L2664.287,693.928 L2649.907,693.172 z" fill="#6D3F00"/>
      <path d="M2683.982,693.245 L2683.556,684.632 L2698.382,685.091 L2698.362,694.001 L2683.982,693.245 z" fill="#6D3F00"/>
      <path d="M2718.476,693.319 L2718.05,684.706 L2732.875,685.165 L2732.856,694.075 L2718.476,693.319 z" fill="#6D3F00"/>
      <path d="M2753.878,693.395 L2753.452,684.782 L2768.277,685.241 L2768.257,694.151 L2753.878,693.395 z" fill="#6D3F00"/>
      <path d="M2628.005,677.013 L2627.986,685.513 L2768.276,685.813 L2768.293,677.579 L2628.005,677.013 z" fill="#7A7A7A"/>
    </g>
    <g id="Rail">
      <path d="M2790.214,693.172 L2789.788,684.559 L2804.613,685.018 L2804.594,693.928 L2790.214,693.172 z" fill="#6D3F00"/>
      <path d="M2824.29,693.245 L2823.863,684.632 L2838.689,685.091 L2838.669,694.001 L2824.29,693.245 z" fill="#6D3F00"/>
      <path d="M2858.783,693.319 L2858.357,684.706 L2873.183,685.165 L2873.163,694.075 L2858.783,693.319 z" fill="#6D3F00"/>
      <path d="M2894.185,693.395 L2893.759,684.782 L2908.584,685.241 L2908.564,694.151 L2894.185,693.395 z" fill="#6D3F00"/>
      <path d="M2768.312,677.013 L2768.293,685.513 L2908.583,685.813 L2908.601,677.579 L2768.312,677.013 z" fill="#7A7A7A"/>
    </g>
    <g id="Rail">
      <path d="M267.658,303.727 L267.214,295.115 L282.04,295.542 L282.039,304.452 L267.658,303.727 z" fill="#6D3F00"/>
      <path d="M301.734,303.727 L301.289,295.115 L316.115,295.542 L316.115,304.452 L301.734,303.727 z" fill="#6D3F00"/>
      <path d="M336.228,303.727 L335.783,295.115 L350.609,295.542 L350.609,304.452 L336.228,303.727 z" fill="#6D3F00"/>
      <path d="M371.629,303.727 L371.185,295.115 L386.011,295.542 L386.01,304.452 L371.629,303.727 z" fill="#6D3F00"/>
      <path d="M245.721,287.615 L245.721,296.115 L386.011,296.115 L386.011,287.881 L245.721,287.615 z" fill="#7A7A7A"/>
    </g>
    <g id="Rail">
      <path d="M407.948,303.727 L407.503,295.115 L422.33,295.542 L422.329,304.452 L407.948,303.727 z" fill="#6D3F00"/>
      <path d="M442.023,303.727 L441.579,295.115 L456.405,295.542 L456.405,304.452 L442.023,303.727 z" fill="#6D3F00"/>
      <path d="M476.517,303.727 L476.073,295.115 L490.899,295.542 L490.899,304.452 L476.517,303.727 z" fill="#6D3F00"/>
      <path d="M511.919,303.727 L511.474,295.115 L526.301,295.542 L526.3,304.452 L511.919,303.727 z" fill="#6D3F00"/>
      <path d="M386.011,287.615 L386.011,296.115 L526.301,296.115 L526.301,287.881 L386.011,287.615 z" fill="#7A7A7A"/>
    </g>
    <g id="Rail">
      <path d="M546.099,304.136 L545.816,295.517 L560.632,296.223 L560.464,305.132 L546.099,304.136 z" fill="#6D3F00"/>
      <path d="M580.168,304.777 L579.885,296.158 L594.701,296.863 L594.533,305.772 L580.168,304.777 z" fill="#6D3F00"/>
      <path d="M614.656,305.425 L614.373,296.806 L629.189,297.511 L629.021,306.42 L614.656,305.425 z" fill="#6D3F00"/>
      <path d="M650.052,306.09 L649.769,297.471 L664.584,298.176 L664.416,307.085 L650.052,306.09 z" fill="#6D3F00"/>
      <path d="M524.468,287.615 L524.309,296.113 L664.574,298.749 L664.728,290.517 L524.468,287.615 z" fill="#7A7A7A"/>
    </g>
    <g id="Rail">
      <path d="M684.008,306.938 L683.725,298.319 L698.541,299.025 L698.373,307.933 L684.008,306.938 z" fill="#6D3F00"/>
      <path d="M718.077,307.578 L717.795,298.959 L732.61,299.665 L732.442,308.574 L718.077,307.578 z" fill="#6D3F00"/>
      <path d="M752.565,308.226 L752.282,299.607 L767.098,300.313 L766.93,309.222 L752.565,308.226 z" fill="#6D3F00"/>
      <path d="M787.961,308.892 L787.678,300.273 L802.494,300.978 L802.326,309.887 L787.961,308.892 z" fill="#6D3F00"/>
      <path d="M662.378,290.417 L662.218,298.915 L802.483,301.551 L802.638,293.318 L662.378,290.417 z" fill="#7A7A7A"/>
    </g>
    <g id="Rail">
      <path d="M821.702,309.46 L821.303,300.846 L836.127,301.351 L836.079,310.261 L821.702,309.46 z" fill="#6D3F00"/>
      <path d="M855.777,309.64 L855.378,301.025 L870.202,301.531 L870.154,310.44 L855.777,309.64 z" fill="#6D3F00"/>
      <path d="M890.271,309.821 L889.871,301.207 L904.695,301.712 L904.648,310.622 L890.271,309.821 z" fill="#6D3F00"/>
      <path d="M925.672,310.008 L925.273,301.393 L940.097,301.899 L940.049,310.809 L925.672,310.008 z" fill="#6D3F00"/>
      <path d="M799.85,293.233 L799.806,301.733 L940.094,302.472 L940.137,294.238 L799.85,293.233 z" fill="#7A7A7A"/>
    </g>
    <g id="Rail">
      <path d="M960.034,310.342 L959.635,301.728 L974.459,302.233 L974.411,311.143 L960.034,310.342 z" fill="#6D3F00"/>
      <path d="M994.109,310.522 L993.709,301.908 L1008.533,302.413 L1008.486,311.323 L994.109,310.522 z" fill="#6D3F00"/>
      <path d="M1028.602,310.704 L1028.203,302.089 L1043.027,302.595 L1042.979,311.504 L1028.602,310.704 z" fill="#6D3F00"/>
      <path d="M1064.004,310.89 L1063.604,302.276 L1078.428,302.781 L1078.381,311.691 L1064.004,310.89 z" fill="#6D3F00"/>
      <path d="M938.182,294.115 L938.137,302.615 L1078.425,303.354 L1078.469,295.12 L938.182,294.115 z" fill="#7A7A7A"/>
    </g>
    <g id="Rail">
      <path d="M1099.566,311.342 L1099.167,302.728 L1113.991,303.233 L1113.943,312.143 L1099.566,311.342 z" fill="#6D3F00"/>
      <path d="M1133.641,311.522 L1133.242,302.908 L1148.066,303.413 L1148.018,312.323 L1133.641,311.522 z" fill="#6D3F00"/>
      <path d="M1168.134,311.704 L1167.735,303.089 L1182.559,303.595 L1182.511,312.504 L1168.134,311.704 z" fill="#6D3F00"/>
      <path d="M1203.536,311.89 L1203.136,303.276 L1217.96,303.781 L1217.913,312.691 L1203.536,311.89 z" fill="#6D3F00"/>
      <path d="M1077.714,295.115 L1077.669,303.615 L1217.957,304.354 L1218.001,296.12 L1077.714,295.115 z" fill="#7A7A7A"/>
    </g>
    <g id="Rail">
      <path d="M1238.098,312.342 L1237.699,303.728 L1252.523,304.233 L1252.475,313.143 L1238.098,312.342 z" fill="#6D3F00"/>
      <path d="M1272.173,312.522 L1271.774,303.908 L1286.598,304.413 L1286.55,313.323 L1272.173,312.522 z" fill="#6D3F00"/>
      <path d="M1306.666,312.704 L1306.267,304.089 L1321.091,304.595 L1321.043,313.504 L1306.666,312.704 z" fill="#6D3F00"/>
      <path d="M1342.068,312.89 L1341.668,304.276 L1356.492,304.781 L1356.445,313.691 L1342.068,312.89 z" fill="#6D3F00"/>
      <path d="M1216.246,296.115 L1216.201,304.615 L1356.489,305.354 L1356.533,297.12 L1216.246,296.115 z" fill="#7A7A7A"/>
    </g>
    <g id="Rail">
      <path d="M1377.429,312.899 L1377.03,304.285 L1391.854,304.79 L1391.806,313.7 L1377.429,312.899 z" fill="#6D3F00"/>
      <path d="M1411.504,313.078 L1411.105,304.464 L1425.929,304.969 L1425.881,313.879 L1411.504,313.078 z" fill="#6D3F00"/>
      <path d="M1445.998,313.26 L1445.598,304.646 L1460.422,305.151 L1460.375,314.061 L1445.998,313.26 z" fill="#6D3F00"/>
      <path d="M1481.399,313.447 L1481,304.832 L1495.823,305.338 L1495.776,314.247 L1481.399,313.447 z" fill="#6D3F00"/>
      <path d="M1355.577,296.672 L1355.533,305.171 L1495.821,305.91 L1495.864,297.676 L1355.577,296.672 z" fill="#7A7A7A"/>
    </g>
    <g id="Rail">
      <path d="M1516.761,314.223 L1516.361,305.609 L1531.185,306.114 L1531.138,315.024 L1516.761,314.223 z" fill="#6D3F00"/>
      <path d="M1550.835,314.403 L1550.436,305.789 L1565.26,306.294 L1565.213,315.204 L1550.835,314.403 z" fill="#6D3F00"/>
      <path d="M1585.329,314.585 L1584.93,305.97 L1599.754,306.476 L1599.706,315.386 L1585.329,314.585 z" fill="#6D3F00"/>
      <path d="M1620.73,314.771 L1620.331,306.157 L1635.155,306.662 L1635.107,315.572 L1620.73,314.771 z" fill="#6D3F00"/>
      <path d="M1494.909,297.996 L1494.864,306.496 L1635.152,307.235 L1635.195,299.001 L1494.909,297.996 z" fill="#7A7A7A"/>
    </g>
    <g id="Rail">
      <path d="M1657.092,315.342 L1656.693,306.728 L1671.516,307.233 L1671.469,316.143 L1657.092,315.342 z" fill="#6D3F00"/>
      <path d="M1691.167,315.522 L1690.767,306.908 L1705.591,307.413 L1705.544,316.323 L1691.167,315.522 z" fill="#6D3F00"/>
      <path d="M1725.66,315.704 L1725.261,307.089 L1740.085,307.595 L1740.037,316.504 L1725.66,315.704 z" fill="#6D3F00"/>
      <path d="M1761.062,315.89 L1760.662,307.276 L1775.486,307.781 L1775.439,316.691 L1761.062,315.89 z" fill="#6D3F00"/>
      <path d="M1635.24,299.115 L1635.195,307.615 L1775.483,308.354 L1775.526,300.12 L1635.24,299.115 z" fill="#7A7A7A"/>
    </g>
    <g id="Rail">
      <path d="M1796.423,316.856 L1796.024,308.242 L1810.848,308.747 L1810.8,317.657 L1796.423,316.856 z" fill="#6D3F00"/>
      <path d="M1830.498,317.036 L1830.099,308.421 L1844.923,308.927 L1844.875,317.836 L1830.498,317.036 z" fill="#6D3F00"/>
      <path d="M1864.992,317.217 L1864.592,308.603 L1879.416,309.108 L1879.369,318.018 L1864.992,317.217 z" fill="#6D3F00"/>
      <path d="M1900.393,317.404 L1899.994,308.79 L1914.817,309.295 L1914.77,318.205 L1900.393,317.404 z" fill="#6D3F00"/>
      <path d="M1774.571,300.629 L1774.526,309.129 L1914.814,309.868 L1914.858,301.634 L1774.571,300.629 z" fill="#7A7A7A"/>
    </g>
    <g id="Rail">
      <path d="M1935.553,317.856 L1935.153,309.242 L1949.977,309.747 L1949.93,318.657 L1935.553,317.856 z" fill="#6D3F00"/>
      <path d="M1969.627,318.036 L1969.228,309.421 L1984.052,309.927 L1984.005,318.836 L1969.627,318.036 z" fill="#6D3F00"/>
      <path d="M2004.121,318.217 L2003.722,309.603 L2018.546,310.108 L2018.498,319.018 L2004.121,318.217 z" fill="#6D3F00"/>
      <path d="M2039.522,318.404 L2039.123,309.79 L2053.947,310.295 L2053.899,319.205 L2039.522,318.404 z" fill="#6D3F00"/>
      <path d="M1913.701,301.629 L1913.656,310.129 L2053.944,310.868 L2053.987,302.634 L1913.701,301.629 z" fill="#7A7A7A"/>
    </g>
    <g id="Rail">
      <path d="M2075.884,318.856 L2075.484,310.242 L2090.308,310.747 L2090.26,319.657 L2075.884,318.856 z" fill="#6D3F00"/>
      <path d="M2109.958,319.036 L2109.559,310.421 L2124.383,310.927 L2124.335,319.836 L2109.958,319.036 z" fill="#6D3F00"/>
      <path d="M2144.452,319.217 L2144.052,310.603 L2158.876,311.108 L2158.829,320.018 L2144.452,319.217 z" fill="#6D3F00"/>
      <path d="M2179.853,319.404 L2179.454,310.79 L2194.278,311.295 L2194.23,320.205 L2179.853,319.404 z" fill="#6D3F00"/>
      <path d="M2054.031,302.629 L2053.987,311.129 L2194.275,311.868 L2194.318,303.634 L2054.031,302.629 z" fill="#7A7A7A"/>
    </g>
    <g id="Rail">
      <path d="M2216.215,319.68 L2215.815,311.065 L2230.639,311.571 L2230.592,320.48 L2216.215,319.68 z" fill="#6D3F00"/>
      <path d="M2250.289,319.859 L2249.89,311.245 L2264.714,311.75 L2264.667,320.66 L2250.289,319.859 z" fill="#6D3F00"/>
      <path d="M2284.783,320.041 L2284.384,311.426 L2299.208,311.932 L2299.16,320.842 L2284.783,320.041 z" fill="#6D3F00"/>
      <path d="M2320.184,320.227 L2319.785,311.613 L2334.609,312.118 L2334.561,321.028 L2320.184,320.227 z" fill="#6D3F00"/>
      <path d="M2194.363,303.452 L2194.318,311.952 L2334.606,312.691 L2334.649,304.457 L2194.363,303.452 z" fill="#7A7A7A"/>
    </g>
    <g id="Rail">
      <path d="M2356.179,320.68 L2355.78,312.065 L2370.604,312.571 L2370.556,321.48 L2356.179,320.68 z" fill="#6D3F00"/>
      <path d="M2390.254,320.859 L2389.854,312.245 L2404.678,312.75 L2404.631,321.66 L2390.254,320.859 z" fill="#6D3F00"/>
      <path d="M2424.747,321.041 L2424.348,312.426 L2439.172,312.932 L2439.124,321.842 L2424.747,321.041 z" fill="#6D3F00"/>
      <path d="M2460.148,321.227 L2459.749,312.613 L2474.573,313.118 L2474.525,322.028 L2460.148,321.227 z" fill="#6D3F00"/>
      <path d="M2334.327,304.452 L2334.282,312.952 L2474.57,313.691 L2474.613,305.457 L2334.327,304.452 z" fill="#7A7A7A"/>
    </g>
    <g id="Rail">
      <path d="M2495.866,322.312 L2495.466,313.698 L2510.29,314.203 L2510.243,323.113 L2495.866,322.312 z" fill="#6D3F00"/>
      <path d="M2529.94,322.492 L2529.541,313.878 L2544.365,314.383 L2544.318,323.293 L2529.94,322.492 z" fill="#6D3F00"/>
      <path d="M2564.434,322.674 L2564.035,314.059 L2578.859,314.564 L2578.811,323.474 L2564.434,322.674 z" fill="#6D3F00"/>
      <path d="M2599.835,322.86 L2599.436,314.246 L2614.26,314.751 L2614.212,323.661 L2599.835,322.86 z" fill="#6D3F00"/>
      <path d="M2474.014,306.085 L2473.969,314.585 L2614.257,315.324 L2614.3,307.09 L2474.014,306.085 z" fill="#7A7A7A"/>
    </g>
    <g id="Rail">
      <path d="M2635.86,323.312 L2635.461,314.698 L2650.285,315.203 L2650.237,324.113 L2635.86,323.312 z" fill="#6D3F00"/>
      <path d="M2669.935,323.492 L2669.536,314.878 L2684.359,315.383 L2684.312,324.293 L2669.935,323.492 z" fill="#6D3F00"/>
      <path d="M2704.428,323.674 L2704.029,315.059 L2718.853,315.564 L2718.805,324.474 L2704.428,323.674 z" fill="#6D3F00"/>
      <path d="M2739.83,323.86 L2739.43,315.246 L2754.254,315.751 L2754.207,324.661 L2739.83,323.86 z" fill="#6D3F00"/>
      <path d="M2614.008,307.085 L2613.963,315.585 L2754.251,316.324 L2754.294,308.09 L2614.008,307.085 z" fill="#7A7A7A"/>
    </g>
    <g id="Rail">
      <path d="M2775.191,324.312 L2774.792,315.698 L2789.616,316.203 L2789.568,325.113 L2775.191,324.312 z" fill="#6D3F00"/>
      <path d="M2809.266,324.492 L2808.867,315.878 L2823.69,316.383 L2823.643,325.293 L2809.266,324.492 z" fill="#6D3F00"/>
      <path d="M2843.76,324.674 L2843.36,316.059 L2858.184,316.564 L2858.136,325.474 L2843.76,324.674 z" fill="#6D3F00"/>
      <path d="M2879.161,324.86 L2878.761,316.246 L2893.585,316.751 L2893.538,325.661 L2879.161,324.86 z" fill="#6D3F00"/>
      <path d="M2753.339,308.085 L2753.294,316.585 L2893.582,317.324 L2893.625,309.09 L2753.339,308.085 z" fill="#7A7A7A"/>
    </g>
    <g id="Train">
      <path d="M36.625,254.89 L36.625,123.457 L-176.663,123.715 L-181.505,254.526 L36.625,254.89 z" fill="#D73400"/>
      <path d="M36.625,250.416 L51.893,250.416 L57.521,261.088 L57.521,231.408 L52.903,241.499 L36.625,241.499 L36.625,250.416 z" fill="#463000"/>
      <path d="M-70.537,254.526 L-67.712,277.861 L15.817,278.264 L21.063,254.526 L-70.537,254.526 z" fill="#414141"/>
      <path d="M-6.545,287.615 C-8.829,287.615 -11.005,287.152 -12.984,286.315 C-14.964,285.478 -16.746,284.266 -18.243,282.769 C-19.74,281.272 -20.952,279.49 -21.789,277.51 C-22.626,275.531 -23.089,273.355 -23.089,271.071 C-23.089,268.786 -22.626,266.61 -21.789,264.631 C-20.952,262.651 -19.74,260.869 -18.243,259.372 C-16.746,257.875 -14.964,256.664 -12.984,255.826 C-11.005,254.989 -8.829,254.526 -6.545,254.526 C-4.26,254.526 -2.084,254.989 -0.105,255.826 C1.875,256.664 3.657,257.875 5.154,259.372 C6.651,260.869 7.863,262.651 8.7,264.631 C9.537,266.61 10,268.786 10,271.071 C10,273.355 9.537,275.531 8.7,277.51 C7.863,279.49 6.651,281.272 5.154,282.769 C3.657,284.266 1.875,285.478 -0.105,286.315 C-2.084,287.152 -4.26,287.615 -6.545,287.615 z" fill="#7A7A7A"/>
      <path d="M-42.458,287.615 C-44.742,287.615 -46.918,287.152 -48.898,286.315 C-50.877,285.478 -52.66,284.266 -54.157,282.769 C-55.654,281.272 -56.865,279.49 -57.702,277.51 C-58.539,275.531 -59.002,273.355 -59.002,271.071 C-59.002,268.786 -58.539,266.61 -57.702,264.631 C-56.865,262.651 -55.654,260.869 -54.157,259.372 C-52.66,257.875 -50.877,256.664 -48.898,255.826 C-46.918,254.989 -44.742,254.526 -42.458,254.526 C-40.174,254.526 -37.997,254.989 -36.018,255.826 C-34.039,256.664 -32.256,257.875 -30.759,259.372 C-29.262,260.869 -28.051,262.651 -27.214,264.631 C-26.377,266.61 -25.914,268.786 -25.914,271.071 C-25.914,273.355 -26.377,275.531 -27.214,277.51 C-28.051,279.49 -29.262,281.272 -30.759,282.769 C-32.256,284.266 -34.039,285.478 -36.018,286.315 C-37.997,287.152 -40.174,287.615 -42.458,287.615 z" fill="#7A7A7A"/>
      <path d="M30.344,129.365 L30.747,249.211 L-25.914,249.614 L-25.914,128.961 L30.344,129.365 z" fill="#F4AD35"/>
      <path d="M-31.142,129.365 L-30.738,249.211 L-87.399,249.614 L-87.399,128.961 L-31.142,129.365 z" fill="#F4AD35"/>
      <path d="M-92.881,129.365 L-92.477,249.211 L-149.138,249.614 L-149.138,128.961 L-92.881,129.365 z" fill="#F4AD35"/>
    </g>
    <path d="M2408.285,312.691 L2271.677,417.72 L2157.988,417.72 L2157.988,433.117 L2276.38,433.117 L2432.248,312.691 L2408.285,312.691 z" fill="#999999"/>
    <path d="M2157.988,417.72 L2271.677,417.72 L2419.715,536.679 L2406.667,548.059 L2266.605,433.117 L2157.988,433.117 L2157.988,417.72 z" fill="#7E7E7E"/>
    <path d="M2537.22,537.581 L2419.715,536.679 L2239.959,677.013 L2263.338,677.013 L2424.215,554.155 L2537.22,555.025 L2537.22,537.581 z" fill="#999999"/>
    <g id="Train">
      <path d="M2562.661,275.36 L2562.661,143.927 L2775.949,144.185 L2780.791,274.996 L2562.661,275.36 z" fill="#D73400"/>
      <path d="M2562.661,270.886 L2547.393,270.886 L2541.765,281.558 L2541.765,251.878 L2546.383,261.969 L2562.661,261.969 L2562.661,270.886 z" fill="#463000"/>
      <path d="M2669.823,274.996 L2666.998,298.33 L2583.469,298.734 L2578.223,274.996 L2669.823,274.996 z" fill="#414141"/>
      <path d="M2605.831,308.085 C2608.115,308.085 2610.291,307.622 2612.271,306.785 C2614.25,305.948 2616.032,304.736 2617.529,303.239 C2619.026,301.742 2620.238,299.96 2621.075,297.98 C2621.912,296.001 2622.375,293.825 2622.375,291.54 C2622.375,289.256 2621.912,287.08 2621.075,285.101 C2620.238,283.121 2619.026,281.339 2617.529,279.842 C2616.032,278.345 2614.25,277.133 2612.271,276.296 C2610.291,275.459 2608.115,274.996 2605.831,274.996 C2603.546,274.996 2601.37,275.459 2599.391,276.296 C2597.411,277.133 2595.629,278.345 2594.132,279.842 C2592.635,281.339 2591.424,283.121 2590.586,285.101 C2589.749,287.08 2589.286,289.256 2589.286,291.54 C2589.286,293.825 2589.749,296.001 2590.586,297.98 C2591.424,299.96 2592.635,301.742 2594.132,303.239 C2595.629,304.736 2597.411,305.948 2599.391,306.785 C2601.37,307.622 2603.546,308.085 2605.831,308.085 z" fill="#7A7A7A"/>
      <path d="M2641.744,308.085 C2644.028,308.085 2646.205,307.622 2648.184,306.785 C2650.163,305.948 2651.946,304.736 2653.443,303.239 C2654.94,301.742 2656.151,299.96 2656.988,297.98 C2657.825,296.001 2658.288,293.825 2658.288,291.54 C2658.288,289.256 2657.825,287.08 2656.988,285.101 C2656.151,283.121 2654.94,281.339 2653.443,279.842 C2651.946,278.345 2650.163,277.133 2648.184,276.296 C2646.205,275.459 2644.028,274.996 2641.744,274.996 C2639.46,274.996 2637.283,275.459 2635.304,276.296 C2633.325,277.133 2631.542,278.345 2630.045,279.842 C2628.548,281.339 2627.337,283.121 2626.5,285.101 C2625.663,287.08 2625.2,289.256 2625.2,291.54 C2625.2,293.825 2625.663,296.001 2626.5,297.98 C2627.337,299.96 2628.548,301.742 2630.045,303.239 C2631.542,304.736 2633.325,305.948 2635.304,306.785 C2637.283,307.622 2639.46,308.085 2641.744,308.085 z" fill="#7A7A7A"/>
      <path d="M2568.942,149.834 L2568.539,269.68 L2625.2,270.084 L2625.2,149.431 L2568.942,149.834 z" fill="#F4AD35"/>
      <path d="M2630.428,149.834 L2630.024,269.68 L2686.685,270.084 L2686.685,149.431 L2630.428,149.834 z" fill="#F4AD35"/>
      <path d="M2692.167,149.834 L2691.763,269.68 L2748.424,270.084 L2748.424,149.431 L2692.167,149.834 z" fill="#F4AD35"/>
    </g>
    <g id="Train">
      <path d="M2558.116,644.443 L2558.116,513.01 L2771.404,513.269 L2776.246,644.08 L2558.116,644.443 z" fill="#D73400"/>
      <path d="M2558.116,639.97 L2542.848,639.97 L2537.22,650.642 L2537.22,620.961 L2541.837,631.052 L2558.116,631.052 L2558.116,639.97 z" fill="#463000"/>
      <path d="M2665.278,644.08 L2662.453,667.414 L2578.924,667.818 L2573.678,644.08 L2665.278,644.08 z" fill="#414141"/>
      <path d="M2601.285,677.168 C2603.57,677.168 2605.746,676.706 2607.725,675.868 C2609.705,675.031 2611.487,673.82 2612.984,672.323 C2614.481,670.826 2615.692,669.043 2616.53,667.064 C2617.367,665.085 2617.83,662.908 2617.83,660.624 C2617.83,658.34 2617.367,656.164 2616.53,654.184 C2615.692,652.205 2614.481,650.422 2612.984,648.925 C2611.487,647.428 2609.705,646.217 2607.725,645.38 C2605.746,644.543 2603.57,644.08 2601.285,644.08 C2599.001,644.08 2596.825,644.543 2594.846,645.38 C2592.866,646.217 2591.084,647.428 2589.587,648.925 C2588.09,650.422 2586.878,652.205 2586.041,654.184 C2585.204,656.164 2584.741,658.34 2584.741,660.624 C2584.741,662.908 2585.204,665.085 2586.041,667.064 C2586.878,669.043 2588.09,670.826 2589.587,672.323 C2591.084,673.82 2592.866,675.031 2594.846,675.868 C2596.825,676.706 2599.001,677.168 2601.285,677.168 z" fill="#7A7A7A"/>
      <path d="M2637.199,677.168 C2639.483,677.168 2641.659,676.706 2643.639,675.868 C2645.618,675.031 2647.401,673.82 2648.897,672.323 C2650.395,670.826 2651.606,669.043 2652.443,667.064 C2653.28,665.085 2653.743,662.908 2653.743,660.624 C2653.743,658.34 2653.28,656.164 2652.443,654.184 C2651.606,652.205 2650.395,650.422 2648.897,648.925 C2647.401,647.428 2645.618,646.217 2643.639,645.38 C2641.659,644.543 2639.483,644.08 2637.199,644.08 C2634.915,644.08 2632.738,644.543 2630.759,645.38 C2628.78,646.217 2626.997,647.428 2625.5,648.925 C2624.003,650.422 2622.792,652.205 2621.955,654.184 C2621.117,656.164 2620.655,658.34 2620.655,660.624 C2620.655,662.908 2621.117,665.085 2621.955,667.064 C2622.792,669.043 2624.003,670.826 2625.5,672.323 C2626.997,673.82 2628.78,675.031 2630.759,675.868 C2632.738,676.706 2634.915,677.168 2637.199,677.168 z" fill="#7A7A7A"/>
      <path d="M2564.397,518.918 L2563.994,638.764 L2620.655,639.168 L2620.655,518.515 L2564.397,518.918 z" fill="#F4AD35"/>
      <path d="M2625.883,518.918 L2625.479,638.764 L2682.14,639.168 L2682.14,518.515 L2625.883,518.918 z" fill="#F4AD35"/>
      <path d="M2687.622,518.918 L2687.218,638.764 L2743.879,639.168 L2743.879,518.515 L2687.622,518.918 z" fill="#F4AD35"/>
    </g>
    <path d="M122.853,279.178 L121.507,226.346 L154.484,226.346 L153.138,279.178 L122.853,279.178 z" fill="#484848" id="Pivot_l0_t0"/>
    <path d="M97.293,669.787 L95.947,616.955 L128.924,616.955 L127.578,669.787 L97.293,669.787 z" fill="#484848" id="Pivot_e"/>
    <path d="M542.298,283.632 L540.952,230.8 L573.928,230.8 L572.582,283.632 L542.298,283.632 z" fill="#484848" id="Pivot_l3_t3_s1_c1"/>
    <path d="M194.767,665.135 L193.421,612.303 L226.397,612.303 L225.051,665.135 L194.767,665.135 z" fill="#484848" id="Pivot_l3_t3_s1_c1"/>
    <path d="M696.817,283.632 L695.471,230.8 L728.447,230.8 L727.101,283.632 L696.817,283.632 z" fill="#484848" id="Pivot_l3_t3_s1_c1"/>
    <path d="M831.93,289.2 L830.584,236.368 L863.56,236.368 L862.214,289.2 L831.93,289.2 z" fill="#484848" id="Pivot_l3_t3_s1_c1"/>
    <path d="M974.813,289.2 L973.467,236.368 L1006.443,236.368 L1005.097,289.2 L974.813,289.2 z" fill="#484848" id="Pivot_l3_t3_s1_c1"/>
    <path d="M1114.691,291.427 L1113.345,238.595 L1146.321,238.595 L1144.975,291.427 L1114.691,291.427 z" fill="#484848" id="Pivot_l3_t3_s1_c1"/>
    <path d="M1234.858,291.427 L1233.512,238.595 L1266.488,238.595 L1265.142,291.427 L1234.858,291.427 z" fill="#484848" id="Pivot_l3_t3_s1_c1"/>
    <path d="M1603.198,294.115 L1601.853,241.283 L1634.828,241.283 L1633.483,294.115 L1603.198,294.115 z" fill="#484848" id="Pivot_l3_t0_s1_c4"/>
    <path d="M1861.531,296.115 L1860.185,243.283 L1893.161,243.283 L1891.815,296.115 L1861.531,296.115 z" fill="#484848" id="Pivot_l3_t3_s1_c4"/>
    <path d="M2339.902,300.629 L2338.556,247.797 L2371.532,247.797 L2370.186,300.629 L2339.902,300.629 z" fill="#484848" id="Pivot_l3_t3_s1_c3"/>
    <path d="M2448.211,533.786 L2446.866,480.954 L2479.842,480.954 L2478.495,533.786 L2448.211,533.786 z" fill="#484848" id="Pivot_l3_t3_s1_c1"/>
    <path d="M2101.208,669.411 L2099.862,616.579 L2132.838,616.579 L2131.491,669.411 L2101.208,669.411 z" fill="#484848" id="Pivot_l3_t3_s1_c2"/>
    <path d="M1982.545,669.411 L1981.199,616.579 L2014.175,616.579 L2012.829,669.411 L1982.545,669.411 z" fill="#484848" id="Pivot_l3_t3_s1_c1"/>
    <path d="M1847.577,669.411 L1846.231,616.579 L1879.207,616.579 L1877.861,669.411 L1847.577,669.411 z" fill="#484848" id="Pivot_l3_t3_s1_c1"/>
    <path d="M1737.843,669.787 L1736.497,616.955 L1769.473,616.955 L1768.127,669.787 L1737.843,669.787 z" fill="#484848" id="Pivot_l3_t3_s1_c1"/>
    <path d="M1384.213,670.741 L1382.868,617.909 L1415.843,617.909 L1414.498,670.741 L1384.213,670.741 z" fill="#484848" id="Pivot_l3_t3_s1_c3"/>
    <path d="M1563.67,669.719 L1562.324,616.887 L1595.3,616.887 L1593.954,669.719 L1563.67,669.719 z" fill="#484848" id="Pivot_l3_t0_s1_c2"/>
    <path d="M646.826,669.719 L645.48,616.887 L678.456,616.887 L677.11,669.719 L646.826,669.719 z" fill="#484848" id="Pivot_l3_t3_s1_c2"/>
    <path d="M915.45,670.741 L914.104,617.909 L947.08,617.909 L945.734,670.741 L915.45,670.741 z" fill="#484848" id="Pivot_l3_t2_s1_c2"/>
    <g id="EndSign">
      <path d="M163.578,655.198 L165.974,674.771 L162.62,675.938 L159.027,655.198 L163.578,655.198 z" fill="#000000"/>
      <path d="M173.162,637.228 L176.757,664.724 L144.649,664.49 L141.297,635.831 L173.162,637.228 z" fill="#FFFFFF"/>
      <path d="M171.288,639.122 L174.361,662.627 L146.915,662.427 L144.048,637.927 L171.288,639.122 z" fill="#000000"/>
      <path d="M166.693,650.51 L158.787,649.811 L157.828,645.382 L152.077,652.375 L158.068,655.403 L158.306,652.84 L167.652,653.073 L166.693,650.51 z" fill="#FFFFFF"/>
    </g>
    <path d="M2279.91,423.725 L2421.897,312.815 L2429.398,312.815 L2284.732,426.404 L2279.91,423.725 z" fill="#757575"/>
    <path d="M2159.356,428.012 L2268.123,428.548 L2409.573,542.673 L2406.667,548.059 L2266.605,433.117 L2157.988,433.117 L2159.356,428.012 z" fill="#626262"/>
    <path d="M2257.407,675.015 L2421.361,547.495 L2537.094,548.566 L2537.094,552.853 L2424.215,554.155 L2264.908,673.943 L2257.407,675.015 z" fill="#757575"/>
    <g id="Lamp">
      <path d="M158.098,163.96 L161.239,155.48 L160.297,143.23 L152.13,129.724 L163.752,141.031 L165.95,155.165 L163.437,162.39 L158.098,163.96 z" fill="#757575"/>
      <path d="M105.958,287.713 L107.843,262.585 L105.016,221.439 L104.388,190.03 L109.413,158.306 L116.324,139.775 L119.779,132.551 L134.227,123.128 L119.779,128.782 L112.869,135.063 L106.901,155.165 L101.875,176.21 L100.619,198.824 L101.247,228.663 L103.132,255.047 L99.991,288.969 L105.958,287.713 z" fill="#757575"/>
      <path d="M104.114,287.224 L105.313,248.406 L102.68,200.773 L104.81,167.949 L116.941,132.298 L133.75,121.579 L153.228,125.21 L166.01,140.373 L170.368,154.04 L182.871,162.235 L156.141,165.672 L162.667,155.547 L162.1,141.667 L152.219,129.325 L134.679,127.579 L122.787,132.882 L110.578,169.24 L108.488,197 L112.246,244.166 L111.696,286.746 z" fill="#CECECE"/>
      <path d="M169.405,155.48 L171.604,161.447 L178.2,161.447 L169.405,155.48 z" fill="#757575"/>
    </g>
    <g id="Lamp">
      <path d="M91.384,552.834 L94.525,544.354 L93.583,532.104 L85.416,518.598 L97.038,529.905 L99.236,544.039 L96.723,551.264 L91.384,552.834 z" fill="#757575"/>
      <path d="M39.244,676.587 L41.129,651.459 L38.302,610.313 L37.674,578.904 L42.699,547.18 L49.61,528.649 L53.065,521.425 L67.513,512.002 L53.065,517.656 L46.155,523.937 L40.187,544.039 L35.161,565.084 L33.905,587.698 L34.533,617.537 L36.418,643.921 L33.277,677.843 L39.244,676.587 z" fill="#757575"/>
      <path d="M37.4,676.098 L38.599,637.28 L35.966,589.647 L38.096,556.823 L50.227,521.172 L67.036,510.453 L86.514,514.084 L99.296,529.247 L103.654,542.914 L116.157,551.109 L89.427,554.546 L95.953,544.421 L95.386,530.541 L85.505,518.199 L67.965,516.453 L56.073,521.756 L43.864,558.114 L41.774,585.874 L45.532,633.04 L44.982,675.62 z" fill="#CECECE"/>
      <path d="M102.691,544.354 L104.89,550.321 L111.486,550.321 L102.691,544.354 z" fill="#757575"/>
    </g>
    <g id="Lamp">
      <path d="M284.504,553.712 L287.645,545.232 L286.703,532.982 L278.536,519.476 L290.158,530.783 L292.356,544.917 L289.843,552.142 L284.504,553.712 z" fill="#757575"/>
      <path d="M232.364,677.465 L234.249,652.337 L231.422,611.191 L230.794,579.782 L235.819,548.058 L242.73,529.527 L246.185,522.303 L260.633,512.88 L246.185,518.534 L239.275,524.815 L233.307,544.917 L228.281,565.962 L227.025,588.576 L227.653,618.415 L229.538,644.799 L226.397,678.721 L232.364,677.465 z" fill="#757575"/>
      <path d="M230.52,676.976 L231.719,638.158 L229.086,590.525 L231.216,557.701 L243.347,522.05 L260.156,511.331 L279.634,514.962 L292.416,530.125 L296.774,543.792 L309.277,551.987 L282.547,555.424 L289.073,545.299 L288.506,531.419 L278.625,519.077 L261.085,517.331 L249.193,522.634 L236.984,558.992 L234.894,586.752 L238.652,633.918 L238.102,676.498 z" fill="#CECECE"/>
      <path d="M295.811,545.232 L298.01,551.199 L304.606,551.199 L295.811,545.232 z" fill="#757575"/>
    </g>
    <g id="Lamp">
      <path d="M360.626,164.991 L363.767,156.511 L362.825,144.261 L354.658,130.755 L366.28,142.062 L368.478,156.196 L365.965,163.421 L360.626,164.991 z" fill="#757575"/>
      <path d="M308.486,288.744 L310.371,263.616 L307.544,222.47 L306.916,191.061 L311.941,159.337 L318.852,140.806 L322.307,133.582 L336.755,124.159 L322.307,129.813 L315.397,136.094 L309.429,156.196 L304.403,177.241 L303.147,199.855 L303.775,229.694 L305.66,256.078 L302.519,290 L308.486,288.744 z" fill="#757575"/>
      <path d="M306.642,288.255 L307.841,249.437 L305.208,201.804 L307.338,168.98 L319.469,133.329 L336.278,122.61 L355.756,126.241 L368.538,141.404 L372.896,155.071 L385.399,163.266 L358.669,166.703 L365.195,156.578 L364.628,142.698 L354.747,130.356 L337.207,128.61 L325.315,133.913 L313.106,170.271 L311.016,198.031 L314.774,245.197 L314.224,287.777 z" fill="#CECECE"/>
      <path d="M371.933,156.511 L374.132,162.478 L380.728,162.478 L371.933,156.511 z" fill="#757575"/>
    </g>
    <path d="M68.36,287.545 L67.014,234.713 L99.991,234.713 L98.645,287.545 L68.36,287.545 z" fill="#484848" id="Pivot_g"/>
    <path d="M2492.82,675.188 L2491.474,622.356 L2524.451,622.356 L2523.105,675.188 L2492.82,675.188 z" fill="#484848" id="Pivot_g"/>
  </g>
</svg>
