<?xml version="1.0" encoding="UTF-8"?>
<svg version="1.1" xmlns="http://www.w3.org/2000/svg" xmlns:xlink="http://www.w3.org/1999/xlink" x="0" y="0" width="1600" height="900" viewBox="0, 0, 1600, 900">
  <g id="Background">
    <path d="M0,0 L1600,0 L1600,900 L0,900 z" fill="#FFFFFF"/>
  </g>
  <g id="Background">
    <path d="M0,0 L1600,0 L1600,900 L0,900 z" fill="#FFFFFF"/>
  </g>
  <g id="Background">
    <path d="M0,0 L1600,0 L1600,900 L0,900 z" fill="#FFFFFF"/>
  </g>
  <g id="Layer_2">
    <path d="M-243.561,-97.786 L1807.57,-97.786 L1807.57,997.042 L-243.561,997.042 L-243.561,-97.786 z" fill="#6DD0FF"/>
    <path d="M-428.734,113.843 L2006.443,113.843 L2006.443,852.672 L-428.734,852.672 L-428.734,113.843 z" fill="#A4E2FF"/>
    <path d="M-408.047,205.458 L2003.488,205.458 L2003.488,843.806 L-408.047,843.806 L-408.047,205.458 z" fill="#C0EBFF"/>
    <path d="M1040.5,595.039 L1032.229,183.191 L1091.538,184.09 L1088.842,594.761 L1040.5,595.039 z" fill="#7F7F7F"/>
    <path d="M1369.548,605.71 L1355.734,188.583 L1415.941,189.482 L1413.245,601.95 L1369.548,605.71 z" fill="#7F7F7F"/>
    <path d="M1089.741,438.4 L1201.17,330.566 L1175.11,330.566 L1089.741,411.442 L1089.741,438.4 z" fill="#7F7F7F"/>
    <path d="M1266.77,329.667 L1364.72,415.935 L1366.517,441.995 L1239.811,329.667 L1266.77,329.667 z" fill="#7F7F7F"/>
    <path d="M589.108,99.22 L604.521,132.482 L659.686,131.671 L684.835,117.068 L711.606,117.068 L724.586,84.618 L692.136,71.638 L646.706,81.061 L611.011,77.317 L589.108,99.22 z" fill="#E4F1F9"/>
    <path d="M-92.565,101.961 L-77.152,135.223 L-21.987,134.412 L3.162,119.809 L29.933,119.809 L42.913,87.359 L10.463,74.379 L-34.967,83.802 L-70.662,80.058 L-92.565,101.961 z" fill="#E4F1F9"/>
    <path d="M247.791,55.677 L263.204,88.939 L318.369,88.128 L343.518,73.525 L370.289,73.525 L383.269,41.075 L350.819,28.095 L305.389,37.518 L269.694,33.774 L247.791,55.677 z" fill="#E4F1F9"/>
  </g>
  <g id="Background">
    <path d="M74.558,114.846 L139.426,116.372 L173.94,107.552 L258.477,112.557 L374.475,150.714 L433.238,170.556 L511.437,190.232 L480.553,212.529 L412.633,257.555 L363.791,275.87 L312.66,307.922 L200.515,329.418 L167.662,333.106 L97.711,328.894 L111.189,283.502 L113.479,207.95 L85.242,166.74 L74.558,114.846 z" fill="#00AA27"/>
    <path d="M606.755,187.495 L560.605,191.54 L511.437,190.232 L485.751,210.669 L424.467,253.023 L358.501,282.196 L305.981,308.585 L259.397,321.219 L207.826,333.227 L239.567,353.722 L304.44,380.337 L379.962,440.982 L429.196,474.319 L489.078,488.458 L560.605,511.746 L551.456,422.753 L554.783,340.415 L600.526,288.017 L606.348,239.779 L606.755,187.495 z" fill="#009824"/>
    <path d="M98.09,331.915 L139.011,329.935 L173.992,332.575 L200.515,329.418 L224.153,347.756 L304.44,380.337 L364.737,427.618 L401.697,448.078 L429.196,474.319 L479.579,487.679 L539.641,504.18 L646.564,551.701 L686.179,574.203 L737.646,584.042 L825.428,598.562 L967.332,599.882 L1043.234,597.242 L1106.71,597.581 L1170.323,595.916 L1368.194,603 L1534.839,603 L1444.972,653.97 L1303.002,699.373 L1233.387,728.323 L1063.694,774.126 L832.688,791.947 L663.724,787.987 L484.199,791.947 L400.377,798.547 L273.654,797.887 L131.593,792.075 L-256.041,786.153 L-235.578,-97.786 L7.05,-97.786 L17.455,396.538 L81.32,385.382 L98.09,331.915 z" fill="#005E16"/>
    <path d="M1881.91,489.473 L1682.891,493.641 L1670.363,601.325 L1541.673,601.409 L1457.12,650.055 L1328.553,691.753 L1228.364,732.871 L1128.753,754.878 L1046.517,778.043 L825.868,791.942 L740.736,790.205 L521.825,790.205 L400.377,798.547 L237.473,794.259 L134.967,793.1 L-265.462,784.32 L-279.196,1022.374 L1867.866,1010.929 L1881.91,489.473 z" fill="#0E4200"/>
    <path d="M1091.826,597.242 L1116.447,579.164 L1343.455,583.31 L1368.194,603 L1322.205,611.297 L1133.032,607.151 L1091.826,597.242 z" fill="#7F7F7F"/>
    <path d="M1135.236,580.647 L1135.236,573.337 L1220.03,573.337 L1220.03,581.378 L1135.236,580.647 z" fill="#5E2700"/>
    <path d="M1252.924,582.647 L1252.924,575.337 L1327.43,577.53 L1328.215,586.302 L1252.924,582.647 z" fill="#5E2700"/>
    <path d="M1140.591,574.024 L1141.452,568.861 L1147.476,568.43 L1148.336,574.024 L1140.591,574.024 z" fill="#7F7F7F"/>
    <path d="M1206.425,573.733 L1206.425,569 L1212.019,569 L1213.74,574.594 L1206.425,573.733 z" fill="#7F7F7F"/>
    <path d="M1258.06,575.175 L1258.921,569.582 L1264.514,570.012 L1264.945,575.606 L1258.06,575.175 z" fill="#7F7F7F"/>
    <path d="M1317.44,577.466 L1317.87,571.012 L1326.046,571.012 L1327.43,578.53 L1317.44,577.466 z" fill="#7F7F7F"/>
    <path d="M17.455,789.068 L17.455,718.576 L23.34,682.555 L42.913,649.012 L74.558,614.807 L108.08,602.953 L161.042,591.337 L195.761,592.932 L229.163,609.554 L247.791,633.123 L257.343,664.312 L262.258,702.563 L262.847,794.925 L17.455,789.068 z" fill="#000000"/>
    <path d="M49.452,789.27 L49.452,781.96 L134.246,781.96 L134.246,790.001 L49.452,789.27 z" fill="#5E2700"/>
    <path d="M167.14,791.27 L167.14,783.96 L241.646,786.153 L242.431,794.925 L167.14,791.27 z" fill="#5E2700"/>
    <path d="M54.807,781.647 L55.668,776.484 L61.692,776.053 L62.552,781.647 L54.807,781.647 z" fill="#7F7F7F"/>
    <path d="M120.641,780.356 L120.641,775.623 L126.235,775.623 L127.956,781.217 L120.641,780.356 z" fill="#7F7F7F"/>
    <path d="M172.276,783.798 L173.137,778.205 L178.73,778.635 L179.161,784.229 L172.276,783.798 z" fill="#7F7F7F"/>
    <path d="M231.656,785.089 L232.086,778.635 L240.262,778.635 L241.646,786.153 L231.656,785.089 z" fill="#7F7F7F"/>
    <path d="M17.455,789.068 L13.885,745.187 L17.961,702.898 L32.227,661.119 L53.626,631.059 L76.044,612.208 L114.766,596.413 L154.507,590.809 L195.761,592.932 L225.836,605.584 L249.783,628.002 L265.068,656.534 L270.163,693.218 L271.182,733.978 L271.691,792.57 L258.444,793.589 L259.973,747.734 L255.387,707.993 L250.292,666.724 L233.479,641.249 L211.061,619.34 L180.491,609.151 L147.883,610.169 L110.69,615.264 L80.629,632.587 L56.173,658.062 L39.36,689.651 L28.66,722.769 L30.698,758.943 L31.717,787.984 L17.455,789.068 z" fill="#787878"/>
    <path d="M74.558,114.846 L182.245,114.071 L274.188,120.169 L385.834,154.413 L509.676,188.188 L504.985,195.694 L488.097,191.472 L457.137,179.745 L432.744,177.868 L403.19,172.239 L380.205,161.919 L355.812,153.006 L330.949,147.377 L290.138,130.489 L261.992,126.737 L226.81,126.737 L191.158,121.577 L163.481,122.046 L138.619,126.737 L113.288,122.046 L78.106,126.268 L74.558,114.846 z" fill="#83601B"/>
    <path d="M606.31,190.534 L505.923,187.25 L504.985,195.694 L480.553,212.529 L439.311,241.197 L372.854,275.535 L326.727,302.648 L265.276,318.598 L207.826,333.227 L210.391,335.016 L242.29,331.263 L272.312,328.449 L304.211,315.783 L328.604,310.623 L343.146,295.612 L390.056,280.132 L417.732,264.651 L448.693,241.666 L480.592,223.84 L504.985,206.014 L530.785,194.756 L569.251,198.04 L591.299,195.225 L604.902,198.04 L606.31,190.534 z" fill="#83601B"/>
    <path d="M98.09,331.915 L133.928,330.794 L171.456,334.547 L200.515,329.418 L311.716,386.148 L399.438,446.661 L427.114,475.276 L504.046,492.633 L497.948,496.386 L456.198,487.942 L436.027,483.251 L416.794,481.375 L406.474,457.451 L368.477,438.687 L334.702,410.072 L306.087,398.813 L291.076,384.271 L252.141,369.729 L227.279,355.187 L211.329,349.089 L199.602,338.769 L177.085,342.991 L161.605,338.3 L132.521,341.114 L121.732,336.423 L96.4,343.46 L98.09,331.915 z" fill="#83601B"/>
    <path d="M800.985,598.649 L737.646,584.042 L686.525,577.54 L652.281,555.492 L585.984,525.695 L499.825,492.164 L497.948,496.386 L533.13,514.211 L561.745,525.47 L588.953,532.975 L615.692,550.801 L648.059,561.59 L668.231,576.601 L702.944,588.798 L736.719,590.205 L765.803,608.031 L809.429,607.562 L842.266,608.031 L867.597,608.969 L922.951,606.624 L955.318,617.413 L978.773,606.624 L1016.77,604.278 L1060.865,611.315 L1082.444,612.253 L1091.826,597.242 L894.805,599.587 L800.985,598.649 z" fill="#83601B"/>
    <path d="M1664.62,601.202 L1544.036,601.464 L1438.958,658.224 L1317.214,696.172 L1240.061,730.466 L1128.753,754.878 L1128.885,764.241 L1171.104,757.673 L1229.272,737.971 L1258.356,731.404 L1291.662,712.64 L1350.768,693.407 L1383.136,691.53 L1419.256,669.014 L1468.511,656.817 L1517.767,622.573 L1546.382,607.562 L1595.637,617.413 L1615.808,612.253 L1664.594,614.129 L1664.62,601.202 z" fill="#83601B"/>
    <path d="M764.396,787.226 L883.077,791.917 L1006.773,780.852 L1128.753,754.878 L1131.23,763.302 L1111.059,771.277 L1084.32,782.535 L1063.211,782.066 L1013.018,793.794 L986.279,789.572 L927.173,796.139 L882.608,796.608 L837.575,802.707 L799.109,796.139 L761.112,797.547 L764.396,787.226 z" fill="#83601B"/>
    <path d="M400.377,798.547 L479.184,793.325 L613.346,793.325 L675.267,789.103 L764.396,787.226 L762.988,796.139 L728.275,794.263 L679.02,796.139 L648.998,797.077 L608.655,800.83 L567.844,797.547 L522.341,802.237 L474.962,798.485 L438.842,809.743 L419.14,803.645 L401.783,809.274 L400.377,798.547 z" fill="#83601B"/>
    <path d="M18.53,793.325 L161.034,795.6 L294.36,797.077 L400.377,798.547 L401.783,809.274 L363.786,804.583 L312.185,809.743 L277.003,803.645 L228.686,806.928 L171.925,802.707 L125.954,806.459 L89.364,800.83 L44.331,805.052 L18.53,802.237 L18.53,793.325 z" fill="#8D8D8D"/>
    <path d="M1740.017,492.497 L1710.675,496.488 L1698.939,502.121 L1692.836,520.43 L1691.662,554.935 L1685.09,578.643 L1678.048,615.026 L1662.086,613.148 L1662.321,601.647 L1674.527,599.534 L1687.437,493.906 L1740.017,492.497 z" fill="#83601B"/>
  </g>
  <g id="Gfx">
    <g id="Tree">
      <path d="M274.275,65.688 L258.913,75.768 L243.605,71.968 L229.891,59.739 L233.539,49.92 L231.479,38.239 L213.468,26.485 L213.175,2.429 L231.795,-12.216 L249.332,-5.582 L251.175,-30.545 L271.237,-31.734 L281.86,-30.416 L288.092,-42.238 L307.694,-50.403 L326.778,-38.314 L330.228,-12.425 L345.091,-9.19 L367.682,3.159 L375.191,38.429 L351.806,51.608 L328.047,63.252 L317.377,75.815 L304.54,58.31 L274.275,65.688 z" fill="#006414"/>
      <path d="M332.896,48.666 L344.524,30.155 L364.227,18.697 L367.836,34.566 L353.964,47.532 L332.896,48.666 z" fill="#083B12"/>
      <path d="M325.291,-15.925 L326.778,-38.314 L305.517,-46.897 L303.943,-25.573 L325.291,-15.925 z" fill="#083B12"/>
      <path d="M282.482,119.325 L283.942,93.105 L278.152,65.974 L253.597,42.219 L235.112,28.617 L238.372,24.052 L274.433,43.758 L284.608,44.51 L286.241,35.596 L273.416,4.742 L276.598,1.239 L289.972,24.657 L297.551,1.184 L305.595,4.447 L299.145,45.583 L305.652,49.847 L326.605,30.031 L330.204,34.036 L309.267,60.26 L305.696,76.02 L306.482,97.973 L306.893,125.474 L282.482,119.325 z" fill="#9B7F41"/>
      <path d="M299.775,124.722 L298.242,94.477 L292.816,65.021 L293.843,51.108 L307.728,63.432 L301.669,84.507 L304.409,108.384 L305.492,125.145 L299.775,124.722 z" fill="#634B16"/>
    </g>
    <g id="Tree2">
      <path d="M190.801,43.944 L164.14,56.031 L144.944,40.035 L126.282,40.035 L114.551,24.571 L125.215,4.309 L129.481,-22.885 L126.282,-37.963 L143.878,-46.828 L158.808,-51.678 L172.671,-77.806 L199.332,-77.272 L226.526,-62.876 L237.724,-42.08 L264.384,-30.883 L276.115,-7.421 L278.248,18.173 L262.23,35.236 L233.458,30.437 L220.661,43.944 L190.801,43.944 z" fill="#007005"/>
      <path d="M198.799,111.485 L188.668,76.826 L192.4,50.166 L188.668,36.835 L170.539,35.769 L151.343,18.782 L153.476,12.308 L171.605,24.571 L186.535,21.14 L183.336,4.843 L175.338,-17.019 L179.603,-22.885 L197.732,7.509 L210.53,11.774 L221.194,10.708 L248.921,3.243 L252.12,11.241 L225.993,21.14 L219.594,30.97 L221.194,56.739 L228.126,78.426 L231.325,112.552 L198.799,111.485 z" fill="#AF9B5C"/>
      <path d="M203.065,108.286 L194.533,76.826 L199.865,49.633 L194.533,35.236 L186.002,3.243 L200.399,21.905 L207.33,40.035 L210.53,61.896 L210.53,83.225 L215.329,105.087 L203.065,108.286 z" fill="#704E00"/>
      <path d="M174.804,-66.608 L167.339,-51.678 L178.537,-29.816 L194,-9.558 L203.598,3.243 L220.127,-5.289 L224.926,-37.963 L222.794,-54.703 L195.066,-70.078 L174.804,-66.608 z" fill="#07410A"/>
      <path d="M257.452,-22.885 L252.12,-9.558 L256.919,26.704 L264.917,15.507 L265.451,-6.888 L257.452,-22.885 z" fill="#07410A"/>
    </g>
    <g id="Bush">
      <path d="M348.466,289.509 L372.854,275.535 L372.12,244.476 L351.035,223.214 L338.77,232.713 L315.911,218.101 L297.094,228.719 L294.268,251.682 L285.665,260.16 L282.647,277.337 L313.298,294.983 L315.428,306.51 L348.466,289.509 z" fill="#056818"/>
      <path d="M335.449,288.037 L325.398,279.86 L319.149,260.297 L310.142,247.817 L302.377,230.148 L301.031,247.124 L298.43,255.899 L292.622,261.387 L292.026,273.391 L306.662,283.984 L318.524,292.274 L318.227,298.276 L335.449,288.037 z" fill="#123D1A"/>
      <path d="M361.751,265.059 C362.205,260.75 362.205,260.75 362.205,260.75 L355.712,260.668 L361.751,265.059 z" fill="#FF1717"/>
      <path d="M343.463,279.554 L344.037,272.843 L339.116,275.006 L343.463,279.554 z" fill="#FF1717"/>
      <path d="M335.122,242.931 L332.956,247.629 L330.129,244.89 L335.122,242.931 z" fill="#FF1717"/>
      <path d="M301.788,245.403 L304.408,248.701 L300.436,251.383 L301.788,245.403 z" fill="#FF1717"/>
      <path d="M308.025,268.653 L309.232,271.401 L305.268,271.973 L308.025,268.653 z" fill="#FF1717"/>
      <path d="M315.163,227.35 L317.17,231.385 L312.751,231.454 L315.163,227.35 z" fill="#FF1717"/>
      <path d="M354.872,235.656 L356.52,237.273 L349.362,236.438 L354.872,235.656 z" fill="#FF1717"/>
      <path d="M328.057,261.49 L329.548,264.346 L326.895,263.639 L328.057,261.49 z" fill="#FF1717"/>
      <path d="M319.986,286.813 L316.908,288.868 L315.397,285.429 L319.986,286.813 z" fill="#FF1717"/>
    </g>
    <g id="Tree">
      <path d="M482.097,428.707 L465.865,437.317 L450.976,432.112 L438.457,418.662 L443.001,409.224 L442.034,397.403 L425.192,384.027 L427.134,360.048 L447.034,347.194 L463.879,355.429 L468.032,330.745 L488.118,331.423 L498.573,333.722 L505.875,322.529 L526.151,316.22 L544.03,330.029 L545.06,356.126 L559.559,360.728 L580.907,375.121 L585.108,410.935 L560.6,421.886 L535.862,431.274 L524.072,442.792 L512.916,424.171 L482.097,428.707 z" fill="#006414"/>
      <path d="M542.045,417.202 L555.342,399.849 L576.023,390.27 L578.143,406.407 L563.127,418.028 L542.045,417.202 z" fill="#083B12"/>
      <path d="M540.47,352.183 L544.03,330.029 L523.658,319.509 L520.11,340.595 L540.47,352.183 z" fill="#083B12"/>
      <path d="M485.288,482.874 L489.176,456.903 L485.93,429.352 L463.687,403.419 L446.545,388.159 L450.215,383.917 L484.29,406.886 L494.352,408.579 L496.805,399.855 L486.9,367.944 L490.393,364.752 L501.536,389.31 L511.262,366.643 L518.968,370.639 L508.726,410.998 L514.809,415.848 L537.511,398.063 L540.724,402.385 L517.442,426.552 L512.422,441.912 L511.167,463.842 L509.022,491.263 L485.288,482.874 z" fill="#9B7F41"/>
      <path d="M502.005,489.854 L503.287,459.597 L500.619,429.764 L502.934,416.006 L515.615,429.566 L507.625,449.988 L508.136,474.017 L507.658,490.805 L502.005,489.854 z" fill="#634B16"/>
    </g>
    <g id="Tree2">
      <path d="M567.564,441.903 L538.508,445.463 L524.975,424.458 L507.167,418.876 L500.598,400.612 L516.834,384.467 L529.039,359.793 L530.496,344.449 L549.938,341.252 L565.635,341.09 L586.678,320.304 L611.959,328.788 L633.602,350.658 L638.068,373.851 L660.159,392.51 L664.335,418.406 L658.716,443.467 L638.328,454.958 L612.308,441.773 L596.057,450.834 L567.564,441.903 z" fill="#007005"/>
      <path d="M554.995,508.745 L555.694,472.642 L567.229,448.319 L567.655,434.482 L550.674,428.042 L537.438,406.092 L541.409,400.552 L555.041,417.676 L570.314,418.867 L572.135,402.36 L571.042,379.106 L576.866,374.784 L585.075,409.209 L596.011,417.107 L606.506,419.279 L635.197,420.449 L635.857,429.037 L607.965,430.669 L598.919,438.135 L592.739,463.203 L592.867,485.971 L585.713,519.491 L554.995,508.745 z" fill="#AF9B5C"/>
      <path d="M560.022,506.968 L561.29,474.396 L574.511,450.043 L573.729,434.71 L575.158,401.63 L583.314,423.744 L584.505,443.117 L581.02,464.934 L574.641,485.287 L572.682,507.584 L560.022,506.968 z" fill="#704E00"/>
      <path d="M585.364,331.627 L573.775,343.641 L577.922,367.852 L586.618,391.807 L591.948,406.893 L610.273,403.695 L624.624,373.952 L627.597,357.341 L605.736,334.376 L585.364,331.627 z" fill="#07410A"/>
      <path d="M651.152,398.068 L642.078,409.19 L635.812,445.228 L646.792,436.936 L654,415.725 L651.152,398.068 z" fill="#07410A"/>
    </g>
    <g id="Fence1">
      <path d="M1245.153,679.442 L1245.181,689.25 L1283.195,673.39 L1312.392,665.867 L1349.248,648.277 L1391.5,635.682 L1391.48,628.599 L1351.139,637.724 L1314.287,656.405 L1286.479,662.843 L1245.153,679.442 z" fill="#7F4400"/>
      <path d="M1245.243,711.042 L1245.243,711.042 L1283.268,698.997 L1311.677,685.234 L1344.718,677.851 L1380.033,658.68 L1391.559,656.384 L1391.534,647.667 L1378.859,651.5 L1344.306,668.197 L1314.343,676.017 L1283.245,690.825 L1245.215,701.235 L1245.243,711.042 z" fill="#7F4400"/>
      <path d="M1249.244,722.576 L1246.782,668.449 L1254.849,665.859 L1252.697,720.145 L1249.244,722.576 z" fill="#C56A00"/>
      <path d="M1259.198,718.709 L1259.047,665.865 L1266.751,660.691 L1264.221,716.758 L1259.198,718.709 z" fill="#C56A00"/>
      <path d="M1271.518,713.923 L1271.749,660.931 L1279.434,659.036 L1277.277,711.686 L1271.518,713.923 z" fill="#94632B"/>
      <path d="M1281.884,709.896 L1285.044,655.766 L1290.95,653.472 L1289.566,706.912 L1281.884,709.896 z" fill="#C56A00"/>
      <path d="M1294.94,704.824 L1295.18,654.01 L1301.703,649.295 L1301.469,702.288 L1294.94,704.824 z" fill="#996427"/>
      <path d="M1307.23,700.05 L1305.158,647.952 L1311.31,648.29 L1312.99,697.812 L1307.23,700.05 z" fill="#C56A00"/>
      <path d="M1317.214,696.172 L1317.071,646.052 L1323.976,640.642 L1323.735,690.911 L1317.214,696.172 z" fill="#C56A00"/>
      <path d="M1327.966,691.995 L1328.206,641.18 L1337.042,638.838 L1334.879,689.309 L1327.966,691.995 z" fill="#C56A00"/>
      <path d="M1340.255,687.221 L1340.879,636.257 L1346.249,631.99 L1345.631,685.132 L1340.255,687.221 z" fill="#7F501A"/>
      <path d="M1349.855,683.492 L1349.71,632.827 L1357.007,629.992 L1357.152,680.657 L1349.855,683.492 z" fill="#C56A00"/>
      <path d="M1363.296,678.27 L1362.391,630.628 L1368.528,625.517 L1367.904,676.48 L1363.296,678.27 z" fill="#C56A00"/>
      <path d="M1372.896,674.541 L1372.745,621.697 L1380.185,618.807 L1377.888,672.602 L1372.896,674.541 z" fill="#955305"/>
      <path d="M1383.648,670.364 L1383.504,619.699 L1388.503,619.939 L1390.177,667.828 L1383.648,670.364 z" fill="#C56A00"/>
    </g>
    <g id="Fence1">
      <path d="M1102.371,716.344 L1103.098,726.155 L1139.981,715.719 L1168.642,712.362 L1204.243,700.029 L1245.597,693.462 L1245.071,686.376 L1205.381,689.746 L1169.862,703.17 L1142.512,705.64 L1102.371,716.344 z" fill="#7F4400"/>
      <path d="M1104.715,747.956 L1104.715,747.956 L1141.881,741.337 L1169.308,731.626 L1201.822,728.957 L1235.769,714.824 L1247.132,714.172 L1246.486,705.452 L1234.084,707.477 L1200.721,719.244 L1171.317,722.789 L1141.275,733.161 L1103.987,738.145 L1104.715,747.956 z" fill="#7F4400"/>
      <path d="M1109.538,760.061 L1103.215,705.583 L1111.098,704.144 L1112.818,758.123 L1109.538,760.061 z" fill="#C56A00"/>
      <path d="M1119.217,757.615 L1115.297,704.749 L1122.631,700.674 L1124.1,756.38 L1119.217,757.615 z" fill="#C56A00"/>
      <path d="M1131.195,754.586 L1127.647,701.627 L1135.196,700.828 L1136.795,753.171 L1131.195,754.586 z" fill="#94632B"/>
      <path d="M1141.274,752.038 L1140.573,698.359 L1146.316,696.907 L1148.743,750.15 L1141.274,752.038 z" fill="#C56A00"/>
      <path d="M1153.969,748.829 L1150.584,698.048 L1156.77,694.264 L1160.316,747.224 L1153.969,748.829 z" fill="#996427"/>
      <path d="M1165.918,745.808 L1160.13,693.415 L1166.306,694.63 L1171.519,744.392 L1165.918,745.808 z" fill="#C56A00"/>
      <path d="M1175.625,743.354 L1171.907,693.214 L1178.426,688.789 L1181.771,739.023 L1175.625,743.354 z" fill="#C56A00"/>
      <path d="M1186.079,740.711 L1182.694,689.931 L1191.363,688.849 L1192.8,739.012 L1186.079,740.711 z" fill="#C56A00"/>
      <path d="M1198.028,737.69 L1195.016,686.815 L1200.082,683.314 L1203.255,736.369 L1198.028,737.69 z" fill="#7F501A"/>
      <path d="M1207.361,735.33 L1203.603,684.645 L1210.698,682.851 L1214.456,733.537 L1207.361,735.33 z" fill="#C56A00"/>
      <path d="M1220.43,732.026 L1216.127,684.255 L1221.899,680.019 L1224.91,730.894 L1220.43,732.026 z" fill="#C56A00"/>
      <path d="M1229.764,729.667 L1225.844,676.801 L1233.077,674.972 L1234.618,728.44 L1229.764,729.667 z" fill="#955305"/>
      <path d="M1240.219,727.024 L1236.46,676.338 L1241.476,677.291 L1246.566,725.419 L1240.219,727.024 z" fill="#C56A00"/>
    </g>
    <g id="Fence1">
      <path d="M959.678,743.469 L960.632,753.333 L997.224,745.754 L1025.769,744.615 L1061.037,735.04 L1102.184,731.676 L1101.494,724.551 L1061.935,724.849 L1026.774,735.52 L999.518,735.874 L959.678,743.469 z" fill="#7F4400"/>
      <path d="M962.752,775.253 L962.752,775.253 L999.716,771.511 L1026.881,763.926 L1059.291,763.773 L1092.865,752.271 L1104.198,752.498 L1103.35,743.731 L1091.011,744.795 L1057.966,753.977 L1028.682,755.246 L998.92,763.29 L961.798,765.388 L962.752,775.253 z" fill="#7F4400"/>
      <path d="M967.85,787.727 L960.271,732.776 L968.11,731.947 L971.081,786.044 L967.85,787.727 z" fill="#C56A00"/>
      <path d="M977.459,786.03 L972.317,732.877 L979.548,729.371 L982.308,785.174 L977.459,786.03 z" fill="#C56A00"/>
      <path d="M989.351,783.93 L984.578,730.711 L992.099,730.497 L994.911,782.948 L989.351,783.93 z" fill="#94632B"/>
      <path d="M999.358,782.162 L997.412,728.445 L1003.113,727.438 L1006.773,780.852 L999.358,782.162 z" fill="#C56A00"/>
      <path d="M1011.961,779.936 L1007.403,728.909 L1013.493,725.604 L1018.263,778.823 L1011.961,779.936 z" fill="#996427"/>
      <path d="M1023.825,777.84 L1016.828,725.015 L1023.024,726.708 L1029.385,776.858 L1023.825,777.84 z" fill="#C56A00"/>
      <path d="M1033.463,776.138 L1028.585,725.725 L1034.993,721.807 L1039.499,772.285 L1033.463,776.138 z" fill="#C56A00"/>
      <path d="M1043.841,774.305 L1039.282,723.278 L1047.915,722.867 L1050.514,773.126 L1043.841,774.305 z" fill="#C56A00"/>
      <path d="M1055.704,772.21 L1051.516,721.117 L1056.493,718.009 L1060.893,771.293 L1055.704,772.21 z" fill="#7F501A"/>
      <path d="M1064.971,770.573 L1060.041,719.611 L1067.084,718.367 L1072.014,769.329 L1064.971,770.573 z" fill="#C56A00"/>
      <path d="M1077.945,768.281 L1072.539,720.191 L1078.205,716.403 L1082.393,767.495 L1077.945,768.281 z" fill="#C56A00"/>
      <path d="M1087.212,766.644 L1082.07,713.491 L1089.252,712.223 L1092.031,765.793 L1087.212,766.644 z" fill="#955305"/>
      <path d="M1097.592,764.811 L1092.661,713.849 L1097.693,715.191 L1103.894,763.698 L1097.592,764.811 z" fill="#C56A00"/>
    </g>
    <g id="Bush">
      <path d="M873.78,787.302 L845.75,789.394 L828.952,763.259 L834.5,733.834 L849.981,734.828 L860.726,709.916 L882.261,708.164 L897.469,725.6 L909.345,727.8 L921.471,740.336 L905.975,772.127 L910.67,782.868 L873.78,787.302 z" fill="#056818"/>
      <path d="M883.736,778.787 L887.478,766.382 L881.69,746.678 L882.156,731.294 L878.686,712.309 L889.314,725.615 L896.386,731.425 L904.272,732.716 L911.492,742.323 L905.307,759.299 L900.128,772.812 L903.737,777.617 L883.736,778.787 z" fill="#123D1A"/>
      <path d="M849.075,774.496 C846.284,771.182 846.284,771.182 846.284,771.182 L851.616,767.475 L849.075,774.496 z" fill="#FF1717"/>
      <path d="M872.344,776.253 L868.109,771.016 L873.396,770.049 L872.344,776.253 z" fill="#FF1717"/>
      <path d="M858.729,741.246 L863.156,743.923 L863.962,740.071 L858.729,741.246 z" fill="#FF1717"/>
      <path d="M887.723,724.613 L887.401,728.813 L892.194,728.809 L887.723,724.613 z" fill="#FF1717"/>
      <path d="M895.586,747.365 L896.126,750.317 L899.73,748.57 L895.586,747.365 z" fill="#FF1717"/>
      <path d="M866.528,717.156 L867.127,721.623 L870.826,719.204 L866.528,717.156 z" fill="#FF1717"/>
      <path d="M838.295,746.289 L837.836,748.552 L843.297,743.849 L838.295,746.289 z" fill="#FF1717"/>
      <path d="M874.98,752.658 L875.347,755.859 L877.148,753.787 L874.98,752.658 z" fill="#FF1717"/>
      <path d="M895.857,769.108 L899.557,769.085 L898.882,765.39 L895.857,769.108 z" fill="#FF1717"/>
    </g>
    <g id="Bush">
      <path d="M735.956,788.781 L701.677,788.764 L691.584,755.231 L709.438,719.726 L727.551,722.367 L749.89,692.864 L776.282,692.702 L787.795,715.441 L801.142,719.226 L810.843,735.684 L780.203,773.169 L781.713,786.747 L735.956,788.781 z" fill="#056818"/>
      <path d="M751.097,779.276 L760.301,764.437 L760.905,739.788 L767.332,721.002 L770.43,697.446 L778.048,714.709 L784.279,722.47 L793.206,724.776 L798.165,737.198 L784.3,757.407 L772.957,773.471 L775.436,779.683 L751.097,779.276 z" fill="#123D1A"/>
      <path d="M711.333,770.835 C709.263,766.522 709.263,766.522 709.263,766.522 L717.047,762.476 L711.333,770.835 z" fill="#FF1717"/>
      <path d="M738.458,775.126 L735.396,768.327 L742.081,767.63 L738.458,775.126 z" fill="#FF1717"/>
      <path d="M735.551,731.028 L739.817,734.711 L742.25,730.071 L735.551,731.028 z" fill="#FF1717"/>
      <path d="M776.53,713.337 L774.543,718.447 L780.27,718.883 L776.53,713.337 z" fill="#FF1717"/>
      <path d="M777.242,741.907 L776.76,745.57 L781.731,743.763 L777.242,741.907 z" fill="#FF1717"/>
      <path d="M754.058,702.26 L753.07,707.783 L758.41,705.161 L754.058,702.26 z" fill="#FF1717"/>
      <path d="M709.218,735.32 L707.807,738.047 L716.124,732.794 L709.218,735.32 z" fill="#FF1717"/>
      <path d="M750.609,746.49 L749.825,750.442 L752.767,748.071 L750.609,746.49 z" fill="#FF1717"/>
      <path d="M769.269,768.544 L773.698,768.856 L774.301,764.272 L769.269,768.544 z" fill="#FF1717"/>
    </g>
    <g id="Tree">
      <path d="M535.093,735.695 L522.108,748.695 L506.346,748.096 L490.428,738.919 L491.997,728.563 L487.599,717.547 L467.57,709.712 L462.379,686.221 L477.622,668.087 L496.143,671.007 L492.859,646.192 L512.257,640.938 L522.926,640.062 L526.616,627.218 L544.143,615.229 L565.29,623.174 L573.945,647.815 L589.156,647.953 L613.791,655.436 L628.332,688.435 L608.125,706.105 L587.238,722.347 L579.353,736.822 L563.218,722.302 L535.093,735.695 z" fill="#006414"/>
      <path d="M589.012,707.08 L596.622,686.586 L613.575,671.352 L620.343,686.153 L609.406,701.674 L589.012,707.08 z" fill="#083B12"/>
      <path d="M568.399,645.395 L565.29,623.174 L542.726,619.105 L545.532,640.302 L568.399,645.395 z" fill="#083B12"/>
      <path d="M554.062,786.532 L550.146,760.566 L538.946,735.185 L510.064,716.935 L489.195,707.386 L491.455,702.251 L530.776,714.193 L540.891,712.855 L540.672,703.794 L521.826,676.204 L524.227,672.126 L542.095,692.325 L544.73,667.799 L553.27,669.355 L555.341,710.942 L562.581,713.79 L579.054,690.119 L583.395,693.306 L568.243,723.248 L567.96,739.404 L573.205,760.736 L579.213,787.575 L554.062,786.532 z" fill="#9B7F41"/>
      <path d="M572.091,788.29 L564.425,758.994 L553.108,731.262 L551.277,717.431 L567.383,726.666 L565.747,748.534 L573.297,771.351 L577.775,787.538 L572.091,788.29 z" fill="#634B16"/>
    </g>
    <g id="Tree2">
      <path d="M637.139,718.173 L610.478,730.26 L591.282,714.264 L572.62,714.264 L560.889,698.8 L571.553,678.538 L575.819,651.344 L572.62,636.266 L590.216,627.401 L605.146,622.551 L619.009,596.423 L645.67,596.957 L672.864,611.353 L684.062,632.149 L710.722,643.346 L722.453,666.808 L724.586,692.402 L708.568,709.465 L679.796,704.666 L666.999,718.173 L637.139,718.173 z" fill="#007005"/>
      <path d="M645.137,785.714 L635.006,751.055 L638.738,724.395 L635.006,711.064 L616.877,709.998 L597.681,693.011 L599.814,686.537 L617.943,698.8 L632.873,695.369 L629.674,679.072 L621.676,657.21 L625.941,651.344 L644.07,681.738 L656.868,686.003 L667.532,684.937 L695.259,677.472 L698.458,685.47 L672.331,695.369 L665.932,705.199 L667.532,730.968 L674.464,752.655 L677.663,786.781 L645.137,785.714 z" fill="#AF9B5C"/>
      <path d="M649.403,782.515 L640.871,751.055 L646.203,723.862 L640.871,709.465 L632.34,677.472 L646.737,696.134 L653.668,714.264 L656.868,736.125 L656.868,757.454 L661.667,779.316 L649.403,782.515 z" fill="#704E00"/>
      <path d="M621.142,607.621 L613.677,622.551 L624.875,644.413 L640.338,664.671 L649.936,677.472 L666.465,668.94 L671.264,636.266 L669.132,619.526 L641.404,604.151 L621.142,607.621 z" fill="#07410A"/>
      <path d="M703.79,651.344 L698.458,664.671 L703.257,700.933 L711.255,689.736 L711.789,667.341 L703.79,651.344 z" fill="#07410A"/>
    </g>
    <g id="Tree">
      <path d="M315.385,740.173 L300.807,751.357 L285.26,748.695 L270.683,737.509 L273.598,727.448 L270.683,715.951 L251.855,705.555 L249.791,681.586 L267.282,665.609 L285.26,670.934 L285.26,645.903 L305.18,643.239 L315.871,643.771 L321.215,631.522 L340.163,621.936 L360.085,632.587 L365.432,658.151 L380.493,660.283 L403.933,670.934 L414.019,705.555 L391.668,720.421 L368.831,733.783 L359.115,747.098 L345.024,730.586 L315.385,740.173 z" fill="#006414"/>
      <path d="M372.593,718.88 L382.826,699.562 L401.631,686.684 L406.399,702.245 L393.52,716.197 L372.593,718.88 z" fill="#083B12"/>
      <path d="M360.251,655.024 L360.085,632.587 L338.25,625.593 L338.25,646.975 L360.251,655.024 z" fill="#083B12"/>
      <path d="M327.52,793.06 L327.045,766.804 L319.272,740.173 L293.034,718.291 L273.598,706.087 L276.513,701.294 L313.927,718.291 L324.13,718.291 L325.102,709.281 L310.039,679.456 L312.954,675.728 L328.017,698.097 L333.847,674.13 L342.109,676.792 L338.706,718.291 L345.51,722.064 L364.946,700.759 L368.831,704.488 L349.882,732.183 L347.481,748.163 L349.882,769.998 L352.317,797.394 L327.52,793.06 z" fill="#9B7F41"/>
      <path d="M345.163,797.169 L341.407,767.119 L333.826,738.142 L333.826,724.191 L348.581,735.459 L344.09,756.923 L348.581,780.534 L350.896,797.169 L345.163,797.169 z" fill="#634B16"/>
    </g>
    <g id="EndSign">
      <path d="M279.624,776.428 L282.02,796.001 L278.666,797.168 L275.073,776.428 L279.624,776.428 z" fill="#000000"/>
      <path d="M289.208,758.458 L292.803,785.954 L260.695,785.72 L257.343,757.061 L289.208,758.458 z" fill="#FFFFFF"/>
      <path d="M287.334,760.352 L290.407,783.857 L262.961,783.657 L260.094,759.157 L287.334,760.352 z" fill="#000000"/>
      <path d="M282.739,771.74 L274.833,771.041 L273.874,766.612 L268.123,773.605 L274.114,776.633 L274.352,774.07 L283.698,774.303 L282.739,771.74 z" fill="#FFFFFF"/>
    </g>
    <path d="M136.89,781.217 L135.544,728.385 L168.521,728.385 L167.175,781.217 L136.89,781.217 z" fill="#484848" id="Pivot_e"/>
    <path d="M103.913,102.01 L102.567,49.178 L135.544,49.178 L134.198,102.01 L103.913,102.01 z" fill="#484848" id="Pivot_l0_t0"/>
    <path d="M564.37,181.298 L563.024,128.466 L596,128.466 L594.654,181.298 L564.37,181.298 z" fill="#484848" id="Pivot_l3_t1_s1_c1"/>
    <path d="M843.37,589.923 L842.024,537.091 L875,537.091 L873.654,589.923 L843.37,589.923 z" fill="#484848" id="Pivot_l3_t1_s1_c2"/>
    <path d="M597.346,526 L596,473.168 L628.976,473.168 L627.63,526 L597.346,526 z" fill="#484848" id="Pivot_l3_t1_s1_c1"/>
    <path d="M451.346,467.435 L450,414.603 L482.976,414.603 L481.63,467.435 L451.346,467.435 z" fill="#484848" id="Pivot_l3_t1_s1_c1"/>
    <path d="M843.37,422.272 L842.024,369.44 L875,369.44 L873.654,422.272 L843.37,422.272 z" fill="#484848" id="Pivot_l3_t1_s1_c1"/>
    <path d="M1307.293,671.639 L1305.947,618.807 L1338.923,618.807 L1337.577,671.639 L1307.293,671.639 z" fill="#484848" id="Pivot_l3_t1_s1_c1"/>
    <path d="M1141.937,736.081 L1140.591,683.249 L1173.567,683.249 L1172.221,736.081 L1141.937,736.081 z" fill="#484848" id="Pivot_l3_t1_s1_c1"/>
    <path d="M1000.599,765.055 L999.253,712.223 L1032.229,712.223 L1030.883,765.055 L1000.599,765.055 z" fill="#484848" id="Pivot_l3_t1_s1_c1"/>
    <path d="M1370.695,316.22 L1369.349,263.388 L1402.325,263.388 L1400.979,316.22 L1370.695,316.22 z" fill="#484848" id="Pivot_l3_t2_s1_c5"/>
    <path d="M1581.561,414.603 L1580.215,361.771 L1613.191,361.771 L1611.845,414.603 L1581.561,414.603 z" fill="#484848" id="Pivot_l3_t2_s1_c1"/>
    <path d="M1103.606,316.22 L1102.26,263.388 L1135.236,263.388 L1133.89,316.22 L1103.606,316.22 z" fill="#484848" id="Pivot_l3_t1_s1_c3"/>
    <path d="M145.37,324 L144.024,271.168 L177,271.168 L175.654,324 L145.37,324 z" fill="#484848" id="Pivot_l3_t0_s1_c2"/>
    <path d="M1586.936,594.761 L1585.59,541.929 L1618.566,541.929 L1617.22,594.761 L1586.936,594.761 z" fill="#484848" id="Pivot_l3_t0_s1_c2"/>
    <path d="M825.024,776.391 L823.678,723.559 L856.654,723.559 L855.308,776.391 L825.024,776.391 z" fill="#484848" id="Pivot_l3_t2_s1_c2"/>
    <path d="M310.728,787.727 L309.382,734.895 L342.358,734.895 L341.012,787.727 L310.728,787.727 z" fill="#484848" id="Pivot_l3_t2_s1_c2"/>
    <g id="Lamp">
      <path d="M563.576,90.063 L566.246,83.125 L565.647,73.028 L559.187,61.8 L568.488,71.264 L570.083,82.929 L567.94,88.843 L563.576,90.063 z" fill="#757575"/>
      <path d="M519.472,191.233 L521.348,170.574 L519.609,136.665 L519.526,110.8 L524.046,84.753 L529.921,69.592 L532.83,63.692 L544.712,56.129 L532.882,60.589 L527.174,65.666 L522.045,82.134 L517.67,99.39 L516.34,117.989 L516.444,142.561 L517.618,164.305 L514.601,192.187 L519.472,191.233 z" fill="#757575"/>
      <path d="M517.979,190.806 L519.483,158.868 L517.99,119.621 L520.17,92.629 L530.525,63.445 L544.345,54.848 L560.142,58.099 L570.333,70.753 L573.693,82.062 L583.752,88.977 L561.96,91.446 L567.407,83.199 L567.135,71.766 L559.265,61.473 L545.019,59.799 L535.273,64.005 L524.845,93.77 L522.766,116.593 L525.181,155.471 L524.153,190.515 z" fill="#CECECE"/>
      <path d="M572.89,83.235 L574.597,88.176 L579.963,88.265 L572.89,83.235 z" fill="#757575"/>
    </g>
    <g id="Lamp">
      <path d="M832.618,497.363 L835.289,490.425 L834.689,480.328 L828.229,469.1 L837.53,478.565 L839.125,490.229 L836.983,496.143 L832.618,497.363 z" fill="#757575"/>
      <path d="M788.514,598.534 L790.39,577.874 L788.651,543.965 L788.568,518.101 L793.089,492.053 L798.963,476.892 L801.872,470.992 L813.755,463.429 L801.924,467.889 L796.217,472.967 L791.088,489.434 L786.712,506.69 L785.382,525.289 L785.487,549.861 L786.661,571.605 L783.643,599.487 L788.514,598.534 z" fill="#757575"/>
      <path d="M787.021,598.106 L788.525,566.168 L787.032,526.921 L789.212,499.929 L799.567,470.745 L813.388,462.148 L829.184,465.399 L839.376,478.053 L842.735,489.363 L852.795,496.277 L831.002,498.746 L836.449,490.499 L836.177,479.066 L828.307,468.773 L814.062,467.099 L804.315,471.305 L793.887,501.07 L791.809,523.893 L794.223,562.771 L793.196,597.815 z" fill="#CECECE"/>
      <path d="M841.932,490.535 L843.64,495.477 L849.005,495.565 L841.932,490.535 z" fill="#757575"/>
    </g>
    <g id="Lamp">
      <path d="M1615.645,499.078 L1612.974,492.14 L1613.574,482.043 L1620.034,470.815 L1610.733,480.28 L1609.138,491.944 L1611.28,497.858 L1615.645,499.078 z" fill="#757575"/>
      <path d="M1659.749,600.248 L1657.873,579.589 L1659.612,545.68 L1659.695,519.816 L1655.175,493.768 L1649.3,478.607 L1646.391,472.707 L1634.508,465.144 L1646.339,469.604 L1652.046,474.681 L1657.175,491.149 L1661.551,508.405 L1662.881,527.004 L1662.776,551.576 L1661.603,573.32 L1664.62,601.202 L1659.749,600.248 z" fill="#757575"/>
      <path d="M1661.242,599.821 L1659.738,567.883 L1661.231,528.636 L1659.051,501.644 L1648.696,472.46 L1634.875,463.863 L1619.079,467.114 L1608.887,479.768 L1605.528,491.078 L1595.468,497.992 L1617.261,500.461 L1611.814,492.214 L1612.086,480.781 L1619.956,470.488 L1634.201,468.814 L1643.948,473.02 L1654.376,502.785 L1656.454,525.608 L1654.04,564.486 L1655.068,599.53 z" fill="#CECECE"/>
      <path d="M1606.331,492.25 L1604.624,497.192 L1599.258,497.28 L1606.331,492.25 z" fill="#757575"/>
    </g>
    <g id="Trash">
      <path d="M222.173,327.107 L222.345,308.742 L225.957,308.742 L225.613,327.107 L222.173,327.107 z" fill="#989898"/>
      <path d="M223.984,327.283 L223.984,315.604 L225.707,314.647 L225.613,327.107 L223.984,327.283 z" fill="#717171"/>
      <path d="M222.689,320.336 L217.872,319.476 L215.635,312.595 L215.635,303.649 L216.84,298.66 L222.345,295.736 L228.71,294.875 L232.494,296.596 L233.871,300.521 L233.871,305.541 L233.871,312.423 L232.322,316.864 L227.333,319.992 L222.689,320.336 z" fill="#ED6C00"/>
      <path d="M218.904,300.521 L222.345,297.8 L226.473,296.768 L230.602,297.284 L231.806,300.521 L230.43,301.886 L220.624,301.886 L218.904,300.521 z" fill="#000000"/>
      <path d="M224.792,319.859 L228.621,318.901 L231.493,317.561 L233.408,313.54 L233.408,305.499 L231.302,312.583 L229.387,316.221 L224.792,319.859 z" fill="#A84D00"/>
    </g>
    <g id="Trash">
      <path d="M844.956,428.77 L845.128,410.405 L848.74,410.405 L848.396,428.77 L844.956,428.77 z" fill="#989898"/>
      <path d="M846.767,428.946 L846.767,417.267 L848.49,416.31 L848.396,428.77 L846.767,428.946 z" fill="#717171"/>
      <path d="M845.472,421.999 L840.655,421.139 L838.418,414.258 L838.418,405.312 L839.623,400.323 L845.128,397.399 L851.493,396.538 L855.277,398.259 L856.654,402.184 L856.654,407.204 L856.654,414.086 L855.105,418.527 L850.116,421.655 L845.472,421.999 z" fill="#ED6C00"/>
      <path d="M841.687,402.184 L845.128,399.463 L849.256,398.431 L853.385,398.947 L854.589,402.184 L853.213,403.549 L843.407,403.549 L841.687,402.184 z" fill="#000000"/>
      <path d="M847.575,421.522 L851.404,420.565 L854.276,419.224 L856.191,415.204 L856.191,407.162 L854.085,414.246 L852.17,417.884 L847.575,421.522 z" fill="#A84D00"/>
    </g>
    <g id="Bench">
      <path d="M119.296,330.105 L119.296,289.998 L128.652,289.998 L130.434,329.327 L119.296,330.105 z" fill="#B5B5B5"/>
      <path d="M173.193,330.105 L183.439,330.105 L181.333,292.334 L171.41,289.998 L173.193,330.105 z" fill="#B5B5B5"/>
      <path d="M180.865,330.558 L177.653,293.147 L181.243,293.336 L183.439,330.105 L180.865,330.558 z" fill="#7D7D7D"/>
      <path d="M128.528,329.235 L127.583,308.641 L124.749,292.769 L127.772,292.769 L130.606,328.48 L128.528,329.235 z" fill="#7D7D7D"/>
      <path d="M107.704,315.698 L107.704,320.371 L194.577,323.097 L194.577,317.645 L107.704,315.698 z" fill="#FF0000"/>
      <path d="M107.704,294.67 L107.704,306.742 L194.577,307.521 L192.794,295.839 L107.704,294.67 z" fill="#FF0000"/>
      <path d="M108.122,306.295 L108.311,307.806 L194.28,308.373 L193.524,306.106 L108.122,306.295 z" fill="#9E1C1C"/>
      <path d="M107.933,319.032 L145.155,320.544 L194.091,320.544 L194.469,322.244 L145.155,321.489 L107.704,320.371 L107.933,319.032 z" fill="#9E1C1C"/>
    </g>
    <g id="Bench">
      <path d="M818.813,595.165 L818.813,555.058 L828.169,555.058 L829.951,594.387 L818.813,595.165 z" fill="#B5B5B5"/>
      <path d="M872.71,595.165 L882.956,595.165 L880.85,557.394 L870.927,555.058 L872.71,595.165 z" fill="#B5B5B5"/>
      <path d="M880.382,595.618 L877.17,558.207 L880.76,558.396 L882.956,595.165 L880.382,595.618 z" fill="#7D7D7D"/>
      <path d="M828.045,594.295 L827.1,573.701 L824.266,557.829 L827.289,557.829 L830.123,593.54 L828.045,594.295 z" fill="#7D7D7D"/>
      <path d="M807.221,580.758 L807.221,585.431 L894.094,588.157 L894.094,582.705 L807.221,580.758 z" fill="#FF0000"/>
      <path d="M807.221,559.73 L807.221,571.802 L894.094,572.581 L892.311,560.899 L807.221,559.73 z" fill="#FF0000"/>
      <path d="M807.639,571.355 L807.828,572.866 L893.797,573.433 L893.041,571.166 L807.639,571.355 z" fill="#9E1C1C"/>
      <path d="M807.45,584.092 L844.672,585.604 L893.608,585.604 L893.986,587.304 L844.672,586.549 L807.221,585.431 L807.45,584.092 z" fill="#9E1C1C"/>
    </g>
    <g id="Trash">
      <path d="M1599.498,419.437 L1599.67,401.072 L1603.282,401.072 L1602.938,419.437 L1599.498,419.437 z" fill="#989898"/>
      <path d="M1601.308,419.613 L1601.308,407.934 L1603.032,406.977 L1602.938,419.437 L1601.308,419.613 z" fill="#717171"/>
      <path d="M1600.014,412.666 L1595.197,411.806 L1592.96,404.925 L1592.96,395.979 L1594.165,390.99 L1599.67,388.066 L1606.035,387.205 L1609.819,388.926 L1611.196,392.851 L1611.196,397.871 L1611.196,404.753 L1609.647,409.194 L1604.658,412.322 L1600.014,412.666 z" fill="#ED6C00"/>
      <path d="M1596.229,392.851 L1599.67,390.13 L1603.798,389.098 L1607.927,389.614 L1609.131,392.851 L1607.755,394.216 L1597.949,394.216 L1596.229,392.851 z" fill="#000000"/>
      <path d="M1602.117,412.189 L1605.946,411.232 L1608.818,409.891 L1610.733,405.871 L1610.733,397.829 L1608.627,404.913 L1606.712,408.551 L1602.117,412.189 z" fill="#A84D00"/>
    </g>
    <g id="Bench">
      <path d="M1568.652,599.09 L1568.652,558.983 L1578.008,558.983 L1579.79,598.312 L1568.652,599.09 z" fill="#B5B5B5"/>
      <path d="M1622.549,599.09 L1632.795,599.09 L1630.689,561.319 L1620.766,558.983 L1622.549,599.09 z" fill="#B5B5B5"/>
      <path d="M1630.22,599.543 L1627.008,562.132 L1630.598,562.321 L1632.795,599.09 L1630.22,599.543 z" fill="#7D7D7D"/>
      <path d="M1577.883,598.22 L1576.938,577.626 L1574.104,561.754 L1577.127,561.754 L1579.962,597.465 L1577.883,598.22 z" fill="#7D7D7D"/>
      <path d="M1557.06,584.683 L1557.06,589.356 L1643.933,592.082 L1643.933,586.63 L1557.06,584.683 z" fill="#FF0000"/>
      <path d="M1557.06,563.655 L1557.06,575.727 L1643.933,576.506 L1642.15,564.824 L1557.06,563.655 z" fill="#FF0000"/>
      <path d="M1557.477,575.28 L1557.666,576.792 L1643.635,577.358 L1642.88,575.091 L1557.477,575.28 z" fill="#9E1C1C"/>
      <path d="M1557.288,588.018 L1594.51,589.529 L1643.446,589.529 L1643.824,591.23 L1594.51,590.474 L1557.06,589.356 L1557.288,588.018 z" fill="#9E1C1C"/>
    </g>
    <path d="M1046.741,592.932 L1045.395,540.1 L1078.372,540.1 L1077.026,592.932 L1046.741,592.932 z" fill="#484848" id="Pivot_g"/>
  </g>
  <g id="Surfaces">
    <path d="M70.811,109.872 L249.191,109.872 L348.147,134.611 L419.76,164.558 L522.621,186.693 L607.255,187.995" fill-opacity="0" stroke="#000000" stroke-width="1"/>
    <path d="M522.621,186.693 L402.833,260.91 L306.481,309.085 L201.015,329.918 L98.211,329.394" fill-opacity="0" stroke="#000000" stroke-width="1"/>
    <path d="M201.015,329.918 L312.992,380.698 L428.874,467.935 L520.017,496.58 L608.557,530.434 L686.679,574.703 L790.843,594.234 L1094.345,594.808 L1091.878,528.435" fill-opacity="0" stroke="#000000" stroke-width="1"/>
    <path d="M913.236,592.932 L1046.045,506.997 L1109.107,506.624" fill-opacity="0" stroke="#000000" stroke-width="1"/>
    <path d="M1046.045,506.997 L908.028,427.572 L836.036,427.517" fill-opacity="0" stroke="#000000" stroke-width="1"/>
    <path d="M908.028,427.572 L1040.837,320.804 L1406.803,323.018" fill-opacity="0" stroke="#000000" stroke-width="1"/>
    <path d="M1406.803,323.018 L1540.346,419.781 L1613.824,419.781" fill-opacity="0" stroke="#000000" stroke-width="1"/>
    <path d="M1540.346,419.781 L1399.512,507.547 L1326.714,506.866" fill-opacity="0" stroke="#000000" stroke-width="1"/>
    <path d="M1399.512,507.547 L1539.384,599.228 L1670.216,598.228 L1681.998,497.601" fill-opacity="0" stroke="#000000" stroke-width="1"/>
    <path d="M1539.384,599.228 L1445.472,654.47 L1333.607,686.234 L1228.647,730.428 L1065.683,770.479 L899.957,787.051 L770.138,788.432 L524.311,785.67 L394.492,795.337 L303.343,795.337 L31.717,787.984 L7.05,28.095" fill-opacity="0" stroke="#000000" stroke-width="1"/>
    <path d="M1368.194,603 L1355.734,188.583 L1361.723,188.721 L1373.606,603.13 L1368.194,603 z" fill="#464646"/>
    <path d="M1085.45,185.007 L1084.707,591.247 L1088.842,594.761 L1091.538,184.09 L1085.45,185.007 z" fill="#464646"/>
    <path d="M70.311,109.372 L127.857,112.296 L173.94,107.552 L211.892,110.263 L253.909,109.585 L297.283,121.784 L347.647,134.111 L381.318,149.57 L419.26,164.058 L469.419,173.289 L522.121,186.193 L571.075,184.132 L606.755,187.495 L608.348,192.943 L573.785,194.298 L535.834,192.943 L493.139,190.232 L449.766,174.645 L404.36,169.901 L388.095,157.702 L342.689,147.536 L313.547,133.982 L264.075,122.461 L215.958,121.106 L172.585,116.362 L138.022,119.751 L100.071,119.073 L72.963,120.428 L70.311,109.372 z" fill="#777777"/>
    <path d="M511.437,190.232 L476.874,211.241 L438.245,237.671 L402.333,260.41 L360.309,276.978 L325.068,300.02 L281.018,312.218 L239,321.706 L203.759,327.806 L157.676,331.194 L125.146,328.483 L97.711,328.894 L96.682,336.616 L134.634,333.905 L173.94,337.971 L218.669,331.872 L262.042,325.772 L310.837,312.218 L348.11,291.887 L382.673,276.3 L421.302,259.358 L455.865,232.927 L491.106,212.596 L520.925,191.587 L511.437,190.232 z" fill="#777777"/>
    <path d="M207.826,333.227 L242.389,346.781 L274.241,365.757 L310.159,375.923 L342.011,401.675 L373.863,428.783 L403.682,443.693 L428.374,467.435 L424.691,478.256 L410.459,457.247 L379.962,440.982 L352.176,418.618 L314.903,392.865 L287.795,379.989 L251.199,361.691 L220.702,348.137 L200.371,333.905 L207.826,333.227 z" fill="#777777"/>
    <path d="M428.374,467.435 L479.585,479.611 L515.503,495.198 L565.653,510.108 L608.057,529.934 L647.655,548.059 L686.179,574.203 L735.757,579.911 L790.343,593.734 L795.395,602.953 L766.253,599.565 L737.112,588.044 L705.938,586.688 L670.019,573.134 L651.044,558.225 L617.836,547.381 L585.984,525.695 L539.9,514.852 L504.66,495.198 L470.097,489.777 L447.055,481.644 L424.691,478.256 L428.374,467.435 z" fill="#777777"/>
    <path d="M790.343,593.734 L860.003,592.116 L924.309,596.5 L990.077,589.923 L1040.5,595.039 L1093.845,594.308 L1078.499,608.923 L1020.038,600.885 L960.847,606.731 L903.848,604.539 L839.541,606 L795.395,602.953 L790.343,593.734 z" fill="#777777"/>
    <path d="M906.423,598.005 L1045.545,506.497 L1108.607,506.124 L1107.972,515.035 L1046.216,514.201 L924.309,596.5 L906.423,598.005 z" fill="#777777"/>
    <path d="M1045.545,506.497 L907.528,427.072 L835.536,427.017 L837.582,436.589 L906.848,435.754 L1037.871,510.028 L1045.545,506.497 z" fill="#777777"/>
    <path d="M907.528,427.072 L1040.337,320.304 L1406.303,322.518 L1539.846,419.281 L1531.082,424.905 L1401.208,331.126 L1041.209,329.768 L916.52,432.42 L907.528,427.072 z" fill="#777777"/>
    <path d="M1613.324,419.281 L1539.846,419.281 L1399.012,507.047 L1407.959,512.055 L1544.33,426.991 L1613.191,427.666 L1613.324,419.281 z" fill="#777777"/>
    <path d="M1326.214,506.366 L1399.012,507.047 L1538.884,598.728 L1530.828,601.844 L1395.807,516.106 L1326.946,516.106 L1326.214,506.366 z" fill="#777777"/>
    <path d="M1670.216,598.228 L1538.884,598.728 L1510.575,613.996 L1472.094,635.6 L1430.237,658.553 L1376.229,670.03 L1333.107,685.734 L1287.114,702.435 L1237.156,726.739 L1187.873,736.191 L1143.316,747.668 L1075.13,767.921 L1074.455,778.047 L1128.464,759.82 L1170.321,753.068 L1213.527,740.241 L1268.886,719.988 L1318.169,696.359 L1362.051,688.258 L1408.634,670.03 L1463.317,653.153 L1500.448,627.498 L1545.005,603.87 L1596.314,607.245 L1669.435,608.923 L1670.216,598.228 z" fill="#6B6B6B"/>
    <path d="M1075.13,767.921 L1027.873,772.647 L971.839,780.073 L911.754,780.748 L844.919,788.174 L782.809,784.799 L713.273,787.499 L634.285,783.448 L631.584,794.925 L672.766,790.875 L720.699,792.225 L774.707,790.199 L810.488,793.575 L867.872,793.575 L947.535,788.174 L1005.594,785.474 L1074.455,778.047 L1075.13,767.921 z" fill="#6B6B6B"/>
    <path d="M634.285,783.448 L570.15,784.799 L511.415,786.149 L444.58,790.875 L383.145,796.951 L325.761,791.55 L268.376,794.925 L217.068,791.55 L177.237,792.9 L17.455,788.786 L18.632,798.547 L161.034,795.6 L200.191,800.326 L236.646,798.301 L290.655,801.676 L346.014,800.326 L402.048,802.351 L456.732,796.275 L506.014,794.925 L554.622,794.25 L597.829,796.275 L631.584,794.925 L634.285,783.448 z" fill="#6B6B6B"/>
    <path d="M918.135,595.986 L1044.949,511.982 L1107.144,512.789 L1107.972,515.035 L1046.216,514.201 L924.309,596.5 L918.135,595.986 z" fill="#464646"/>
    <path d="M836.958,432.824 L908.846,432.824 L1042.122,508.347 L1037.871,510.028 L906.848,435.754 L837.582,436.589 L836.958,432.824 z" fill="#464646"/>
    <path d="M914.5,428.785 L1040.102,326.607 L1401.562,327.819 L1534.434,421.92 L1531.082,424.905 L1399.139,331.454 L1041.209,329.768 L917.731,430.805 L914.5,428.785 z" fill="#464646"/>
    <path d="M1404.793,509.962 L1542.511,423.939 L1613.187,423.535 L1613.191,427.666 L1544.33,426.991 L1407.959,512.055 L1404.793,509.962 z" fill="#464646"/>
    <path d="M1326.847,513.597 L1397.927,513.193 L1534.838,600.428 L1530.828,601.844 L1395.807,516.106 L1326.946,516.106 L1326.847,513.597 z" fill="#464646"/>
    <path d="M1089.741,438.4 L1088.97,432.824 L1193.571,330.646 L1201.17,330.566 L1089.741,438.4 z" fill="#464646"/>
    <path d="M1241.631,331.05 L1364.81,438.882 L1365.214,433.228 L1246.881,329.838 L1241.631,331.05 z" fill="#464646"/>
    <path d="M1682.891,493.641 L1668.189,608.688 L1675.466,609.627 L1684.386,566.202 L1689.315,519.491 L1692.601,493.671 L1682.891,493.641 z" fill="#6B6B6B"/>
  </g>
</svg>
