<?xml version="1.0" encoding="UTF-8"?>
<svg version="1.1" xmlns="http://www.w3.org/2000/svg" xmlns:xlink="http://www.w3.org/1999/xlink" x="0" y="0" width="2900" height="900" viewBox="0, 0, 2900, 900">
  <g id="Background">
    <path d="M0,0 L2900,0 L2900,900 L0,900 z" fill="#FFFFFF"/>
  </g>
  <g id="Background">
    <path d="M0,0 L2900,0 L2900,900 L0,900 z" fill="#FFFFFF"/>
  </g>
  <g id="Layer_3">
    <path d="M-47.399,-225.771 L2946.07,-188.376 L2946.07,930.479 L-47.399,930.479 L-47.399,-225.771 z" fill="#6DD0FF"/>
    <path d="M179.418,544.353 L194.831,577.615 L249.996,576.804 L275.145,562.201 L301.916,562.201 L314.896,529.751 L282.446,516.771 L237.016,526.194 L201.321,522.45 L179.418,544.353 z" fill="#E4F1F9"/>
    <path d="M1816.856,364.124 L1801.443,397.386 L1746.278,396.575 L1721.129,381.972 L1694.358,381.972 L1681.378,349.522 L1713.828,336.542 L1759.258,345.965 L1794.953,342.221 L1816.856,364.124 z" fill="#E4F1F9"/>
    <path d="M1403.093,-49.639 L1387.68,-16.377 L1332.515,-17.188 L1307.366,-31.791 L1280.595,-31.791 L1267.615,-64.241 L1300.065,-77.221 L1345.495,-67.798 L1381.19,-71.542 L1403.093,-49.639 z" fill="#E4F1F9"/>
    <path d="M427.318,588.651 L438.825,594.978 L466.952,600.157 L508.502,582.76 L523.844,592.455 L549.414,588.012 L567.952,566.917 L543.661,534.411 L504.667,534.411 L474.569,519.613 L451.61,545.931 L415.173,541.347 L390.881,579.062 L404.305,595.234 L427.318,588.651 z" fill="#F3FAFD"/>
    <path d="M1685.724,476.96 L1674.217,483.287 L1646.09,488.466 L1604.54,471.069 L1589.198,480.764 L1563.628,476.321 L1545.09,455.226 L1569.381,422.72 L1608.375,422.72 L1638.473,407.922 L1661.432,434.24 L1697.869,429.656 L1722.161,467.371 L1708.737,483.543 L1685.724,476.96 z" fill="#F3FAFD"/>
    <path d="M2231.485,17.505 L2219.978,23.832 L2191.851,29.011 L2150.301,11.614 L2134.958,21.309 L2109.389,16.866 L2090.851,-4.229 L2115.142,-36.735 L2154.135,-36.735 L2184.234,-51.533 L2207.193,-25.215 L2243.63,-29.799 L2267.922,7.916 L2254.498,24.088 L2231.485,17.505 z" fill="#F3FAFD"/>
    <path d="M-114.631,503.588 L2984.892,503.588 L2984.892,1242.417 L-114.631,1242.417 L-114.631,503.588 z" fill="#A4E2FF"/>
    <path d="M-88.3,595.203 L2981.131,595.203 L2981.131,1233.551 L-88.3,1233.551 L-88.3,595.203 z" fill="#C0EBFF"/>
  </g>
  <g id="Layer_2">
    <path d="M416.574,670 L1606.693,672.937 L1614.986,694.331 L1424.885,855.164 L584.018,855.164 L407.248,694.331 L416.574,670 z" fill="#565656"/>
    <path d="M1938.95,680.365 L1936.979,38.856 L2017.549,40.123 L2017.103,681.535 L1938.95,680.365 z" fill="#FFFFFF"/>
    <path d="M1963.733,39.859 L2016.096,39.859 L2016.096,680.218 L1963.733,680.218 L1963.733,39.859 z" fill="#D5D5D5"/>
    <path d="M-142.106,577.808 L34.06,577.808 L48.324,672.667 L406.824,678.667 L590.225,849.767 L977.158,854.241 L1418.887,848.649 L1608.998,682.022 L2047.372,688.732 L2210.644,686.495 L2993.443,688.357 L2989.603,1114.614 L-86.357,1103.093 L-142.106,577.808 z" fill="#383838"/>
    <g id="Tiles">
      <path d="M624.715,706.097 L623.829,732.651 L671.714,731.668 L671.714,705.113 L624.715,706.097 z" fill="#6B6B6B"/>
      <path d="M624.715,733.635 L623.829,760.189 L671.714,759.206 L671.714,732.651 L624.715,733.635 z" fill="#6B6B6B"/>
      <path d="M624.715,761.068 L623.829,787.623 L671.714,786.639 L671.714,760.085 L624.715,761.068 z" fill="#6B6B6B"/>
      <path d="M624.715,788.606 L623.829,815.161 L671.714,814.177 L671.714,787.623 L624.715,788.606 z" fill="#6B6B6B"/>
      <path d="M624.715,816.144 L623.829,842.699 L671.714,841.715 L671.714,815.161 L624.715,816.144 z" fill="#6B6B6B"/>
      <path d="M672.601,706.097 L671.714,732.651 L719.6,731.668 L719.6,705.113 L672.601,706.097 z" fill="#6B6B6B"/>
      <path d="M672.601,733.635 L671.714,760.189 L719.6,759.206 L719.6,732.651 L672.601,733.635 z" fill="#6B6B6B"/>
      <path d="M672.601,761.068 L671.714,787.623 L719.6,786.639 L719.6,760.085 L672.601,761.068 z" fill="#6B6B6B"/>
      <path d="M672.601,788.606 L671.714,815.161 L719.6,814.177 L719.6,787.623 L672.601,788.606 z" fill="#6B6B6B"/>
      <path d="M672.601,816.144 L671.714,842.699 L719.6,841.715 L719.6,815.161 L672.601,816.144 z" fill="#6B6B6B"/>
      <path d="M720.487,707.097 L719.6,733.651 L767.486,732.668 L767.486,706.113 L720.487,707.097 z" fill="#6B6B6B"/>
      <path d="M720.487,734.635 L719.6,761.189 L767.486,760.206 L767.486,733.651 L720.487,734.635 z" fill="#6B6B6B"/>
      <path d="M720.487,762.068 L719.6,788.623 L767.486,787.639 L767.486,761.085 L720.487,762.068 z" fill="#6B6B6B"/>
      <path d="M720.487,789.606 L719.6,816.161 L767.486,815.177 L767.486,788.623 L720.487,789.606 z" fill="#6B6B6B"/>
      <path d="M720.487,817.144 L719.6,843.699 L767.486,842.715 L767.486,816.161 L720.487,817.144 z" fill="#6B6B6B"/>
      <path d="M768.373,707.097 L767.486,733.651 L815.372,732.668 L815.372,706.113 L768.373,707.097 z" fill="#6B6B6B"/>
      <path d="M768.373,734.635 L767.486,761.189 L815.372,760.206 L815.372,733.651 L768.373,734.635 z" fill="#6B6B6B"/>
      <path d="M768.373,762.068 L767.486,788.623 L815.372,787.639 L815.372,761.085 L768.373,762.068 z" fill="#6B6B6B"/>
      <path d="M768.373,789.606 L767.486,816.161 L815.372,815.177 L815.372,788.623 L768.373,789.606 z" fill="#6B6B6B"/>
      <path d="M768.373,817.144 L767.486,843.699 L815.372,842.715 L815.372,816.161 L768.373,817.144 z" fill="#6B6B6B"/>
      <path d="M911.257,709.22 L912.144,735.774 L864.258,734.791 L864.258,708.236 L911.257,709.22 z" fill="#6B6B6B"/>
      <path d="M911.257,736.758 L912.144,763.313 L864.258,762.329 L864.258,735.774 L911.257,736.758 z" fill="#6B6B6B"/>
      <path d="M911.257,764.191 L912.144,790.746 L864.258,789.762 L864.258,763.208 L911.257,764.191 z" fill="#6B6B6B"/>
      <path d="M911.257,791.729 L912.144,818.284 L864.258,817.3 L864.258,790.746 L911.257,791.729 z" fill="#6B6B6B"/>
      <path d="M911.257,819.267 L912.144,845.822 L864.258,844.839 L864.258,818.284 L911.257,819.267 z" fill="#6B6B6B"/>
      <path d="M863.371,709.22 L864.258,735.774 L816.372,734.791 L816.372,708.236 L863.371,709.22 z" fill="#6B6B6B"/>
      <path d="M863.371,736.758 L864.258,763.313 L816.372,762.329 L816.372,735.774 L863.371,736.758 z" fill="#6B6B6B"/>
      <path d="M863.371,764.191 L864.258,790.746 L816.372,789.762 L816.372,763.208 L863.371,764.191 z" fill="#6B6B6B"/>
      <path d="M863.371,791.729 L864.258,818.284 L816.372,817.3 L816.372,790.746 L863.371,791.729 z" fill="#6B6B6B"/>
      <path d="M863.371,819.267 L864.258,845.822 L816.372,844.839 L816.372,818.284 L863.371,819.267 z" fill="#6B6B6B"/>
      <path d="M1008.029,711.097 L1008.916,737.651 L961.03,736.668 L961.03,710.113 L1008.029,711.097 z" fill="#6B6B6B"/>
      <path d="M1008.029,738.635 L1008.916,765.189 L961.03,764.206 L961.03,737.651 L1008.029,738.635 z" fill="#6B6B6B"/>
      <path d="M1008.029,766.068 L1008.916,792.623 L961.03,791.639 L961.03,765.085 L1008.029,766.068 z" fill="#6B6B6B"/>
      <path d="M1008.029,793.606 L1008.916,820.161 L961.03,819.177 L961.03,792.623 L1008.029,793.606 z" fill="#6B6B6B"/>
      <path d="M1008.029,821.144 L1008.916,847.699 L961.03,846.715 L961.03,820.161 L1008.029,821.144 z" fill="#6B6B6B"/>
      <path d="M960.143,711.097 L961.03,737.651 L913.144,736.668 L913.144,710.113 L960.143,711.097 z" fill="#6B6B6B"/>
      <path d="M960.143,738.635 L961.03,765.189 L913.144,764.206 L913.144,737.651 L960.143,738.635 z" fill="#6B6B6B"/>
      <path d="M960.143,766.068 L961.03,792.623 L913.144,791.639 L913.144,765.085 L960.143,766.068 z" fill="#6B6B6B"/>
      <path d="M960.143,793.606 L961.03,820.161 L913.144,819.177 L913.144,792.623 L960.143,793.606 z" fill="#6B6B6B"/>
      <path d="M960.143,821.144 L961.03,847.699 L913.144,846.715 L913.144,820.161 L960.143,821.144 z" fill="#6B6B6B"/>
      <path d="M1103.8,711.097 L1104.687,737.651 L1056.801,736.668 L1056.801,710.113 L1103.8,711.097 z" fill="#6B6B6B"/>
      <path d="M1103.8,738.635 L1104.687,765.189 L1056.801,764.206 L1056.801,737.651 L1103.8,738.635 z" fill="#6B6B6B"/>
      <path d="M1103.8,766.068 L1104.687,792.623 L1056.801,791.639 L1056.801,765.085 L1103.8,766.068 z" fill="#6B6B6B"/>
      <path d="M1103.8,793.606 L1104.687,820.161 L1056.801,819.177 L1056.801,792.623 L1103.8,793.606 z" fill="#6B6B6B"/>
      <path d="M1103.8,821.144 L1104.687,847.699 L1056.801,846.715 L1056.801,820.161 L1103.8,821.144 z" fill="#6B6B6B"/>
      <path d="M1055.915,711.097 L1056.801,737.651 L1008.916,736.668 L1008.916,710.113 L1055.915,711.097 z" fill="#6B6B6B"/>
      <path d="M1055.915,738.635 L1056.801,765.189 L1008.916,764.206 L1008.916,737.651 L1055.915,738.635 z" fill="#6B6B6B"/>
      <path d="M1055.915,766.068 L1056.801,792.623 L1008.916,791.639 L1008.916,765.085 L1055.915,766.068 z" fill="#6B6B6B"/>
      <path d="M1055.915,793.606 L1056.801,820.161 L1008.916,819.177 L1008.916,792.623 L1055.915,793.606 z" fill="#6B6B6B"/>
      <path d="M1055.915,821.144 L1056.801,847.699 L1008.916,846.715 L1008.916,820.161 L1055.915,821.144 z" fill="#6B6B6B"/>
      <path d="M1106.574,711.097 L1105.687,737.651 L1153.573,736.668 L1153.573,710.113 L1106.574,711.097 z" fill="#6B6B6B"/>
      <path d="M1106.574,738.635 L1105.687,765.189 L1153.573,764.206 L1153.573,737.651 L1106.574,738.635 z" fill="#6B6B6B"/>
      <path d="M1106.574,766.068 L1105.687,792.623 L1153.573,791.639 L1153.573,765.085 L1106.574,766.068 z" fill="#6B6B6B"/>
      <path d="M1106.574,793.606 L1105.687,820.161 L1153.573,819.177 L1153.573,792.623 L1106.574,793.606 z" fill="#6B6B6B"/>
      <path d="M1106.574,821.144 L1105.687,847.699 L1153.573,846.715 L1153.573,820.161 L1106.574,821.144 z" fill="#6B6B6B"/>
      <path d="M1154.46,711.097 L1153.573,737.651 L1201.459,736.668 L1201.459,710.113 L1154.46,711.097 z" fill="#6B6B6B"/>
      <path d="M1154.46,738.635 L1153.573,765.189 L1201.459,764.206 L1201.459,737.651 L1154.46,738.635 z" fill="#6B6B6B"/>
      <path d="M1154.46,766.068 L1153.573,792.623 L1201.459,791.639 L1201.459,765.085 L1154.46,766.068 z" fill="#6B6B6B"/>
      <path d="M1154.46,793.606 L1153.573,820.161 L1201.459,819.177 L1201.459,792.623 L1154.46,793.606 z" fill="#6B6B6B"/>
      <path d="M1154.46,821.144 L1153.573,847.699 L1201.459,846.715 L1201.459,820.161 L1154.46,821.144 z" fill="#6B6B6B"/>
      <path d="M1202.346,712.22 L1201.459,738.774 L1249.345,737.791 L1249.345,711.236 L1202.346,712.22 z" fill="#6B6B6B"/>
      <path d="M1202.346,739.758 L1201.459,766.313 L1249.345,765.329 L1249.345,738.774 L1202.346,739.758 z" fill="#6B6B6B"/>
      <path d="M1202.346,767.191 L1201.459,793.746 L1249.345,792.762 L1249.345,766.208 L1202.346,767.191 z" fill="#6B6B6B"/>
      <path d="M1202.346,794.729 L1201.459,821.284 L1249.345,820.3 L1249.345,793.746 L1202.346,794.729 z" fill="#6B6B6B"/>
      <path d="M1202.346,822.267 L1201.459,848.822 L1249.345,847.839 L1249.345,821.284 L1202.346,822.267 z" fill="#6B6B6B"/>
      <path d="M1250.232,712.22 L1249.345,738.774 L1297.231,737.791 L1297.231,711.236 L1250.232,712.22 z" fill="#6B6B6B"/>
      <path d="M1250.232,739.758 L1249.345,766.313 L1297.231,765.329 L1297.231,738.774 L1250.232,739.758 z" fill="#6B6B6B"/>
      <path d="M1250.232,767.191 L1249.345,793.746 L1297.231,792.762 L1297.231,766.208 L1250.232,767.191 z" fill="#6B6B6B"/>
      <path d="M1250.232,794.729 L1249.345,821.284 L1297.231,820.3 L1297.231,793.746 L1250.232,794.729 z" fill="#6B6B6B"/>
      <path d="M1250.232,822.267 L1249.345,848.822 L1297.231,847.839 L1297.231,821.284 L1250.232,822.267 z" fill="#6B6B6B"/>
      <path d="M1393.677,712.562 L1394.563,739.116 L1346.678,738.133 L1346.678,711.578 L1393.677,712.562 z" fill="#6B6B6B"/>
      <path d="M1393.677,740.1 L1394.563,766.654 L1346.678,765.671 L1346.678,739.116 L1393.677,740.1 z" fill="#6B6B6B"/>
      <path d="M1393.677,767.533 L1394.563,794.088 L1346.678,793.104 L1346.678,766.55 L1393.677,767.533 z" fill="#6B6B6B"/>
      <path d="M1393.677,795.071 L1394.563,821.626 L1346.678,820.642 L1346.678,794.088 L1393.677,795.071 z" fill="#6B6B6B"/>
      <path d="M1393.677,822.609 L1394.563,849.164 L1346.678,848.18 L1346.678,821.626 L1393.677,822.609 z" fill="#6B6B6B"/>
      <path d="M1345.791,712.562 L1346.678,739.116 L1298.792,738.133 L1298.792,711.578 L1345.791,712.562 z" fill="#6B6B6B"/>
      <path d="M1345.791,740.1 L1346.678,766.654 L1298.792,765.671 L1298.792,739.116 L1345.791,740.1 z" fill="#6B6B6B"/>
      <path d="M1345.791,767.533 L1346.678,794.088 L1298.792,793.104 L1298.792,766.55 L1345.791,767.533 z" fill="#6B6B6B"/>
      <path d="M1345.791,795.071 L1346.678,821.626 L1298.792,820.642 L1298.792,794.088 L1345.791,795.071 z" fill="#6B6B6B"/>
      <path d="M1345.791,822.609 L1346.678,849.164 L1298.792,848.18 L1298.792,821.626 L1345.791,822.609 z" fill="#6B6B6B"/>
    </g>
    <path d="M79.141,658.979 L77.795,606.148 L110.772,606.148 L109.426,658.979 L79.141,658.979 z" fill="#000000" fill-opacity="0.475" id="Pivot_l0_t0"/>
    <path d="M623.829,667.316 L623.829,733.676 L789.661,733.676 L956.934,738.002 L1111.23,739.444 L1253.99,739.444 L1394.563,745.212 L1394.563,673.583 L1253.99,673.583 L1116.998,667.316 L958.376,667.316 L791.103,667.316 L623.829,667.316 z" fill="#9D9D9D"/>
    <path d="M695.216,667.316 L695.216,657.708 L949.756,653.095 L949.756,667.316 L695.216,667.316 z" fill="#000000"/>
    <path d="M1086.816,667.742 L1087.795,656.032 L1326.671,664.805 L1326.671,673.583 L1251.288,673.583 L1086.816,667.742 z" fill="#000000"/>
    <path d="M949.756,667.316 L949.756,648.915 L1086.816,650.158 L1086.816,667.316 L949.756,667.316 z" fill="#5A5A5A"/>
    <path d="M1326.671,673.583 L1326.671,656.032 L1394.563,656.032 L1394.563,673.583 L1326.671,673.583 z" fill="#787878"/>
    <path d="M623.829,667.316 L623.829,648.915 L695.216,648.915 L695.216,667.742 L623.829,667.316 z" fill="#787878"/>
    <path d="M644.167,648.915 L651.991,323.704 L741.682,306.491 L755.156,318.554 L705.69,331.528 L691.017,328.643 L669.205,333.093 L670.769,648.915 L644.167,648.915 z" fill="#B5B5B5"/>
    <path d="M1372.722,656.032 L1364.898,330.821 L1275.207,313.608 L1261.732,325.671 L1311.198,338.646 L1325.872,335.76 L1347.684,340.21 L1346.119,656.032 L1372.722,656.032 z" fill="#B5B5B5"/>
    <path d="M1016.289,649.915 L1014.538,589.612 L1029.126,590.779 L1027.959,649.915 L1016.289,649.915 z" fill="#7F7F7F"/>
    <path d="M1993.187,39.859 L2016.096,39.859 L2016.096,682.4 L1993.187,682.4 L1993.187,39.859 z" fill="#A2A2A2"/>
    <path d="M703.282,732.725 L703.282,739.288 L768.627,740.886 L768.627,732.725 L703.282,732.725 z" fill="#FFFFFF"/>
    <path d="M864.417,736.77 L864.417,744.212 L919.806,744.212 L919.806,737.609 L864.417,736.77 z" fill="#FFFFFF"/>
    <path d="M991.538,737.77 L991.538,745.212 L1051.085,745.212 L1051.924,737.77 L991.538,737.77 z" fill="#FFFFFF"/>
    <path d="M1122.063,738.821 L1122.063,746.212 L1182.489,746.212 L1182.489,738.77 L1122.063,738.821 z" fill="#FFFFFF"/>
    <path d="M1258.97,739.891 L1257.181,749.037 L1318.472,751.395 L1318.445,741.799 L1258.97,739.891 z" fill="#FFFFFF"/>
    <path d="M702.092,733.29 C700.35,734.161 621.091,841.422 621.091,841.422 L835.353,847.519 L768.287,735.032 L702.092,733.29 z" fill="#FFFFFF" fill-opacity="0.415"/>
    <path d="M860.611,736.774 C858.869,737.645 779.61,844.906 779.61,844.906 L993.871,851.003 L926.806,738.516 L860.611,736.774 z" fill="#FFFFFF" fill-opacity="0.415"/>
    <path d="M990.355,736.835 C988.644,737.765 914.062,847.65 914.062,847.65 L1128.407,846.438 L1056.57,736.32 L990.355,736.835 z" fill="#FFFFFF" fill-opacity="0.415"/>
    <path d="M1122.744,738.577 C1121.033,739.507 1046.452,849.392 1046.452,849.392 L1260.797,848.18 L1188.96,738.062 L1122.744,738.577 z" fill="#FFFFFF" fill-opacity="0.415"/>
    <path d="M1255.123,741.081 C1253.407,741.978 1178.206,847.407 1178.206,847.407 L1392.548,846.77 L1321.338,740.747 L1255.123,741.081 z" fill="#FFFFFF" fill-opacity="0.415"/>
    <g id="Faucet">
      <path d="M367.05,670.636 L367.304,659.965 L365.273,659.965 L365.273,654.125 L367.05,653.871 L366.796,649.808 L370.351,647.269 L372.129,647.269 L375.43,649.301 L375.43,653.363 L376.953,653.617 L377.461,659.458 L375.683,659.458 L376.191,670.363 L367.05,670.636 z" fill="#FF0000"/>
      <path d="M372.325,668.821 L371.775,659.203 L371.638,648.074 L374.248,649.448 L374.798,653.982 L376.172,654.532 L376.447,658.516 L374.935,658.516 L375.485,668.821 L372.325,668.821 z" fill="#810606"/>
      <path d="M376.953,653.617 L377.461,658.791 L379.469,658.791 L379.057,653.708 L376.953,653.617 z" fill="#C3C3C3"/>
      <path d="M363.257,654.395 L365.273,654.125 L366.005,658.791 L362.982,659.616 L363.257,654.395 z" fill="#C3C3C3"/>
    </g>
    <path d="M1485.163,246.315 L1482.828,35.83 L1937.011,38.023 L1938.179,246.315 L1485.163,246.315 z" fill="#E4C2C2"/>
    <g id="Panel">
      <path d="M2390.67,678.365 L2348.25,334.27 L2736.311,331.985 L2720.099,677.604 z" fill="#C0A496"/>
      <path d="M2523.231,678.84 L2521.056,588.863 L2593.009,589.648 L2606.924,677.88 L2523.231,678.84 z" fill="#000000"/>
      <path d="M2515.714,678.926 L2506.057,579.905 L2521.056,588.863 L2523.231,678.84 L2515.714,678.926 z" fill="#815E13"/>
      <path d="M2593.009,589.648 L2521.056,588.863 L2506.057,579.905 L2596.367,578.87 L2593.009,589.648 z" fill="#7C5314"/>
      <path d="M2606.924,677.88 L2593.009,589.648 L2596.367,578.87 L2614.57,680.15 L2606.924,677.88 z" fill="#8D6637"/>
    </g>
    <path d="M2711.45,676.112 L2724.619,343.79 L2496.874,346.114 L2523.211,495.62 L2634.76,533.578 L2654.901,677.662 L2711.45,676.112 z" fill="#946B56"/>
    <path d="M2547.048,678.176 L2545.702,625.344 L2578.679,625.344 L2577.333,678.176 L2547.048,678.176 z" fill="#484848" id="Pivot_e"/>
    <path d="M199.37,665.84 L198.024,613.008 L231,613.008 L229.654,665.84 L199.37,665.84 z" fill="#484848" id="Pivot_l4_t0_s1_c4"/>
    <path d="M1014.822,838 L1013.476,785.168 L1046.452,785.168 L1045.106,838 L1014.822,838 z" fill="#484848" id="Pivot_l4_t1_s1_c5"/>
    <path d="M720.812,838 L719.466,785.168 L752.443,785.168 L751.096,838 L720.812,838 z" fill="#484848" id="Pivot_l4_t1_s1_c1"/>
    <path d="M1811.41,672.511 L1810.064,619.679 L1843.04,619.679 L1841.694,672.511 L1811.41,672.511 z" fill="#484848" id="Pivot_l4_t2_s1_c2"/>
    <path d="M2376.279,671.224 L2374.933,618.392 L2407.909,618.392 L2406.562,671.224 L2376.279,671.224 z" fill="#484848" id="Pivot_l4_t2_s1_c2"/>
    <path d="M2143.282,567.154 L2141.937,514.322 L2174.913,514.322 L2173.566,567.154 L2143.282,567.154 z" fill="#484848" id="Pivot_l4_t3_s1_c1"/>
    <path d="M1833.715,450.218 L1832.369,397.386 L1865.345,397.386 L1863.999,450.218 L1833.715,450.218 z" fill="#484848" id="Pivot_l4_t4_s1_c1"/>
    <path d="M2134.809,343.79 L2133.463,290.958 L2166.439,290.958 L2165.093,343.79 L2134.809,343.79 z" fill="#484848" id="Pivot_l4_t5_s1_c1"/>
    <path d="M1881.941,228.786 L1880.595,175.954 L1913.571,175.954 L1912.225,228.786 L1881.941,228.786 z" fill="#484848" id="Pivot_l4_t0_s1_c2"/>
    <path d="M1553.285,232.244 L1551.939,179.412 L1584.915,179.412 L1583.569,232.244 L1553.285,232.244 z" fill="#484848" id="Pivot_l4_t1_s1_c6"/>
    <g id="EndSign">
      <path d="M2281.543,657.674 L2279.147,677.247 L2282.501,678.414 L2286.094,657.674 L2281.543,657.674 z" fill="#000000"/>
      <path d="M2271.959,639.704 L2268.364,667.2 L2300.472,666.966 L2303.824,638.307 L2271.959,639.704 z" fill="#FFFFFF"/>
      <path d="M2273.833,641.598 L2270.76,665.103 L2298.206,664.903 L2301.073,640.403 L2273.833,641.598 z" fill="#000000"/>
      <path d="M2278.428,652.986 L2286.334,652.287 L2287.293,647.858 L2293.044,654.851 L2287.053,657.879 L2286.815,655.316 L2277.469,655.549 L2278.428,652.986 z" fill="#FFFFFF"/>
    </g>
    <path d="M-123.287,577.397 L34.06,577.808 L49.08,679.155 L39.641,678.778 L33.712,643.851 L31.22,605.64 L24.99,587.78 L-100.859,586.534 L-122.872,585.288 L-123.287,577.397 z" fill="#9D9D9D"/>
    <g id="Lamp">
      <path d="M118.112,546.215 L121.253,537.735 L120.311,525.485 L112.144,511.979 L123.766,523.286 L125.964,537.42 L123.451,544.645 L118.112,546.215 z" fill="#757575"/>
      <path d="M65.972,669.968 L67.857,644.84 L65.03,603.694 L64.402,572.285 L69.427,540.561 L76.338,522.03 L79.793,514.806 L94.241,505.383 L79.793,511.037 L72.883,517.318 L66.915,537.42 L61.889,558.465 L60.633,581.079 L61.261,610.918 L63.146,637.302 L60.005,671.224 L65.972,669.968 z" fill="#757575"/>
      <path d="M64.128,669.479 L65.327,630.661 L62.694,583.028 L64.824,550.204 L76.955,514.553 L93.764,503.834 L113.242,507.465 L126.024,522.628 L130.382,536.295 L142.885,544.49 L116.155,547.927 L122.681,537.802 L122.114,523.922 L112.233,511.58 L94.693,509.834 L82.801,515.137 L70.592,551.495 L68.502,579.255 L72.26,626.421 L71.71,669.001 z" fill="#CECECE"/>
      <path d="M129.419,537.735 L131.618,543.702 L138.214,543.702 L129.419,537.735 z" fill="#757575"/>
    </g>
    <g id="Lamp">
      <path d="M445.768,548.984 L448.909,540.504 L447.967,528.254 L439.8,514.748 L451.422,526.055 L453.62,540.189 L451.107,547.414 L445.768,548.984 z" fill="#757575"/>
      <path d="M393.628,672.737 L395.513,647.609 L392.686,606.463 L392.058,575.054 L397.083,543.33 L403.994,524.799 L407.449,517.575 L421.897,508.152 L407.449,513.806 L400.539,520.087 L394.571,540.189 L389.545,561.234 L388.289,583.848 L388.917,613.687 L390.802,640.071 L387.661,673.993 L393.628,672.737 z" fill="#757575"/>
      <path d="M391.784,672.248 L392.983,633.43 L390.35,585.797 L392.48,552.973 L404.611,517.322 L421.42,506.603 L440.898,510.234 L453.68,525.397 L458.038,539.064 L470.541,547.259 L443.811,550.696 L450.337,540.571 L449.77,526.691 L439.889,514.349 L422.349,512.603 L410.457,517.906 L398.248,554.264 L396.158,582.024 L399.916,629.19 L399.366,671.77 z" fill="#CECECE"/>
      <path d="M457.075,540.504 L459.274,546.471 L465.87,546.471 L457.075,540.504 z" fill="#757575"/>
    </g>
    <g id="Lamp">
      <path d="M1676.84,552.843 L1679.981,544.363 L1679.039,532.113 L1670.872,518.607 L1682.494,529.914 L1684.692,544.048 L1682.179,551.273 L1676.84,552.843 z" fill="#757575"/>
      <path d="M1624.7,676.596 L1626.585,651.468 L1623.758,610.322 L1623.13,578.913 L1628.155,547.189 L1635.066,528.658 L1638.521,521.434 L1652.969,512.011 L1638.521,517.665 L1631.611,523.946 L1625.643,544.048 L1620.617,565.093 L1619.361,587.707 L1619.989,617.546 L1621.874,643.93 L1618.733,677.852 L1624.7,676.596 z" fill="#757575"/>
      <path d="M1622.856,676.107 L1624.055,637.289 L1621.422,589.656 L1623.552,556.832 L1635.683,521.181 L1652.492,510.462 L1671.97,514.093 L1684.752,529.256 L1689.11,542.923 L1701.613,551.118 L1674.883,554.555 L1681.409,544.43 L1680.842,530.55 L1670.961,518.208 L1653.421,516.462 L1641.529,521.765 L1629.32,558.123 L1627.23,585.883 L1630.988,633.049 L1630.438,675.629 z" fill="#CECECE"/>
      <path d="M1688.147,544.363 L1690.346,550.33 L1696.942,550.33 L1688.147,544.363 z" fill="#757575"/>
    </g>
    <g id="Lamp">
      <path d="M2257.644,556.703 L2260.785,548.223 L2259.843,535.973 L2251.676,522.467 L2263.298,533.774 L2265.496,547.908 L2262.983,555.133 L2257.644,556.703 z" fill="#757575"/>
      <path d="M2205.504,680.456 L2207.389,655.328 L2204.562,614.182 L2203.934,582.773 L2208.959,551.049 L2215.87,532.518 L2219.325,525.294 L2233.773,515.871 L2219.325,521.525 L2212.415,527.806 L2206.447,547.908 L2201.421,568.953 L2200.165,591.567 L2200.793,621.406 L2202.678,647.79 L2199.537,681.712 L2205.504,680.456 z" fill="#757575"/>
      <path d="M2203.66,679.967 L2204.859,641.149 L2202.226,593.516 L2204.356,560.692 L2216.487,525.041 L2233.296,514.322 L2252.774,517.953 L2265.556,533.116 L2269.914,546.783 L2282.417,554.978 L2255.687,558.415 L2262.213,548.29 L2261.646,534.41 L2251.765,522.068 L2234.225,520.322 L2222.333,525.625 L2210.124,561.983 L2208.034,589.743 L2211.792,636.909 L2211.242,679.489 z" fill="#CECECE"/>
      <path d="M2268.951,548.223 L2271.15,554.19 L2277.746,554.19 L2268.951,548.223 z" fill="#757575"/>
    </g>
    <g id="Trash">
      <path d="M1684.506,677.571 L1684.678,659.206 L1688.29,659.206 L1687.946,677.571 L1684.506,677.571 z" fill="#989898"/>
      <path d="M1686.317,677.747 L1686.317,666.068 L1688.04,665.11 L1687.946,677.571 L1686.317,677.747 z" fill="#717171"/>
      <path d="M1685.022,670.8 L1680.205,669.94 L1677.968,663.059 L1677.968,654.113 L1679.173,649.124 L1684.678,646.2 L1691.043,645.339 L1694.827,647.06 L1696.204,650.985 L1696.204,656.005 L1696.204,662.887 L1694.655,667.328 L1689.666,670.456 L1685.022,670.8 z" fill="#ED6C00"/>
      <path d="M1681.237,650.985 L1684.678,648.264 L1688.806,647.232 L1692.935,647.748 L1694.139,650.985 L1692.763,652.35 L1682.957,652.35 L1681.237,650.985 z" fill="#000000"/>
      <path d="M1687.125,670.323 L1690.954,669.365 L1693.826,668.025 L1695.741,664.004 L1695.741,655.963 L1693.635,663.047 L1691.72,666.685 L1687.125,670.323 z" fill="#A84D00"/>
    </g>
    <path d="M1495.991,54.804 L1599.677,54.804 L1599.677,158.491 L1495.991,158.491 L1495.991,54.804 z" fill="#0CB25C" fill-opacity="0.42"/>
    <path d="M1561.096,122.924 L1665.385,122.924 L1665.385,227.213 L1561.096,227.213 L1561.096,122.924 z" fill="#0CB25C" fill-opacity="0.42"/>
    <path d="M1584.004,84.946 L1640.067,84.946 L1640.067,141.009 L1584.004,141.009 L1584.004,84.946 z" fill="#0CB25C" fill-opacity="0.42"/>
    <path d="M1716.023,75.903 L1832.369,75.903 L1832.369,192.249 L1716.023,192.249 L1716.023,75.903 z" fill="#0CB25C" fill-opacity="0.42"/>
    <path d="M1884.815,119.307 L1922.19,119.307 L1922.19,156.682 L1884.815,156.682 L1884.815,119.307 z" fill="#0CB25C" fill-opacity="0.42"/>
    <path d="M1810.064,147.037 L1898.077,147.037 L1898.077,235.05 L1810.064,235.05 L1810.064,147.037 z" fill="#0CB25C" fill-opacity="0.42"/>
    <path d="M1638.258,50.585 L1720.243,50.585 L1720.243,132.569 L1638.258,132.569 L1638.258,50.585 z" fill="#0CB25C" fill-opacity="0.42"/>
    <path d="M1697.335,202.497 L1715.42,202.497 L1715.42,220.582 L1697.335,220.582 L1697.335,202.497 z" fill="#0CB25C" fill-opacity="0.42"/>
    <path d="M1502.019,181.398 L1525.529,181.398 L1525.529,204.909 L1502.019,204.909 L1502.019,181.398 z" fill="#0CB25C" fill-opacity="0.42"/>
    <path d="M1732.299,169.945 L1779.923,169.945 L1779.923,217.568 L1732.299,217.568 L1732.299,169.945 z" fill="#0CB25C" fill-opacity="0.42"/>
    <path d="M2092.197,352.588 L2090.851,299.756 L2123.828,299.756 L2122.482,352.588 L2092.197,352.588 z" fill="#484848" id="Pivot_g"/>
  </g>
  <g id="Surfaces">
    <path d="M39.641,665.84 L161.073,669.881 L287.697,670.589 L407.248,669.881 L403.003,678.778 L288.405,681.907 L161.78,681.907 L39.641,678.778 L39.641,665.84 z" fill="#9D9D9D"/>
    <path d="M608.766,842.699 L833.406,846.822 L1045.793,846.822 L1235.716,846.822 L1401.132,846.822 L1401.132,855.633 L1235.716,857.675 L1044.432,856.313 L833.406,855.633 L608.766,852.805 L608.766,842.699 z" fill="#9D9D9D"/>
    <path d="M418.747,670 L418.747,682.344 L433.2,682.344 L433.2,694.689 L446.8,694.689 L446.8,707.033 L460.4,707.033 L460.4,719.377 L474,719.377 L474,731.721 L487.6,731.721 L487.6,744.066 L501.2,744.066 L501.2,756.41 L514.8,756.41 L514.8,768.754 L528.4,768.754 L528.4,781.098 L542,781.098 L542,793.443 L555.6,793.443 L555.6,805.787 L569.2,805.787 L569.2,818.131 L582.8,818.131 L582.8,830.475 L596.4,830.475 L596.4,842.82 L610,842.82 L610,855.164 L582.8,855.164 L406,694.689 L406,670 L418.747,670 z" fill="#9D9D9D"/>
    <path d="M1601.212,672.511 L1601.212,684.855 L1585.596,684.855 L1585.596,697.199 L1570.901,697.199 L1570.901,709.544 L1556.207,709.544 L1556.207,721.888 L1541.512,721.888 L1541.512,734.232 L1526.817,734.232 L1526.817,746.576 L1512.122,746.576 L1512.122,758.921 L1497.427,758.921 L1497.427,771.265 L1482.732,771.265 L1482.732,783.609 L1468.038,783.609 L1468.038,795.954 L1453.343,795.954 L1453.343,808.298 L1438.648,808.298 L1438.648,820.642 L1423.953,820.642 L1423.953,832.986 L1409.258,832.986 L1409.258,845.331 L1394.563,845.331 L1394.563,857.675 L1423.953,857.675 L1614.986,697.199 L1614.986,672.511 L1601.212,672.511 z" fill="#9D9D9D"/>
    <path d="M1614.986,672.511 L1728.052,678.778 L1814.762,678.778 L1898.868,681.907 L1975.045,681.907 L2050.588,681.907 L2050.588,694.331 L1975.045,691.704 L1898.868,693.674 L1814.762,690.39 L1727.395,691.047 L1614.986,691.047 L1614.986,672.511 z" fill="#9D9D9D"/>
    <path d="M2050.588,681.907 L2139.755,678.778 L2235.511,678.778 L2324.936,678.778 L2399.324,678.778 L2472.13,678.778 L2559.972,678.778 L2650.188,678.778 L2714.289,678.778 L2798.661,678.778 L2798.661,689.007 L2714.289,687.424 L2650.188,688.216 L2559.972,687.424 L2471.339,689.007 L2400.115,688.216 L2324.936,689.007 L2236.302,688.216 L2140.546,689.798 L2050.588,694.331 L2050.588,681.907 z" fill="#9D9D9D"/>
    <path d="M37.956,583.245 L47.784,666.1 L158.608,669.636 L291.498,670.902 L407.934,669.636 L605.37,844.291 L1009.101,845.557 L1400.175,846.822 L1605.251,675.479 L1892.27,680.428 L2798.661,678.778 L2809.276,601.718" fill-opacity="0" stroke="#000000" stroke-width="1"/>
    <path d="M1928.798,690.313 L2066.896,576.827 L2180.383,575.459" fill-opacity="0" stroke="#000000" stroke-width="1"/>
    <path d="M2065.529,575.459 L1928.798,456.504 L1815.311,453.769" fill-opacity="0" stroke="#000000" stroke-width="1"/>
    <path d="M1928.798,459.238 L2065.529,352.588 L2174.913,352.588" fill-opacity="0" stroke="#000000" stroke-width="1"/>
    <path d="M2065.529,353.417 L1928.798,239.931 L1483.146,239.329" fill-opacity="0" stroke="#000000" stroke-width="1"/>
    <path d="M1922.627,692.907 L2065.529,575.459 L2180.383,575.459 L2180.383,585.857 L2065.529,585.857 L1939.022,692.907 L1922.627,692.907 z" fill="#9D9D9D"/>
    <path d="M2065.529,575.459 L1928.798,453.769 L1815.311,453.769 L1815.311,465.621 L1925.056,465.014 L2057.436,582.821 L2065.529,575.459 z" fill="#9D9D9D"/>
    <path d="M1928.798,453.769 L2065.529,352.588 L2174.913,352.588 L2174.913,362.389 L2068.974,362.389 L1935.987,459.238 L1928.798,453.769 z" fill="#9D9D9D"/>
    <path d="M2065.529,352.588 L1928.798,238.5 L1755.633,238.5 L1643.293,238.5 L1556.456,238.5 L1483.146,238.5 L1483.146,247.619 L1597.142,247.619 L1711.911,248.226 L1815.311,249.441 L1922.627,248.226 L2058.044,358.138 L2065.529,352.588 z" fill="#9D9D9D"/>
    <path d="M1945.111,681.991 L2063.826,584.018 L2181.216,583.136 L2180.701,586.124 L2065.847,586.124 L1952.172,681.108 L1945.111,681.991 z" fill="#545454"/>
    <path d="M1815.928,461.948 L1927.14,461.948 L2060.859,580.221 L2057.436,582.821 L1925.056,465.014 L1815.311,465.621 L1815.928,461.948 z" fill="#545454"/>
    <path d="M1933.318,456.652 L2068.362,358.238 L2175.161,358.679 L2174.913,362.389 L2068.974,362.389 L1935.987,459.238 L1933.318,456.652 z" fill="#545454"/>
    <path d="M1483.716,243.733 L1659.176,243.197 L1753.076,246.416 L1837.855,246.416 L1924.78,246.416 L1922.627,248.226 L1836.781,250.172 L1753.076,250.172 L1658.639,246.953 L1483.146,247.619 L1483.716,243.733 z" fill="#545454"/>
    <path d="M2058.044,358.138 L1922.627,248.226 L1924.78,246.416 L2060.941,355.82 L2058.044,358.138 z" fill="#545454"/>
  </g>
</svg>
