<?xml version="1.0" encoding="UTF-8"?>
<svg version="1.1" xmlns="http://www.w3.org/2000/svg" xmlns:xlink="http://www.w3.org/1999/xlink" x="0" y="0" width="2000" height="792" viewBox="0, 0, 2000, 792">
  <g id="Background">
    <path d="M0,0 L2000,0 L2000,792 L0,792 z" fill="#FFFFFF"/>
  </g>
  <g id="Background">
    <path d="M0,0 L2000,0 L2000,792 L0,792 z" fill="#FFFFFF"/>
  </g>
  <g id="Layer_2">
    <path d="M-127.481,-261.736 L2101.277,-261.736 L2101.277,882.186 L-127.481,882.186 L-127.481,-261.736 z" fill="#92D7F8"/>
    <path d="M-185.951,159.217 L2249.226,159.217 L2249.226,898.046 L-185.951,898.046 L-185.951,159.217 z" fill="#A4E2FF"/>
    <path d="M-165.264,250.832 L2246.271,250.832 L2246.271,889.18 L-165.264,889.18 L-165.264,250.832 z" fill="#C0EBFF"/>
    <path d="M105.695,137.711 L121.108,170.973 L176.273,170.162 L201.422,155.559 L228.193,155.559 L241.173,123.109 L208.723,110.129 L163.293,119.552 L127.598,115.808 L105.695,137.711 z" fill="#E4F1F9"/>
    <path d="M359.571,173.366 L374.984,206.628 L430.149,205.817 L455.298,191.214 L482.069,191.214 L495.049,158.764 L462.599,145.784 L417.169,155.207 L381.474,151.463 L359.571,173.366 z" fill="#E4F1F9"/>
    <path d="M1781.022,234.21 L1796.435,267.472 L1851.6,266.661 L1876.749,252.058 L1903.52,252.058 L1916.5,219.608 L1884.05,206.628 L1838.62,216.051 L1802.925,212.307 L1781.022,234.21 z" fill="#E4F1F9"/>
    <path d="M805.33,112.522 L820.743,145.784 L875.908,144.973 L901.057,130.37 L927.828,130.37 L940.808,97.92 L908.358,84.94 L862.928,94.363 L827.233,90.619 L805.33,112.522 z" fill="#E4F1F9"/>
    <path d="M713.202,134.278 L724.709,140.605 L752.836,145.784 L794.386,128.387 L809.728,138.082 L835.298,133.639 L853.836,112.544 L829.545,80.038 L790.551,80.038 L760.453,65.24 L737.494,91.558 L701.057,86.974 L676.765,124.689 L690.189,140.861 L713.202,134.278 z" fill="#F3FAFD"/>
    <path d="M1057.915,195.122 L1069.422,201.449 L1097.549,206.628 L1139.099,189.231 L1154.441,198.926 L1180.011,194.483 L1198.549,173.388 L1174.258,140.882 L1135.264,140.882 L1105.166,126.084 L1082.207,152.402 L1045.77,147.818 L1021.478,185.533 L1034.902,201.705 L1057.915,195.122 z" fill="#F3FAFD"/>
    <path d="M1459.566,169.317 L1471.073,175.644 L1499.2,180.823 L1540.75,163.426 L1556.092,173.121 L1581.662,168.678 L1600.2,147.583 L1575.909,115.077 L1536.915,115.077 L1506.817,100.279 L1483.858,126.597 L1447.421,122.013 L1423.129,159.728 L1436.553,175.9 L1459.566,169.317 z" fill="#F3FAFD"/>
  </g>
  <g id="Surfaces">
    <path d="M41.293,291.966 L120.752,291.966 L184.116,278.047 L235.842,278.047 L281.102,291.966 L320.455,299.092 L359.571,304.784 L398.779,291.966 L444.391,274.282 L495.049,244.51 L542.318,206.69 L595.222,180.823 L638.778,180.823 L676.765,187.527 L742.815,193.042 L785.43,180.823 L873.364,166.521 L906.788,174.458 L928.97,193.042 L985.81,304.784 L19.887,377.688 L41.293,291.966 z" fill="#55DF79"/>
    <path d="M-188.575,188.488 L46.079,195.007 L60.865,315.265 L392.367,323.074 L581.715,209.936 L602.928,206.628 L637.498,206.628 L806.419,209.936 L902.912,209.936 L1059.966,333.653 L1075.121,333.653 L1142.689,338.318 L1214.972,333.653 L1274.683,338.318 L1335.18,333.653 L1431.8,343.303 L1534.866,352.074 L1654.598,353.39 L1781.708,395.136 L1879.054,399.622 L1935.984,397.473 L1960.972,739.271 L2297.541,740.629 L2275.932,908.918 L-186.058,792 L-188.575,188.488 z" fill="#00BB40"/>
    <path d="M1675.758,481.912 L1697.039,453.094 L1717.877,422.946 L1730.034,376.634 L1771.523,399.448 L1746.251,425.606 L1715.217,447.33 L1691.276,470.384 L1675.758,481.912 z" fill="#00A137"/>
    <path d="M1695.152,465.76 L1722.88,434.845 L1739.453,418.909 L1750.647,387.599 L1777.4,397.686 L1754.751,416.997 L1746.783,424.646 L1725.43,439.307 L1695.152,465.76 z" fill="#017B2B"/>
    <path d="M1932.761,393.43 L1784.74,396.254 L1720.508,448.473 L1684.565,486.087 L1642.789,508.237 L1612.681,542.508 L1578.558,568.002 L1478.524,572.599 L1380.541,574.596 L1300.066,574.596 L1250.332,574.596 L1198.993,579.196 L1155.461,615.228 L1113.25,647.827 L1076.054,685.859 L1036.35,720.129 L1014.618,738.341 L957.779,738.341 L906.788,738.341 L842.847,735.593 L784.893,736.379 L733.766,733.409 L682.778,733.409 L597.856,730.527 L588.737,661.542 L420.659,654.216 L308.9,644.649 L251.888,754.4 L203.408,750.639 L38.126,747.032 L-190.187,751.052 L-185.025,851.195 L1959.735,901.516 z" fill="#007628"/>
    <path d="M597.088,210.09 L623.452,216.241 L646.302,216.241 L687.899,216.827 L735.355,216.534 L789.695,215.944 L839.086,219.201 L871.651,215.944 L898.245,219.743 L902.588,211.059 L774.498,207.803 L661.606,209.431 L593.762,204.004 L597.088,210.09 z" fill="#7B611B"/>
    <path d="M38.348,196.401 L38.066,221.559 L44.85,242.194 L44.85,271.028 L48.808,298.447 L57.571,326.715 L62.941,325.585 L58.419,306.645 L44.85,195.835 L38.348,196.401 z" fill="#7B611B"/>
    <path d="M401.307,326.998 L430.404,306.193 L462.795,288.997 L501.185,263.804 L539.174,243.41 L567.567,223.815 L599.958,209.819 L594.359,203.42 L529.577,241.01 L411.209,310.591 L390.414,324.988 L390.814,330.586 L401.307,326.998 z" fill="#76600E"/>
    <path d="M60.58,319.765 L60.58,325.917 L73.829,323.551 L88.497,324.97 L109.316,323.078 L140.072,321.658 L163.256,324.97 L195.905,324.024 L225.241,325.917 L255.523,324.497 L277.288,327.809 L298.107,328.282 L311.829,326.863 L337.853,328.755 L361.511,329.229 L380.911,331.594 L392.74,330.175 L392.266,323.078 L207.26,318.819 L77.614,315.98 L60.58,319.765 z" fill="#845C00"/>
    <path d="M1747.856,425.747 L1773.786,401.618 L1781.708,395.136 L1843.651,394.055 L1872.462,394.415 L1837.529,396.936 L1804.037,398.737 L1783.149,401.618 L1762.261,416.744 L1747.856,425.747 z" fill="#3A3A3A"/>
    <path d="M69.119,337.989" fill="#00A137"/>
    <path d="M-91.051,192.876 L-34.917,194.822 L40.947,195.655 L40.947,202.325 L28.164,199.268 L-9.351,200.101 L-41.03,201.491 L-64.651,200.101 L-92.996,200.101 L-91.051,192.876 z" fill="#7D6C38"/>
    <path d="M1059.44,336.477 L902.588,211.059 L895.342,219.529 L927.237,236.169 L954.047,262.055 L995.187,294.875 L1034.479,324.459 L1049.733,343.873 L1058.978,344.336 L1059.44,336.477 z" fill="#7B611B"/>
    <path d="M1381.165,335.091 L1381.165,342.487 L1348.808,339.713 L1317.375,343.411 L1272.999,345.722 L1230.01,343.411 L1199.501,347.571 L1164.833,345.722 L1115.834,348.496 L1087.637,341.1 L1056.666,344.336 L1056.666,335.091 L1128.315,339.713 L1232.321,333.242 L1288.253,337.402 L1381.165,335.091 z" fill="#7B611B"/>
    <path d="M1654.598,353.39 L1655.741,365.599 L1637.251,361.901 L1586.866,359.128 L1546.65,356.816 L1507.359,360.052 L1493.954,355.43 L1455.125,349.883 L1415.371,347.571 L1379.316,341.562 L1377.929,335.553 L1501.35,350.807 L1560.815,350.173 L1654.598,353.39 z" fill="#7B611B"/>
    <path d="M1772.615,399.622 L1744.03,389.636 L1710.286,374.844 L1663.599,368.373 L1652.043,363.75 L1652.043,354.043 L1698.73,365.599 L1778.237,395.183 L1772.615,399.622 z" fill="#7B611B"/>
    <path d="M1934.183,389.761 L1936.521,402.035 L1936.911,418.207 L1927.904,401.243 L1906.127,401.256 L1868.375,405.353 L1830.933,403.041 L1787.482,405.353 L1771.523,399.448 L1775.925,394.259 L1882.243,396.57 L1934.183,389.761 z" fill="#7B611B"/>
    <path d="M1575.54,565.288 L1615.987,538.018 L1642.789,508.237 L1687.174,479.312 L1722.767,445.106 L1778.699,399.806 L1787.482,405.353 L1765.294,419.22 L1742.181,439.559 L1716.758,457.587 L1694.107,485.322 L1667.297,500.576 L1636.789,525.075 L1607.205,552.348 L1575.772,574.073 L1575.54,565.288 z" fill="#7B611B"/>
    <path d="M1198.993,579.197 L1199.501,585.167 L1271.612,584.243 L1297.036,580.083 L1330.78,584.705 L1379.778,580.083 L1430.163,581.007 L1487.944,576.385 L1519.84,577.309 L1538.792,571.762 L1577.621,573.149 L1578.558,570.298 L1485.633,569.913 L1302.12,574.998 L1264.739,572.216 L1198.993,579.197 z" fill="#7B611B"/>
    <path d="M1020.611,736.785 L1053.431,704.427 L1100.118,661.901 L1143.107,623.996 L1198.993,579.196 L1199.501,585.167 L1186.558,593.488 L1168.993,611.978 L1151.427,622.147 L1131.089,644.335 L1104.278,666.523 L1077.005,692.409 L1053.893,715.984 L1039.563,726.153 L1026.62,744.643 L1020.611,736.785 z" fill="#7B611B"/>
    <path d="M597.856,730.527 L718.628,733.409 L811.675,735.398 L942.029,737.247 L1021.073,734.936 L1026.62,742.332 L1009.979,744.643 L970.688,746.03 L935.557,746.492 L914.294,741.407 L886.559,746.492 L850.503,741.87 L808.439,747.417 L781.166,741.87 L761.289,745.105 L731.706,741.407 L704.433,737.709 L683.169,746.492 L660.519,737.247 L624.926,739.096 L593.031,739.096 L590.72,714.135 L584.248,694.258 L578.239,672.07 L546.806,663.287 L501.968,664.212 L464.988,659.589 L452.045,656.354 L589.237,659.042 L597.856,730.527 z" fill="#7B611B"/>
  </g>
  <g id="Gfx">
    <g id="Faucet">
      <path d="M324.248,317.333 L324.502,306.662 L322.471,306.662 L322.471,300.822 L324.248,300.568 L323.994,296.505 L327.549,293.966 L329.327,293.966 L332.628,295.998 L332.628,300.06 L334.151,300.314 L334.659,306.155 L332.881,306.155 L333.389,317.06 L324.248,317.333 z" fill="#FF0000"/>
      <path d="M329.523,315.518 L328.973,305.9 L328.836,294.771 L331.446,296.145 L331.996,300.679 L333.37,301.229 L333.645,305.213 L332.133,305.213 L332.683,315.518 L329.523,315.518 z" fill="#810606"/>
      <path d="M334.151,300.314 L334.659,305.488 L336.667,305.488 L336.255,300.405 L334.151,300.314 z" fill="#C3C3C3"/>
      <path d="M320.455,301.092 L322.471,300.822 L323.203,305.488 L320.18,306.313 L320.455,301.092 z" fill="#C3C3C3"/>
    </g>
    <g id="Faucet">
      <path d="M1352.587,331.908 L1352.841,321.237 L1350.81,321.237 L1350.81,315.397 L1352.587,315.143 L1352.333,311.08 L1355.888,308.541 L1357.666,308.541 L1360.967,310.573 L1360.967,314.635 L1362.49,314.889 L1362.998,320.73 L1361.22,320.73 L1361.728,331.635 L1352.587,331.908 z" fill="#FF0000"/>
      <path d="M1357.862,330.093 L1357.312,320.475 L1357.175,309.346 L1359.785,310.72 L1360.335,315.254 L1361.709,315.804 L1361.984,319.788 L1360.472,319.788 L1361.022,330.093 L1357.862,330.093 z" fill="#810606"/>
      <path d="M1362.49,314.889 L1362.998,320.063 L1365.006,320.063 L1364.594,314.98 L1362.49,314.889 z" fill="#C3C3C3"/>
      <path d="M1348.794,315.667 L1350.81,315.397 L1351.542,320.063 L1348.519,320.888 L1348.794,315.667 z" fill="#C3C3C3"/>
    </g>
    <g id="Tree2">
      <path d="M1609.31,282.648 L1582.649,294.735 L1563.454,278.739 L1544.791,278.739 L1533.06,263.275 L1543.725,243.013 L1547.99,215.819 L1544.791,200.741 L1562.387,191.876 L1577.317,187.026 L1591.181,160.898 L1617.841,161.431 L1645.035,175.828 L1656.233,196.624 L1682.893,207.821 L1694.624,231.283 L1696.757,256.877 L1680.74,273.94 L1651.967,269.141 L1639.17,282.648 L1609.31,282.648 z" fill="#007005"/>
      <path d="M1617.308,350.189 L1607.177,315.53 L1610.91,288.87 L1607.177,275.539 L1589.048,274.473 L1569.852,257.486 L1571.985,251.011 L1590.114,263.275 L1605.044,259.843 L1601.845,243.546 L1593.847,221.685 L1598.112,215.819 L1616.242,246.213 L1629.039,250.478 L1639.703,249.412 L1667.43,241.947 L1670.63,249.945 L1644.502,259.843 L1638.104,269.674 L1639.703,295.443 L1646.635,317.13 L1649.834,351.256 L1617.308,350.189 z" fill="#AF9B5C"/>
      <path d="M1621.574,346.99 L1613.043,315.53 L1618.375,288.336 L1613.043,273.94 L1604.511,241.947 L1618.908,260.609 L1625.84,278.739 L1629.039,300.6 L1629.039,321.929 L1633.838,343.791 L1621.574,346.99 z" fill="#704E00"/>
      <path d="M1593.314,172.096 L1585.849,187.026 L1597.046,208.888 L1612.509,229.146 L1622.107,241.947 L1638.637,233.415 L1643.436,200.741 L1641.303,184.001 L1613.576,168.626 L1593.314,172.096 z" fill="#07410A"/>
      <path d="M1675.962,215.819 L1670.63,229.146 L1675.429,265.408 L1683.427,254.211 L1683.96,231.816 L1675.962,215.819 z" fill="#07410A"/>
    </g>
    <g id="Tree">
      <path d="M1523.189,298.024 L1510.36,311.179 L1494.592,310.769 L1478.564,301.783 L1480.011,291.409 L1475.48,280.447 L1455.358,272.852 L1449.887,249.425 L1464.911,231.11 L1483.466,233.808 L1479.884,209.034 L1499.219,203.547 L1509.875,202.544 L1513.413,189.656 L1530.794,177.458 L1552.035,185.149 L1560.984,209.685 L1576.196,209.64 L1600.918,216.828 L1615.854,249.649 L1595.859,267.56 L1575.17,284.052 L1567.458,298.621 L1551.151,284.295 L1523.189,298.024 z" fill="#006414"/>
      <path d="M1576.761,268.764 L1584.125,248.181 L1600.893,232.745 L1607.839,247.463 L1597.089,263.115 L1576.761,268.764 z" fill="#083B12"/>
      <path d="M1555.41,207.331 L1552.035,185.149 L1529.424,181.351 L1532.483,202.513 L1555.41,207.331 z" fill="#083B12"/>
      <path d="M1542.766,348.63 L1538.539,322.712 L1527.035,297.468 L1497.937,279.565 L1476.954,270.267 L1479.154,265.107 L1518.614,276.576 L1528.712,275.116 L1528.385,266.059 L1509.21,238.696 L1511.561,234.59 L1529.669,254.573 L1532.011,230.019 L1540.568,231.471 L1543.139,273.03 L1550.412,275.791 L1566.6,251.924 L1570.979,255.059 L1556.188,285.18 L1556.098,301.339 L1561.598,322.606 L1567.928,349.372 L1542.766,348.63 z" fill="#9B7F41"/>
      <path d="M1560.815,350.173 L1552.797,320.969 L1541.149,293.375 L1539.153,279.568 L1555.369,288.608 L1553.995,310.494 L1561.818,333.22 L1566.488,349.352 L1560.815,350.173 z" fill="#634B16"/>
    </g>
    <g id="Tree">
      <path d="M1723.047,320.824 L1707.312,330.312 L1692.159,325.931 L1678.922,313.188 L1682.941,303.515 L1681.328,291.765 L1663.778,279.332 L1664.402,255.283 L1683.567,241.358 L1700.838,248.656 L1703.632,223.781 L1723.724,223.357 L1734.289,225.079 L1740.967,213.503 L1760.866,206.092 L1779.475,218.899 L1781.936,244.9 L1796.665,248.7 L1818.77,261.901 L1824.929,297.431 L1801.058,309.71 L1776.872,320.439 L1765.731,332.587 L1753.571,314.605 L1723.047,320.824 z" fill="#006414"/>
      <path d="M1782.274,306.049 L1794.599,287.994 L1814.724,277.295 L1817.726,293.291 L1803.37,305.719 L1782.274,306.049 z" fill="#083B12"/>
      <path d="M1777.136,241.215 L1779.475,218.899 L1758.557,209.512 L1756.171,230.761 L1777.136,241.215 z" fill="#083B12"/>
      <path d="M1729.204,374.735 L1731.662,348.59 L1726.91,321.258 L1703.278,296.585 L1685.326,282.288 L1688.757,277.85 L1724.041,298.916 L1734.18,300.055 L1736.151,291.21 L1724.511,259.89 L1727.824,256.511 L1740.296,280.421 L1748.765,257.255 L1756.678,260.822 L1748.665,301.682 L1755.005,306.191 L1776.698,287.188 L1780.142,291.327 L1758.22,316.734 L1754.051,332.347 L1754,354.313 L1753.362,381.81 L1729.204,374.735 z" fill="#9B7F41"/>
      <path d="M1746.278,380.788 L1745.899,350.506 L1741.6,320.864 L1743.157,307 L1756.562,319.845 L1749.703,340.673 L1751.531,364.638 L1751.975,381.428 L1746.278,380.788 z" fill="#634B16"/>
    </g>
    <g id="EndSign">
      <path d="M1811.926,374.69 L1809.53,394.263 L1812.884,395.43 L1816.477,374.69 L1811.926,374.69 z" fill="#000000"/>
      <path d="M1802.342,356.72 L1798.747,384.216 L1830.855,383.982 L1834.207,355.323 L1802.342,356.72 z" fill="#FFFFFF"/>
      <path d="M1804.216,358.614 L1801.143,382.119 L1828.589,381.919 L1831.456,357.419 L1804.216,358.614 z" fill="#000000"/>
      <path d="M1821.302,366.065 L1815.053,370.959 L1816.662,375.195 L1808.029,372.465 L1811.403,366.661 L1812.999,368.681 L1820.709,363.394 L1821.302,366.065 z" fill="#FFFFFF"/>
    </g>
    <g id="Bush">
      <path d="M1504.232,566.027 L1476.144,564.963 L1462.383,537.109 L1471.196,508.491 L1486.468,511.215 L1499.939,487.665 L1521.534,488.34 L1534.691,507.371 L1546.246,510.89 L1556.89,524.706 L1537.925,554.559 L1541.386,565.758 L1504.232,566.027 z" fill="#056818"/>
      <path d="M1515.08,558.683 L1520.19,546.776 L1516.648,526.547 L1518.837,511.313 L1517.517,492.058 L1526.586,506.471 L1532.962,513.038 L1540.653,515.205 L1546.75,525.561 L1538.7,541.737 L1532.038,554.584 L1535.087,559.763 L1515.08,558.683 z" fill="#123D1A"/>
      <path d="M1481.119,550.531 C1478.717,546.925 1478.717,546.925 1478.717,546.925 L1484.431,543.84 L1481.119,550.531 z" fill="#FF1717"/>
      <path d="M1504.044,554.887 L1500.423,549.208 L1505.785,548.841 L1504.044,554.887 z" fill="#FF1717"/>
      <path d="M1494.441,518.575 L1498.54,521.731 L1499.773,517.994 L1494.441,518.575 z" fill="#FF1717"/>
      <path d="M1525.117,505.298 L1524.326,509.435 L1529.09,509.968 L1525.117,505.298 z" fill="#FF1717"/>
      <path d="M1530.38,528.788 L1530.585,531.782 L1534.362,530.45 L1530.38,528.788 z" fill="#FF1717"/>
      <path d="M1504.893,495.511 L1504.987,500.017 L1508.933,498.028 L1504.893,495.511 z" fill="#FF1717"/>
      <path d="M1473.57,521.294 L1472.861,523.491 L1478.814,519.43 L1473.57,521.294 z" fill="#FF1717"/>
      <path d="M1509.31,531.737 L1509.315,534.959 L1511.337,533.101 L1509.31,531.737 z" fill="#FF1717"/>
      <path d="M1528.21,550.424 L1531.889,550.817 L1531.633,547.069 L1528.21,550.424 z" fill="#FF1717"/>
    </g>
    <g id="Bush">
      <path d="M1368.881,570.216 L1340.564,569.944 L1320.784,542.477 L1323.412,513.611 L1339.273,515.905 L1347.654,491.975 L1369.396,492.042 L1386.665,510.702 L1398.98,513.894 L1412.61,527.411 L1400.097,557.798 L1405.978,568.9 L1368.881,570.216 z" fill="#056818"/>
      <path d="M1378.143,562.567 L1380.679,550.515 L1372.766,530.386 L1371.663,515.09 L1366.182,495.872 L1378.365,510.03 L1386.16,516.417 L1394.32,518.367 L1402.655,528.552 L1398.101,544.954 L1394.215,557.989 L1398.383,563.082 L1378.143,562.567 z" fill="#123D1A"/>
      <path d="M1342.42,555.372 C1339.239,551.833 1339.239,551.833 1339.239,551.833 L1344.286,548.587 L1342.42,555.372 z" fill="#FF1717"/>
      <path d="M1366.287,559.081 L1361.438,553.505 L1366.721,552.986 L1366.287,559.081 z" fill="#FF1717"/>
      <path d="M1348.836,523.04 L1353.617,526.08 L1354.043,522.308 L1348.836,523.04 z" fill="#FF1717"/>
      <path d="M1376.643,508.898 L1376.746,513.057 L1381.625,513.457 L1376.643,508.898 z" fill="#FF1717"/>
      <path d="M1386.982,532.24 L1387.834,535.228 L1391.323,533.79 L1386.982,532.24 z" fill="#FF1717"/>
      <path d="M1354.304,499.681 L1355.372,504.185 L1358.888,502.084 L1354.304,499.681 z" fill="#FF1717"/>
      <path d="M1328.553,526.347 L1328.318,528.564 L1333.394,524.335 L1328.553,526.347 z" fill="#FF1717"/>
      <path d="M1366.549,535.783 L1367.251,539.005 L1368.871,537.09 L1366.549,535.783 z" fill="#FF1717"/>
      <path d="M1389.488,553.937 L1393.252,554.226 L1392.185,550.486 L1389.488,553.937 z" fill="#FF1717"/>
    </g>
    <g id="Fence1">
      <path d="M1227.813,527.17 L1227.813,537.059 L1266.165,535.959 L1295.608,539.806 L1332.798,536.509 L1375.411,540.356 L1375.411,533.214 L1334.734,526.62 L1297.545,531.017 L1269.505,526.62 L1227.813,527.17 z" fill="#7F4400"/>
      <path d="M1227.813,559.033 L1227.813,559.033 L1266.165,561.78 L1294.832,559.033 L1328.148,564.525 L1363.789,559.033 L1375.411,561.23 L1375.411,552.441 L1362.627,551.342 L1327.76,554.638 L1297.545,550.792 L1266.165,553.539 L1227.813,549.144 L1227.813,559.033 z" fill="#7F4400"/>
      <path d="M1231.811,572.216 L1229.486,516.734 L1237.623,517.282 L1235.298,571.119 L1231.811,572.216 z" fill="#C56A00"/>
      <path d="M1241.854,572.216 L1241.854,518.931 L1249.631,516.734 L1246.92,572.216 L1241.854,572.216 z" fill="#C56A00"/>
      <path d="M1254.281,572.216 L1254.667,518.931 L1262.416,520.029 L1260.091,572.216 L1254.281,572.216 z" fill="#94632B"/>
      <path d="M1264.739,572.216 L1268.079,518.931 L1274.038,518.931 L1272.488,572.216 L1264.739,572.216 z" fill="#C56A00"/>
      <path d="M1277.911,572.216 L1278.298,521.128 L1284.884,518.931 L1284.496,572.216 L1277.911,572.216 z" fill="#996427"/>
      <path d="M1290.308,572.216 L1288.371,518.931 L1294.568,521.678 L1296.119,572.216 L1290.308,572.216 z" fill="#C56A00"/>
      <path d="M1300.38,572.216 L1300.38,521.678 L1307.354,518.931 L1306.966,569.469 L1300.38,572.216 z" fill="#C56A00"/>
      <path d="M1311.226,572.216 L1311.614,521.128 L1320.525,522.226 L1318.2,572.216 L1311.226,572.216 z" fill="#C56A00"/>
      <path d="M1323.624,572.216 L1324.399,521.128 L1329.822,518.931 L1329.048,572.216 L1323.624,572.216 z" fill="#7F501A"/>
      <path d="M1333.308,572.216 L1333.308,521.128 L1340.669,521.128 L1340.669,572.216 L1333.308,572.216 z" fill="#C56A00"/>
      <path d="M1346.867,572.216 L1346.093,523.875 L1352.291,521.128 L1351.516,572.216 L1346.867,572.216 z" fill="#C56A00"/>
      <path d="M1356.552,572.216 L1356.552,518.931 L1364.057,518.931 L1361.588,572.216 L1356.552,572.216 z" fill="#955305"/>
      <path d="M1367.4,572.216 L1367.4,521.128 L1372.436,523.326 L1373.985,572.216 L1367.4,572.216 z" fill="#C56A00"/>
    </g>
    <g id="Fence1">
      <path d="M1375.411,525.17 L1375.411,535.059 L1413.763,533.959 L1443.206,537.806 L1480.396,534.509 L1523.009,538.356 L1523.009,531.214 L1482.332,524.62 L1445.143,529.017 L1417.103,524.62 L1375.411,525.17 z" fill="#7F4400"/>
      <path d="M1375.411,557.033 L1375.411,557.033 L1413.763,559.78 L1442.43,557.033 L1475.746,562.525 L1511.387,557.033 L1523.009,559.23 L1523.009,550.441 L1510.225,549.342 L1475.358,552.638 L1445.143,548.792 L1413.763,551.539 L1375.411,547.144 L1375.411,557.033 z" fill="#7F4400"/>
      <path d="M1379.409,570.216 L1377.084,514.734 L1385.221,515.282 L1382.896,569.119 L1379.409,570.216 z" fill="#C56A00"/>
      <path d="M1389.451,570.216 L1389.451,516.931 L1397.229,514.734 L1394.518,570.216 L1389.451,570.216 z" fill="#C56A00"/>
      <path d="M1401.879,570.216 L1402.265,516.931 L1410.014,518.029 L1407.689,570.216 L1401.879,570.216 z" fill="#94632B"/>
      <path d="M1412.337,570.216 L1415.677,516.931 L1421.635,516.931 L1420.086,570.216 L1412.337,570.216 z" fill="#C56A00"/>
      <path d="M1425.509,570.216 L1425.896,519.128 L1432.482,516.931 L1432.094,570.216 L1425.509,570.216 z" fill="#996427"/>
      <path d="M1437.906,570.216 L1435.969,516.931 L1442.166,519.678 L1443.717,570.216 L1437.906,570.216 z" fill="#C56A00"/>
      <path d="M1447.978,570.216 L1447.978,519.678 L1454.951,516.931 L1454.564,567.469 L1447.978,570.216 z" fill="#C56A00"/>
      <path d="M1458.824,570.216 L1459.212,519.128 L1468.123,520.226 L1465.798,570.216 L1458.824,570.216 z" fill="#C56A00"/>
      <path d="M1471.222,570.216 L1471.997,519.128 L1477.42,516.931 L1476.646,570.216 L1471.222,570.216 z" fill="#7F501A"/>
      <path d="M1480.906,570.216 L1480.906,519.128 L1488.267,519.128 L1488.267,570.216 L1480.906,570.216 z" fill="#C56A00"/>
      <path d="M1494.465,570.216 L1493.691,521.875 L1499.889,519.128 L1499.114,570.216 L1494.465,570.216 z" fill="#C56A00"/>
      <path d="M1504.15,570.216 L1504.15,516.931 L1511.655,516.931 L1509.186,570.216 L1504.15,570.216 z" fill="#955305"/>
      <path d="M1514.998,570.216 L1514.998,519.128 L1520.034,521.326 L1521.583,570.216 L1514.998,570.216 z" fill="#C56A00"/>
    </g>
    <g id="Tree2">
      <path d="M1064.211,597.142 L1039.912,613.465 L1018.339,600.857 L999.932,603.938 L985.81,590.624 L992.982,568.879 L992.7,541.354 L987.055,527.011 L1002.946,515.363 L1016.871,508.114 L1026.231,480.056 L1052.614,476.181 L1081.811,485.891 L1096.288,504.552 L1124.432,511.194 L1139.875,532.397 L1146.204,557.288 L1133.223,576.761 L1104.053,576.778 L1093.661,592.213 L1064.211,597.142 z" fill="#007005"/>
      <path d="M1087.564,670.303 L1071.85,637.792 L1071.129,610.881 L1065.247,598.35 L1047.191,600.291 L1025.454,586.706 L1026.489,579.969 L1046.394,589.071 L1060.552,583.222 L1054.707,567.677 L1043.209,547.435 L1046.448,540.946 L1069.346,567.929 L1082.672,570.024 L1093.014,567.211 L1119.128,555.271 L1123.604,562.631 L1099.469,576.708 L1094.781,587.459 L1100.613,612.611 L1111.03,632.856 L1114.452,646.936 L1087.564,670.303 z" fill="#AF9B5C"/>
      <path d="M1086.929,658.577 L1073.321,628.957 L1074.091,601.256 L1066.455,587.937 L1052.759,557.792 L1070.039,573.822 L1079.869,590.558 L1086.633,611.591 L1090.155,632.627 L1098.497,653.397 L1086.929,658.577 z" fill="#704E00"/>
      <path d="M1030.183,490.748 L1025.285,506.706 L1039.938,526.419 L1058.534,543.846 L1070.113,554.887 L1085.008,543.744 L1084.346,510.726 L1079.479,494.568 L1049.594,483.981 L1030.183,490.748 z" fill="#07410A"/>
      <path d="M1118.915,520.227 L1115.857,534.251 L1126.576,569.224 L1132.616,556.859 L1129.445,534.684 L1118.915,520.227 z" fill="#07410A"/>
    </g>
    <g id="Faucet">
      <path d="M973.391,733.409 L973.645,722.738 L971.614,722.738 L971.614,716.898 L973.391,716.644 L973.137,712.581 L976.692,710.042 L978.47,710.042 L981.771,712.074 L981.771,716.136 L983.294,716.39 L983.802,722.231 L982.024,722.231 L982.532,733.136 L973.391,733.409 z" fill="#FF0000"/>
      <path d="M978.666,731.594 L978.116,721.976 L977.979,710.847 L980.589,712.221 L981.139,716.755 L982.513,717.305 L982.788,721.289 L981.276,721.289 L981.826,731.594 L978.666,731.594 z" fill="#810606"/>
      <path d="M983.294,716.39 L983.802,721.564 L985.81,721.564 L985.398,716.481 L983.294,716.39 z" fill="#C3C3C3"/>
      <path d="M969.598,717.168 L971.614,716.898 L972.346,721.564 L969.323,722.389 L969.598,717.168 z" fill="#C3C3C3"/>
    </g>
    <g id="EndSign">
      <path d="M625.599,707.873 L627.995,727.446 L624.641,728.613 L621.048,707.873 L625.599,707.873 z" fill="#000000"/>
      <path d="M635.183,689.903 L638.778,717.399 L606.67,717.165 L603.318,688.506 L635.183,689.903 z" fill="#FFFFFF"/>
      <path d="M633.309,691.797 L636.382,715.302 L608.936,715.102 L606.069,690.602 L633.309,691.797 z" fill="#000000"/>
      <path d="M628.714,703.185 L620.808,702.486 L619.849,698.057 L614.098,705.05 L620.089,708.078 L620.327,705.515 L629.673,705.748 L628.714,703.185 z" fill="#FFFFFF"/>
    </g>
    <g id="Tree">
      <path d="M621.87,149.322 L607.292,160.506 L591.745,157.844 L577.168,146.658 L580.083,136.597 L577.168,125.1 L558.34,114.704 L556.276,90.735 L573.767,74.758 L591.745,80.083 L591.745,55.052 L611.665,52.388 L622.356,52.92 L627.7,40.671 L646.648,31.085 L666.57,41.736 L671.917,67.3 L686.978,69.432 L710.418,80.083 L720.504,114.704 L698.153,129.57 L675.316,142.932 L665.6,156.247 L651.509,139.735 L621.87,149.322 z" fill="#006414"/>
      <path d="M679.078,128.029 L689.311,108.711 L708.116,95.833 L712.884,111.394 L700.005,125.346 L679.078,128.029 z" fill="#083B12"/>
      <path d="M666.736,64.173 L666.57,41.736 L644.735,34.742 L644.735,56.124 L666.736,64.173 z" fill="#083B12"/>
      <path d="M634.005,202.209 L633.53,175.953 L625.757,149.322 L599.519,127.44 L580.083,115.236 L582.998,110.443 L620.412,127.44 L630.615,127.44 L631.587,118.43 L616.524,88.605 L619.439,84.877 L634.502,107.246 L640.332,83.279 L648.594,85.941 L645.191,127.44 L651.995,131.213 L671.431,109.908 L675.316,113.637 L656.367,141.332 L653.966,157.312 L656.367,179.147 L658.802,206.543 L634.005,202.209 z" fill="#9B7F41"/>
      <path d="M651.648,206.318 L647.892,176.268 L640.311,147.291 L640.311,133.34 L655.066,144.608 L650.575,166.072 L655.066,189.683 L657.381,206.318 L651.648,206.318 z" fill="#634B16"/>
    </g>
    <g id="Panel">
      <path d="M168.1,90.246 L167.358,75.656 L158.269,75.615 L158.417,71.747 L168.429,70.386 L167.067,60.608 L157.149,59.55 L157.334,54.71 L167.291,54.802 L171.898,36.156 L178.379,36.533 L172.906,55.125 L182.734,58.604 L182.64,61.023 L171.839,60.398 L173.309,67.273 L183.173,69.781 L182.571,74.111 L173.085,73.079 L174.205,89.147 L168.1,90.246 z" fill="#000000"/>
      <path d="M149.3,315.57 L132.431,84.449 L302.576,85.9 L293.732,317.592 z" fill="#C0A496"/>
      <path d="M150.459,102.872 L192.273,101.096 L196.111,140.874 L153.736,143.217 L150.459,102.872 z" fill="#FCFAFA"/>
      <path d="M205.625,103.297 L209.131,137.662 L241.218,138.318 L246.37,101.459 L205.625,103.297 z" fill="#FFFFFF"/>
      <path d="M244.412,151.841 L206.664,152.204 L209.261,187.307 L245.657,187.085 L244.412,151.841 z" fill="#FFFFFF"/>
      <path d="M255.826,104.771 L255.706,135.926 L290.396,138.534 L295.505,102.869 L255.826,104.771 z" fill="#FCFAFA"/>
      <path d="M155.461,154.106 L195.581,154.628 L200.113,190.252 L158.807,192.656 L155.461,154.106 z" fill="#FFFFFF"/>
      <path d="M206.501,317.611 L205.96,263.817 L239.99,264.779 L246.094,317.611 L206.501,317.611 z" fill="#FCFAFA"/>
      <path d="M162.112,204.235 L162.629,246.816 L200.309,241.205 L199.655,202.211 L162.112,204.235 z" fill="#FFFFFF"/>
      <path d="M257.759,153.568 L255.743,192.261 L292.622,190.018 L291.968,151.024 L257.759,153.568 z" fill="#FFFFFF"/>
      <path d="M212.473,202.953 L214.146,243.202 L240.871,244.149 L242.514,201.091 L212.473,202.953 z" fill="#FCFAFA"/>
      <path d="M254.657,205.39 L253.292,241.271 L285.822,244.35 L287.374,203.686 L254.657,205.39 z" fill="#FFFFFF"/>
      <path d="M202.945,317.611 L198.914,258.36 L205.96,263.817 L206.501,317.611 L202.945,317.611 z" fill="#815E13"/>
      <path d="M239.99,264.779 L205.96,263.817 L198.914,258.36 L241.637,258.36 L239.99,264.779 z" fill="#7C5314"/>
      <path d="M246.094,317.611 L239.99,264.779 L241.637,258.36 L249.698,319.02 L246.094,317.611 z" fill="#8D6637"/>
      <path d="M162.629,246.816 L161.028,251.105 L198.914,248.284 L200.309,241.205 L162.629,246.816 z" fill="#8D6637"/>
      <path d="M214.146,243.202 L214.23,247.075 L241.637,249.493 L240.871,244.149 L214.146,243.202 z" fill="#8D6637"/>
      <path d="M253.292,241.271 L252.922,247.478 L287.584,249.493 L285.822,244.35 L253.292,241.271 z" fill="#8D6637"/>
      <path d="M158.807,192.656 L157.804,195.888 L203.348,194.276 L200.113,190.252 L158.807,192.656 z" fill="#8D6637"/>
      <path d="M209.261,187.307 L209.393,190.252 L246.473,193.067 L245.657,187.085 L209.261,187.307 z" fill="#8D6637"/>
      <path d="M255.743,192.261 L255.34,195.888 L294.436,195.888 L292.622,190.018 L255.743,192.261 z" fill="#8D6637"/>
      <path d="M255.706,135.926 L255.34,140.268 L292.622,142.283 L290.396,138.534 L255.706,135.926 z" fill="#8D6637"/>
      <path d="M209.131,137.662 L206.501,142.283 L241.637,142.283 L241.218,138.318 L209.131,137.662 z" fill="#8D6637"/>
      <path d="M153.736,143.217 L152.564,147.882 L196.496,145.105 L195.69,137.662 L153.736,143.217 z" fill="#8D6637"/>
      <path d="M289.633,317.1 L291.892,269.29 L294.151,206.044 L298.292,147.316 L298.292,87.834 L301.68,86.329 L300.927,155.221 L297.916,200.397 L297.539,249.714 L296.41,316.724 L289.633,317.1 z" fill="#8A6740"/>
      <path d="M148.083,315.595 L142.813,249.714 L138.672,186.091 L131.895,125.104 L129.26,85.576 L132.648,84.446 L136.789,139.786 L144.695,201.15 L148.836,268.913 L154.86,314.842 L148.083,315.595 z" fill="#8E6639"/>
      <path d="M129.26,85.199 L167.283,83.693 L202.67,84.07 L238.434,85.199 L269.304,84.446 L302.433,85.199 L299.421,88.964 L265.163,88.211 L228.27,86.329 L193.635,87.081 L156.742,85.952 L130.39,90.093 L129.26,85.199 z" fill="#7D5D39"/>
      <path d="M164.95,297.845 L165.426,302.129 L172.089,302.129 L172.089,295.941 L164.95,297.845 z" fill="#AD7E49"/>
      <path d="M175.422,296.325 L175.422,300.62 L181.507,301.336 L181.507,297.756 L175.422,296.325 z" fill="#AD7E49"/>
      <path d="M184.37,297.756 L189.023,297.041 L189.023,301.336 L183.654,300.62 L184.37,297.756 z" fill="#AD7E49"/>
      <path d="M171.127,304.199 L171.127,308.494 L176.854,308.494 L177.57,304.557 L171.127,304.199 z" fill="#AD7E49"/>
      <path d="M181.149,304.199 L181.149,308.137 L186.876,308.137 L186.876,304.557 L181.149,304.199 z" fill="#AD7E49"/>
      <path d="M264.189,294.893 L264.547,300.978 L268.484,306.705 L277.79,306.705 L281.37,294.177 L268.484,290.956 L264.189,294.893 z" fill="#D6AE9B"/>
      <path d="M158.957,257.31 L168.979,255.163 L183.297,259.458 L177.57,266.259 L176.496,272.343 L163.252,274.849 L154.304,269.48 L158.957,257.31 z" fill="#D6AE9B"/>
      <path d="M155.516,142.619 L153.014,104.722 L190.196,102.22 L193.413,137.972 L196.631,142.619 L192.698,98.645 L149.438,101.505 L152.656,145.837 L155.516,142.619 z" fill="#8D6637"/>
      <path d="M208.787,137.972 L204.139,102.577 L247.756,101.147 L241.321,139.402 L238.818,139.402 L243.824,104.007 L209.144,104.722 L212.004,137.257 L208.787,137.972 z" fill="#8D6637"/>
      <path d="M255.622,136.542 L254.192,104.007 L295.307,101.862 L291.016,138.687 L287.441,138.687 L292.446,104.365 L258.125,106.867 L259.555,135.827 L255.622,136.542 z" fill="#8D6637"/>
      <path d="M158.734,192.315 L154.444,153.345 L196.631,153.703 L200.206,190.17 L197.346,190.527 L193.771,156.92 L159.807,157.635 L161.237,191.242 L158.734,192.315 z" fill="#8D6637"/>
      <path d="M208.429,186.952 L206.284,152.273 L245.254,151.557 L245.611,187.667 L242.751,187.31 L242.394,154.775 L209.502,154.775 L211.647,186.594 L208.429,186.952 z" fill="#8D6637"/>
      <path d="M255.264,192.672 L257.052,152.273 L292.089,150.127 L292.804,189.812 L288.871,189.812 L288.871,152.988 L258.84,154.06 L258.125,192.672 L255.264,192.672 z" fill="#8D6637"/>
      <path d="M162.309,246.658 L161.952,203.755 L200.564,202.325 L200.206,241.653 L196.274,242.01 L197.704,205.543 L164.812,205.901 L166.242,245.228 L162.309,246.658 z" fill="#8D6637"/>
      <path d="M214.507,243.44 L212.719,202.683 L243.109,201.968 L240.606,245.228 L238.103,244.87 L239.891,204.828 L216.295,205.543 L218.797,243.083 L214.507,243.44 z" fill="#8D6637"/>
      <path d="M253.477,241.295 L253.834,204.47 L286.726,202.325 L285.654,243.798 L281.721,243.798 L284.581,204.828 L257.052,206.616 L256.694,240.58 L253.477,241.295 z" fill="#8D6637"/>
    </g>
    <g id="Panel">
      <path d="M1227.91,114.215 L1227.168,99.625 L1218.079,99.584 L1218.227,95.716 L1228.239,94.355 L1226.877,84.577 L1216.959,83.519 L1217.144,78.679 L1227.101,78.771 L1231.708,60.125 L1238.189,60.502 L1232.716,79.094 L1242.544,82.573 L1242.45,84.992 L1231.649,84.367 L1233.119,91.242 L1242.983,93.75 L1242.381,98.08 L1232.895,97.048 L1234.015,113.116 L1227.91,114.215 z" fill="#000000"/>
      <path d="M1145.779,334.901 L1139.772,112.891 L1319.222,105.882 L1296.334,335.831 z" fill="#C09696"/>
      <path d="M1153.061,121.111 L1194.875,119.335 L1198.713,159.113 L1156.338,161.456 L1153.061,121.111 z" fill="#FCFAFA"/>
      <path d="M1208.227,121.536 L1211.733,155.901 L1243.82,156.557 L1248.972,119.698 L1208.227,121.536 z" fill="#FFFFFF"/>
      <path d="M1247.014,170.08 L1209.266,170.443 L1211.863,205.546 L1248.259,205.324 L1247.014,170.08 z" fill="#FFFFFF"/>
      <path d="M1258.428,123.01 L1258.308,154.165 L1292.998,156.773 L1298.107,121.108 L1258.428,123.01 z" fill="#FCFAFA"/>
      <path d="M1158.063,172.345 L1198.183,172.867 L1202.715,208.491 L1161.409,210.895 L1158.063,172.345 z" fill="#FFFFFF"/>
      <path d="M1209.104,335.85 L1208.562,282.056 L1245.22,284.207 L1248.696,335.85 L1209.104,335.85 z" fill="#FCFAFA"/>
      <path d="M1164.714,222.474 L1165.231,265.055 L1202.911,259.444 L1202.257,220.45 L1164.714,222.474 z" fill="#FFFFFF"/>
      <path d="M1260.361,172.807 L1258.346,211.499 L1295.224,209.257 L1294.57,170.263 L1260.361,172.807 z" fill="#FFFFFF"/>
      <path d="M1213.075,221.192 L1214.748,261.441 L1241.473,262.388 L1243.116,219.33 L1213.075,221.192 z" fill="#FCFAFA"/>
      <path d="M1257.259,223.629 L1255.894,259.51 L1288.424,262.589 L1289.976,221.925 L1257.259,223.629 z" fill="#FFFFFF"/>
      <path d="M1205.547,335.85 L1201.517,276.599 L1208.562,282.056 L1209.104,335.85 L1205.547,335.85 z" fill="#815E13"/>
      <path d="M1245.22,284.207 L1208.562,282.056 L1201.517,276.599 L1249.974,276.601 L1245.22,284.207 z" fill="#7C5314"/>
      <path d="M1248.696,335.85 L1245.22,284.207 L1249.974,276.601 L1252.3,337.259 L1248.696,335.85 z" fill="#8D6637"/>
      <path d="M1165.231,265.055 L1163.631,269.344 L1201.517,266.522 L1202.911,259.444 L1165.231,265.055 z" fill="#8D6637"/>
      <path d="M1216.748,261.441 L1216.832,265.313 L1244.239,267.732 L1243.473,262.388 L1216.748,261.441 z" fill="#8D6637"/>
      <path d="M1255.894,259.51 L1255.524,265.716 L1290.186,267.732 L1288.424,262.589 L1255.894,259.51 z" fill="#8D6637"/>
      <path d="M1161.409,210.895 L1160.406,214.127 L1205.95,212.515 L1202.715,208.491 L1161.409,210.895 z" fill="#8D6637"/>
      <path d="M1211.863,205.546 L1211.996,208.491 L1249.076,211.306 L1248.259,205.324 L1211.863,205.546 z" fill="#8D6637"/>
      <path d="M1258.346,210.499 L1257.943,214.127 L1297.038,214.127 L1295.224,208.257 L1258.346,210.499 z" fill="#8D6637"/>
      <path d="M1258.308,154.165 L1257.943,158.507 L1295.224,160.522 L1292.998,156.773 L1258.308,154.165 z" fill="#8D6637"/>
      <path d="M1211.733,155.901 L1209.104,160.522 L1244.239,160.522 L1243.82,156.557 L1211.733,155.901 z" fill="#8D6637"/>
      <path d="M1156.338,161.456 L1155.167,166.121 L1199.098,163.343 L1198.292,155.901 L1156.338,161.456 z" fill="#8D6637"/>
      <path d="M1289.968,334.755 L1294.979,308.626 L1294.979,256.726 L1305.001,221.649 L1305.717,172.255 L1311.444,130.019 L1314.307,107.827 L1319.318,105.321 L1316.813,142.188 L1312.518,177.266 L1310.012,218.786 L1305.359,254.579 L1302.138,290.372 L1298.2,334.755 L1289.968,334.755 z" fill="#7A5353"/>
      <path d="M1319.318,105.679 L1315.381,109.259 L1285.673,110.69 L1245.584,111.406 L1208.002,114.27 L1172.208,113.912 L1139.637,117.849 L1138.205,110.69 L1171.851,109.259 L1198.338,106.753 L1230.193,106.753 L1269.924,105.679 L1319.318,105.679 z" fill="#7C5656"/>
      <path d="M1148.943,334.398 L1146.795,292.52 L1148.227,251 L1145.364,202.679 L1145.006,154 L1141.784,112.122 L1138.205,110.332 L1138.205,144.336 L1140.353,175.118 L1141.068,218.786 L1144.29,266.033 L1143.574,295.383 L1146.08,335.113 L1148.943,334.398 z" fill="#794E4E"/>
      <path d="M1153.157,121.42 L1196.518,119.011 L1198.927,159.963 L1195.83,156.866 L1193.421,123.141 L1156.599,124.173 L1161.417,161.684 L1156.943,162.028 L1153.157,121.42 z" fill="#8D6637"/>
      <path d="M1158.319,172.008 L1161.417,211.239 L1164.17,210.206 L1161.073,175.449 L1195.142,175.105 L1199.96,208.486 L1202.713,208.142 L1198.239,171.663 L1158.319,172.008 z" fill="#8D6637"/>
      <path d="M1212.348,205.389 L1208.563,168.91 L1247.45,168.91 L1248.826,204.7 L1245.729,205.389 L1244.353,170.975 L1210.972,172.008 L1216.134,206.077 L1212.348,205.389 z" fill="#8D6637"/>
      <path d="M1258.118,210.206 L1260.871,171.663 L1295.284,170.287 L1294.94,208.486 L1292.187,208.83 L1292.531,173.384 L1263.968,174.761 L1264.656,210.551 L1258.118,210.206 z" fill="#8D6637"/>
      <path d="M1165.546,264.579 L1163.137,221.563 L1202.713,219.842 L1202.713,259.073 L1199.615,259.762 L1199.96,222.595 L1166.923,223.972 L1169.676,264.235 L1165.546,264.579 z" fill="#8D6637"/>
      <path d="M1215.446,261.482 L1212.693,220.875 L1245.041,218.121 L1244.009,262.17 L1240.223,262.17 L1241.6,221.563 L1216.134,223.972 L1219.231,261.138 L1215.446,261.482 z" fill="#8D6637"/>
      <path d="M1255.021,260.106 L1256.053,222.939 L1290.122,220.875 L1289.778,263.203 L1285.305,264.235 L1285.649,224.66 L1259.15,226.381 L1259.495,260.45 L1255.021,260.106 z" fill="#8D6637"/>
      <path d="M1210.284,155.833 L1206.842,120.388 L1249.171,119.011 L1244.697,156.522 L1241.944,156.522 L1243.32,123.485 L1210.628,122.452 L1214.757,155.833 L1210.284,155.833 z" fill="#8D6637"/>
      <path d="M1258.118,154.457 L1257.774,121.42 L1298.726,120.044 L1293.22,156.177 L1290.122,156.522 L1294.94,123.485 L1261.559,124.861 L1261.903,154.801 L1258.118,154.457 z" fill="#8D6637"/>
      <path d="M1254.824,329.645 L1253.983,300.626 L1269.123,298.523 L1270.384,303.15 L1266.179,313.663 L1262.814,325.439 L1261.973,333.009 L1254.824,329.645 z" fill="#BDB0B0"/>
      <path d="M1175.338,277.916 L1199.731,277.075 L1200.151,289.692 L1191.32,287.589 L1184.17,292.215 L1172.395,297.682 L1166.927,289.271 L1175.338,277.916 z" fill="#BDB0B0"/>
    </g>
    <g id="Lamp">
      <path d="M155.894,223.86 L158.161,217.739 L157.481,208.897 L151.587,199.149 L159.975,207.31 L161.562,217.512 L159.748,222.726 L155.894,223.86 z" fill="#757575"/>
      <path d="M118.261,313.181 L119.621,295.045 L117.581,265.347 L117.128,242.676 L120.755,219.779 L125.742,206.403 L128.236,201.189 L138.665,194.388 L128.236,198.469 L123.249,203.003 L118.941,217.512 L115.314,232.701 L114.407,249.024 L114.861,270.561 L116.221,289.604 L113.954,314.088 L118.261,313.181 z" fill="#757575"/>
      <path d="M116.93,312.829 L117.795,284.811 L115.895,250.43 L117.432,226.739 L126.188,201.007 L138.32,193.27 L152.379,195.891 L161.605,206.835 L164.75,216.7 L173.775,222.615 L154.482,225.095 L159.192,217.787 L158.783,207.769 L151.651,198.861 L138.991,197.601 L130.408,201.428 L121.595,227.671 L120.087,247.707 L122.799,281.75 L122.402,312.484 z" fill="#CECECE"/>
      <path d="M164.056,217.739 L165.642,222.046 L170.403,222.046 L164.056,217.739 z" fill="#757575"/>
    </g>
    <g id="Lamp">
      <path d="M385.959,228.791 L388.226,222.67 L387.546,213.829 L381.652,204.08 L390.04,212.242 L391.627,222.443 L389.813,227.658 L385.959,228.791 z" fill="#757575"/>
      <path d="M348.326,318.113 L349.686,299.976 L347.646,270.278 L347.193,247.608 L350.82,224.71 L355.807,211.335 L358.301,206.121 L368.73,199.32 L358.301,203.4 L353.314,207.934 L349.006,222.443 L345.379,237.633 L344.472,253.955 L344.926,275.492 L346.286,294.535 L344.019,319.02 L348.326,318.113 z" fill="#757575"/>
      <path d="M346.995,317.76 L347.86,289.742 L345.96,255.362 L347.497,231.67 L356.253,205.938 L368.385,198.202 L382.444,200.822 L391.67,211.767 L394.815,221.631 L403.84,227.546 L384.547,230.027 L389.257,222.719 L388.848,212.701 L381.716,203.792 L369.056,202.532 L360.473,206.36 L351.66,232.602 L350.152,252.639 L352.864,286.682 L352.467,317.415 z" fill="#CECECE"/>
      <path d="M394.12,222.67 L395.707,226.977 L400.468,226.977 L394.12,222.67 z" fill="#757575"/>
    </g>
    <g id="Lamp">
      <path d="M724.803,117.081 L727.07,110.96 L726.39,102.119 L720.496,92.37 L728.884,100.532 L730.471,110.733 L728.657,115.948 L724.803,117.081 z" fill="#757575"/>
      <path d="M687.17,206.403 L688.53,188.266 L686.49,158.568 L686.037,135.898 L689.664,113 L694.651,99.625 L697.145,94.411 L707.574,87.61 L697.145,91.69 L692.158,96.224 L687.85,110.733 L684.223,125.923 L683.316,142.245 L683.77,163.782 L685.13,182.825 L682.863,207.31 L687.17,206.403 z" fill="#757575"/>
      <path d="M685.839,206.05 L686.704,178.032 L684.804,143.652 L686.341,119.96 L695.097,94.228 L707.229,86.492 L721.288,89.112 L730.514,100.057 L733.659,109.921 L742.684,115.836 L723.391,118.317 L728.101,111.009 L727.692,100.991 L720.56,92.082 L707.9,90.822 L699.317,94.65 L690.504,120.892 L688.996,140.929 L691.708,174.972 L691.311,205.705 z" fill="#CECECE"/>
      <path d="M732.964,110.96 L734.551,115.267 L739.312,115.267 L732.964,110.96 z" fill="#757575"/>
    </g>
    <g id="Bench">
      <path d="M724.922,207.148 L724.922,167.041 L734.278,167.041 L736.06,206.37 L724.922,207.148 z" fill="#B5B5B5"/>
      <path d="M778.819,207.148 L789.065,207.148 L786.959,169.377 L777.036,167.041 L778.819,207.148 z" fill="#B5B5B5"/>
      <path d="M786.491,207.601 L783.279,170.19 L786.868,170.379 L789.065,207.148 L786.491,207.601 z" fill="#7D7D7D"/>
      <path d="M734.153,206.279 L733.209,185.684 L730.375,169.813 L733.398,169.813 L736.232,205.523 L734.153,206.279 z" fill="#7D7D7D"/>
      <path d="M713.33,192.741 L713.33,197.414 L800.203,200.14 L800.203,194.688 L713.33,192.741 z" fill="#FF0000"/>
      <path d="M713.33,171.713 L713.33,183.785 L800.203,184.564 L798.42,172.882 L713.33,171.713 z" fill="#FF0000"/>
      <path d="M713.748,183.338 L713.937,184.85 L799.905,185.416 L799.15,183.149 L713.748,183.338 z" fill="#9E1C1C"/>
      <path d="M713.559,196.076 L750.78,197.587 L799.716,197.587 L800.094,199.288 L750.78,198.532 L713.33,197.414 L713.559,196.076 z" fill="#9E1C1C"/>
    </g>
    <g id="Trash">
      <path d="M828.169,208.394 L828.341,190.029 L831.953,190.029 L831.609,208.394 L828.169,208.394 z" fill="#989898"/>
      <path d="M829.98,208.571 L829.98,196.892 L831.703,195.934 L831.609,208.394 L829.98,208.571 z" fill="#717171"/>
      <path d="M828.685,201.623 L823.868,200.763 L821.631,193.882 L821.631,184.936 L822.836,179.947 L828.341,177.023 L834.706,176.162 L838.49,177.883 L839.867,181.808 L839.867,186.828 L839.867,193.71 L838.318,198.151 L833.329,201.279 L828.685,201.623 z" fill="#ED6C00"/>
      <path d="M824.9,181.808 L828.341,179.087 L832.469,178.055 L836.598,178.571 L837.802,181.808 L836.426,183.173 L826.62,183.173 L824.9,181.808 z" fill="#000000"/>
      <path d="M830.788,201.146 L834.617,200.189 L837.489,198.849 L839.404,194.828 L839.404,186.787 L837.298,193.871 L835.383,197.509 L830.788,201.146 z" fill="#A84D00"/>
    </g>
    <g id="Lamp">
      <path d="M1125.403,246.483 L1127.67,240.362 L1126.99,231.521 L1121.096,221.772 L1129.484,229.934 L1131.071,240.135 L1129.257,245.35 L1125.403,246.483 z" fill="#757575"/>
      <path d="M1087.77,335.805 L1089.13,317.668 L1087.089,287.97 L1086.637,265.3 L1090.264,242.402 L1095.25,229.027 L1097.745,223.813 L1108.174,217.012 L1097.745,221.092 L1092.758,225.626 L1088.45,240.135 L1084.823,255.325 L1083.916,271.647 L1084.37,293.184 L1085.729,312.227 L1083.463,336.712 L1087.77,335.805 z" fill="#757575"/>
      <path d="M1086.439,335.452 L1087.304,307.434 L1085.404,273.054 L1086.941,249.362 L1095.697,223.63 L1107.829,215.894 L1121.888,218.514 L1131.114,229.459 L1134.259,239.323 L1143.284,245.238 L1123.991,247.719 L1128.701,240.411 L1128.292,230.393 L1121.16,221.484 L1108.5,220.224 L1099.917,224.052 L1091.104,250.294 L1089.596,270.331 L1092.307,304.374 L1091.911,335.107 z" fill="#CECECE"/>
      <path d="M1133.564,240.362 L1135.151,244.669 L1139.911,244.669 L1133.564,240.362 z" fill="#757575"/>
    </g>
    <g id="Lamp">
      <path d="M1371.256,242.769 L1373.523,236.648 L1372.843,227.807 L1366.949,218.058 L1375.337,226.22 L1376.924,236.421 L1375.11,241.636 L1371.256,242.769 z" fill="#757575"/>
      <path d="M1333.623,332.091 L1334.983,313.954 L1332.943,284.256 L1332.49,261.586 L1336.117,238.688 L1341.104,225.313 L1343.598,220.099 L1354.027,213.298 L1343.598,217.378 L1338.611,221.912 L1334.303,236.421 L1330.676,251.611 L1329.769,267.933 L1330.223,289.47 L1331.583,308.513 L1329.316,332.998 L1333.623,332.091 z" fill="#757575"/>
      <path d="M1332.292,331.738 L1333.157,303.72 L1331.257,269.34 L1332.794,245.648 L1341.55,219.916 L1353.682,212.18 L1367.741,214.8 L1376.967,225.745 L1380.112,235.609 L1389.137,241.524 L1369.844,244.005 L1374.554,236.697 L1374.145,226.679 L1367.013,217.77 L1354.353,216.51 L1345.77,220.338 L1336.957,246.58 L1335.449,266.617 L1338.161,300.66 L1337.764,331.393 z" fill="#CECECE"/>
      <path d="M1379.417,236.648 L1381.004,240.955 L1385.765,240.955 L1379.417,236.648 z" fill="#757575"/>
    </g>
    <g id="Lamp">
      <path d="M1677.69,260.29 L1679.957,254.169 L1679.277,245.328 L1673.383,235.579 L1681.771,243.741 L1683.358,253.942 L1681.544,259.157 L1677.69,260.29 z" fill="#757575"/>
      <path d="M1640.057,349.612 L1641.417,331.475 L1639.377,301.777 L1638.924,279.107 L1642.551,256.209 L1647.538,242.834 L1650.032,237.62 L1660.461,230.819 L1650.032,234.899 L1645.045,239.433 L1640.737,253.942 L1637.11,269.132 L1636.203,285.454 L1636.657,306.991 L1638.017,326.034 L1635.75,350.519 L1640.057,349.612 z" fill="#757575"/>
      <path d="M1638.726,349.259 L1639.591,321.241 L1637.691,286.861 L1639.228,263.169 L1647.984,237.437 L1660.116,229.701 L1674.175,232.321 L1683.401,243.266 L1686.546,253.13 L1695.571,259.045 L1676.278,261.526 L1680.988,254.218 L1680.579,244.2 L1673.447,235.291 L1660.787,234.031 L1652.204,237.859 L1643.391,264.101 L1641.883,284.138 L1644.595,318.181 L1644.198,348.914 z" fill="#CECECE"/>
      <path d="M1685.851,254.169 L1687.438,258.476 L1692.199,258.476 L1685.851,254.169 z" fill="#757575"/>
    </g>
    <g id="Lamp">
      <path d="M1917.081,305.201 L1919.348,299.08 L1918.668,290.239 L1912.774,280.49 L1921.162,288.652 L1922.749,298.853 L1920.935,304.068 L1917.081,305.201 z" fill="#757575"/>
      <path d="M1879.448,394.523 L1880.808,376.386 L1878.768,346.688 L1878.315,324.018 L1881.942,301.12 L1886.929,287.745 L1889.423,282.531 L1899.852,275.73 L1889.423,279.81 L1884.436,284.344 L1880.128,298.853 L1876.501,314.043 L1875.594,330.365 L1876.048,351.902 L1877.408,370.945 L1875.141,395.43 L1879.448,394.523 z" fill="#757575"/>
      <path d="M1878.117,394.17 L1878.982,366.152 L1877.082,331.772 L1878.619,308.08 L1887.375,282.348 L1899.507,274.612 L1913.566,277.232 L1922.792,288.177 L1925.937,298.041 L1934.962,303.956 L1915.669,306.437 L1920.379,299.129 L1919.97,289.111 L1912.838,280.202 L1900.178,278.942 L1891.595,282.77 L1882.782,309.012 L1881.274,329.049 L1883.986,363.092 L1883.589,393.825 z" fill="#CECECE"/>
      <path d="M1925.242,299.08 L1926.829,303.387 L1931.59,303.387 L1925.242,299.08 z" fill="#757575"/>
    </g>
    <g id="Lamp">
      <path d="M986.122,644.052 L988.389,637.931 L987.709,629.09 L981.815,619.341 L990.203,627.503 L991.79,637.704 L989.976,642.919 L986.122,644.052 z" fill="#757575"/>
      <path d="M948.489,733.374 L949.849,715.237 L947.809,685.539 L947.356,662.869 L950.983,639.971 L955.97,626.596 L958.464,621.382 L968.893,614.581 L958.464,618.661 L953.477,623.195 L949.169,637.704 L945.542,652.894 L944.635,669.216 L945.089,690.753 L946.449,709.796 L944.182,734.281 L948.489,733.374 z" fill="#757575"/>
      <path d="M947.158,733.021 L948.023,705.003 L946.123,670.623 L947.66,646.931 L956.416,621.199 L968.548,613.463 L982.607,616.083 L991.833,627.028 L994.978,636.892 L1004.003,642.807 L984.71,645.288 L989.42,637.98 L989.011,627.962 L981.879,619.053 L969.219,617.793 L960.636,621.621 L951.823,647.863 L950.315,667.9 L953.027,701.943 L952.63,732.676 z" fill="#CECECE"/>
      <path d="M994.283,637.931 L995.87,642.238 L1000.631,642.238 L994.283,637.931 z" fill="#757575"/>
    </g>
    <g id="Lamp">
      <path d="M766.906,640.455 L769.173,634.334 L768.493,625.493 L762.599,615.744 L770.987,623.906 L772.574,634.107 L770.76,639.322 L766.906,640.455 z" fill="#757575"/>
      <path d="M729.273,729.777 L730.633,711.64 L728.593,681.942 L728.14,659.272 L731.767,636.374 L736.754,622.999 L739.248,617.785 L749.677,610.984 L739.248,615.064 L734.261,619.598 L729.953,634.107 L726.326,649.297 L725.419,665.619 L725.873,687.156 L727.233,706.199 L724.966,730.684 L729.273,729.777 z" fill="#757575"/>
      <path d="M727.942,729.424 L728.807,701.406 L726.907,667.026 L728.444,643.334 L737.2,617.602 L749.332,609.866 L763.391,612.486 L772.617,623.431 L775.762,633.295 L784.787,639.21 L765.494,641.691 L770.204,634.383 L769.795,624.365 L762.663,615.456 L750.003,614.196 L741.42,618.024 L732.607,644.266 L731.099,664.303 L733.811,698.346 L733.414,729.079 z" fill="#CECECE"/>
      <path d="M775.067,634.334 L776.654,638.641 L781.415,638.641 L775.067,634.334 z" fill="#757575"/>
    </g>
    <g id="Trash">
      <path d="M752.582,730.07 L752.754,711.705 L756.366,711.705 L756.022,730.07 L752.582,730.07 z" fill="#989898"/>
      <path d="M754.393,730.247 L754.393,718.567 L756.116,717.61 L756.022,730.07 L754.393,730.247 z" fill="#717171"/>
      <path d="M753.098,723.299 L748.281,722.439 L746.044,715.558 L746.044,706.612 L747.249,701.623 L752.754,698.699 L759.119,697.838 L762.903,699.559 L764.28,703.484 L764.28,708.504 L764.28,715.386 L762.731,719.827 L757.742,722.955 L753.098,723.299 z" fill="#ED6C00"/>
      <path d="M749.313,703.484 L752.754,700.763 L756.882,699.731 L761.011,700.247 L762.215,703.484 L760.839,704.849 L751.033,704.849 L749.313,703.484 z" fill="#000000"/>
      <path d="M755.201,722.822 L759.031,721.865 L761.902,720.525 L763.817,716.504 L763.817,708.462 L761.711,715.547 L759.796,719.184 L755.201,722.822 z" fill="#A84D00"/>
    </g>
    <g id="Bench">
      <path d="M650.564,730.754 L650.564,690.647 L659.92,690.647 L661.702,729.976 L650.564,730.754 z" fill="#B5B5B5"/>
      <path d="M704.461,730.754 L714.707,730.754 L712.601,692.983 L702.678,690.647 L704.461,730.754 z" fill="#B5B5B5"/>
      <path d="M712.133,731.207 L708.921,693.797 L712.511,693.986 L714.707,730.754 L712.133,731.207 z" fill="#7D7D7D"/>
      <path d="M659.796,729.885 L658.851,709.29 L656.017,693.419 L659.04,693.419 L661.874,729.129 L659.796,729.885 z" fill="#7D7D7D"/>
      <path d="M638.972,716.347 L638.972,721.02 L725.845,723.746 L725.845,718.294 L638.972,716.347 z" fill="#FF0000"/>
      <path d="M638.972,695.319 L638.972,707.391 L725.845,708.17 L724.062,696.488 L638.972,695.319 z" fill="#FF0000"/>
      <path d="M639.39,706.944 L639.579,708.456 L725.548,709.023 L724.792,706.755 L639.39,706.944 z" fill="#9E1C1C"/>
      <path d="M639.201,719.682 L676.422,721.193 L725.359,721.193 L725.737,722.894 L676.422,722.138 L638.972,721.02 L639.201,719.682 z" fill="#9E1C1C"/>
    </g>
    <g id="Panel">
      <path d="M807.019,508.052 L806.277,493.462 L797.188,493.421 L797.336,489.553 L807.348,488.192 L805.986,478.414 L796.068,477.356 L796.253,472.516 L806.21,472.608 L810.817,453.962 L817.298,454.339 L811.826,472.931 L821.653,476.41 L821.559,478.829 L810.758,478.204 L812.228,485.079 L822.092,487.587 L821.49,491.917 L812.004,490.885 L813.124,506.953 L807.019,508.052 z" fill="#000000"/>
      <path d="M788.219,733.376 L771.35,502.255 L941.495,503.706 L932.651,735.398 z" fill="#C0A496"/>
      <path d="M789.378,520.678 L831.192,518.902 L835.03,558.68 L792.655,561.023 L789.378,520.678 z" fill="#FCFAFA"/>
      <path d="M844.544,521.103 L848.05,555.468 L880.137,556.124 L885.289,519.265 L844.544,521.103 z" fill="#FFFFFF"/>
      <path d="M883.331,569.647 L845.583,570.01 L848.18,605.113 L884.576,604.891 L883.331,569.647 z" fill="#FFFFFF"/>
      <path d="M894.745,522.577 L894.625,553.732 L929.315,556.34 L934.424,520.675 L894.745,522.577 z" fill="#FCFAFA"/>
      <path d="M794.38,571.912 L834.5,572.434 L839.032,608.058 L797.727,610.462 L794.38,571.912 z" fill="#FFFFFF"/>
      <path d="M845.42,735.417 L844.879,681.623 L878.909,682.585 L885.013,735.417 L845.42,735.417 z" fill="#FCFAFA"/>
      <path d="M801.031,622.041 L801.548,664.622 L839.228,659.011 L838.574,620.017 L801.031,622.041 z" fill="#FFFFFF"/>
      <path d="M896.678,571.374 L894.662,610.067 L931.541,607.824 L930.887,568.83 L896.678,571.374 z" fill="#FFFFFF"/>
      <path d="M851.392,620.759 L853.065,661.008 L879.79,661.955 L881.433,618.897 L851.392,620.759 z" fill="#FCFAFA"/>
      <path d="M893.576,623.196 L892.211,659.077 L924.741,662.156 L926.293,621.492 L893.576,623.196 z" fill="#FFFFFF"/>
      <path d="M841.864,735.417 L837.833,676.166 L844.879,681.623 L845.42,735.417 L841.864,735.417 z" fill="#815E13"/>
      <path d="M878.909,682.585 L844.879,681.623 L837.833,676.166 L880.556,676.166 L878.909,682.585 z" fill="#7C5314"/>
      <path d="M885.013,735.417 L878.909,682.585 L880.556,676.166 L888.617,736.826 L885.013,735.417 z" fill="#8D6637"/>
      <path d="M801.548,664.622 L799.947,668.911 L837.833,666.09 L839.228,659.011 L801.548,664.622 z" fill="#8D6637"/>
      <path d="M853.065,661.008 L853.149,664.881 L880.556,667.299 L879.79,661.955 L853.065,661.008 z" fill="#8D6637"/>
      <path d="M892.211,659.077 L891.841,665.284 L926.503,667.299 L924.741,662.156 L892.211,659.077 z" fill="#8D6637"/>
      <path d="M797.726,610.462 L796.723,613.694 L842.267,612.082 L839.032,608.058 L797.726,610.462 z" fill="#8D6637"/>
      <path d="M848.18,605.113 L848.312,608.058 L885.392,610.873 L884.576,604.891 L848.18,605.113 z" fill="#8D6637"/>
      <path d="M894.662,610.067 L894.259,613.694 L933.355,613.694 L931.542,607.824 L894.662,610.067 z" fill="#8D6637"/>
      <path d="M894.625,553.732 L894.259,558.074 L931.541,560.089 L929.315,556.34 L894.625,553.732 z" fill="#8D6637"/>
      <path d="M848.05,555.468 L845.42,560.089 L880.556,560.089 L880.137,556.124 L848.05,555.468 z" fill="#8D6637"/>
      <path d="M792.655,561.023 L791.483,565.688 L835.415,562.911 L834.609,555.468 L792.655,561.023 z" fill="#8D6637"/>
      <path d="M928.552,734.906 L930.811,687.095 L933.07,623.849 L937.211,565.121 L937.211,505.64 L940.599,504.134 L939.846,573.027 L936.834,618.203 L936.458,667.519 L935.328,734.53 L928.552,734.906 z" fill="#8A6740"/>
      <path d="M787.003,733.4 L781.731,667.519 L777.59,603.897 L770.814,542.91 L768.179,503.381 L771.567,502.252 L775.708,557.592 L783.615,618.955 L787.755,686.719 L793.778,732.647 L787.003,733.4 z" fill="#8E6639"/>
      <path d="M768.179,503.005 L806.201,501.499 L841.589,501.875 L877.353,503.005 L908.223,502.252 L941.352,503.005 L938.34,506.769 L904.082,506.017 L867.188,504.134 L832.554,504.887 L795.661,503.758 L769.308,507.899 L768.179,503.005 z" fill="#7D5D39"/>
      <path d="M803.868,715.651 L804.344,719.934 L811.007,719.934 L811.007,713.747 L803.868,715.651 z" fill="#AD7E49"/>
      <path d="M814.341,714.13 L814.341,718.426 L820.425,719.141 L820.425,715.562 L814.341,714.13 z" fill="#AD7E49"/>
      <path d="M823.289,715.562 L827.942,714.846 L827.942,719.141 L822.573,718.426 L823.289,715.562 z" fill="#AD7E49"/>
      <path d="M810.045,722.005 L810.045,726.3 L815.772,726.3 L816.488,722.363 L810.045,722.005 z" fill="#AD7E49"/>
      <path d="M820.067,722.005 L820.067,725.942 L825.794,725.942 L825.794,722.363 L820.067,722.005 z" fill="#AD7E49"/>
      <path d="M903.108,712.699 L903.466,718.784 L907.403,724.51 L916.709,724.51 L920.288,711.983 L907.403,708.761 L903.108,712.699 z" fill="#D6AE9B"/>
      <path d="M797.876,675.116 L807.898,672.968 L822.215,677.263 L816.488,684.064 L815.414,690.149 L802.171,692.655 L793.223,687.286 L797.876,675.116 z" fill="#D6AE9B"/>
      <path d="M794.435,560.425 L791.932,522.528 L829.114,520.025 L832.332,555.777 L835.55,560.425 L831.617,516.45 L788.357,519.31 L791.575,563.643 L794.435,560.425 z" fill="#8D6637"/>
      <path d="M847.705,555.777 L843.058,520.383 L886.675,518.953 L880.24,557.207 L877.737,557.207 L882.742,521.813 L848.063,522.528 L850.923,555.062 L847.705,555.777 z" fill="#8D6637"/>
      <path d="M894.54,554.347 L893.11,521.813 L934.225,519.668 L929.935,556.492 L926.36,556.492 L931.365,522.17 L897.043,524.673 L898.473,553.632 L894.54,554.347 z" fill="#8D6637"/>
      <path d="M797.652,610.12 L793.362,571.151 L835.55,571.508 L839.125,607.975 L836.265,608.333 L832.689,574.726 L798.725,575.441 L800.155,609.048 L797.652,610.12 z" fill="#8D6637"/>
      <path d="M847.348,604.758 L845.203,570.078 L884.172,569.363 L884.53,605.473 L881.67,605.115 L881.312,572.581 L848.42,572.581 L850.565,604.4 L847.348,604.758 z" fill="#8D6637"/>
      <path d="M894.183,610.478 L895.971,570.078 L931.008,567.933 L931.723,607.618 L927.79,607.618 L927.79,570.793 L897.758,571.866 L897.043,610.478 L894.183,610.478 z" fill="#8D6637"/>
      <path d="M801.228,664.463 L800.87,621.561 L839.482,620.131 L839.125,659.458 L835.192,659.816 L836.622,623.349 L803.73,623.706 L805.16,663.033 L801.228,664.463 z" fill="#8D6637"/>
      <path d="M853.426,661.246 L851.638,620.489 L882.027,619.773 L879.525,663.033 L877.022,662.676 L878.81,622.634 L855.214,623.349 L857.716,660.888 L853.426,661.246 z" fill="#8D6637"/>
      <path d="M892.395,659.101 L892.753,622.276 L925.645,620.131 L924.572,661.603 L920.639,661.603 L923.5,622.634 L895.971,624.421 L895.613,658.386 L892.395,659.101 z" fill="#8D6637"/>
    </g>
    <g id="Fence1">
      <path d="M414.912,276.798 L414.765,283.495 L451.564,261.036 L479.745,246.971 L515.463,223.682 L556.275,202.16 L556.381,197.324 L517.466,215.888 L481.734,239.922 L454.906,252.82 L414.912,276.798 z" fill="#7F4400"/>
      <path d="M414.439,298.378 L414.439,298.378 L451.181,278.524 L478.717,260.433 L510.588,245.29 L544.852,221.391 L555.966,216.299 L556.096,210.346 L543.852,216.839 L510.363,238.813 L481.44,253.315 L451.303,272.943 L414.586,291.681 L414.439,298.378 z" fill="#7F4400"/>
      <path d="M418.078,305.043 L416.672,268.782 L424.467,264.546 L421.439,302.326 L418.078,305.043 z" fill="#C56A00"/>
      <path d="M427.71,299.357 L428.5,263.268 L435.992,257.376 L432.569,296.489 L427.71,299.357 z" fill="#C56A00"/>
      <path d="M439.629,292.321 L440.789,256.013 L448.205,252.369 L445.201,289.032 L439.629,292.321 z" fill="#94632B"/>
      <path d="M449.659,286.4 L453.653,248.419 L459.368,245.046 L457.091,282.013 L449.659,286.4 z" fill="#C56A00"/>
      <path d="M462.292,278.943 L463.421,244.121 L469.77,238.905 L468.608,275.214 L462.292,278.943 z" fill="#996427"/>
      <path d="M474.182,271.923 L473.114,236.93 L479.018,235.282 L479.755,268.633 L474.182,271.923 z" fill="#C56A00"/>
      <path d="M483.842,266.221 L484.592,231.991 L491.32,226.183 L490.199,260.631 L483.842,266.221 z" fill="#C56A00"/>
      <path d="M494.245,260.08 L495.374,225.258 L503.904,220.957 L500.933,256.131 L494.245,260.08 z" fill="#C56A00"/>
      <path d="M506.135,253.061 L507.636,218.02 L512.869,213.462 L511.336,249.99 L506.135,253.061 z" fill="#7F501A"/>
      <path d="M515.423,247.577 L516.181,212.976 L523.241,208.808 L522.483,243.41 L515.423,247.577 z" fill="#C56A00"/>
      <path d="M528.427,239.9 L528.402,207.598 L534.387,202.228 L532.885,237.269 L528.427,239.9 z" fill="#C56A00"/>
      <path d="M537.715,234.417 L538.506,198.327 L545.704,194.078 L542.546,231.566 L537.715,234.417 z" fill="#955305"/>
      <path d="M548.119,228.275 L548.877,193.674 L553.675,192.31 L554.436,224.547 L548.119,228.275 z" fill="#C56A00"/>
    </g>
  </g>
  <g id="Surfaces">
    <path d="M51.398,193.042 L56.114,254.784 L60.156,279.036 L64.871,311.372 L151.774,311.372 L230.593,313.393 L289.876,315.414 L356.569,314.74 L394.951,318.709 L458.292,277.015 L514.88,245.353 L554.626,222.448 L583.594,202.912 L604.587,200.114 L602.928,206.628 L575.51,217.059 L539.132,239.963 L498.039,263.542 L450.882,290.488 L393.62,328.213 L345.116,324.845 L283.813,324.171 L213.078,321.477 L140.322,319.456 L58.808,320.803 L52.745,296.551 L46.04,237.942 L41.293,197.522 L51.398,193.042 z" fill="#6E6E6E"/>
    <path d="M599.762,199.543 L665.781,203.585 L719.001,205.606 L774.915,202.912 L822.072,206.954 L874.618,206.28 L906.788,206.628 L902.912,215.038 L861.818,212.343 L806.578,214.364 L757.4,210.996 L706.875,213.69 L650.961,213.017 L615.93,207.627 L599.762,207.627 L599.762,199.543 z" fill="#6E6E6E"/>
    <path d="M906.788,206.628 L944.679,234.574 L967.584,258.152 L997.225,279.71 L1025.519,304.784 L1059.966,333.653 L1056.508,338.318 L1018.109,310.024 L989.141,283.078 L953.437,256.131 L927.837,232.553 L902.912,215.038 L906.788,206.628 z" fill="#6E6E6E"/>
    <path d="M1059.966,333.653 L1120.506,334.95 L1182.483,333.603 L1242.439,330.908 L1290.943,334.276 L1334.732,331.582 L1381.766,331.153 L1380.048,338.478 L1324.627,338.318 L1280.165,341.687 L1230.313,338.318 L1183.83,341.013 L1140.042,343.708 L1094.233,338.318 L1056.508,338.318 L1059.966,333.653 z" fill="#6E6E6E"/>
    <path d="M1381.766,331.153 L1461.185,341.987 L1525.656,349.443 L1598.021,348.127 L1654.159,348.565 L1654.159,357.776 L1613.372,356.898 L1570.829,353.828 L1520.831,354.706 L1478.728,351.635 L1380.048,338.478 L1381.766,331.153 z" fill="#6E6E6E"/>
    <path d="M1649.774,347.25 L1675.65,356.021 L1732.226,374.003 L1781.022,393.43 L1825.834,393.43 L1879.054,393.43 L1934.962,389.371 L1934.294,396.254 L1879.054,399.622 L1823.139,399.622 L1781.022,399.622 L1742.314,384.967 L1698.456,368.302 L1648.458,356.46 L1649.774,347.25 z" fill="#6E6E6E"/>
    <path d="M1575.54,565.288 L1606.893,541.092 L1640.576,506.735 L1682.343,479.115 L1708.616,451.494 L1745.668,425.895 L1772.615,399.622 L1784.74,399.622 L1751.057,428.59 L1716.7,454.189 L1684.364,489.22 L1642.789,510.103 L1613.629,544.46 L1579.272,570.06 L1575.54,565.288 z" fill="#6E6E6E"/>
    <path d="M1200.44,574.596 L1265.033,570.727 L1323.538,571.391 L1385.098,569.233 L1451.617,565.639 L1512.212,565.918 L1575.54,565.288 L1578.558,570.298 L1513.867,570.768 L1455.348,576.139 L1389.975,576.318 L1325.568,578.788 L1264.966,576.478 L1198.993,579.197 L1200.44,574.596 z" fill="#6E6E6E"/>
    <path d="M1200.44,574.596 L1169.959,596.412 L1141.814,622.144 L1110.051,649.083 L1078.69,678.031 L1051.349,704.568 L1019.586,731.506 L1023.205,738.341 L1053.762,706.98 L1082.711,681.65 L1111.257,652.701 L1145.835,625.361 L1174.381,600.433 L1198.993,579.197 L1200.44,574.596 z" fill="#6E6E6E"/>
    <path d="M1019.586,731.506 L988.971,735.419 L953.437,733.409 L910.221,733.409 L871.806,733.409 L835.793,728.697 L795.458,733.409 L758.003,730.617 L717.668,730.617 L674.932,727.736 L635.557,729.657 L599.762,727.736 L595.222,733.409 L634.597,733.409 L673.491,735.419 L718.628,733.409 L751.281,738.341 L784.893,736.379 L819.947,738.341 L853.079,738.341 L884.291,740.701 L929.428,738.341 L973.125,742.622 L1004.817,741.661 L1023.205,738.341 L1019.586,731.506 z" fill="#6E6E6E"/>
    <path d="M595.222,733.409 L593.447,704.791 L585.717,677.737 L585.33,662.277 L588.737,661.542 L593.447,686.24 L597.312,705.564 L599.762,727.736 L595.222,733.409 z" fill="#6E6E6E"/>
    <path d="M41.293,197.522 L-39.363,196.211 L-87.716,194.544 L-94.941,183.984 L-64.651,188.43 L-19.077,187.596 L15.381,191.765 L43.17,189.542 L51.398,193.042 L41.293,197.522 z" fill="#6E6E6E"/>
    <path d="M46.54,190.542 L61.365,312.765 L395.451,316.209 L589.725,200.392 L907.288,204.128 L1060.466,331.153 L1381.766,331.153 L1504.604,348.127 L1654.159,348.565 L1781.522,390.93 L1933.261,390.93" fill-opacity="0" stroke="#000000" stroke-width="1"/>
    <path d="M1781.522,390.93 L1576.04,562.788 L1198.7,570.26 L1019.37,730.909 L599.797,727.413 L589.237,659.042" fill-opacity="0" stroke="#000000" stroke-width="1"/>
    <path d="M1866.072,741.583 L2310.721,740.713" fill-opacity="0" stroke="#000000" stroke-width="1"/>
  </g>
  <g id="Pivots">
    <path d="M209.543,311.492 L208.197,258.66 L241.173,258.66 L239.827,311.492 L209.543,311.492 z" fill="#484848" id="Pivot_l0_t0"/>
    <path d="M236.164,311.492 L234.818,258.66 L267.794,258.66 L266.448,311.492 L236.164,311.492 z" fill="#484848" id="Pivot_i1"/>
    <path d="M540.607,204.004 L539.261,151.172 L572.237,151.172 L570.891,204.004 L540.607,204.004 z" fill="#484848" id="Pivot_i2"/>
    <path d="M605.147,728.736 L603.801,675.904 L636.778,675.904 L635.432,728.736 L605.147,728.736 z" fill="#484848" id="Pivot_e"/>
    <path d="M1203.995,328.344 L1202.649,275.512 L1235.625,275.512 L1234.279,328.344 L1203.995,328.344 z" fill="#484848" id="Pivot_l1_t1_s1_c1"/>
    <path d="M1867.418,383.985 L1866.072,331.153 L1899.048,331.153 L1897.702,383.985 L1867.418,383.985 z" fill="#484848" id="Pivot_l1_t1_s1_c1"/>
    <path d="M780.589,199.543 L779.243,146.711 L812.219,146.711 L810.873,199.543 L780.589,199.543 z" fill="#484848" id="Pivot_l1_t1_s1_c1"/>
    <path d="M958.951,233.706 L957.604,180.874 L990.581,180.874 L989.234,233.706 L958.951,233.706 z" fill="#484848" id="Pivot_l1_t1_s1_c1"/>
    <path d="M1069.904,326.715 L1068.558,273.883 L1101.534,273.883 L1100.188,326.715 L1069.904,326.715 z" fill="#484848" id="Pivot_l1_t1_s1_c1"/>
    <path d="M1391.499,557.511 L1390.153,504.679 L1423.129,504.679 L1421.783,557.511 L1391.499,557.511 z" fill="#484848" id="Pivot_l1_t1_s1_c2"/>
    <path d="M801.549,723.891 L800.203,671.059 L833.179,671.059 L831.833,723.891 L801.549,723.891 z" fill="#484848" id="Pivot_l1_t1_s1_c1"/>
    <path d="M1250.144,560.511 L1248.798,507.679 L1281.774,507.679 L1280.428,560.511 L1250.144,560.511 z" fill="#484848" id="Pivot_i4"/>
    <path d="M1729.211,367.285 L1727.865,314.453 L1760.841,314.453 L1759.495,367.285 L1729.211,367.285 z" fill="#484848" id="Pivot_i3"/>
  </g>
</svg>
