<?xml version="1.0" encoding="UTF-8" standalone="no"?>
<svg
   xmlns:dc="http://purl.org/dc/elements/1.1/"
   xmlns:cc="http://creativecommons.org/ns#"
   xmlns:rdf="http://www.w3.org/1999/02/22-rdf-syntax-ns#"
   xmlns:svg="http://www.w3.org/2000/svg"
   xmlns="http://www.w3.org/2000/svg"
   id="svg7667"
   viewBox="0, 0, 2500, 1000"
   height="1000"
   width="2500"
   y="0"
   x="0"
   version="1.1">
  <metadata
     id="metadata7673">
    <rdf:RDF>
      <cc:Work
         rdf:about="">
        <dc:format>image/svg+xml</dc:format>
        <dc:type
           rdf:resource="http://purl.org/dc/dcmitype/StillImage" />
        <dc:title></dc:title>
      </cc:Work>
    </rdf:RDF>
  </metadata>
  <defs
     id="defs7671" />
  <g
     id="Background">
    <path
       id="path6821"
       fill="#FFFFFF"
       d="M0,0 L2500,0 L2500,1000 L0,1000 z" />
  </g>
  <g
     id="Layer_2">
    <path
       id="path6824"
       fill="#6DD0FF"
       d="M 1.393,-2.675 H 2679.75 V 998.804 H 1.393 Z" />
    <path
       id="path6826"
       fill="#E4F1F9"
       d="m 1773.352,185.046 15.413,33.262 55.165,-0.811 25.149,-14.603 h 26.771 l 12.98,-32.45 -32.45,-12.98 -45.43,9.423 -35.695,-3.744 z" />
    <path
       id="path6828"
       fill="#E4F1F9"
       d="m 1872.226,195.214 15.413,33.262 55.165,-0.811 25.149,-14.603 h 26.771 l 12.98,-32.45 -32.45,-12.98 -45.43,9.423 -35.695,-3.744 z" />
    <path
       id="path6830"
       fill="#E4F1F9"
       d="m 1080.789,176.002 15.413,33.262 55.165,-0.811 25.149,-14.603 h 26.771 l 12.98,-32.45 -32.45,-12.98 -45.43,9.423 -35.695,-3.744 z" />
    <path
       id="path6832"
       fill="#E4F1F9"
       d="m 1179.662,186.169 15.413,33.262 55.165,-0.811 25.149,-14.603 h 26.771 l 12.98,-32.45 -32.45,-12.98 -45.43,9.423 -35.695,-3.744 z" />
    <path
       id="path6834"
       fill="#E4F1F9"
       d="m 38.407,385.74 15.413,33.262 55.165,-0.811 25.149,-14.603 h 26.771 l 12.98,-32.45 -32.45,-12.98 -45.43,9.423 -35.695,-3.744 z" />
    <path
       id="path6836"
       fill="#E4F1F9"
       d="m 137.28,395.907 15.413,33.262 55.165,-0.811 25.149,-14.603 h 26.771 l 12.98,-32.45 -32.45,-12.98 -45.43,9.423 -35.695,-3.744 z" />
    <path
       id="path6838"
       fill="#F3FAFD"
       d="m 2048.413,239.886 11.507,6.327 28.127,5.179 41.55,-17.397 15.342,9.695 25.57,-4.443 18.538,-21.095 -24.291,-32.506 h -38.994 l -30.098,-14.798 -22.959,26.318 -36.437,-4.584 -24.292,37.715 13.424,16.172 z" />
    <path
       id="path6840"
       fill="#F3FAFD"
       d="m 2416.342,211.305 11.507,6.327 28.127,5.179 41.55,-17.397 15.342,9.695 25.57,-4.443 18.538,-21.095 -24.291,-32.506 h -38.994 l -30.098,-14.798 -22.959,26.318 -36.437,-4.584 -24.292,37.715 13.424,16.172 z" />
    <path
       id="path6842"
       fill="#A4E2FF"
       d="M -90.451,228.02 H 2746.07 v 791.488 H -90.451 Z" />
    <path
       id="path6844"
       fill="#C0EBFF"
       d="m -81.468,374.393 550.433,-0.095 143.073,-48.133 h 2130.59 V 1010.01 H -66.354 Z" />
  </g>
  <g
     id="g6893">
    <path
       id="path6847"
       fill="#009202"
       d="M161.317,487.227 L179.282,484.578 L215.979,483.701 L259.551,488.401 L286.512,483.701 L355.281,486.052 L452.85,570.691 L511.627,611.835 L585.686,650.627 L659.158,673.55 L717.347,703.527 L770.834,742.907 L838.318,764.707 L857.824,779.349 L930.119,779.937 L908.96,798.158 L866.64,824.607 L764.368,874.568 L623.304,882.796 L470.377,893.808 L362.669,891.632 L360.063,990.398 L202.03,995.223 L192.379,693.635 L168.252,597.126 L157.395,529.571 L161.317,487.227 z" />
    <path
       id="path6849"
       fill="#00C002"
       d="M2746.07,228.02 L2536.656,238.978 L2497.503,255.136 L2487.249,271.606 L2486.302,356.325 L2374.489,354.267 L2280.912,355.867 L2247.604,352.139 L2156.941,383.583 L2097.722,379.915 L2033.786,380.439 L2009.837,376.831 L1960.19,356.666 L1897.005,330.273 L1873.952,325.268 L1842.708,320.686 L1773.835,312.677 L1690.236,306.105 L1640.662,313.187 L1604.419,308.605 L1557.344,304.855 L1487.358,326.935 L1399.527,339.911 L1327.79,355.589 L1266.505,368.891 L1212.821,371.266 L1168.667,376.509 L1133.257,376.925 L1103.078,377.917 L1030.866,365.09 L957.705,352.263 L955.329,381.718 L984.619,413.644 L1013.372,450.448 L1020.593,484.944 L953.751,482.916 L899.967,517.733 L865.404,527.156 L773.157,526.521 L715.001,516.899 L646.255,501.588 L559.613,487.322 L473.859,487.709 L422.724,484.787 L361.124,487.122 L444.639,564.411 L508.192,613.354 L558.596,635.999 L604.617,655.723 L663.057,677.638 L720.035,706.857 L774.092,745.574 L810.617,760.914 L848.831,774.49 L865.702,780.564 L938.584,778.764 L1106.812,778.872 L1120.56,682.688 L1135.892,634.858 L1266.812,642.841 L2744.963,641.041 L2746.07,228.02 z" />
    <path
       id="path6851"
       fill="#00AE02"
       d="M461.539,568.886 L437.781,542.918 L430.046,520.265 L426.179,499.27 L430.046,488.219 L406.841,486.009 L358.16,484.944 L444.639,564.411 L461.539,568.886 z" />
    <path
       id="path6853"
       fill="#007C02"
       d="M431.151,543.47 L411.813,523.58 L401.868,502.032 L401.316,484.352 L355.281,486.052 L399.106,521.922 L425.626,547.338 L431.151,543.47 z" />
    <path
       id="path6855"
       fill="#017802"
       d="M862.51,823.396 L882.116,804.63 L886.878,792.586 L885.197,778.021 L930.119,779.937 L908.96,798.158 L862.51,823.396 z" />
    <path
       id="path6857"
       fill="#005B01"
       d="M880.996,810.792 L899.482,795.107 L905.644,782.783 L930.119,779.937 L902.283,801.549 L880.996,810.792 z" />
    <path
       id="path6859"
       fill="#7A6302"
       d="M358.16,884.233 L420.136,889.165 L496.936,892.489 L530.368,883.401 L623.304,882.796 L764.368,874.568 L827.201,845.216 L872.591,817.839 L930.119,779.937 L1103.375,779.937 L1106.812,674.209 L1111.177,654.705 L1135.892,634.858 L1276.26,640.776 L1511.126,645.073 L2657.342,643.71 L2650.06,1005.289 L356.846,1001.668 L346.822,971.594 L352.55,920.038 L358.16,884.233 z" />
    <path
       id="path6861"
       fill="#8D6637"
       d="M2251.864,364.005 L2251.864,355.839 L2293.436,355.839 L2359.135,355.839 L2429.289,357.323 L2491.648,359.922 L2492.39,367.345 L2468.263,361.035 L2435.228,363.262 L2406.276,360.293 L2356.537,362.891 L2312.366,361.778 L2277.104,366.232 L2251.864,364.005 z" />
    <path
       id="path6863"
       fill="#8D6637"
       d="M2514.661,250.794 L2500.556,257.475 L2491.839,273.301 L2489.792,365.49 L2493.875,366.974 L2499.443,361.035 L2492.39,332.825 L2498.7,300.161 L2494.246,282.344 L2500.927,261.929 L2514.661,250.794 z" />
    <path
       id="path6865"
       fill="#8D6637"
       d="M2009.11,378.852 L2081.862,379.594 L2101.163,377.367 L2155.727,381.45 L2179.854,371.8 L2256.033,354.089 L2254.462,363.262 L2237.387,362.891 L2213.26,373.284 L2190.99,376.254 L2171.317,380.337 L2155.356,389.616 L2123.063,384.049 L2105.246,386.276 L2086.316,384.791 L2062.931,389.616 L2042.887,384.049 L2022.101,388.503 L2005.769,387.761 L2009.11,378.852 z" />
    <path
       id="path6867"
       fill="#8D6637"
       d="M1718.156,308.694 L1781.954,313.687 L1873.356,321.087 L1947.784,351.989 L2011.738,380.695 L2005.769,387.761 L1973.464,370.705 L1940.82,358.518 L1913.834,345.025 L1874.227,328.051 L1843.76,327.18 L1818.08,324.569 L1782.39,326.745 L1758.016,317.169 L1725.807,320.216 L1715.797,318.91 L1718.156,308.694 z" />
    <path
       id="path6869"
       fill="#8D6637"
       d="M1266.505,368.891 L1292.175,361.925 L1399.527,339.911 L1487.358,326.935 L1555.607,307.697 L1604.98,305.463 L1719.585,309.119 L1715.797,318.91 L1692.892,314.102 L1653.255,316.643 L1616.159,316.643 L1598.882,313.594 L1572.457,320.2 L1544,317.659 L1507.92,326.806 L1460.153,335.445 L1429.912,342.304 L1397.14,347.641 L1365.557,354.469 L1330.062,361.869 L1288.644,368.596 L1264.509,378.639 L1266.505,368.891 z" />
    <path
       id="path6871"
       fill="#8D6637"
       d="M957.705,352.263 L1039.069,367.418 L1109.016,376.895 L1133.257,376.925 L1210.946,372.912 L1241.947,367.811 L1269.808,368.596 L1264.509,378.639 L1241.162,372.912 L1214.085,379.976 L1173.274,378.798 L1147.375,382.33 L1128.539,381.545 L1108.526,390.571 L1062.614,375.659 L1045.348,376.444 L1015.525,369.381 L978.638,364.672 L957.055,361.925 L957.705,352.263 z" />
    <path
       id="path6873"
       fill="#8D6637"
       d="M955.329,381.718 L981.777,410.191 L1008.069,444.331 L1014.74,457.673 L1020.234,480.041 L1021.611,492.737 L1026.905,498.092 L1022.98,472.585 L1021.803,452.964 L1005.714,430.204 L997.081,412.546 L979.815,403.913 L973.144,394.103 L955.329,381.718 z" />
    <path
       id="path6875"
       fill="#8D6637"
       d="M766.343,528.308 L871.509,529.877 L953.523,487.497 L1019.841,489.066 L1026.905,498.092 L1011.6,497.307 L984.524,493.383 L969.612,498.877 L953.916,495.345 L940.181,502.016 L924.485,516.143 L908.004,517.713 L892.307,526.738 L872.294,539.295 L846.787,536.548 L812.647,539.295 L786.356,535.371 L763.203,537.726 L766.343,528.308 z" />
    <path
       id="path6877"
       fill="#8D6637"
       d="M552.412,484.171 L592.218,492.766 L715.001,516.899 L766.343,528.308 L763.203,537.726 L746.015,530.763 L721.588,526.691 L702.59,518.549 L678.616,516.74 L631.12,511.312 L616.645,501.812 L597.194,500.908 L568.244,494.123 L551.959,492.766 L552.412,484.171 z" />
    <path
       id="path6879"
       fill="#8D6637"
       d="M358.16,484.944 L380.521,484.623 L422.724,484.787 L465.109,487.79 L511.701,484.171 L554.673,485.528 L554.673,492.766 L537.484,490.956 L503.559,495.932 L471.895,494.123 L455.61,494.575 L426.208,490.956 L396.353,495.48 L372.831,492.766 L363.332,492.766 L358.16,484.944 z" />
    <path
       id="path6881"
       fill="#8D6637"
       d="M161.317,487.227 L189.18,486.885 L215.979,483.701 L259.381,486.037 L286.512,483.701 L356.662,486.145 L353.508,493.49 L324.546,489.87 L286.852,488.379 L273.316,493.218 L249.794,498.646 L217.677,491.409 L199.131,493.67 L175.157,498.646 L159.777,497.741 L161.317,487.227 z" />
    <path
       id="path6883"
       fill="#8D6637"
       d="M593.575,654.705 L546.079,629.373 L507.63,610.375 L436.159,557.451 L358.809,491.409 L349.309,492.766 L371.927,511.312 L394.996,526.239 L410.828,547.952 L432.088,565.593 L458.777,590.02 L489.084,606.756 L508.534,621.231 L551.055,641.134 L575.934,656.966 L595.837,664.204 L593.575,654.705 z" />
    <path
       id="path6885"
       fill="#8D6637"
       d="M866.791,779.099 L777.227,748.792 L697.162,692.249 L628.858,665.561 L593.575,654.705 L593.575,663.299 L625.691,667.823 L649.666,682.75 L682.234,693.154 L712.994,718.485 L723.85,720.747 L749.634,737.936 L780.393,761.005 L812.962,769.148 L835.127,772.766 L859.553,789.051 L886.694,784.075 L925.143,783.17 L925.595,778.647 L866.791,779.099 z" />
    <path
       id="path6887"
       fill="#554400"
       d="M1104.464,678.567 L1113.619,690.827 L1107.976,706.888 L1111.014,722.949 L1111.014,742.048 L1107.541,758.977 L1108.844,775.907 L1106.812,784.109 L1085.635,784.109 L1053.504,784.109 L997.623,789.051 L940.575,784.057 L936.872,776.462 L1101.882,775.853 L1104.464,678.567 z" />
    <path
       id="path6889"
       fill="#554400"
       d="M761.3,876.974 L871.122,824.884 L934.932,778.872 L940.575,784.081 L929.289,791.46 L924.948,802.746 L907.585,806.219 L894.996,823.582 L885.013,827.489 L857.665,840.077 L828.582,857.44 L811.219,861.347 L790.817,872.633 L779.965,874.804 L763.47,886.09 L761.3,876.974 z" />
    <path
       id="path6891"
       fill="#554400"
       d="M357.916,887.834 L387.161,886.75 L496.021,886.75 L621.858,881.727 L717.75,875.8 L761.3,876.974 L763.47,886.09 L741.902,881.876 L711.573,887.292 L682.327,884.043 L656.872,888.375 L636.834,889.458 L592.423,887.834 L560.47,890.542 L534.473,893.25 L516.601,893.25 L491.688,897.041 L458.651,895.416 L431.03,899.207 L413.158,894.333 L391.494,898.665 L368.206,893.25 L356.291,901.373 L357.916,887.834 z" />
  </g>
  <g
     id="Gfx">
    <g
       id="Panel">
      <path
         id="path6895"
         fill="#000000"
         d="M1589.494,81.965 L1588.752,67.375 L1579.663,67.334 L1579.811,63.466 L1589.823,62.105 L1588.461,52.327 L1578.543,51.269 L1578.728,46.429 L1588.685,46.521 L1593.292,27.875 L1599.773,28.252 L1594.3,46.844 L1604.128,50.323 L1604.034,52.742 L1593.233,52.117 L1594.703,58.992 L1604.567,61.5 L1603.965,65.83 L1594.479,64.798 L1595.599,80.866 L1589.494,81.965 z" />
      <path
         id="path6897"
         fill="#C0A496"
         d="M1570.694,307.289 L1553.825,76.168 L1723.97,77.619 L1715.126,309.311 z" />
      <path
         id="path6899"
         fill="#FCFAFA"
         d="M1571.853,94.591 L1613.667,92.815 L1617.505,132.593 L1575.13,134.936 L1571.853,94.591 z" />
      <path
         id="path6901"
         fill="#FFFFFF"
         d="M1627.019,95.016 L1630.525,129.381 L1662.612,130.037 L1667.764,93.178 L1627.019,95.016 z" />
      <path
         id="path6903"
         fill="#FFFFFF"
         d="M1665.806,143.56 L1628.058,143.923 L1630.655,179.026 L1667.051,178.804 L1665.806,143.56 z" />
      <path
         id="path6905"
         fill="#FCFAFA"
         d="M1677.22,96.49 L1677.1,127.645 L1711.79,130.253 L1716.899,94.588 L1677.22,96.49 z" />
      <path
         id="path6907"
         fill="#FFFFFF"
         d="M1576.855,145.825 L1616.975,146.347 L1621.507,181.971 L1580.201,184.375 L1576.855,145.825 z" />
      <path
         id="path6909"
         fill="#FCFAFA"
         d="M1627.895,309.33 L1627.354,255.536 L1661.384,256.498 L1667.488,309.33 L1627.895,309.33 z" />
      <path
         id="path6911"
         fill="#FFFFFF"
         d="M1583.506,195.954 L1584.023,238.535 L1621.703,232.924 L1621.049,193.93 L1583.506,195.954 z" />
      <path
         id="path6913"
         fill="#FFFFFF"
         d="M1679.153,145.287 L1677.137,183.98 L1714.016,181.737 L1713.362,142.743 L1679.153,145.287 z" />
      <path
         id="path6915"
         fill="#FCFAFA"
         d="M1633.867,194.672 L1635.54,234.921 L1662.265,235.868 L1663.908,192.81 L1633.867,194.672 z" />
      <path
         id="path6917"
         fill="#FFFFFF"
         d="M1676.051,197.109 L1674.686,232.99 L1707.216,236.069 L1708.768,195.405 L1676.051,197.109 z" />
      <path
         id="path6919"
         fill="#815E13"
         d="M1624.339,309.33 L1620.308,250.079 L1627.354,255.536 L1627.895,309.33 L1624.339,309.33 z" />
      <path
         id="path6921"
         fill="#7C5314"
         d="M1661.384,256.498 L1627.354,255.536 L1620.308,250.079 L1663.031,250.079 L1661.384,256.498 z" />
      <path
         id="path6923"
         fill="#8D6637"
         d="M1667.488,309.33 L1661.384,256.498 L1663.031,250.079 L1671.092,310.739 L1667.488,309.33 z" />
      <path
         id="path6925"
         fill="#8D6637"
         d="M1584.023,238.535 L1582.422,242.824 L1620.308,240.003 L1621.703,232.924 L1584.023,238.535 z" />
      <path
         id="path6927"
         fill="#8D6637"
         d="M1635.54,234.921 L1635.624,238.794 L1663.031,241.212 L1662.265,235.868 L1635.54,234.921 z" />
      <path
         id="path6929"
         fill="#8D6637"
         d="M1674.686,232.99 L1674.316,239.197 L1708.978,241.212 L1707.216,236.069 L1674.686,232.99 z" />
      <path
         id="path6931"
         fill="#8D6637"
         d="M1580.201,184.375 L1579.198,187.607 L1624.742,185.995 L1621.507,181.971 L1580.201,184.375 z" />
      <path
         id="path6933"
         fill="#8D6637"
         d="M1630.655,179.026 L1630.787,181.971 L1667.867,184.786 L1667.051,178.804 L1630.655,179.026 z" />
      <path
         id="path6935"
         fill="#8D6637"
         d="M1677.137,183.98 L1676.734,187.607 L1715.83,187.607 L1714.016,181.737 L1677.137,183.98 z" />
      <path
         id="path6937"
         fill="#8D6637"
         d="M1677.1,127.645 L1676.734,131.987 L1714.016,134.002 L1711.79,130.253 L1677.1,127.645 z" />
      <path
         id="path6939"
         fill="#8D6637"
         d="M1630.525,129.381 L1627.895,134.002 L1663.031,134.002 L1662.612,130.037 L1630.525,129.381 z" />
      <path
         id="path6941"
         fill="#8D6637"
         d="M1575.13,134.936 L1573.958,139.601 L1617.89,136.824 L1617.084,129.381 L1575.13,134.936 z" />
      <path
         id="path6943"
         fill="#8A6740"
         d="M1711.027,308.819 L1713.286,261.008 L1715.545,197.762 L1719.686,139.034 L1719.686,79.553 L1723.074,78.047 L1722.321,146.94 L1719.309,192.116 L1718.933,241.432 L1717.803,308.443 L1711.027,308.819 z" />
      <path
         id="path6945"
         fill="#8E6639"
         d="M1569.477,307.313 L1564.206,241.432 L1560.065,177.81 L1553.289,116.823 L1550.654,77.294 L1554.042,76.165 L1558.183,131.505 L1566.089,192.868 L1570.23,260.632 L1576.253,306.56 L1569.477,307.313 z" />
      <path
         id="path6947"
         fill="#7D5D39"
         d="M1550.654,76.918 L1588.676,75.412 L1624.064,75.788 L1659.828,76.918 L1690.698,76.165 L1723.827,76.918 L1720.815,80.682 L1686.557,79.93 L1649.663,78.047 L1615.029,78.8 L1578.136,77.671 L1551.783,81.812 L1550.654,76.918 z" />
      <path
         id="path6949"
         fill="#AD7E49"
         d="M1586.343,289.564 L1586.819,293.847 L1593.482,293.847 L1593.482,287.66 L1586.343,289.564 z" />
      <path
         id="path6951"
         fill="#AD7E49"
         d="M1596.816,288.043 L1596.816,292.339 L1602.9,293.054 L1602.9,289.475 L1596.816,288.043 z" />
      <path
         id="path6953"
         fill="#AD7E49"
         d="M1605.764,289.475 L1610.417,288.759 L1610.417,293.054 L1605.048,292.339 L1605.764,289.475 z" />
      <path
         id="path6955"
         fill="#AD7E49"
         d="M1592.52,295.918 L1592.52,300.213 L1598.247,300.213 L1598.963,296.276 L1592.52,295.918 z" />
      <path
         id="path6957"
         fill="#AD7E49"
         d="M1602.542,295.918 L1602.542,299.855 L1608.269,299.855 L1608.269,296.276 L1602.542,295.918 z" />
      <path
         id="path6959"
         fill="#D6AE9B"
         d="M1685.583,286.612 L1685.941,292.697 L1689.878,298.423 L1699.184,298.423 L1702.763,285.896 L1689.878,282.674 L1685.583,286.612 z" />
      <path
         id="path6961"
         fill="#D6AE9B"
         d="M1580.351,249.029 L1590.373,246.881 L1604.69,251.176 L1598.963,257.977 L1597.889,264.062 L1584.646,266.568 L1575.698,261.199 L1580.351,249.029 z" />
      <path
         id="path6963"
         fill="#8D6637"
         d="M1576.91,134.338 L1574.407,96.441 L1611.589,93.938 L1614.807,129.69 L1618.025,134.338 L1614.092,90.363 L1570.832,93.223 L1574.05,137.556 L1576.91,134.338 z" />
      <path
         id="path6965"
         fill="#8D6637"
         d="M1630.18,129.69 L1625.533,94.296 L1669.15,92.866 L1662.715,131.12 L1660.212,131.12 L1665.217,95.726 L1630.538,96.441 L1633.398,128.975 L1630.18,129.69 z" />
      <path
         id="path6967"
         fill="#8D6637"
         d="M1677.015,128.26 L1675.585,95.726 L1716.7,93.581 L1712.41,130.405 L1708.835,130.405 L1713.84,96.083 L1679.518,98.586 L1680.948,127.545 L1677.015,128.26 z" />
      <path
         id="path6969"
         fill="#8D6637"
         d="M1580.127,184.033 L1575.837,145.064 L1618.025,145.421 L1621.6,181.888 L1618.74,182.246 L1615.164,148.639 L1581.2,149.354 L1582.63,182.961 L1580.127,184.033 z" />
      <path
         id="path6971"
         fill="#8D6637"
         d="M1629.823,178.671 L1627.678,143.991 L1666.647,143.276 L1667.005,179.386 L1664.145,179.028 L1663.787,146.494 L1630.895,146.494 L1633.04,178.313 L1629.823,178.671 z" />
      <path
         id="path6973"
         fill="#8D6637"
         d="M1676.658,184.391 L1678.446,143.991 L1713.483,141.846 L1714.198,181.531 L1710.265,181.531 L1710.265,144.706 L1680.233,145.779 L1679.518,184.391 L1676.658,184.391 z" />
      <path
         id="path6975"
         fill="#8D6637"
         d="M1583.703,238.376 L1583.345,195.474 L1621.957,194.044 L1621.6,233.371 L1617.667,233.729 L1619.097,197.262 L1586.205,197.619 L1587.635,236.946 L1583.703,238.376 z" />
      <path
         id="path6977"
         fill="#8D6637"
         d="M1635.901,235.159 L1634.113,194.402 L1664.502,193.686 L1662,236.946 L1659.497,236.589 L1661.285,196.547 L1637.688,197.262 L1640.191,234.801 L1635.901,235.159 z" />
      <path
         id="path6979"
         fill="#8D6637"
         d="M1674.87,233.014 L1675.228,196.189 L1708.12,194.044 L1707.047,235.516 L1703.114,235.516 L1705.975,196.547 L1678.446,198.334 L1678.088,232.299 L1674.87,233.014 z" />
    </g>
    <g
       id="g7068">
      <path
         id="path6982"
         fill="#000000"
         d="M1855.924,93.316 L1857.729,78.819 L1866.797,79.442 L1866.931,75.573 L1857.045,73.485 L1859.117,63.833 L1869.086,63.502 L1869.255,58.661 L1859.318,58.026 L1856.084,39.093 L1849.593,38.996 L1853.694,57.938 L1843.638,60.69 L1843.556,63.11 L1854.373,63.275 L1852.406,70.024 L1842.385,71.806 L1842.669,76.168 L1852.205,75.831 L1849.915,91.775 L1855.924,93.316 z" />
      <path
         id="path6984"
         fill="#C0A496"
         d="M1858.226,319.411 L1891.921,90.138 L1722.124,79.166 L1714.032,310.885 z" />
      <path
         id="path6986"
         fill="#FCFAFA"
         d="M1872.596,107.196 L1831.023,102.373 L1824.292,141.765 L1866.383,147.194 L1872.596,107.196 z" />
      <path
         id="path6988"
         fill="#FFFFFF"
         d="M1817.546,103.593 L1811.541,137.611 L1779.492,135.923 L1777.044,98.786 L1817.546,103.593 z" />
      <path
         id="path6990"
         fill="#FFFFFF"
         d="M1775.319,149.177 L1812.94,152.294 L1807.788,187.114 L1771.505,184.236 L1775.319,149.177 z" />
      <path
         id="path6992"
         fill="#FCFAFA"
         d="M1767.371,101.399 L1765.217,132.48 L1730.429,132.548 L1727.937,96.606 L1767.371,101.399 z" />
      <path
         id="path6994"
         fill="#FFFFFF"
         d="M1863.868,157.928 L1823.817,155.521 L1816.696,190.719 L1857.717,196.131 L1863.868,157.928 z" />
      <path
         id="path6996"
         fill="#FCFAFA"
         d="M1801.029,317.272 L1805.495,263.661 L1771.485,262.136 L1761.541,314.382 L1801.029,317.272 z" />
      <path
         id="path6998"
         fill="#FFFFFF"
         d="M1853.575,207.438 L1849.951,249.868 L1812.781,241.521 L1816.28,202.679 L1853.575,207.438 z" />
      <path
         id="path7000"
         fill="#FFFFFF"
         d="M1761.882,149.925 L1761.068,188.662 L1724.451,183.733 L1727.95,144.89 L1761.882,149.925 z" />
      <path
         id="path7002"
         fill="#FCFAFA"
         d="M1803.442,202.484 L1798.836,242.503 L1772.113,241.497 L1773.617,198.434 L1803.442,202.484 z" />
      <path
         id="path7004"
         fill="#FFFFFF"
         d="M1761.193,201.835 L1759.935,237.72 L1727.267,238.416 L1728.687,197.747 L1761.193,201.835 z" />
      <path
         id="path7006"
         fill="#815E13"
         d="M1804.575,317.531 L1812.921,258.733 L1805.495,263.661 L1801.029,317.272 L1804.575,317.531 z" />
      <path
         id="path7008"
         fill="#7C5314"
         d="M1771.485,262.136 L1805.495,263.661 L1812.921,258.733 L1770.312,255.614 L1771.485,262.136 z" />
      <path
         id="path7010"
         fill="#8D6637"
         d="M1761.541,314.382 L1771.485,262.136 L1770.312,255.614 L1757.844,315.524 L1761.541,314.382 z" />
      <path
         id="path7012"
         fill="#8D6637"
         d="M1849.951,249.868 L1851.235,254.262 L1813.656,248.683 L1812.781,241.521 L1849.951,249.868 z" />
      <path
         id="path7014"
         fill="#8D6637"
         d="M1798.836,242.503 L1798.469,246.36 L1770.959,246.771 L1772.113,241.497 L1798.836,242.503 z" />
      <path
         id="path7016"
         fill="#8D6637"
         d="M1759.935,237.72 L1759.851,243.937 L1725.134,243.417 L1727.267,238.416 L1759.935,237.72 z" />
      <path
         id="path7018"
         fill="#8D6637"
         d="M1857.717,196.131 L1858.481,199.428 L1813.176,194.496 L1816.696,190.719 L1857.717,196.131 z" />
      <path
         id="path7020"
         fill="#8D6637"
         d="M1807.788,187.114 L1807.441,190.041 L1770.254,190.142 L1771.505,184.236 L1807.788,187.114 z" />
      <path
         id="path7022"
         fill="#8D6637"
         d="M1761.068,188.662 L1761.205,192.308 L1722.214,189.455 L1724.451,183.733 L1761.068,188.662 z" />
      <path
         id="path7024"
         fill="#8D6637"
         d="M1765.217,132.48 L1765.265,136.837 L1727.936,136.125 L1730.429,132.548 L1765.217,132.48 z" />
      <path
         id="path7026"
         fill="#8D6637"
         d="M1811.541,137.611 L1813.827,142.411 L1778.784,139.847 L1779.492,135.923 L1811.541,137.611 z" />
      <path
         id="path7028"
         fill="#8D6637"
         d="M1866.383,147.194 L1867.211,151.933 L1823.599,145.956 L1824.946,138.592 L1866.383,147.194 z" />
      <path
         id="path7030"
         fill="#8A6740"
         d="M1718.156,310.694 L1719.393,262.845 L1721.756,199.603 L1721.913,140.73 L1726.255,81.407 L1722.986,79.658 L1718.708,148.422 L1718.415,193.698 L1715.19,242.909 L1711.425,309.824 L1718.156,310.694 z" />
      <path
         id="path7032"
         fill="#8E6639"
         d="M1859.438,319.524 L1869.504,254.204 L1878.278,191.054 L1889.488,130.724 L1895.001,91.493 L1891.705,90.12 L1883.535,145.01 L1871.171,205.632 L1862.095,272.913 L1852.735,318.279 L1859.438,319.524 z" />
      <path
         id="path7034"
         fill="#7D5D39"
         d="M1895.029,91.118 L1857.218,86.84 L1821.897,84.632 L1786.146,83.149 L1755.413,80.144 L1722.318,78.477 L1725.047,82.451 L1759.268,84.202 L1796.201,85.017 L1830.688,88.296 L1867.565,89.863 L1893.545,95.916 L1895.029,91.118 z" />
      <path
         id="path7036"
         fill="#AD7E49"
         d="M1843.913,300.591 L1843.125,304.828 L1836.48,304.342 L1836.932,298.171 L1843.913,300.591 z" />
      <path
         id="path7038"
         fill="#AD7E49"
         d="M1833.579,298.31 L1833.265,302.595 L1827.145,302.864 L1827.406,299.294 L1833.579,298.31 z" />
      <path
         id="path7040"
         fill="#AD7E49"
         d="M1824.55,299.085 L1819.962,298.031 L1819.648,302.315 L1825.055,301.994 L1824.55,299.085 z" />
      <path
         id="path7042"
         fill="#AD7E49"
         d="M1837.288,306.478 L1836.975,310.761 L1831.263,310.343 L1830.836,306.364 L1837.288,306.478 z" />
      <path
         id="path7044"
         fill="#AD7E49"
         d="M1827.293,305.746 L1827.006,309.673 L1821.294,309.255 L1821.555,305.685 L1827.293,305.746 z" />
      <path
         id="path7046"
         fill="#D6AE9B"
         d="M1745.153,290.403 L1744.352,296.446 L1740.007,301.869 L1730.726,301.19 L1728.071,288.435 L1741.157,286.162 L1745.153,290.403 z" />
      <path
         id="path7048"
         fill="#D6AE9B"
         d="M1852.848,260.602 L1843.009,257.728 L1828.417,260.967 L1833.632,268.168 L1834.259,274.315 L1847.284,277.781 L1856.6,273.079 L1852.848,260.602 z" />
      <path
         id="path7050"
         fill="#8D6637"
         d="M1864.651,146.468 L1869.914,108.855 L1833.014,103.645 L1827.195,139.066 L1823.646,143.467 L1830.778,99.896 L1873.714,105.906 L1867.269,149.886 L1864.651,146.468 z" />
      <path
         id="path7052"
         fill="#8D6637"
         d="M1811.863,137.944 L1819.081,102.984 L1775.685,98.374 L1779.31,136.995 L1781.806,137.178 L1779.398,101.513 L1813.933,104.758 L1808.705,136.996 L1811.863,137.944 z" />
      <path
         id="path7054"
         fill="#8D6637"
         d="M1765.257,133.099 L1769.058,100.756 L1728.209,95.616 L1729.8,132.655 L1733.365,132.916 L1730.879,98.32 L1764.927,103.322 L1761.387,132.099 L1765.257,133.099 z" />
      <path
         id="path7056"
         fill="#8D6637"
         d="M1857.815,195.796 L1864.938,157.244 L1822.837,154.52 L1816.609,190.629 L1819.436,191.195 L1825.455,157.939 L1859.277,161.131 L1855.397,194.544 L1857.815,195.796 z" />
      <path
         id="path7058"
         fill="#8D6637"
         d="M1808.643,186.82 L1813.314,152.39 L1774.501,148.832 L1771.508,184.819 L1774.387,184.671 L1777.119,152.25 L1809.923,154.651 L1805.461,186.229 L1808.643,186.82 z" />
      <path
         id="path7060"
         fill="#8D6637"
         d="M1761.516,189.107 L1762.682,148.684 L1727.895,143.987 L1724.285,183.514 L1728.207,183.801 L1730.895,147.074 L1760.769,150.337 L1758.663,188.898 L1761.516,189.107 z" />
      <path
         id="path7062"
         fill="#8D6637"
         d="M1850.282,249.733 L1853.771,206.971 L1815.366,202.727 L1812.852,241.975 L1816.748,242.619 L1817.984,206.145 L1850.762,208.902 L1846.465,248.02 L1850.282,249.733 z" />
      <path
         id="path7064"
         fill="#8D6637"
         d="M1798.458,242.714 L1803.216,202.196 L1772.961,199.264 L1772.298,242.591 L1774.821,242.418 L1775.96,202.352 L1799.442,204.788 L1794.206,242.044 L1798.458,242.714 z" />
      <path
         id="path7066"
         fill="#8D6637"
         d="M1759.75,237.73 L1762.081,200.977 L1729.433,196.437 L1727.476,237.877 L1731.398,238.164 L1731.39,199.09 L1758.715,202.882 L1756.593,236.782 L1759.75,237.73 z" />
    </g>
    <g
       id="g7146">
      <path
         id="path7070"
         fill="#000000"
         d="M2374.589,134.39 L2373.847,119.8 L2364.758,119.759 L2364.906,115.891 L2374.918,114.53 L2373.556,104.752 L2363.638,103.694 L2363.823,98.854 L2373.78,98.946 L2378.387,80.3 L2384.868,80.677 L2379.395,99.269 L2389.223,102.748 L2389.129,105.167 L2378.328,104.542 L2379.798,111.417 L2389.662,113.925 L2389.06,118.255 L2379.574,117.223 L2380.694,133.291 L2374.589,134.39 z" />
      <path
         id="path7072"
         fill="#C09696"
         d="M2292.458,355.076 L2286.451,133.066 L2465.901,126.057 L2443.013,356.006 z" />
      <path
         id="path7074"
         fill="#FCFAFA"
         d="M2299.74,141.286 L2341.554,139.51 L2345.392,179.288 L2303.017,181.631 L2299.74,141.286 z" />
      <path
         id="path7076"
         fill="#FFFFFF"
         d="M2354.906,141.711 L2358.412,176.076 L2390.499,176.732 L2395.651,139.873 L2354.906,141.711 z" />
      <path
         id="path7078"
         fill="#FFFFFF"
         d="M2393.693,190.255 L2355.945,190.618 L2358.542,225.721 L2394.938,225.499 L2393.693,190.255 z" />
      <path
         id="path7080"
         fill="#FCFAFA"
         d="M2405.107,143.185 L2404.987,174.34 L2439.677,176.948 L2444.786,141.283 L2405.107,143.185 z" />
      <path
         id="path7082"
         fill="#FFFFFF"
         d="M2304.742,192.52 L2344.862,193.042 L2349.394,228.666 L2308.088,231.07 L2304.742,192.52 z" />
      <path
         id="path7084"
         fill="#FCFAFA"
         d="M2355.783,356.025 L2355.241,302.231 L2391.899,304.382 L2395.375,356.025 L2355.783,356.025 z" />
      <path
         id="path7086"
         fill="#FFFFFF"
         d="M2311.393,242.649 L2311.91,285.23 L2349.59,279.619 L2348.936,240.625 L2311.393,242.649 z" />
      <path
         id="path7088"
         fill="#FFFFFF"
         d="M2407.04,192.982 L2405.025,231.674 L2441.903,229.432 L2441.249,190.438 L2407.04,192.982 z" />
      <path
         id="path7090"
         fill="#FCFAFA"
         d="M2359.754,241.367 L2361.427,281.616 L2388.152,282.563 L2389.795,239.505 L2359.754,241.367 z" />
      <path
         id="path7092"
         fill="#FFFFFF"
         d="M2403.938,243.804 L2402.573,279.685 L2435.103,282.764 L2436.655,242.1 L2403.938,243.804 z" />
      <path
         id="path7094"
         fill="#815E13"
         d="M2352.226,356.025 L2348.196,296.774 L2355.241,302.231 L2355.783,356.025 L2352.226,356.025 z" />
      <path
         id="path7096"
         fill="#7C5314"
         d="M2391.899,304.382 L2355.241,302.231 L2348.196,296.774 L2396.653,296.776 L2391.899,304.382 z" />
      <path
         id="path7098"
         fill="#8D6637"
         d="M2395.375,356.025 L2391.899,304.382 L2396.653,296.776 L2398.979,357.434 L2395.375,356.025 z" />
      <path
         id="path7100"
         fill="#8D6637"
         d="M2311.91,285.23 L2310.31,289.519 L2348.196,286.697 L2349.59,279.619 L2311.91,285.23 z" />
      <path
         id="path7102"
         fill="#8D6637"
         d="M2363.427,281.616 L2363.511,285.488 L2390.918,287.907 L2390.152,282.563 L2363.427,281.616 z" />
      <path
         id="path7104"
         fill="#8D6637"
         d="M2402.573,279.685 L2402.203,285.891 L2436.865,287.907 L2435.103,282.764 L2402.573,279.685 z" />
      <path
         id="path7106"
         fill="#8D6637"
         d="M2308.088,231.07 L2307.085,234.302 L2352.629,232.69 L2349.394,228.666 L2308.088,231.07 z" />
      <path
         id="path7108"
         fill="#8D6637"
         d="M2358.542,225.721 L2358.675,228.666 L2395.755,231.481 L2394.938,225.499 L2358.542,225.721 z" />
      <path
         id="path7110"
         fill="#8D6637"
         d="M2405.025,230.674 L2404.622,234.302 L2443.717,234.302 L2441.903,228.432 L2405.025,230.674 z" />
      <path
         id="path7112"
         fill="#8D6637"
         d="M2404.987,174.34 L2404.622,178.682 L2441.903,180.697 L2439.677,176.948 L2404.987,174.34 z" />
      <path
         id="path7114"
         fill="#8D6637"
         d="M2358.412,176.076 L2355.783,180.697 L2390.918,180.697 L2390.499,176.732 L2358.412,176.076 z" />
      <path
         id="path7116"
         fill="#8D6637"
         d="M2303.017,181.631 L2301.846,186.296 L2345.777,183.518 L2344.971,176.076 L2303.017,181.631 z" />
      <path
         id="path7118"
         fill="#7A5353"
         d="M2436.647,354.93 L2441.658,328.801 L2441.658,276.901 L2451.68,241.824 L2452.396,192.429 L2458.122,150.193 L2460.986,128.002 L2465.997,125.496 L2463.491,162.363 L2459.196,197.44 L2456.691,238.96 L2452.038,274.753 L2448.816,310.547 L2444.879,354.93 L2436.647,354.93 z" />
      <path
         id="path7120"
         fill="#7C5656"
         d="M2465.997,125.854 L2462.06,129.433 L2432.351,130.865 L2392.263,131.581 L2354.68,134.444 L2318.887,134.086 L2286.315,138.024 L2284.884,130.865 L2318.529,129.433 L2345.016,126.928 L2376.872,126.928 L2416.602,125.854 L2465.997,125.854 z" />
      <path
         id="path7122"
         fill="#794E4E"
         d="M2295.622,354.572 L2293.474,312.694 L2294.906,271.174 L2292.042,222.853 L2291.684,174.175 L2288.463,132.297 L2284.884,130.507 L2284.884,164.511 L2287.031,195.293 L2287.747,238.96 L2290.968,286.207 L2290.253,315.558 L2292.758,355.288 L2295.622,354.572 z" />
      <path
         id="path7124"
         fill="#8D6637"
         d="M2299.836,141.595 L2343.197,139.186 L2345.606,180.138 L2342.509,177.04 L2340.1,143.315 L2303.277,144.348 L2308.095,181.858 L2303.621,182.202 L2299.836,141.595 z" />
      <path
         id="path7126"
         fill="#8D6637"
         d="M2304.998,192.182 L2308.095,231.413 L2310.848,230.381 L2307.751,195.624 L2341.82,195.279 L2346.638,228.66 L2349.391,228.316 L2344.917,191.838 L2304.998,192.182 z" />
      <path
         id="path7128"
         fill="#8D6637"
         d="M2359.027,225.563 L2355.241,189.085 L2394.129,189.085 L2395.505,224.875 L2392.408,225.563 L2391.031,191.15 L2357.65,192.182 L2362.812,226.251 L2359.027,225.563 z" />
      <path
         id="path7130"
         fill="#8D6637"
         d="M2404.797,230.381 L2407.55,191.838 L2441.963,190.462 L2441.619,228.66 L2438.866,229.004 L2439.21,193.559 L2410.647,194.935 L2411.335,230.725 L2404.797,230.381 z" />
      <path
         id="path7132"
         fill="#8D6637"
         d="M2312.225,284.754 L2309.816,241.737 L2349.391,240.017 L2349.391,279.248 L2346.294,279.936 L2346.638,242.77 L2313.601,244.146 L2316.354,284.41 L2312.225,284.754 z" />
      <path
         id="path7134"
         fill="#8D6637"
         d="M2362.124,281.657 L2359.371,241.049 L2391.72,238.296 L2390.687,282.345 L2386.902,282.345 L2388.278,241.737 L2362.812,244.146 L2365.91,281.313 L2362.124,281.657 z" />
      <path
         id="path7136"
         fill="#8D6637"
         d="M2401.699,280.28 L2402.732,243.114 L2436.801,241.049 L2436.457,283.377 L2431.983,284.41 L2432.327,244.835 L2405.829,246.555 L2406.173,280.624 L2401.699,280.28 z" />
      <path
         id="path7138"
         fill="#8D6637"
         d="M2356.962,176.008 L2353.521,140.562 L2395.849,139.186 L2391.375,176.696 L2388.622,176.696 L2389.999,143.659 L2357.306,142.627 L2361.436,176.008 L2356.962,176.008 z" />
      <path
         id="path7140"
         fill="#8D6637"
         d="M2404.797,174.631 L2404.452,141.595 L2445.404,140.218 L2439.898,176.352 L2436.801,176.696 L2441.619,143.659 L2408.238,145.036 L2408.582,174.976 L2404.797,174.631 z" />
      <path
         id="path7142"
         fill="#BDB0B0"
         d="M2401.502,349.819 L2400.661,320.801 L2415.801,318.698 L2417.063,323.324 L2412.857,333.838 L2409.493,345.614 L2408.652,353.184 L2401.502,349.819 z" />
      <path
         id="path7144"
         fill="#BDB0B0"
         d="M2322.017,298.091 L2346.409,297.25 L2346.83,309.866 L2337.998,307.764 L2330.849,312.39 L2319.073,317.857 L2313.606,309.446 L2322.017,298.091 z" />
    </g>
    <g
       id="g7234">
      <path
         id="path7148"
         fill="#000000"
         d="M2032.333,152.476 L2031.591,137.886 L2022.502,137.845 L2022.65,133.977 L2032.662,132.616 L2031.3,122.838 L2021.382,121.78 L2021.567,116.94 L2031.524,117.032 L2036.131,98.386 L2042.612,98.763 L2037.139,117.355 L2046.967,120.834 L2046.873,123.253 L2036.072,122.628 L2037.542,129.503 L2047.406,132.011 L2046.804,136.341 L2037.318,135.309 L2038.438,151.377 L2032.333,152.476 z" />
      <path
         id="path7150"
         fill="#C0A496"
         d="M2013.533,377.8 L1996.664,146.679 L2166.809,148.13 L2157.965,379.822 z" />
      <path
         id="path7152"
         fill="#FCFAFA"
         d="M2014.692,165.102 L2056.506,163.326 L2060.344,203.104 L2017.969,205.447 L2014.692,165.102 z" />
      <path
         id="path7154"
         fill="#FFFFFF"
         d="M2069.858,165.527 L2073.364,199.892 L2105.451,200.548 L2110.603,163.689 L2069.858,165.527 z" />
      <path
         id="path7156"
         fill="#FFFFFF"
         d="M2108.645,214.071 L2070.897,214.434 L2073.494,249.537 L2109.89,249.315 L2108.645,214.071 z" />
      <path
         id="path7158"
         fill="#FCFAFA"
         d="M2120.059,167.001 L2119.939,198.156 L2154.629,200.764 L2159.738,165.099 L2120.059,167.001 z" />
      <path
         id="path7160"
         fill="#FFFFFF"
         d="M2019.694,216.336 L2059.814,216.858 L2064.346,252.482 L2023.04,254.886 L2019.694,216.336 z" />
      <path
         id="path7162"
         fill="#FCFAFA"
         d="M2070.734,379.841 L2070.193,326.047 L2104.223,327.009 L2110.327,379.841 L2070.734,379.841 z" />
      <path
         id="path7164"
         fill="#FFFFFF"
         d="M2026.345,266.465 L2026.862,309.046 L2064.542,303.435 L2063.888,264.441 L2026.345,266.465 z" />
      <path
         id="path7166"
         fill="#FFFFFF"
         d="M2121.992,215.798 L2119.976,254.491 L2156.855,252.248 L2156.201,213.254 L2121.992,215.798 z" />
      <path
         id="path7168"
         fill="#FCFAFA"
         d="M2076.706,265.183 L2078.379,305.432 L2105.104,306.379 L2106.747,263.321 L2076.706,265.183 z" />
      <path
         id="path7170"
         fill="#FFFFFF"
         d="M2118.89,267.62 L2117.525,303.501 L2150.055,306.58 L2151.607,265.916 L2118.89,267.62 z" />
      <path
         id="path7172"
         fill="#815E13"
         d="M2067.178,379.841 L2063.147,320.59 L2070.193,326.047 L2070.734,379.841 L2067.178,379.841 z" />
      <path
         id="path7174"
         fill="#7C5314"
         d="M2104.223,327.009 L2070.193,326.047 L2063.147,320.59 L2105.87,320.59 L2104.223,327.009 z" />
      <path
         id="path7176"
         fill="#8D6637"
         d="M2110.327,379.841 L2104.223,327.009 L2105.87,320.59 L2113.931,381.25 L2110.327,379.841 z" />
      <path
         id="path7178"
         fill="#8D6637"
         d="M2026.862,309.046 L2025.261,313.335 L2063.147,310.514 L2064.542,303.435 L2026.862,309.046 z" />
      <path
         id="path7180"
         fill="#8D6637"
         d="M2078.379,305.432 L2078.463,309.305 L2105.87,311.723 L2105.104,306.379 L2078.379,305.432 z" />
      <path
         id="path7182"
         fill="#8D6637"
         d="M2117.525,303.501 L2117.155,309.708 L2151.817,311.723 L2150.055,306.58 L2117.525,303.501 z" />
      <path
         id="path7184"
         fill="#8D6637"
         d="M2023.04,254.886 L2022.037,258.118 L2067.581,256.506 L2064.346,252.482 L2023.04,254.886 z" />
      <path
         id="path7186"
         fill="#8D6637"
         d="M2073.494,249.537 L2073.626,252.482 L2110.706,255.297 L2109.89,249.315 L2073.494,249.537 z" />
      <path
         id="path7188"
         fill="#8D6637"
         d="M2119.976,254.491 L2119.573,258.118 L2158.669,258.118 L2156.855,252.248 L2119.976,254.491 z" />
      <path
         id="path7190"
         fill="#8D6637"
         d="M2119.939,198.156 L2119.573,202.498 L2156.855,204.513 L2154.629,200.764 L2119.939,198.156 z" />
      <path
         id="path7192"
         fill="#8D6637"
         d="M2073.364,199.892 L2070.734,204.513 L2105.87,204.513 L2105.451,200.548 L2073.364,199.892 z" />
      <path
         id="path7194"
         fill="#8D6637"
         d="M2017.969,205.447 L2016.797,210.112 L2060.729,207.335 L2059.923,199.892 L2017.969,205.447 z" />
      <path
         id="path7196"
         fill="#8A6740"
         d="M2153.866,379.33 L2156.125,331.519 L2158.384,268.273 L2162.525,209.545 L2162.525,150.064 L2165.913,148.558 L2165.16,217.451 L2162.148,262.627 L2161.772,311.943 L2160.642,378.954 L2153.866,379.33 z" />
      <path
         id="path7198"
         fill="#8E6639"
         d="M2012.316,377.824 L2007.045,311.943 L2002.904,248.321 L1996.128,187.334 L1993.493,147.805 L1996.881,146.676 L2001.022,202.016 L2008.928,263.379 L2013.069,331.143 L2019.092,377.071 L2012.316,377.824 z" />
      <path
         id="path7200"
         fill="#7D5D39"
         d="M1993.493,147.429 L2031.515,145.923 L2066.903,146.299 L2102.667,147.429 L2133.537,146.676 L2166.666,147.429 L2163.654,151.193 L2129.396,150.441 L2092.502,148.558 L2057.868,149.311 L2020.975,148.182 L1994.622,152.323 L1993.493,147.429 z" />
      <path
         id="path7202"
         fill="#AD7E49"
         d="M2029.182,360.075 L2029.658,364.358 L2036.321,364.358 L2036.321,358.171 L2029.182,360.075 z" />
      <path
         id="path7204"
         fill="#AD7E49"
         d="M2039.655,358.554 L2039.655,362.85 L2045.739,363.565 L2045.739,359.986 L2039.655,358.554 z" />
      <path
         id="path7206"
         fill="#AD7E49"
         d="M2048.603,359.986 L2053.256,359.27 L2053.256,363.565 L2047.887,362.85 L2048.603,359.986 z" />
      <path
         id="path7208"
         fill="#AD7E49"
         d="M2035.359,366.429 L2035.359,370.724 L2041.086,370.724 L2041.802,366.787 L2035.359,366.429 z" />
      <path
         id="path7210"
         fill="#AD7E49"
         d="M2045.381,366.429 L2045.381,370.366 L2051.108,370.366 L2051.108,366.787 L2045.381,366.429 z" />
      <path
         id="path7212"
         fill="#D6AE9B"
         d="M2128.422,357.123 L2128.78,363.208 L2132.717,368.934 L2142.023,368.934 L2145.602,356.407 L2132.717,353.185 L2128.422,357.123 z" />
      <path
         id="path7214"
         fill="#D6AE9B"
         d="M2023.19,319.54 L2033.212,317.392 L2047.529,321.687 L2041.802,328.488 L2040.728,334.573 L2027.485,337.079 L2018.537,331.71 L2023.19,319.54 z" />
      <path
         id="path7216"
         fill="#8D6637"
         d="M2019.749,204.849 L2017.246,166.952 L2054.428,164.449 L2057.646,200.201 L2060.864,204.849 L2056.931,160.874 L2013.671,163.734 L2016.889,208.067 L2019.749,204.849 z" />
      <path
         id="path7218"
         fill="#8D6637"
         d="M2073.019,200.201 L2068.372,164.807 L2111.989,163.377 L2105.554,201.631 L2103.051,201.631 L2108.056,166.237 L2073.377,166.952 L2076.237,199.486 L2073.019,200.201 z" />
      <path
         id="path7220"
         fill="#8D6637"
         d="M2119.854,198.771 L2118.424,166.237 L2159.539,164.092 L2155.249,200.916 L2151.674,200.916 L2156.679,166.594 L2122.357,169.097 L2123.787,198.056 L2119.854,198.771 z" />
      <path
         id="path7222"
         fill="#8D6637"
         d="M2022.966,254.544 L2018.676,215.575 L2060.864,215.932 L2064.439,252.399 L2061.579,252.757 L2058.003,219.15 L2024.039,219.865 L2025.469,253.472 L2022.966,254.544 z" />
      <path
         id="path7224"
         fill="#8D6637"
         d="M2072.662,249.182 L2070.517,214.502 L2109.486,213.787 L2109.844,249.897 L2106.984,249.539 L2106.626,217.005 L2073.734,217.005 L2075.879,248.824 L2072.662,249.182 z" />
      <path
         id="path7226"
         fill="#8D6637"
         d="M2119.497,254.902 L2121.285,214.502 L2156.322,212.357 L2157.037,252.042 L2153.104,252.042 L2153.104,215.217 L2123.072,216.29 L2122.357,254.902 L2119.497,254.902 z" />
      <path
         id="path7228"
         fill="#8D6637"
         d="M2026.542,308.887 L2026.184,265.985 L2064.796,264.555 L2064.439,303.882 L2060.506,304.24 L2061.936,267.773 L2029.044,268.13 L2030.474,307.457 L2026.542,308.887 z" />
      <path
         id="path7230"
         fill="#8D6637"
         d="M2078.74,305.67 L2076.952,264.913 L2107.341,264.197 L2104.839,307.457 L2102.336,307.1 L2104.124,267.058 L2080.527,267.773 L2083.03,305.312 L2078.74,305.67 z" />
      <path
         id="path7232"
         fill="#8D6637"
         d="M2117.709,303.525 L2118.067,266.7 L2150.959,264.555 L2149.886,306.027 L2145.953,306.027 L2148.814,267.058 L2121.285,268.845 L2120.927,302.81 L2117.709,303.525 z" />
    </g>
    <g
       id="Tree">
      <path
         id="path7236"
         fill="#006414"
         d="M1513.849,264.815 L1529.238,274.854 L1544.537,271.014 L1558.218,258.748 L1554.543,248.939 L1556.573,237.253 L1574.552,225.45 L1574.781,201.394 L1556.122,186.798 L1538.603,193.479 L1536.693,168.521 L1516.627,167.385 L1506.008,168.732 L1499.745,156.926 L1480.121,148.814 L1461.07,160.954 L1457.689,186.852 L1442.835,190.127 L1420.276,202.536 L1412.861,237.825 L1436.281,250.942 L1460.072,262.523 L1470.775,275.057 L1483.565,257.518 L1513.849,264.815 z" />
      <path
         id="path7238"
         fill="#083B12"
         d="M1455.183,247.95 L1443.506,229.469 L1423.773,218.064 L1420.206,233.943 L1434.113,246.872 L1455.183,247.95 z" />
      <path
         id="path7240"
         fill="#083B12"
         d="M1462.616,183.339 L1461.07,160.954 L1482.307,152.314 L1483.939,173.634 L1462.616,183.339 z" />
      <path
         id="path7242"
         fill="#9B7F41"
         d="M1505.786,318.474 L1504.256,292.259 L1509.974,265.112 L1534.465,241.292 L1552.913,227.64 L1549.641,223.083 L1513.633,242.886 L1503.46,243.665 L1501.803,234.755 L1514.546,203.867 L1511.355,200.373 L1498.043,223.826 L1490.401,200.374 L1482.367,203.659 L1488.927,244.777 L1482.43,249.058 L1461.425,229.298 L1457.836,233.313 L1478.843,259.481 L1482.457,275.231 L1481.729,297.186 L1481.392,324.688 L1505.786,318.474 z" />
      <path
         id="path7244"
         fill="#634B16"
         d="M1488.508,323.918 L1489.959,293.669 L1495.307,264.198 L1494.242,250.287 L1480.39,262.648 L1486.506,283.707 L1483.83,307.592 L1482.791,324.355 L1488.508,323.918 z" />
    </g>
    <g
       id="g7257">
      <path
         id="path7247"
         fill="#006414"
         d="M1288.818,308.037 L1304.207,318.076 L1319.506,314.235 L1333.187,301.969 L1329.512,292.16 L1331.541,280.474 L1349.521,268.672 L1349.75,244.615 L1331.091,230.02 L1313.572,236.701 L1311.661,211.743 L1291.596,210.607 L1280.977,211.953 L1274.714,200.148 L1255.09,192.036 L1236.038,204.176 L1232.658,230.073 L1217.803,233.348 L1195.245,245.757 L1187.83,281.047 L1211.25,294.164 L1235.04,305.744 L1245.744,318.279 L1258.534,300.74 L1288.818,308.037 z" />
      <path
         id="path7249"
         fill="#083B12"
         d="M1230.152,291.172 L1218.475,272.691 L1198.742,261.286 L1195.175,277.165 L1209.081,290.094 L1230.152,291.172 z" />
      <path
         id="path7251"
         fill="#083B12"
         d="M1237.585,226.56 L1236.038,204.176 L1257.276,195.536 L1258.908,216.856 L1237.585,226.56 z" />
      <path
         id="path7253"
         fill="#9B7F41"
         d="M1280.755,361.696 L1279.224,335.48 L1284.943,308.334 L1309.434,284.513 L1327.882,270.862 L1324.61,266.305 L1288.602,286.108 L1278.429,286.886 L1276.772,277.977 L1289.515,247.089 L1286.324,243.594 L1273.012,267.048 L1265.37,243.595 L1257.335,246.88 L1263.895,287.998 L1257.399,292.28 L1236.394,272.52 L1232.805,276.535 L1253.812,302.703 L1257.426,318.453 L1256.698,340.408 L1256.361,367.909 L1280.755,361.696 z" />
      <path
         id="path7255"
         fill="#634B16"
         d="M1263.477,367.139 L1264.928,336.89 L1270.276,307.419 L1269.211,293.509 L1255.359,305.87 L1261.475,326.929 L1258.799,350.814 L1257.76,367.577 L1263.477,367.139 z" />
    </g>
    <g
       id="g7269">
      <path
         id="path7259"
         fill="#006414"
         d="M1151.23,326.314 L1139.81,340.708 L1124.082,341.907 L1107.222,334.602 L1107.603,324.135 L1101.979,313.692 L1081.188,308.187 L1073.357,285.44 L1086.437,265.688 L1105.17,266.481 L1099.082,242.202 L1117.756,234.773 L1128.256,232.689 L1130.46,219.508 L1146.508,205.601 L1168.422,211.087 L1179.826,234.583 L1194.953,232.988 L1220.28,237.619 L1238.483,268.747 L1220.419,288.603 L1201.517,307.118 L1195.331,322.396 L1177.647,309.807 L1151.23,326.314 z" />
      <path
         id="path7261"
         fill="#083B12"
         d="M1201.542,291.747 L1206.769,270.521 L1221.877,253.456 L1230.287,267.39 L1221.188,284.055 L1201.542,291.747 z" />
      <path
         id="path7263"
         fill="#083B12"
         d="M1174.04,232.81 L1168.422,211.087 L1145.542,209.614 L1150.742,230.354 L1174.04,232.81 z" />
      <path
         id="path7265"
         fill="#9B7F41"
         d="M1175.863,374.662 L1169.017,349.31 L1155,325.369 L1124.228,310.525 L1102.408,303.415 L1104.07,298.057 L1144.494,305.444 L1154.391,302.963 L1153.142,293.987 L1131.278,268.721 L1133.198,264.396 L1153.25,282.43 L1153.075,257.764 L1161.737,258.337 L1168.529,299.418 L1176.046,301.423 L1189.717,276.03 L1194.392,278.702 L1182.748,310.174 L1184.306,326.259 L1191.945,346.854 L1200.97,372.835 L1175.863,374.662 z" />
      <path
         id="path7267"
         fill="#634B16"
         d="M1193.976,374.357 L1183.024,346.123 L1168.623,319.859 L1165.23,306.327 L1182.283,313.668 L1183.147,335.58 L1193.245,357.39 L1199.537,372.963 L1193.976,374.357 z" />
    </g>
    <g
       id="Tree2">
      <path
         id="path7271"
         fill="#007005"
         d="M1384.239,275.902 L1412.199,284.568 L1429.25,266.303 L1447.766,263.975 L1457.476,247.168 L1444.368,228.395 L1436.743,201.945 L1438.036,186.586 L1419.471,179.985 L1404.053,177.036 L1387.039,152.841 L1360.653,156.697 L1335.467,174.373 L1326.951,196.404 L1301.896,210.839 L1293.183,235.581 L1294.26,261.241 L1312.282,276.173 L1340.23,267.822 L1354.612,279.627 L1384.239,275.902 z" />
      <path
         id="path7273"
         fill="#AF9B5C"
         d="M1384.729,343.913 L1390.457,308.261 L1383.429,282.275 L1385.468,268.582 L1403.323,265.263 L1420.25,246.014 L1417.326,239.857 L1400.868,254.285 L1385.627,252.744 L1386.768,236.175 L1391.976,213.486 L1387.012,208.198 L1372.817,240.616 L1360.651,246.444 L1349.937,246.717 L1321.495,242.769 L1319.319,251.104 L1346.477,257.666 L1354.052,266.621 L1355.679,292.389 L1351.507,314.771 L1352.59,349.029 L1384.729,343.913 z" />
      <path
         id="path7275"
         fill="#704E00"
         d="M1380.098,341.271 L1384.638,308.993 L1375.955,282.677 L1379.45,267.727 L1383.923,234.92 L1371.966,255.232 L1367.351,274.085 L1366.904,296.175 L1369.564,317.337 L1367.53,339.627 L1380.098,341.271 z" />
      <path
         id="path7277"
         fill="#07410A"
         d="M1386.319,164.218 L1395.589,178.1 L1387.205,201.188 L1374.39,223.217 L1366.464,237.115 L1349,230.712 L1340.162,198.892 L1340.189,182.017 L1365.783,163.303 L1386.319,164.218 z" />
      <path
         id="path7279"
         fill="#07410A"
         d="M1309.771,217.91 L1316.724,230.468 L1316.487,267.045 L1307.154,256.933 L1303.831,234.78 L1309.771,217.91 z" />
    </g>
    <g
       id="Bush">
      <path
         id="path7282"
         fill="#056818"
         d="M1081.24,374.585 L1109.016,378.895 L1127.833,354.174 L1124.637,324.402 L1109.126,324.165 L1100.392,298.479 L1079.063,295.025 L1062.52,311.199 L1050.506,312.45 L1037.424,323.984 L1050.35,356.904 L1044.818,367.239 L1081.24,374.585 z" />
      <path
         id="path7284"
         fill="#123D1A"
         d="M1071.991,365.308 L1069.244,352.645 L1076.577,333.462 L1077.333,318.09 L1082.298,299.44 L1070.648,311.86 L1063.138,317.091 L1055.174,317.753 L1047.215,326.757 L1052.034,344.17 L1056.125,358.052 L1052.145,362.554 L1071.991,365.308 z" />
      <path
         id="path7286"
         fill="#FF1717"
         d="M1106.883,363.779 C1109.928,360.697 1109.928,360.697 1109.928,360.697 L1104.907,356.579 L1106.883,363.779 z" />
      <path
         id="path7288"
         fill="#FF1717"
         d="M1083.547,363.685 L1088.185,358.801 L1082.991,357.418 L1083.547,363.685 z" />
      <path
         id="path7290"
         fill="#FF1717"
         d="M1099.896,329.869 L1095.272,332.186 L1094.773,328.282 L1099.896,329.869 z" />
      <path
         id="path7292"
         fill="#FF1717"
         d="M1072.314,310.989 L1072.302,315.2 L1067.524,314.816 L1072.314,310.989 z" />
      <path
         id="path7294"
         fill="#FF1717"
         d="M1062.67,333.045 L1061.898,335.945 L1058.444,333.917 L1062.67,333.045 z" />
      <path
         id="path7296"
         fill="#FF1717"
         d="M1094.033,305.236 L1093.081,309.642 L1089.587,306.936 L1094.033,305.236 z" />
      <path
         id="path7298"
         fill="#FF1717"
         d="M1119.866,336.517 L1120.144,338.809 L1115.074,333.688 L1119.866,336.517 z" />
      <path
         id="path7300"
         fill="#FF1717"
         d="M1082.791,339.956 L1082.172,343.118 L1080.541,340.909 L1082.791,339.956 z" />
      <path
         id="path7302"
         fill="#FF1717"
         d="M1060.676,354.698 L1056.989,354.382 L1057.955,350.752 L1060.676,354.698 z" />
    </g>
    <g
       id="g7327">
      <path
         id="path7305"
         fill="#056818"
         d="M631.944,664.221 L605.772,653.969 L601.948,623.137 L619.691,599.016 L633.215,606.616 L653.687,588.814 L673.857,596.56 L680.016,618.862 L689.768,625.988 L695.27,642.538 L667.535,664.483 L667.116,676.198 L631.944,664.221 z" />
      <path
         id="path7307"
         fill="#123D1A"
         d="M644.605,660.857 L653.35,651.296 L656.665,631.029 L663.747,617.364 L668.84,598.748 L672.658,615.344 L676.517,623.643 L683.066,628.221 L685.414,640.008 L672.488,652.631 L661.968,662.57 L663.141,668.463 L644.605,660.857 z" />
      <path
         id="path7309"
         fill="#FF1717"
         d="M615.221,641.979 C614.14,637.784 614.14,637.784 614.14,637.784 L620.551,636.752 L615.221,641.979 z" />
      <path
         id="path7311"
         fill="#FF1717"
         d="M635.435,653.64 L633.884,647.085 L639.069,648.504 L635.435,653.64 z" />
      <path
         id="path7313"
         fill="#FF1717"
         d="M638.321,616.19 L641.152,620.519 L643.547,617.397 L638.321,616.19 z" />
      <path
         id="path7315"
         fill="#FF1717"
         d="M671.658,613.752 L669.549,617.398 L673.871,619.47 L671.658,613.752 z" />
      <path
         id="path7317"
         fill="#FF1717"
         d="M668.894,637.665 L668.102,640.56 L672.107,640.545 L668.894,637.665 z" />
      <path
         id="path7319"
         fill="#FF1717"
         d="M655.782,597.853 L654.388,602.139 L658.769,601.559 L655.782,597.853 z" />
      <path
         id="path7321"
         fill="#FF1717"
         d="M617.718,611.887 L616.325,613.728 L623.283,611.853 L617.718,611.887 z" />
      <path
         id="path7323"
         fill="#FF1717"
         d="M648.028,633.513 L646.972,636.558 L649.492,635.469 L648.028,633.513 z" />
      <path
         id="path7325"
         fill="#FF1717"
         d="M659.722,657.381 L663.067,658.963 L664.058,655.34 L659.722,657.381 z" />
    </g>
    <g
       id="g7351">
      <path
         id="path7329"
         fill="#056818"
         d="M734.991,715.193 L712.877,697.842 L718.09,667.215 L742.025,649.222 L752.789,660.393 L777.52,649.236 L794.606,662.461 L794.084,685.591 L801.372,695.223 L801.877,712.656 L769,725.69 L765.226,736.788 L734.991,715.193 z" />
      <path
         id="path7331"
         fill="#123D1A"
         d="M748.084,715.617 L759.211,708.977 L768.22,690.522 L778.935,679.474 L789.171,663.112 L788.051,680.104 L789.357,689.163 L794.311,695.433 L793.167,707.396 L777.155,715.765 L764.219,722.254 L763.646,728.236 L748.084,715.617 z" />
      <path
         id="path7333"
         fill="#FF1717"
         d="M725.377,689.08 C725.55,684.75 725.55,684.75 725.55,684.75 L731.987,685.608 L725.377,689.08 z" />
      <path
         id="path7335"
         fill="#FF1717"
         d="M741.379,706.065 L741.781,699.341 L746.338,702.192 L741.379,706.065 z" />
      <path
         id="path7337"
         fill="#FF1717"
         d="M754.923,671.031 L756.388,675.992 L759.58,673.691 L754.923,671.031 z" />
      <path
         id="path7339"
         fill="#FF1717"
         d="M787.551,678.292 L784.482,681.177 L788.025,684.405 L787.551,678.292 z" />
      <path
         id="path7341"
         fill="#FF1717"
         d="M778.02,700.398 L776.429,702.942 L780.268,704.081 L778.02,700.398 z" />
      <path
         id="path7343"
         fill="#FF1717"
         d="M776.924,658.496 L774.355,662.199 L778.717,662.905 L776.924,658.496 z" />
      <path
         id="path7345"
         fill="#FF1717"
         d="M736.431,660.98 L734.567,662.341 L741.77,662.549 L736.431,660.98 z" />
      <path
         id="path7347"
         fill="#FF1717"
         d="M759.233,690.415 L757.345,693.027 L760.073,692.71 L759.233,690.415 z" />
      <path
         id="path7349"
         fill="#FF1717"
         d="M763.562,716.639 L766.31,719.117 L768.302,715.932 L763.562,716.639 z" />
    </g>
    <g
       id="g7363">
      <path
         id="path7353"
         fill="#006414"
         d="M1106.073,589.471 L1124.406,588.244 L1134.324,575.979 L1137.885,557.953 L1129.052,552.322 L1123.65,541.763 L1130.925,521.524 L1116.648,502.16 L1092.963,501.711 L1082.978,517.581 L1066.449,498.783 L1049.731,509.936 L1042.053,517.395 L1029.952,511.724 L1009.392,517.037 L1001.464,538.19 L1014.328,560.919 L1004.425,572.465 L993.855,595.942 L1009.141,628.602 L1035.743,625.008 L1061.716,619.963 L1077.805,623.547 L1077.484,601.842 L1106.073,589.471 z" />
      <path
         id="path7355"
         fill="#083B12"
         d="M1049.05,611.255 L1028.61,603.504 L1005.984,606.25 L1012.678,621.085 L1031.563,623.058 L1049.05,611.255 z" />
      <path
         id="path7357"
         fill="#083B12"
         d="M1016.154,555.15 L1001.464,538.19 L1013.243,518.52 L1027.362,534.578 L1016.154,555.15 z" />
      <path
         id="path7359"
         fill="#9B7F41"
         d="M1131.882,637.202 L1114.901,617.17 L1103.154,592.038 L1108.41,558.279 L1114.948,536.28 L1109.594,534.606 L1092.719,572.075 L1085.057,578.812 L1078.377,572.687 L1069.996,540.343 L1065.345,539.468 L1068.803,566.213 L1048.599,552.064 L1044.153,559.518 L1074.11,588.437 L1071.492,595.763 L1042.828,592.597 L1042.372,597.963 L1074.89,606.249 L1087.245,616.665 L1099.86,634.648 L1116.121,656.83 L1131.882,637.202 z" />
      <path
         id="path7361"
         fill="#634B16"
         d="M1121.345,651.937 L1104.323,626.89 L1090.883,600.122 L1081.671,589.645 L1078.03,607.85 L1095.576,621.004 L1107.794,641.701 L1117.04,655.723 L1121.345,651.937 z" />
    </g>
    <g
       id="Fence1">
      <path
         id="path7365"
         fill="#7F4400"
         d="M569.077,839.857 L569.687,849.727 L607.898,846.263 L637.523,848.287 L674.438,842.702 L717.208,843.913 L716.767,836.784 L675.761,832.712 L638.914,839.395 L610.655,836.736 L569.077,839.857 z" />
      <path
         id="path7367"
         fill="#7F4400"
         d="M571.043,871.659 L571.043,871.659 L609.491,872.035 L637.934,867.525 L671.526,870.951 L706.76,863.271 L718.495,864.747 L717.953,855.975 L705.126,855.666 L670.528,861.108 L640.134,859.132 L608.983,863.81 L570.433,861.789 L571.043,871.659 z" />
      <path
         id="path7369"
         fill="#C56A00"
         d="M575.847,884.571 L570.103,829.338 L578.259,829.383 L579.259,883.261 L575.847,884.571 z" />
      <path
         id="path7371"
         fill="#C56A00"
         d="M585.869,883.951 L582.582,830.768 L590.21,828.095 L590.927,883.639 L585.869,883.951 z" />
      <path
         id="path7373"
         fill="#94632B"
         d="M598.274,883.185 L595.372,829.977 L603.174,830.595 L604.073,882.826 L598.274,883.185 z" />
      <path
         id="path7375"
         fill="#C56A00"
         d="M608.712,882.539 L608.758,829.15 L614.705,828.782 L616.446,882.061 L608.712,882.539 z" />
      <path
         id="path7377"
         fill="#996427"
         d="M621.858,881.727 L619.093,830.712 L625.531,828.113 L628.431,881.321 L621.858,881.727 z" />
      <path
         id="path7379"
         fill="#C56A00"
         d="M634.232,880.962 L629.011,827.898 L635.366,830.257 L640.032,880.604 L634.232,880.962 z" />
      <path
         id="path7381"
         fill="#C56A00"
         d="M644.285,880.341 L641.167,829.899 L647.957,826.727 L650.689,877.193 L644.285,880.341 z" />
      <path
         id="path7383"
         fill="#C56A00"
         d="M655.11,879.672 L652.346,828.657 L661.308,829.203 L662.071,879.241 L655.11,879.672 z" />
      <path
         id="path7385"
         fill="#7F501A"
         d="M667.485,878.907 L665.107,827.868 L670.384,825.341 L672.897,878.572 L667.485,878.907 z" />
      <path
         id="path7387"
         fill="#C56A00"
         d="M677.15,878.309 L673.999,827.319 L681.346,826.864 L684.497,877.855 L677.15,878.309 z" />
      <path
         id="path7389"
         fill="#C56A00"
         d="M690.683,877.473 L686.929,829.272 L692.945,826.147 L695.324,877.186 L690.683,877.473 z" />
      <path
         id="path7391"
         fill="#955305"
         d="M700.35,876.875 L697.063,823.692 L704.553,823.229 L705.376,876.565 L700.35,876.875 z" />
      <path
         id="path7393"
         fill="#C56A00"
         d="M711.176,876.206 L708.025,825.215 L713.188,827.099 L717.75,875.8 L711.176,876.206 z" />
    </g>
    <g
       id="g7406">
      <path
         id="path7396"
         fill="#006414"
         d="M400.415,829.673 L385.837,840.857 L370.29,838.195 L355.713,827.009 L358.628,816.948 L355.713,805.451 L336.885,795.055 L334.821,771.086 L352.312,755.109 L370.29,760.434 L370.29,735.403 L390.21,732.739 L400.901,733.271 L406.245,721.022 L425.193,711.436 L445.115,722.087 L450.462,747.651 L465.523,749.783 L488.963,760.434 L499.049,795.055 L476.698,809.921 L453.861,823.283 L444.145,836.598 L430.054,820.086 L400.415,829.673 z" />
      <path
         id="path7398"
         fill="#083B12"
         d="M457.623,808.38 L467.856,789.062 L486.661,776.184 L491.429,791.745 L478.55,805.697 L457.623,808.38 z" />
      <path
         id="path7400"
         fill="#083B12"
         d="M445.281,744.524 L445.115,722.087 L423.28,715.093 L423.28,736.475 L445.281,744.524 z" />
      <path
         id="path7402"
         fill="#9B7F41"
         d="M412.55,882.56 L412.075,856.304 L404.302,829.673 L378.064,807.791 L358.628,795.587 L361.543,790.794 L398.957,807.791 L409.16,807.791 L410.132,798.781 L395.069,768.956 L397.984,765.228 L413.047,787.597 L418.877,763.63 L427.139,766.292 L423.736,807.791 L430.54,811.564 L449.976,790.259 L453.861,793.988 L434.912,821.683 L432.511,837.663 L434.912,859.498 L437.347,886.894 L412.55,882.56 z" />
      <path
         id="path7404"
         fill="#634B16"
         d="M430.193,886.669 L426.437,856.619 L418.856,827.642 L418.856,813.691 L433.611,824.959 L429.12,846.423 L433.611,870.034 L435.926,886.669 L430.193,886.669 z" />
    </g>
    <g
       id="g7418">
      <path
         id="path7408"
         fill="#007005"
         d="M496.199,818.941 L469.867,831.728 L450.255,816.246 L431.6,816.739 L419.464,801.591 L429.588,781.054 L433.134,753.756 L429.537,738.768 L446.893,729.441 L461.689,724.198 L474.857,697.713 L501.523,697.542 L529.088,711.214 L540.832,731.706 L567.778,742.194 L580.126,765.338 L582.935,790.867 L567.373,808.347 L538.484,804.311 L526.049,818.151 L496.199,818.941 z" />
      <path
         id="path7410"
         fill="#AF9B5C"
         d="M505.98,886.247 L494.937,851.868 L497.962,825.118 L493.879,811.891 L475.728,811.304 L456.09,794.831 L458.051,788.303 L476.498,800.082 L491.332,796.258 L487.703,780.051 L479.13,758.408 L483.238,752.431 L502.165,782.335 L515.071,786.26 L525.703,784.913 L553.223,776.717 L556.632,784.628 L530.776,795.214 L524.639,805.21 L526.92,830.928 L534.423,852.424 L538.523,886.453 L505.98,886.247 z" />
      <path
         id="path7412"
         fill="#704E00"
         d="M510.16,882.936 L500.8,851.713 L505.411,824.388 L499.7,810.137 L490.326,778.381 L505.211,796.656 L512.619,814.596 L516.396,836.365 L516.96,857.686 L522.336,879.414 L510.16,882.936 z" />
      <path
         id="path7414"
         fill="#07410A"
         d="M477.285,708.85 L470.217,723.973 L481.99,745.531 L497.983,765.373 L507.916,777.916 L524.214,768.95 L528.147,736.16 L525.573,719.482 L497.448,704.846 L477.285,708.85 z" />
      <path
         id="path7416"
         fill="#07410A"
         d="M561.06,750.373 L556.082,763.836 L561.839,799.959 L569.538,788.554 L569.479,766.153 L561.06,750.373 z" />
    </g>
    <g
       id="EndSign">
      <path
         id="path7420"
         fill="#000000"
         d="M462.462,866.721 L464.858,886.294 L461.504,887.461 L457.911,866.721 L462.462,866.721 z" />
      <path
         id="path7422"
         fill="#FFFFFF"
         d="M472.046,848.751 L475.641,876.247 L443.533,876.013 L440.181,847.354 L472.046,848.751 z" />
      <path
         id="path7424"
         fill="#000000"
         d="M470.172,850.645 L473.245,874.15 L445.799,873.95 L442.932,849.45 L470.172,850.645 z" />
      <path
         id="path7426"
         fill="#FFFFFF"
         d="M465.577,862.033 L457.671,861.334 L456.712,856.905 L450.961,863.898 L456.952,866.926 L457.19,864.363 L466.536,864.596 L465.577,862.033 z" />
    </g>
    <g
       id="g7451">
      <path
         id="path7429"
         fill="#056818"
         d="M2213.438,362.253 L2240.358,354.168 L2246.681,323.75 L2230.962,298.264 L2216.864,304.736 L2197.91,285.325 L2177.177,291.403 L2169.222,313.128 L2158.921,319.436 L2152.089,335.483 L2177.944,359.615 L2177.407,371.325 L2213.438,362.253 z" />
      <path
         id="path7431"
         fill="#123D1A"
         d="M2201.093,357.869 L2193.156,347.627 L2191.503,327.157 L2185.558,312.961 L2181.999,293.992 L2176.841,310.221 L2172.319,318.179 L2165.419,322.208 L2162.118,333.764 L2173.973,347.399 L2183.649,358.161 L2181.999,363.939 L2201.093,357.869 z" />
      <path
         id="path7433"
         fill="#FF1717"
         d="M2231.917,341.448 C2233.337,337.354 2233.337,337.354 2233.337,337.354 L2227.031,335.803 L2231.917,341.448 z" />
      <path
         id="path7435"
         fill="#FF1717"
         d="M2210.821,351.423 L2212.9,345.016 L2207.617,346.007 L2210.821,351.423 z" />
      <path
         id="path7437"
         fill="#FF1717"
         d="M2210.995,313.862 L2207.821,317.947 L2205.689,314.639 L2210.995,313.862 z" />
      <path
         id="path7439"
         fill="#FF1717"
         d="M2177.968,308.717 L2179.773,312.522 L2175.296,314.235 L2177.968,308.717 z" />
      <path
         id="path7441"
         fill="#FF1717"
         d="M2178.775,332.775 L2179.328,335.725 L2175.338,335.384 L2178.775,332.775 z" />
      <path
         id="path7443"
         fill="#FF1717"
         d="M2195.086,294.163 L2196.126,298.549 L2191.807,297.614 L2195.086,294.163 z" />
      <path
         id="path7445"
         fill="#FF1717"
         d="M2231.88,311.252 L2233.119,313.2 L2226.336,310.765 L2231.88,311.252 z" />
      <path
         id="path7447"
         fill="#FF1717"
         d="M2199.909,330.337 L2200.714,333.457 L2198.29,332.167 L2199.909,330.337 z" />
      <path
         id="path7449"
         fill="#FF1717"
         d="M2186.309,353.173 L2182.846,354.477 L2182.154,350.785 L2186.309,353.173 z" />
    </g>
    <g
       id="g7475">
      <path
         id="path7453"
         fill="#056818"
         d="M2255.571,354.033 L2283.586,351.743 L2296.117,323.315 L2286.063,295.109 L2270.925,298.498 L2256.439,275.558 L2234.893,277.175 L2222.58,296.762 L2211.19,300.782 L2201.16,315.05 L2221.409,344.046 L2218.44,355.386 L2255.571,354.033 z" />
      <path
         id="path7455"
         fill="#123D1A"
         d="M2244.413,347.169 L2238.788,335.496 L2241.443,315.132 L2238.591,300.008 L2239.069,280.714 L2230.638,295.51 L2224.555,302.348 L2216.966,304.849 L2211.327,315.462 L2220.075,331.27 L2227.292,343.814 L2224.472,349.121 L2244.413,347.169 z" />
      <path
         id="path7457"
         fill="#FF1717"
         d="M2277.985,337.542 C2280.228,333.835 2280.228,333.835 2280.228,333.835 L2274.384,331.002 L2277.985,337.542 z" />
      <path
         id="path7459"
         fill="#FF1717"
         d="M2255.272,342.895 L2258.642,337.063 L2253.269,336.93 L2255.272,342.895 z" />
      <path
         id="path7461"
         fill="#FF1717"
         d="M2263.281,306.198 L2259.324,309.53 L2257.929,305.85 L2263.281,306.198 z" />
      <path
         id="path7463"
         fill="#FF1717"
         d="M2232.054,294.273 L2233.025,298.371 L2228.289,299.112 L2232.054,294.273 z" />
      <path
         id="path7465"
         fill="#FF1717"
         d="M2227.822,317.971 L2227.748,320.971 L2223.917,319.805 L2227.822,317.971 z" />
      <path
         id="path7467"
         fill="#FF1717"
         d="M2251.832,283.612 L2251.935,288.118 L2247.906,286.303 L2251.832,283.612 z" />
      <path
         id="path7469"
         fill="#FF1717"
         d="M2284.25,308.003 L2285.055,310.167 L2278.93,306.37 L2284.25,308.003 z" />
      <path
         id="path7471"
         fill="#FF1717"
         d="M2249.001,319.997 L2249.136,323.216 L2247.035,321.448 L2249.001,319.997 z" />
      <path
         id="path7473"
         fill="#FF1717"
         d="M2230.935,339.491 L2227.276,340.044 L2227.369,336.289 L2230.935,339.491 z" />
    </g>
    <g
       id="Lamp">
      <path
         id="path7477"
         fill="#757575"
         d="M2302.385,254.369 L2304.891,247.604 L2304.139,237.832 L2297.624,227.059 L2306.895,236.078 L2308.648,247.353 L2306.644,253.116 L2302.385,254.369 z" />
      <path
         id="path7479"
         fill="#757575"
         d="M2260.793,353.087 L2262.296,333.042 L2260.041,300.22 L2259.541,275.165 L2263.549,249.859 L2269.062,235.076 L2271.818,229.314 L2283.343,221.797 L2271.818,226.307 L2266.306,231.318 L2261.545,247.353 L2257.536,264.141 L2256.534,282.18 L2257.035,305.983 L2258.539,327.029 L2256.033,354.089 L2260.793,353.087 z" />
      <path
         id="path7481"
         fill="#CECECE"
         d="M2259.322,352.697 L2260.278,321.732 L2258.178,283.735 L2259.877,257.551 L2269.554,229.112 L2282.962,220.561 L2298.5,223.458 L2308.696,235.553 L2312.173,246.456 L2322.146,252.993 L2300.824,255.734 L2306.03,247.658 L2305.577,236.586 L2297.695,226.74 L2283.704,225.348 L2274.217,229.578 L2264.478,258.581 L2262.811,280.725 L2265.809,318.349 L2265.37,352.315 z" />
      <path
         id="path7483"
         fill="#757575"
         d="M2311.405,247.604 L2313.159,252.364 L2318.42,252.364 L2311.405,247.604 z" />
    </g>
    <g
       id="g7494">
      <path
         id="path7486"
         fill="#757575"
         d="M2058.09,280.975 L2060.596,274.211 L2059.844,264.439 L2053.329,253.665 L2062.6,262.685 L2064.354,273.959 L2062.349,279.723 L2058.09,280.975 z" />
      <path
         id="path7488"
         fill="#757575"
         d="M2016.498,379.693 L2018.002,359.649 L2015.746,326.826 L2015.245,301.771 L2019.254,276.465 L2024.767,261.683 L2027.523,255.92 L2039.048,248.403 L2027.523,252.914 L2022.011,257.924 L2017.25,273.959 L2013.241,290.747 L2012.239,308.786 L2012.74,332.589 L2014.244,353.635 L2011.738,380.695 L2016.498,379.693 z" />
      <path
         id="path7490"
         fill="#CECECE"
         d="M2015.027,379.303 L2015.983,348.338 L2013.883,310.341 L2015.582,284.157 L2025.259,255.718 L2038.668,247.168 L2054.205,250.064 L2064.402,262.16 L2067.878,273.062 L2077.852,279.599 L2056.529,282.341 L2061.735,274.264 L2061.282,263.192 L2053.4,253.347 L2039.409,251.954 L2029.922,256.184 L2020.183,285.187 L2018.516,307.331 L2021.514,344.956 L2021.075,378.922 z" />
      <path
         id="path7492"
         fill="#757575"
         d="M2067.11,274.211 L2068.864,278.971 L2074.125,278.971 L2067.11,274.211 z" />
    </g>
    <g
       id="g7504">
      <path
         id="path7496"
         fill="#757575"
         d="M1908.088,221.34 L1910.593,214.576 L1909.842,204.804 L1903.327,194.03 L1912.598,203.05 L1914.351,214.325 L1912.347,220.088 L1908.088,221.34 z" />
      <path
         id="path7498"
         fill="#757575"
         d="M1866.495,320.059 L1867.999,300.014 L1865.744,267.192 L1865.243,242.137 L1869.252,216.83 L1874.765,202.048 L1877.521,196.285 L1889.046,188.769 L1877.521,193.279 L1872.008,198.289 L1867.248,214.325 L1863.239,231.112 L1862.237,249.152 L1862.738,272.954 L1864.241,294.001 L1861.736,321.06 L1866.495,320.059 z" />
      <path
         id="path7500"
         fill="#CECECE"
         d="M1865.025,319.668 L1865.981,288.703 L1863.881,250.706 L1865.58,224.523 L1875.257,196.084 L1888.665,187.533 L1904.203,190.43 L1914.399,202.525 L1917.875,213.427 L1927.849,219.964 L1906.526,222.706 L1911.732,214.629 L1911.28,203.557 L1903.398,193.712 L1889.406,192.319 L1879.92,196.55 L1870.181,225.552 L1868.514,247.697 L1871.511,285.321 L1871.073,319.287 z" />
      <path
         id="path7502"
         fill="#757575"
         d="M1917.107,214.576 L1918.861,219.336 L1924.123,219.336 L1917.107,214.576 z" />
    </g>
    <g
       id="g7514">
      <path
         id="path7506"
         fill="#757575"
         d="M1756.6,211.172 L1759.106,204.408 L1758.354,194.636 L1751.839,183.862 L1761.11,192.882 L1762.864,204.156 L1760.859,209.92 L1756.6,211.172 z" />
      <path
         id="path7508"
         fill="#757575"
         d="M1715.008,309.89 L1716.511,289.845 L1714.256,257.023 L1713.755,231.968 L1717.764,206.662 L1723.277,191.88 L1726.033,186.117 L1737.558,178.6 L1726.033,183.11 L1720.521,188.121 L1715.76,204.156 L1711.751,220.944 L1710.749,238.983 L1711.25,262.786 L1712.754,283.832 L1710.248,310.892 L1715.008,309.89 z" />
      <path
         id="path7510"
         fill="#CECECE"
         d="M1713.537,309.5 L1714.493,278.535 L1712.393,240.538 L1714.092,214.354 L1723.769,185.915 L1737.177,177.365 L1752.715,180.261 L1762.911,192.357 L1766.388,203.259 L1776.361,209.796 L1755.039,212.538 L1760.245,204.461 L1759.792,193.389 L1751.91,183.544 L1737.919,182.151 L1728.432,186.381 L1718.693,215.384 L1717.026,237.528 L1720.024,275.153 L1719.585,309.119 z" />
      <path
         id="path7512"
         fill="#757575"
         d="M1765.62,204.408 L1767.374,209.167 L1772.635,209.167 L1765.62,204.408 z" />
    </g>
    <g
       id="g7524">
      <path
         id="path7516"
         fill="#757575"
         d="M1610.31,210.429 L1612.816,203.665 L1612.065,193.893 L1605.55,183.119 L1614.821,192.139 L1616.574,203.414 L1614.569,209.177 L1610.31,210.429 z" />
      <path
         id="path7518"
         fill="#757575"
         d="M1568.718,309.147 L1570.222,289.103 L1567.967,256.281 L1567.466,231.226 L1571.474,205.919 L1576.987,191.137 L1579.743,185.374 L1591.269,177.858 L1579.743,182.368 L1574.231,187.378 L1569.47,203.414 L1565.461,220.201 L1564.459,238.241 L1564.96,262.043 L1566.464,283.09 L1563.958,310.149 L1568.718,309.147 z" />
      <path
         id="path7520"
         fill="#CECECE"
         d="M1567.247,308.757 L1568.204,277.792 L1566.103,239.795 L1567.802,213.611 L1577.479,185.173 L1590.888,176.622 L1606.426,179.519 L1616.622,191.614 L1620.098,202.516 L1630.072,209.053 L1608.749,211.795 L1613.955,203.718 L1613.503,192.646 L1605.621,182.801 L1591.629,181.408 L1582.143,185.638 L1572.404,214.641 L1570.736,236.786 L1573.734,274.41 L1573.295,308.376 z" />
      <path
         id="path7522"
         fill="#757575"
         d="M1619.33,203.665 L1621.084,208.425 L1626.346,208.425 L1619.33,203.665 z" />
    </g>
    <g
       id="g7534">
      <path
         id="path7526"
         fill="#757575"
         d="M1001.192,252.113 L1003.698,245.349 L1002.946,235.577 L996.431,224.803 L1005.702,233.823 L1007.455,245.097 L1005.451,250.861 L1001.192,252.113 z" />
      <path
         id="path7528"
         fill="#757575"
         d="M959.6,350.831 L961.103,330.786 L958.848,297.964 L958.347,272.909 L962.356,247.603 L967.869,232.821 L970.625,227.058 L982.15,219.541 L970.625,224.051 L965.113,229.062 L960.352,245.097 L956.343,261.885 L955.341,279.924 L955.842,303.727 L957.345,324.773 L954.84,351.833 L959.6,350.831 z" />
      <path
         id="path7530"
         fill="#CECECE"
         d="M958.129,350.441 L959.085,319.476 L956.985,281.479 L958.684,255.295 L968.361,226.856 L981.769,218.306 L997.307,221.202 L1007.503,233.298 L1010.98,244.2 L1020.953,250.737 L999.631,253.479 L1004.837,245.402 L1004.384,234.33 L996.502,224.485 L982.51,223.092 L973.024,227.322 L963.285,256.325 L961.618,278.469 L964.616,316.094 L964.177,350.06 z" />
      <path
         id="path7532"
         fill="#757575"
         d="M1010.212,245.349 L1011.966,250.108 L1017.227,250.108 L1010.212,245.349 z" />
    </g>
    <g
       id="g7544">
      <path
         id="path7536"
         fill="#757575"
         d="M847.904,315.311 L850.409,308.546 L849.658,298.774 L843.143,288.001 L852.414,297.02 L854.167,308.295 L852.163,314.058 L847.904,315.311 z" />
      <path
         id="path7538"
         fill="#757575"
         d="M806.312,414.029 L807.815,393.984 L805.56,361.162 L805.059,336.107 L809.068,310.801 L814.581,296.018 L817.337,290.256 L828.862,282.739 L817.337,287.249 L811.825,292.26 L807.064,308.295 L803.055,325.083 L802.053,343.122 L802.554,366.924 L804.057,387.971 L801.552,415.031 L806.312,414.029 z" />
      <path
         id="path7540"
         fill="#CECECE"
         d="M804.841,413.639 L805.797,382.674 L803.697,344.677 L805.396,318.493 L815.073,290.054 L828.481,281.503 L844.019,284.4 L854.215,296.495 L857.692,307.398 L867.665,313.935 L846.343,316.676 L851.549,308.6 L851.096,297.528 L843.214,287.682 L829.222,286.29 L819.736,290.52 L809.997,319.523 L808.33,341.667 L811.328,379.291 L810.889,413.257 z" />
      <path
         id="path7542"
         fill="#757575"
         d="M856.923,308.546 L858.678,313.306 L863.939,313.306 L856.923,308.546 z" />
    </g>
    <g
       id="Trash">
      <path
         id="path7546"
         fill="#989898"
         d="M1942.833,350.963 L1943.005,332.598 L1946.617,332.598 L1946.273,350.963 L1942.833,350.963 z" />
      <path
         id="path7548"
         fill="#717171"
         d="M1944.643,351.139 L1944.643,339.46 L1946.366,338.502 L1946.273,350.963 L1944.643,351.139 z" />
      <path
         id="path7550"
         fill="#ED6C00"
         d="M1943.349,344.192 L1938.532,343.332 L1936.295,336.451 L1936.295,327.505 L1937.5,322.516 L1943.005,319.592 L1949.37,318.731 L1953.154,320.452 L1954.531,324.377 L1954.531,329.397 L1954.531,336.279 L1952.982,340.72 L1947.993,343.848 L1943.349,344.192 z" />
      <path
         id="path7552"
         fill="#000000"
         d="M1939.564,324.377 L1943.005,321.656 L1947.133,320.624 L1951.262,321.14 L1952.466,324.377 L1951.09,325.742 L1941.284,325.742 L1939.564,324.377 z" />
      <path
         id="path7554"
         fill="#A84D00"
         d="M1945.452,343.715 L1949.281,342.757 L1952.153,341.417 L1954.068,337.396 L1954.068,329.355 L1951.962,336.439 L1950.047,340.077 L1945.452,343.715 z" />
    </g>
    <g
       id="Bench">
      <path
         id="path7557"
         fill="#B5B5B5"
         d="M795.389,528.578 L795.389,488.471 L804.745,488.471 L806.527,527.8 L795.389,528.578 z" />
      <path
         id="path7559"
         fill="#B5B5B5"
         d="M849.286,528.578 L859.532,528.578 L857.426,490.807 L847.503,488.471 L849.286,528.578 z" />
      <path
         id="path7561"
         fill="#7D7D7D"
         d="M856.958,529.031 L853.746,491.62 L857.336,491.809 L859.532,528.578 L856.958,529.031 z" />
      <path
         id="path7563"
         fill="#7D7D7D"
         d="M804.621,527.708 L803.676,507.114 L800.842,491.242 L803.865,491.242 L806.699,526.953 L804.621,527.708 z" />
      <path
         id="path7565"
         fill="#FF0000"
         d="M783.797,514.171 L783.797,518.844 L870.67,521.57 L870.67,516.118 L783.797,514.171 z" />
      <path
         id="path7567"
         fill="#FF0000"
         d="M783.797,493.143 L783.797,505.215 L870.67,505.994 L868.887,494.312 L783.797,493.143 z" />
      <path
         id="path7569"
         fill="#9E1C1C"
         d="M784.215,504.768 L784.404,506.279 L870.373,506.846 L869.617,504.579 L784.215,504.768 z" />
      <path
         id="path7571"
         fill="#9E1C1C"
         d="M784.026,517.505 L821.248,519.017 L870.184,519.017 L870.562,520.717 L821.248,519.962 L783.797,518.844 L784.026,517.505 z" />
    </g>
    <g
       id="g7584">
      <path
         id="path7574"
         fill="#989898"
         d="M1311.497,357.8 L1311.669,339.435 L1315.281,339.435 L1314.937,357.8 L1311.497,357.8 z" />
      <path
         id="path7576"
         fill="#717171"
         d="M1313.307,357.977 L1313.307,346.297 L1315.03,345.34 L1314.937,357.8 L1313.307,357.977 z" />
      <path
         id="path7578"
         fill="#ED6C00"
         d="M1312.013,351.029 L1307.196,350.169 L1304.958,343.288 L1304.958,334.342 L1306.164,329.353 L1311.669,326.429 L1318.034,325.568 L1321.818,327.289 L1323.195,331.214 L1323.195,336.234 L1323.195,343.116 L1321.646,347.557 L1316.656,350.685 L1312.013,351.029 z" />
      <path
         id="path7580"
         fill="#000000"
         d="M1308.228,331.214 L1311.669,328.493 L1315.797,327.461 L1319.926,327.977 L1321.13,331.214 L1319.754,332.579 L1309.948,332.579 L1308.228,331.214 z" />
      <path
         id="path7582"
         fill="#A84D00"
         d="M1314.115,350.552 L1317.945,349.595 L1320.817,348.255 L1322.731,344.234 L1322.731,336.193 L1320.625,343.277 L1318.71,346.915 L1314.115,350.552 z" />
    </g>
  </g>
  <g
     id="Surfaces">
    <path
       id="path7587"
       fill="#676767"
       d="m 2485.238,353.127 -57.356,1.108 -51.882,-4.192 -47.69,3.668 -48.214,-3.668 -32.492,2.096 -41.925,12.054 -28.823,5.764 -21.286,8.767 1.371,4.859 20.963,-7.861 30.396,-7.337 39.828,-11.529 31.968,2.62 47.69,-0.524 41.401,-1.572 42.449,1.048 44.021,1.048 30.92,2.62 z" />
    <path
       id="path7589"
       fill="#676767"
       d="m 2155.57,378.724 -54.704,-3.002 -48.213,2.62 -42.816,-1.511 -0.682,6.228 24.631,-2.62 33.016,3.144 30.92,-3.668 39.305,2.62 19.914,1.048 z" />
    <path
       id="path7591"
       fill="#676767"
       d="m 2009.837,376.831 -43.402,-20.735 -41.242,-15.414 -43.742,-21.246 -5.832,-1.25 -1.667,7.082 27.079,8.332 26.661,14.164 24.996,7.915 32.91,18.747 23.557,8.633 z" />
    <path
       id="path7593"
       fill="#676767"
       d="m 1875.619,318.186 -40.409,-1.666 -49.991,-5.416 -39.993,-1.249 -35.41,-5.833 1.667,7.082 34.576,3.333 31.245,1.666 29.994,4.583 h 35.41 l 31.244,4.582 z" />
    <path
       id="path7595"
       fill="#676767"
       d="m 1709.816,304.022 -19.58,2.083 -50.823,-0.416 -29.995,-1.667 -33.744,2.916 -18.33,-2.083 0.417,8.749 h 24.995 l 21.663,-4.999 36.243,4.582 34.161,-2.083 h 36.66 z" />
    <path
       id="path7597"
       fill="#676767"
       d="m 1557.344,304.855 -46.241,12.498 -47.908,9.165 -31.244,4.166 -46.241,11.665 -45.408,8.331 -41.243,8.749 -36.809,6.047 1.816,8.117 20.413,-8.749 37.493,-5.832 37.076,-8.748 43.325,-7.499 44.159,-9.581 40.826,-6.249 39.159,-9.582 31.244,-3.749 z" />
    <path
       id="path7599"
       fill="#676767"
       d="m 1264.066,365.261 h -32.078 l -39.576,6.665 -32.91,0.417 -46.77,4.488 -1.555,7.593 22.08,-7.499 35.41,-0.416 40.409,-2.083 30.827,-4.583 25.412,2.083 z" />
    <path
       id="path7601"
       fill="#676767"
       d="m 1112.732,376.831 -26.55,-6.571 -37.076,-3.749 -32.494,-9.165 -35.827,-2.916 -13.331,-6.666 -13.703,0.678 -0.461,8.071 h 18.33 l 28.328,4.165 31.661,9.165 32.077,2.083 27.079,8.332 20.412,4.166 z" />
    <path
       id="path7603"
       fill="#ff0000"
       d="m 953.751,348.026 -85.168,62.457 h -70.027 l 0.596,7.685 69.57,0.834 84.568,-62.905 z" />
    <path
       id="path7605"
       fill="#ba0000"
       d="m 868.583,410.899 85.168,72.017 -1.294,7.738 -83.735,-71.236 -69.57,-0.834 -0.596,-7.685 z" />
    <path
       id="path7607"
       fill="#9a9a9a"
       d="m 953.751,482.916 -6.293,3.156 -31.661,15.83 -28.328,15.831 -28.328,9.165 -42.076,-1.25 -43.908,0.873 -0.25,4.959 23.329,1.666 42.909,-0.833 32.077,-0.416 28.745,-14.164 29.577,-13.331 22.913,-13.748 18.258,-0.019 50.896,2.102 -1.018,-7.793 z" />
    <path
       id="path7609"
       fill="#9a9a9a"
       d="m 773.157,526.521 -62.739,-14.621 -38.326,-10.831 -47.074,-6.249 -46.658,-7.915 -39.993,-6.665 -9.998,0.833 2.499,8.332 28.745,-2.083 34.16,7.915 38.327,5.832 44.575,9.165 38.326,6.665 34.16,11.248 23.746,3.333 z" />
    <path
       id="path7611"
       fill="#9a9a9a"
       d="m 528.369,481.073 -38.631,1.807 -37.373,-2.124 -39.073,1.699 -45.443,-2.124 -36.949,2.973 -39.072,-1.698 -37.374,2.972 -36.949,-3.397 -38.223,3.397 -19.96,-1.274 -0.85,8.07 19.536,-2.124 37.374,-2.548 44.169,1.699 27.605,-2.124 32.089,1.765 31.876,2.204 28.62,-1.421 39.497,-1.698 32.702,3.397 44.594,-0.424 34.334,-0.695 z" />
    <path
       id="path7613"
       fill="#9a9a9a"
       d="m 361.124,487.122 29.848,23.132 26.49,22.759 27.982,28.355 36.937,22.759 17.909,17.909 27.609,12.686 25.371,15.67 19.028,8.954 -1.865,7.835 -29.475,-19.028 -35.818,-12.312 -21.266,-18.282 -33.206,-23.505 -27.61,-24.252 -25.37,-24.997 -25.744,-19.028 -28.622,-19.43 z" />
    <path
       id="path7615"
       fill="#9a9a9a"
       d="m 572.298,639.346 39.549,16.043 42.906,12.686 30.221,13.804 29.102,13.805 24.624,21.64 21.64,13.431 17.257,14.705 -3.825,6.562 -11.566,-11.939 -22.013,-11.939 -23.505,-18.655 -24.252,-16.044 -31.34,-11.192 -35.072,-16.79 -34.325,-7.835 -21.266,-10.447 z" />
    <path
       id="path7617"
       fill="#9a9a9a"
       d="m 777.728,745.46 31.992,12.159 28.729,7.088 30.46,11.755 39.309,-3.173 33.952,2.984 30.595,-2.238 129.117,1.818 1.493,4.084 -117.925,0.814 -33.579,1.119 -36.937,1.119 -35.444,-2.238 -20.521,3.358 -19.028,-12.686 -39.921,-7.462 -26.863,-13.804 z" />
    <path
       id="path7619"
       fill="#9a9a9a"
       d="m 927.26,781.139 -28.611,18.945 -25.518,14.692 -22.812,18.945 -32.863,10.826 -26.678,15.465 -29.594,13.279 2.143,7.599 24.744,-13.919 31.318,-13.532 25.131,-13.919 29.384,-11.985 13.919,-14.306 28.611,-15.079 20.878,-17.011 z" />
    <path
       id="path7621"
       fill="#9a9a9a"
       d="m 761.184,873.291 -38.067,-0.907 -39.437,3.093 -36.343,3.48 -35.184,-0.387 -47.943,3.867 -45.622,0.773 -44.077,3.48 -41.756,-1.16 -38.664,-1.547 -35.931,0.25 -0.026,7.096 25.518,-2.706 32.091,3.093 h 38.277 l 42.916,0.773 35.957,-4.639 47.556,-0.774 45.236,-0.773 42.143,-4.253 35.957,-0.773 29.771,-2.32 29.771,1.933 z" />
    <path
       id="path7623"
       fill="#5b5b5b"
       d="m 315.027,485.034 11.935,-0.555 20.818,-0.277 8.882,1.943 22.483,17.764 18.874,14.433 -16.376,-10.547 -18.597,-12.213 -9.993,-6.384 -7.217,-2.414 z" />
    <path
       id="path7625"
       fill="#646464"
       d="m 897.055,804.487 19.008,-14.522 15.59,-10.678 14.309,-2.563 28.618,-1.709 -21.357,4.058 -16.871,2.99 -17.727,10.892 z" />
    <path
       id="path7627"
       fill="#676767"
       d="m 2487.249,271.606 10.254,-16.47 39.153,-16.158 -33.72,18.295 -11.097,16.028 0.617,20.344 -2.466,26.507 4.315,42.537 -7.728,-0.593 z" />
    <path
       id="path7629"
       fill="#9a9a9a"
       d="m 1102.429,682.688 -1.495,18.19 0.346,37.688 -1.729,36.304 3.824,5.067 3.437,-30.653 -3.112,-28.698 3.112,-28.352 z" />
    <path
       id="path7631"
       stroke-width="1"
       stroke="#000000"
       fill-opacity="0"
       d="m 2487.249,271.606 -2.011,81.521 -227.467,-0.9 -102.201,26.497 -145.733,-1.893 -134.376,-56.778 -164.659,-12.356 h -155.195 l -130.591,25.604 -162.766,32.175 -149.518,11.355 -158.981,-28.389" />
    <path
       id="path7633"
       stroke-width="1"
       stroke="#000000"
       fill-opacity="0"
       d="m 953.751,348.424 -85.168,62.457 h -70.027 c 0,-0.398 0,-74.628 0,-74.628" />
    <path
       style="display:inline"
       id="path7635"
       stroke-width="1"
       stroke="#000000"
       fill-opacity="0"
       d="m 868.943,410.899 84.966,72.017 66.684,2.028 2.8432,-80.47248" />
    <path
       id="path7637"
       stroke-width="1"
       stroke="#000000"
       fill-opacity="0"
       d="m 953.751,482.916 -80.2,43.605 H 773.157" />
    <path
       id="path7639"
       stroke-width="1"
       stroke="#000000"
       fill-opacity="0"
       d="m 773.157,526.521 -62.59,-16.664 -164.55,-26.941 H 407.799 163.259" />
    <path
       id="path7641"
       stroke-width="1"
       stroke="#000000"
       fill-opacity="0"
       d="m 358.334,484.202 134.949,112.802 78.417,43.767 125.831,43.767 80.24,60.18 91.181,31.002 239.501,-0.705 2.724,-89.576" />
    <path
       id="path7643"
       stroke-width="1"
       stroke="#000000"
       fill-opacity="0"
       d="m 936.872,776.462 -91.801,58.533 -83.887,38.296 -145.891,5.471 -184.187,9.118 -72.946,-3.647 -23.547,-102.368" />
    <path
       id="path7645"
       fill="#bc0000"
       d="m 872.338,412.901 82.502,-61.068 -1.55,4.68 -78.913,58.427 z" />
    <path
       id="path7647"
       fill="#890202"
       d="m 798.682,416.724 71.362,0.51 79.773,67.284 -2.359,1.554 -78.736,-66.654 -69.57,-0.834 z" />
  </g>
  <g
     id="Pivots">
    <path
       id="Pivot_l0_t0"
       fill="#484848"
       d="m 2359.055,335.177 -1.346,-52.832 h 32.978 l -1.346,52.832 z" />
    <path
       id="Pivot_l1_t0_s1_c1"
       fill="#484848"
       d="m 1784.287,306.156 -1.346,-52.832 h 32.976 l -1.346,52.832 z" />
    <path
       id="Pivot_l1_t1_s1_c2"
       fill="#484848"
       d="m 2053.531,371.325 -1.346,-52.832 h 32.976 l -1.346,52.832 z" />
    <path
       id="path7653"
       fill="#484848"
       d="m 1404.114,325.568 -1.346,-52.832 h 32.976 l -1.346,52.832 z" />
    <path
       id="Pivot_l2_t2_s1_c4"
       fill="#484848"
       d="m 283.397,477.193 -1.346,-52.832 h 32.976 l -1.346,52.832 z" />
    <path
       id="Pivot_l2_t2_s1_c1"
       fill="#484848"
       d="m 584.281,634.858 -1.346,-52.832 h 32.976 l -1.346,52.832 z" />
    <path
       id="path7657"
       fill="#484848"
       d="m 734.713,702.054 -1.346,-52.832 h 32.976 l -1.346,52.832 z" />
    <path
       id="Pivot_l2_t2_s1_c2"
       fill="#484848"
       d="m 1062.799,770.535 -1.346,-52.832 h 32.976 l -1.346,52.832 z" />
    <path
       id="Pivot_l2_t1_s1_c2"
       fill="#484848"
       d="m 719.841,863.624 -1.346,-52.832 h 32.976 l -1.346,52.832 z" />
    <path
       id="Pivot_l1_t2_s1_c1"
       fill="#484848"
       d="m 969.999,478.444 -1.346,-52.832 h 32.976 l -1.346,52.832 z" />
    <path
       id="Pivot_l2_t0_s1_c2"
       fill="#484848"
       d="m 644.009,491.409 -1.346,-52.832 h 32.976 l -1.346,52.832 z" />
    <path
       id="Pivot_e"
       fill="#484848"
       d="m 387.833,886.09 -1.346,-52.832 h 32.977 l -1.346,52.832 z" />
    <path
       id="Pivot_g"
       fill="#484848"
       d="m 812.091,523.376 -1.346,-52.832 h 32.977 l -1.346,52.832 z" />
    <path
       id="Pivot_i5"
       fill="#484848"
       d="m 859.107,523.376 -1.346,-52.832 h 32.976 l -1.346,52.832 z" />
  </g>
</svg>
