<?xml version="1.0" encoding="UTF-8"?>
<svg version="1.1" xmlns="http://www.w3.org/2000/svg" xmlns:xlink="http://www.w3.org/1999/xlink" x="0" y="0" width="2000" height="1000" viewBox="0, 0, 2000, 1000">
  <g id="Background">
    <path d="M0,0 L2000,0 L2000,1000 L0,1000 z" fill="#FFFFFF"/>
  </g>
  <g id="Layer_4">
    <path d="M-128.368,-238.183 L2240.859,-196.368 L2240.859,1054.714 L-128.368,1054.714 L-128.368,-238.183 z" fill="#6DD0FF"/>
    <path d="M-157.439,149.91 L2277.738,149.91 L2277.738,1081.194 L-157.439,1081.194 L-157.439,149.91 z" fill="#A4E2FF"/>
    <path d="M-136.753,265.39 L2274.782,265.39 L2274.782,1070.019 L-136.753,1070.019 L-136.753,265.39 z" fill="#C0EBFF"/>
    <path d="M1531.493,293.947 L1536.462,120.012 L1553.359,120.012 L1544.414,340.661 L1525.529,340.661 L1531.493,293.947 z" fill="#563300"/>
    <path d="M1812.771,426.138 L1787.923,109.079 L1773.014,109.079 L1800.844,427.132 L1812.771,426.138 z" fill="#563300"/>
    <path d="M1554.353,124.982 L1786.929,223.379 L1786.929,240.276 L1551.371,139.89 L1554.353,124.982 z" fill="#563300"/>
    <path d="M1542.563,331.507 L1790.993,245.951 L1789.978,264.54 L1538.882,348.552 L1542.563,331.507 z" fill="#563300"/>
    <path d="M1548.377,231.331 L1776.193,128.443 L1775.984,144.86 L1547.383,245.246 L1548.377,231.331 z" fill="#7F4202"/>
    <path d="M1547.504,257.487 L1796.544,369.485 L1799.85,352.087 L1546.402,242.264 L1547.504,257.487 z" fill="#7F4202"/>
    <path d="M1013.179,949.302 L1007.399,719.248 L1003.931,590.927 L1001.619,429.081 L2003.911,426.769 L2010.692,948.146 L1013.179,949.302 z" fill="#787878"/>
    <g>
      <path d="M1522.548,-136.418" fill="#563300"/>
      <path d="M1522.548,-136.418" fill-opacity="0" stroke="#6F0000" stroke-width="1"/>
    </g>
    <g>
      <path d="M1535.469,420.175 L1794.88,351.595 L1795.875,366.503 L1536.462,432.102 L1535.469,420.175 z" fill="#7F4202"/>
      <path d="M1535.469,420.175 L1794.88,351.595 L1795.875,366.503 L1536.462,432.102 L1535.469,420.175 z" fill="#7F4202"/>
    </g>
    <path d="M1662.658,430.237 L1514.349,292.326 L1531.449,430.857 L1529.736,748.303 L2005.837,749.395 L2003.911,426.769 L1662.658,430.237 z" fill="#7B0000"/>
    <path d="M1139.142,292.326 L1067.722,431.863 L995.619,431.393 L986.243,382.858 L1139.142,292.326 z" fill="#840000"/>
    <g>
      <path d="M1066.716,430.857 L1136.125,293.332 L1515.354,295.343 L1531.449,431.863 L1066.716,430.857 z" fill="#982424"/>
      <path d="M1066.716,430.857 L1136.125,293.332 L1515.354,295.343 L1531.449,431.863 L1066.716,430.857 z" fill-opacity="0" stroke="#6F0000" stroke-width="1"/>
    </g>
    <path d="M1536.169,107.293 L1534.027,-67.672 L1792.547,-66.958 L1790.404,105.865 L1536.169,107.293 z" fill="#563300"/>
    <path d="M1786.12,105.15 L1787.548,-64.102 L1773.979,-64.102 L1774.693,101.58 L1786.12,105.15 z" fill="#855514"/>
    <path d="M1769.694,101.58 L1770.408,-62.673 L1755.411,-61.959 L1756.84,100.866 L1769.694,101.58 z" fill="#7D4D0F"/>
    <path d="M1751.126,105.15 L1752.555,-64.102 L1738.986,-64.102 L1739.7,101.58 L1751.126,105.15 z" fill="#855514"/>
    <path d="M1734.701,101.58 L1735.415,-62.673 L1720.418,-61.959 L1721.847,100.866 L1734.701,101.58 z" fill="#7D4D0F"/>
    <path d="M1715.419,104.436 L1716.848,-64.816 L1703.279,-64.816 L1703.993,100.866 L1715.419,104.436 z" fill="#855514"/>
    <path d="M1698.994,100.866 L1699.708,-63.387 L1684.711,-62.673 L1686.14,100.151 L1698.994,100.866 z" fill="#7D4D0F"/>
    <path d="M1680.426,104.436 L1681.855,-64.816 L1668.286,-64.816 L1669,100.866 L1680.426,104.436 z" fill="#855514"/>
    <path d="M1664.001,100.866 L1664.715,-63.387 L1649.718,-62.673 L1651.146,100.151 L1664.001,100.866 z" fill="#7D4D0F"/>
    <path d="M1647.576,104.436 L1649.004,-64.816 L1635.435,-64.816 L1636.149,100.866 L1647.576,104.436 z" fill="#855514"/>
    <path d="M1631.15,100.866 L1631.865,-63.387 L1616.868,-62.673 L1618.296,100.151 L1631.15,100.866 z" fill="#7D4D0F"/>
    <path d="M1614.011,105.15 L1615.439,-64.102 L1601.871,-64.102 L1602.585,101.58 L1614.011,105.15 z" fill="#855514"/>
    <path d="M1597.586,101.58 L1598.3,-62.673 L1583.303,-61.959 L1584.731,100.866 L1597.586,101.58 z" fill="#7D4D0F"/>
    <path d="M1581.875,105.865 L1583.303,-63.387 L1569.734,-63.387 L1570.448,102.294 L1581.875,105.865 z" fill="#855514"/>
    <path d="M1565.449,102.294 L1566.163,-61.959 L1551.166,-61.245 L1552.595,101.58 L1565.449,102.294 z" fill="#7D4D0F"/>
    <path d="M1549.738,102.294 L1550.452,-61.959 L1535.455,-61.245 L1536.884,101.58 L1549.738,102.294 z" fill="#7D4D0F"/>
    <g>
      <path d="M1973.613,429.59 L1975.722,182.128 L1990.485,182.128 L1986.97,430.293 L1973.613,429.59 z" fill="#563300"/>
      <path d="M1973.613,429.59 L1975.722,182.128 L1990.485,182.128 L1986.97,430.293 L1973.613,429.59 z" fill-opacity="0" stroke="#6F0000" stroke-width="1"/>
    </g>
    <g>
      <path d="M1890.262,431.59 L1889.954,182.831 L1904.717,182.831 L1903.311,428.184 L1890.262,431.59 z" fill="#563300"/>
      <path d="M1890.262,431.59 L1889.954,182.831 L1904.717,182.831 L1903.311,428.184 L1890.262,431.59 z" fill-opacity="0" stroke="#6F0000" stroke-width="1"/>
    </g>
    <g>
      <path d="M245.899,379.899 L248.038,952.028 L995.549,949.889 L984.855,380.969 L245.899,379.899 z" fill="#524533"/>
      <path d="M245.899,379.899 L248.038,952.028 L995.549,949.889 L984.855,380.969 L245.899,379.899 z" fill-opacity="0" stroke="#6F0000" stroke-width="1"/>
    </g>
    <path d="M247.46,952.851 L249.157,890.907 L247.46,833.206 L247.46,778.05 L247.46,725.44 L247.46,663.496 L247.46,610.886 L246.612,552.336 L248.309,499.726 L248.309,442.873 L249.157,381.778 L245.763,324.925 L236.429,324.925 L239.823,413.174 L238.975,494.635 L238.126,582.035 L238.126,651.616 L239.823,751.745 L237.278,822.175 L239.823,879.876 L238.975,952.003 L247.46,952.851 z" fill="#787878"/>
    <path d="M991.637,952.003 L994.183,888.361 L990.789,831.509 L993.334,766.17 L990.789,721.197 L989.092,660.102 L989.94,613.432 L988.243,548.942 L988.243,495.483 L984,386.869 L996.729,378.384 L996.729,484.452 L1001.82,576.944 L1002.668,654.162 L1003.517,735.623 L1004.366,813.689 L1003.517,874.785 L1008.608,950.305 L991.637,952.003 z" fill="#787878"/>
    <g>
      <path d="M-3.143,948.146 L271.884,952.251 L524.334,950.199 L698.792,948.146 L2036.984,944.042 L2041.089,1067.188 L-3.143,1081.555 L-3.143,948.146 z" fill="#271C11"/>
      <path d="M-3.143,948.146 L271.884,952.251 L524.334,950.199 L698.792,948.146 L2036.984,944.042 L2041.089,1067.188 L-3.143,1081.555 L-3.143,948.146 z" fill="#271C11"/>
    </g>
    <path d="M100.128,289.748 L115.541,323.01 L170.706,322.199 L195.855,307.596 L222.626,307.596 L235.606,275.146 L203.156,262.166 L157.726,271.589 L122.031,267.845 L100.128,289.748 z" fill="#E4F1F9"/>
    <path d="M1862.606,84.964 L1878.019,118.226 L1933.184,117.415 L1958.333,102.812 L1985.104,102.812 L1998.084,70.362 L1965.634,57.382 L1920.204,66.805 L1884.509,63.061 L1862.606,84.964 z" fill="#E4F1F9"/>
    <path d="M724.549,272.962 L739.962,306.224 L795.127,305.413 L820.276,290.81 L847.047,290.81 L860.027,258.36 L827.577,245.38 L782.147,254.803 L746.452,251.059 L724.549,272.962 z" fill="#E4F1F9"/>
    <path d="M1362.398,21.18 L1377.811,54.442 L1432.976,53.631 L1458.125,39.028 L1484.896,39.028 L1497.876,6.578 L1465.426,-6.402 L1419.996,3.021 L1384.301,-0.723 L1362.398,21.18 z" fill="#E4F1F9"/>
    <path d="M392.16,321.354 L403.667,327.681 L431.794,332.86 L473.344,315.463 L488.686,325.158 L514.255,320.715 L532.794,299.62 L508.503,267.114 L469.509,267.114 L439.41,252.316 L416.452,278.634 L380.014,274.05 L355.723,311.765 L369.147,327.937 L392.16,321.354 z" fill="#F3FAFD"/>
    <path d="M1218.007,213.926 L1229.514,220.253 L1257.641,225.432 L1299.191,208.035 L1314.533,217.73 L1340.103,213.287 L1358.641,192.192 L1334.35,159.686 L1295.356,159.686 L1265.258,144.888 L1242.299,171.206 L1205.862,166.622 L1181.57,204.337 L1194.994,220.509 L1218.007,213.926 z" fill="#F3FAFD"/>
    <path d="M251.021,845.442 L252.76,938.231 L351.349,939.391 L351.929,846.602 L251.021,845.442 z" fill="#2E261B"/>
    <path d="M358.308,847.762 L357.728,937.651 L448.777,938.231 L447.617,844.862 L358.308,847.762 z" fill="#2E261B"/>
    <path d="M455.156,846.602 L453.417,937.071 L543.886,939.391 L539.246,842.543 L455.156,846.602 z" fill="#2E261B"/>
    <path d="M546.786,842.543 L547.945,938.231 L640.734,938.811 L641.314,841.383 L546.786,842.543 z" fill="#2E261B"/>
    <path d="M648.853,844.282 L648.273,938.231 L754.981,938.231 L750.341,842.543 L648.853,844.282 z" fill="#2E261B"/>
    <path d="M756.721,844.282 L760.2,937.071 L866.907,937.071 L863.428,840.223 L756.721,844.282 z" fill="#2E261B"/>
    <path d="M869.227,841.963 L873.287,936.491 L988.113,935.911 L984.633,841.383 L869.227,841.963 z" fill="#2E261B"/>
    <path d="M250.441,732.356 L251.021,825.725 L351.349,824.565 L349.029,732.356 L250.441,732.356 z" fill="#2E261B"/>
    <path d="M357.148,731.776 L357.728,822.825 L451.677,825.145 L448.777,732.936 L357.148,731.776 z" fill="#2E261B"/>
    <path d="M456.896,732.936 L460.376,823.985 L541.566,823.985 L543.886,734.675 L456.896,732.936 z" fill="#2E261B"/>
    <path d="M551.425,732.356 L549.105,822.245 L641.894,822.825 L644.794,731.776 L551.425,732.356 z" fill="#2E261B"/>
    <path d="M649.433,732.356 L647.694,825.725 L752.661,825.145 L750.341,729.456 L649.433,732.356 z" fill="#2E261B"/>
    <path d="M757.3,730.036 L761.93,826.65 L864.588,823.985 L861.688,729.456 L757.3,730.036 z" fill="#2E261B"/>
    <path d="M868.647,728.876 L870.967,822.245 L985.213,823.405 L984.633,727.136 L868.647,728.876 z" fill="#2E261B"/>
    <path d="M249.398,618.559 L251.021,717.277 L350.769,716.698 L351.929,618.109 L249.398,618.559 z" fill="#2E261B"/>
    <path d="M360.628,619.849 L357.728,714.958 L448.197,716.118 L445.879,617.789 L360.628,619.849 z" fill="#2E261B"/>
    <path d="M452.837,619.849 L456.896,713.218 L544.466,714.958 L545.046,621.009 L452.837,619.849 z" fill="#2E261B"/>
    <path d="M552.005,621.009 L556.064,713.798 L647.114,713.798 L646.534,620.429 L552.005,621.009 z" fill="#2E261B"/>
    <path d="M654.653,619.849 L653.493,712.638 L752.081,714.958 L746.862,615.789 L654.653,619.849 z" fill="#2E261B"/>
    <path d="M754.981,617.529 L758.46,714.958 L861.688,713.798 L859.368,614.63 L754.981,617.529 z" fill="#2E261B"/>
    <path d="M867.487,615.21 L869.227,713.218 L984.633,714.958 L980.574,618.689 L934.759,612.89 L867.487,615.21 z" fill="#2E261B"/>
    <path d="M247.857,506.064 L248.121,603.031 L350.769,600.711 L351.929,506.762 L321.772,502.703 L247.857,506.064 z" fill="#2E261B"/>
    <path d="M360.628,505.603 L362.947,601.871 L449.937,601.291 L447.037,503.283 L360.628,505.603 z" fill="#2E261B"/>
    <path d="M455.736,504.443 L458.636,601.291 L543.306,601.291 L548.525,502.123 L455.736,504.443 z" fill="#2E261B"/>
    <path d="M555.484,505.603 L553.745,602.451 L647.114,600.711 L655.813,504.443 L629.136,504.443 L555.484,505.603 z" fill="#2E261B"/>
    <path d="M655.813,599.551 L662.772,505.603 L750.341,504.443 L749.181,600.711 L655.813,599.551 z" fill="#2E261B"/>
    <path d="M757.88,503.863 L759.04,598.392 L857.629,601.291 L855.889,502.703 L757.88,503.863 z" fill="#2E261B"/>
    <path d="M865.168,502.123 L866.328,597.812 L978.254,598.971 L976.514,500.383 L865.168,502.123 z" fill="#2E261B"/>
    <path d="M250.441,394.256 L252.181,488.785 L350.769,491.684 L350.189,393.096 L250.441,394.256 z" fill="#2E261B"/>
    <path d="M357.148,392.516 L363.527,487.045 L445.298,491.104 L449.357,393.676 L357.148,392.516 z" fill="#2E261B"/>
    <path d="M459.216,394.256 L458.056,487.045 L547.365,488.785 L547.945,391.356 L459.216,394.256 z" fill="#2E261B"/>
    <path d="M554.905,391.356 L559.544,486.465 L654.073,485.885 L652.913,388.457 L554.905,391.356 z" fill="#2E261B"/>
    <path d="M661.032,489.944 L659.872,392.516 L758.46,391.356 L750.921,487.625 L661.032,489.944 z" fill="#2E261B"/>
    <path d="M768.319,391.356 L764.84,488.785 L859.645,489.883 L865.748,389.616 L768.319,391.356 z" fill="#2E261B"/>
    <path d="M875.036,392.651 L867.043,489.453 L974.502,485.901 L976.759,389.616 L875.036,392.651 z" fill="#2E261B"/>
    <path d="M350.963,845.616 L260.94,939.042 L509.826,939.799 L404.156,846.602 L350.963,845.616 z" fill="#FFFFFF" fill-opacity="0.205"/>
    <path d="M352.19,842.682 L351.89,847.723 L404.025,848.151 L403.413,842.578 L352.19,842.682 z" fill="#FFFFFF"/>
    <path d="M599.2,846.771 L509.178,941.213 L758.063,941.978 L652.394,847.768 L599.2,846.771 z" fill="#FFFFFF" fill-opacity="0.205"/>
    <path d="M600.428,840.861 L600.127,845.902 L652.263,846.329 L651.65,840.757 L600.428,840.861 z" fill="#FFFFFF"/>
    <path d="M831.217,843.833 L741.194,943.351 L990.08,944.156 L884.41,844.884 L831.217,843.833 z" fill="#FFFFFF" fill-opacity="0.205"/>
    <path d="M832.444,839.04 L832.144,844.081 L884.279,844.508 L883.667,838.936 L832.444,839.04 z" fill="#FFFFFF"/>
    <path d="M587.793,732.688 L497.771,832.206 L746.656,833.011 L640.987,733.739 L587.793,732.688 z" fill="#FFFFFF" fill-opacity="0.205"/>
    <path d="M589.021,727.895 L588.72,732.936 L640.856,733.363 L640.243,727.791 L589.021,727.895 z" fill="#FFFFFF"/>
    <path d="M347.501,733.905 L257.478,833.423 L506.364,834.229 L400.694,734.956 L347.501,733.905 z" fill="#FFFFFF" fill-opacity="0.205"/>
    <path d="M348.728,729.112 L348.428,734.153 L400.563,734.581 L399.951,729.008 L348.728,729.112 z" fill="#FFFFFF"/>
    <path d="M350.213,621.367 L260.19,720.884 L509.076,721.69 L403.406,622.418 L350.213,621.367 z" fill="#FFFFFF" fill-opacity="0.205"/>
    <path d="M351.44,616.574 L351.139,621.614 L403.275,622.042 L402.663,616.469 L351.44,616.574 z" fill="#FFFFFF"/>
    <path d="M586.137,620.011 L496.114,719.528 L745,720.334 L639.33,621.062 L586.137,620.011 z" fill="#FFFFFF" fill-opacity="0.205"/>
    <path d="M587.365,615.218 L587.064,620.258 L639.199,620.686 L638.587,615.113 L587.365,615.218 z" fill="#FFFFFF"/>
    <path d="M814.604,617.299 L724.581,716.817 L973.467,717.622 L867.797,618.35 L814.604,617.299 z" fill="#FFFFFF" fill-opacity="0.205"/>
    <path d="M815.831,612.506 L815.531,617.547 L867.666,617.974 L867.054,612.401 L815.831,612.506 z" fill="#FFFFFF"/>
    <path d="M812.828,505.399 L722.805,604.917 L971.691,605.723 L866.021,506.45 L812.828,505.399 z" fill="#FFFFFF" fill-opacity="0.205"/>
    <path d="M814.055,500.606 L813.754,505.647 L865.89,506.075 L865.278,500.502 L814.055,500.606 z" fill="#FFFFFF"/>
    <path d="M585.476,507.176 L495.453,606.693 L744.339,607.499 L638.669,508.227 L585.476,507.176 z" fill="#FFFFFF" fill-opacity="0.205"/>
    <path d="M586.703,502.383 L586.403,507.423 L638.538,507.851 L637.926,502.278 L586.703,502.383 z" fill="#FFFFFF"/>
    <path d="M348.355,508.064 L258.333,607.581 L507.218,608.387 L401.548,509.115 L348.355,508.064 z" fill="#FFFFFF" fill-opacity="0.205"/>
    <path d="M349.583,503.271 L349.282,508.311 L401.417,508.739 L400.805,503.166 L349.583,503.271 z" fill="#FFFFFF"/>
    <path d="M349.243,394.388 L259.221,493.905 L508.106,494.711 L402.437,395.439 L349.243,394.388 z" fill="#FFFFFF" fill-opacity="0.205"/>
    <path d="M350.471,389.595 L350.17,394.635 L402.306,395.063 L401.693,389.49 L350.471,389.595 z" fill="#FFFFFF"/>
    <path d="M585.476,394.388 L495.453,493.905 L744.339,494.711 L638.669,395.439 L585.476,394.388 z" fill="#FFFFFF" fill-opacity="0.205"/>
    <path d="M586.703,389.595 L586.403,394.635 L638.538,395.063 L637.926,389.49 L586.703,389.595 z" fill="#FFFFFF"/>
    <path d="M824.346,391.301 L734.323,490.818 L983.209,491.624 L877.539,392.352 L824.346,391.301 z" fill="#FFFFFF" fill-opacity="0.205"/>
    <path d="M825.573,386.508 L825.273,391.548 L877.408,391.976 L876.796,386.403 L825.573,386.508 z" fill="#FFFFFF"/>
    <path d="M813.214,729.992 L723.192,829.509 L972.077,830.315 L866.408,731.043 L813.214,729.992 z" fill="#FFFFFF" fill-opacity="0.205"/>
    <path d="M814.442,725.199 L814.141,730.239 L866.277,730.667 L865.664,725.094 L814.442,725.199 z" fill="#FFFFFF"/>
    <path d="M1566.325,323.408 L1785.24,249.656 L1785.825,256.095 L1567.496,326.92 L1566.325,323.408 z" fill="#7A4B07"/>
    <path d="M1552.863,133.175 L1783.484,229.169 L1782.313,222.731 L1554.353,124.982 L1552.863,133.175 z" fill="#7A4B07"/>
    <path d="M1550.025,254.761 L1550.025,258.854 L1795.875,369.503 L1796.66,362.728 L1550.025,254.761 z" fill="#6E4011"/>
    <path d="M1550.025,240.922 L1774.657,140.63 L1775.169,144.724 L1551.048,243.48 L1550.025,240.922 z" fill="#4A2907"/>
    <path d="M1648.27,390.523 L1773.634,356.239 L1779.774,358.798 L1651.851,393.593 L1648.27,390.523 z" fill="#4A2907"/>
    <path d="M1535.701,119.354 L1531.493,293.947 L1535.303,298.239 L1543.497,119.712 L1535.701,119.354 z" fill="#7A4B07"/>
    <path d="M1772.363,118.541 L1800.844,427.132 L1806.897,427.597 L1781.728,119.127 L1772.363,118.541 z" fill="#7A4B07"/>
  </g>
  <g id="Layer_3">
    <path d="M249.398,941.946 L364.975,941.946 L486.716,940.405 L603.064,942.716 L710.166,941.175 L822.661,942.716 L915.122,938.864 L995.256,938.864 L992.944,953.503 L915.122,950.421 L821.89,955.044 L707.854,955.044 L599.211,955.815 L485.946,951.962 L363.434,955.044 L247.086,954.274 L249.398,941.946 z" fill="#A4A4A4"/>
    <path d="M248.627,829.68 L347.253,828.139 L435.092,828.91 L544.505,828.139 L644.672,828.139 L749.462,826.598 L848.088,828.139 L933.615,826.598 L989.092,826.598 L989.092,838.156 L914.352,838.156 L814.185,840.467 L712.477,839.697 L628.491,840.467 L528.324,839.697 L428.157,842.008 L339.548,842.008 L249.398,842.008 L248.627,829.68 z" fill="#B5B0B0"/>
    <path d="M247.086,718.726 L321.056,721.038 L390.402,718.726 L465.912,719.497 L528.324,718.726 L601.523,717.185 L672.41,718.726 L747.15,717.185 L810.332,717.956 L883.531,717.185 L941.32,718.726 L990.633,716.414 L989.092,724.89 L940.549,727.972 L885.072,725.661 L819.579,726.431 L755.626,726.431 L684.739,728.743 L617.704,727.972 L547.587,730.284 L487.487,731.054 L426.616,729.513 L366.516,729.513 L296.399,729.513 L247.857,730.284 L247.086,718.726 z" fill="#A4A4A4"/>
    <path d="M247.086,605.46 L319.515,606.231 L388.09,605.46 L461.289,605.46 L532.177,607.001 L604.605,606.231 L664.705,606.231 L740.216,604.69 L818.038,603.919 L888.925,603.919 L943.631,603.919 L989.092,604.69 L989.092,616.248 L932.074,611.624 L875.826,613.166 L821.89,612.395 L771.036,614.707 L712.477,613.166 L655.459,616.248 L586.113,616.248 L522.16,616.248 L445.879,617.789 L375.762,616.248 L308.727,618.559 L249.398,618.559 L247.086,605.46 z" fill="#A4A4A4"/>
    <path d="M247.857,494.506 L304.104,492.965 L364.204,493.736 L415.829,492.195 L470.535,493.736 L533.718,492.965 L597.67,489.883 L651.606,492.195 L704.772,489.113 L758.708,490.654 L811.103,490.654 L859.645,489.883 L912.04,489.113 L988.321,489.113 L989.092,499.129 L941.32,498.359 L883.531,499.9 L818.808,499.129 L754.085,500.67 L690.132,501.441 L631.573,499.9 L571.473,501.441 L513.684,501.441 L451.273,501.441 L377.303,502.982 L327.22,502.211 L247.857,506.064 L247.857,494.506 z" fill="#A4A4A4"/>
    <path d="M246.041,381.085 L343.928,380.371 L428.954,379.656 L508.979,377.513 L593.29,378.942 L675.458,376.798 L746.194,377.513 L825.504,377.513 L901.956,378.227 L984.839,376.084 L984.839,386.087 L903.385,388.23 L826.219,386.801 L749.767,387.516 L673.315,387.516 L591.147,388.945 L506.835,389.659 L429.668,389.659 L343.213,390.374 L246.755,392.517 L246.041,381.085 z" fill="#A4A4A4"/>
    <path d="M894.674,939.828 L761.061,839.797 L780.353,839.797 L911.822,938.399 L894.674,939.828 z" fill="#A4A4A4"/>
    <g>
      <path d="M448.823,826.936 L304.493,729.049 L323.784,729.049 L463.827,826.936 L448.823,826.936 z" fill="#A4A4A4"/>
      <path d="M448.823,826.936 L304.493,729.049 L323.784,729.049 L463.827,826.936 L448.823,826.936 z" fill="#A4A4A4"/>
    </g>
    <g>
      <path d="M913.965,717.617 L777.495,613.299 L796.787,612.585 L930.399,717.617 L913.965,717.617 z" fill="#A4A4A4"/>
      <path d="M913.965,717.617 L777.495,613.299 L796.787,612.585 L930.399,717.617 L913.965,717.617 z" fill="#A4A4A4"/>
    </g>
    <g>
      <path d="M435.676,605.44 L297.777,500.408 L317.783,502.551 L449.966,604.011 L435.676,605.44 z" fill="#A4A4A4"/>
      <path d="M435.676,605.44 L297.777,500.408 L317.783,502.551 L449.966,604.011 L435.676,605.44 z" fill="#A4A4A4"/>
    </g>
    <g>
      <path d="M758.77,489.69 L889.524,386.801 L904.529,388.23 L778.061,490.404 L758.77,489.69 z" fill="#A4A4A4"/>
      <path d="M758.77,489.69 L889.524,386.801 L904.529,388.23 L778.061,490.404 L758.77,489.69 z" fill="#A4A4A4"/>
    </g>
    <path d="M984.839,378.227 L1047.715,341.787 L1134.17,287.485 L1139.172,297.488 L1072.008,336.786 L984.124,386.801 L984.839,378.227 z" fill="#A4A4A4"/>
    <path d="M1520.717,285.342 L1404.968,287.485 L1294.934,286.056 L1217.053,286.771 L1133.456,287.485 L1137.743,297.488 L1222.769,296.774 L1309.938,296.059 L1422.116,297.488 L1511.429,298.917 L1520.717,285.342 z" fill="#A4A4A4"/>
    <path d="M1520.809,284.398 L1581.866,337.264 L1669.728,415.446 L1788.863,413.957 L1790.352,428.104 L1715.893,427.359 L1657.814,431.082 L1589.312,362.58 L1509.641,297.056 L1520.809,284.398 z" fill="#A4A4A4"/>
    <path d="M1788.118,414.957 L1893.85,339.753 L1992.136,340.498 L1992.136,352.411 L1899.807,351.666 L1790.352,427.615 L1788.118,414.957 z" fill="#76510C"/>
    <path d="M1676.429,254.869 L1789.607,254.869 L1894.595,340.498 L1882.681,347.943 L1785.884,266.038 L1676.429,266.783 L1676.429,254.869 z" fill="#76510C"/>
    <path d="M1992.881,181.9 L1893.85,181.9 L1788.863,255.614 L1801.521,263.805 L1900.551,192.324 L1992.881,195.302 L1992.881,181.9 z" fill="#76510C"/>
    <path d="M1534.806,104.187 L1627.2,104.654 L1705.468,104.462 L1791.096,105.207 L1895.339,181.9 L1883.426,187.856 L1786.629,118.609 L1705.468,117.12 L1626.542,119.354 L1535.701,119.354 L1534.806,104.187 z" fill="#76510C"/>
    <path d="M1897.736,344.486 L1794.886,417.657 L1793.862,424.309 L1900.591,351.775 L1992.92,352.52 L1992.91,345.509 L1897.736,344.486 z" fill="#48320C"/>
    <path d="M1887.229,341.818 L1786.938,261.483 L1675.389,261.483 L1676.429,266.783 L1785.884,266.038 L1882.681,347.943 L1887.229,341.818 z" fill="#48320C"/>
    <path d="M1797.684,259.948 L1900.022,185.753 L1991.103,188.823 L1992.881,195.302 L1900.551,192.324 L1801.521,263.805 L1797.684,259.948 z" fill="#48320C"/>
    <path d="M1536.209,114.116 L1653.898,113.092 L1705.067,112.581 L1789.496,114.627 L1889.954,182.831 L1883.426,187.856 L1786.629,118.609 L1705.468,117.12 L1654.922,117.698 L1535.701,119.354 L1536.209,114.116 z" fill="#48320C"/>
  </g>
  <g id="Surfaces">
    <path d="M245.033,293.019 L249.108,943.225 L996.295,940.352" fill-opacity="0" stroke="#000000" stroke-width="1"/>
    <path d="M247.922,829.475 L989.279,826.65" fill-opacity="0" stroke="#000000" stroke-width="1"/>
    <path d="M247.922,719.33 L989.279,716.506" fill-opacity="0" stroke="#000000" stroke-width="1"/>
    <path d="M247.547,493.036 L988.904,490.212" fill-opacity="0" stroke="#000000" stroke-width="1"/>
    <path d="M247.922,606.361 L989.279,603.537" fill-opacity="0" stroke="#000000" stroke-width="1"/>
    <path d="M245.435,380.424 L986.792,377.6" fill-opacity="0" stroke="#000000" stroke-width="1"/>
    <path d="M914.438,940.352 L761.93,826.65" fill-opacity="0" stroke="#000000" stroke-width="1"/>
    <path d="M466.799,828.65 L307.23,718.506" fill-opacity="0" stroke="#000000" stroke-width="1"/>
    <path d="M929.971,716.506 L783.111,603.537" fill-opacity="0" stroke="#000000" stroke-width="1"/>
    <path d="M452.508,604.648 L302.415,491.989" fill-opacity="0" stroke="#000000" stroke-width="1"/>
    <path d="M761.93,489.156 L903.141,377.6" fill-opacity="0" stroke="#000000" stroke-width="1"/>
    <path d="M986.268,378.942 L1134.727,287.225 L1521.645,285.812" fill-opacity="0" stroke="#000000" stroke-width="1"/>
    <path d="M1521.645,285.812 L1669.916,414.314" fill-opacity="0" stroke="#000000" stroke-width="1"/>
    <path d="M1669.916,414.314 L1789.945,414.314 L1894.442,339.473 L1993.289,339.473" fill-opacity="0" stroke="#000000" stroke-width="1"/>
    <path d="M1894.442,339.473 L1789.945,254.746 L1676.977,254.746" fill-opacity="0" stroke="#000000" stroke-width="1"/>
    <path d="M1789.945,254.746 L1894.442,181.316 L1993.289,181.316" fill-opacity="0" stroke="#000000" stroke-width="1"/>
    <path d="M1894.442,181.316 L1789.945,106.475" fill-opacity="0" stroke="#000000" stroke-width="1"/>
    <path d="M1789.945,106.475 L1534.354,106.475" fill-opacity="0" stroke="#000000" stroke-width="1"/>
    <path d="M996.295,940.352 L983.697,401.614" fill-opacity="0" stroke="#000000" stroke-width="1"/>
  </g>
  <g id="Layer_2">
    <path d="M299.123,929.402 L297.777,876.57 L330.754,876.57 L329.408,929.402 L299.123,929.402 z" fill="#000000" fill-opacity="0.475" id="Pivot_l0_t0"/>
    <g id="EndSign">
      <path d="M1605.821,85.26 L1608.217,104.833 L1604.863,106 L1601.27,85.26 L1605.821,85.26 z" fill="#000000"/>
      <path d="M1615.405,67.29 L1619,94.786 L1586.892,94.552 L1583.54,65.893 L1615.405,67.29 z" fill="#FFFFFF"/>
      <path d="M1613.531,69.184 L1616.604,92.689 L1589.158,92.489 L1586.291,67.989 L1613.531,69.184 z" fill="#000000"/>
      <path d="M1608.936,80.572 L1601.03,79.873 L1600.071,75.444 L1594.32,82.437 L1600.311,85.465 L1600.549,82.902 L1609.895,83.135 L1608.936,80.572 z" fill="#FFFFFF"/>
    </g>
    <path d="M1542.244,103.125 L1540.898,50.293 L1573.875,50.293 L1572.529,103.125 L1542.244,103.125 z" fill="#484848" id="Pivot_e"/>
    <path d="M641.061,929.402 L639.715,876.57 L672.691,876.57 L671.345,929.402 L641.061,929.402 z" fill="#484848" id="Pivot_l5_t2_s1_c1"/>
    <path d="M608.085,818.158 L606.739,765.326 L639.715,765.326 L638.369,818.158 L608.085,818.158 z" fill="#484848" id="Pivot_l5_t2_s1_c1"/>
    <path d="M568.497,590.78 L567.151,537.948 L600.127,537.948 L598.781,590.78 L568.497,590.78 z" fill="#484848" id="Pivot_l5_t2_s1_c1"/>
    <path d="M1302.577,281.842 L1301.231,229.01 L1334.207,229.01 L1332.861,281.842 L1302.577,281.842 z" fill="#484848" id="Pivot_l5_t2_s1_c3"/>
    <path d="M1140.518,281.842 L1139.172,229.01 L1172.148,229.01 L1170.802,281.842 L1140.518,281.842 z" fill="#484848" id="Pivot_l5_t2_s1_c1"/>
    <path d="M1041.104,318.546 L1039.758,265.714 L1072.734,265.714 L1071.388,318.546 L1041.104,318.546 z" fill="#484848" id="Pivot_l5_t2_s1_c1"/>
    <path d="M1478.011,278.264 L1476.665,225.432 L1509.641,225.432 L1508.295,278.264 L1478.011,278.264 z" fill="#484848" id="Pivot_l5_t2_s1_c1"/>
    <path d="M1915.203,327.822 L1913.857,274.99 L1946.833,274.99 L1945.487,327.822 L1915.203,327.822 z" fill="#484848" id="Pivot_l5_t5_s1_c3"/>
    <path d="M1937.203,165.413 L1935.857,112.581 L1968.833,112.581 L1967.487,165.413 L1937.203,165.413 z" fill="#484848" id="Pivot_l5_t5_s1_c1"/>
    <path d="M1667.124,96.479 L1665.778,43.647 L1698.754,43.647 L1697.408,96.479 L1667.124,96.479 z" fill="#484848" id="Pivot_l5_t1_s2_c3"/>
    <path d="M926.909,818.158 L925.563,765.326 L958.539,765.326 L957.193,818.158 L926.909,818.158 z" fill="#484848" id="Pivot_l5_t0_s1_c1"/>
    <path d="M299.123,376.084 L297.777,323.252 L330.754,323.252 L329.407,376.084 L299.123,376.084 z" fill="#484848" id="Pivot_l5_t0_s1_c1"/>
    <path d="M913.168,590.78 L911.822,537.948 L944.798,537.948 L943.452,590.78 L913.168,590.78 z" fill="#484848" id="Pivot_l5_t0_s1_c1"/>
    <path d="M583.37,706.233 L582.024,653.401 L615,653.401 L613.654,706.233 L583.37,706.233 z" fill="#484848" id="Pivot_l5_t3_s1_c2"/>
    <path d="M540.416,483.914 L539.07,431.082 L572.046,431.082 L570.7,483.914 L540.416,483.914 z" fill="#484848" id="Pivot_l5_t3_s1_c2"/>
    <path d="M926.909,929.402 L925.563,876.57 L958.539,876.57 L957.193,929.402 L926.909,929.402 z" fill="#484848" id="Pivot_l5_t3_s1_c1"/>
    <path d="M931.745,706.233 L930.399,653.401 L963.375,653.401 L962.029,706.233 L931.745,706.233 z" fill="#484848" id="Pivot_l5_t3_s1_c1"/>
    <g id="Faucet">
      <path d="M194.445,952.769 L194.699,942.098 L192.668,942.098 L192.668,936.258 L194.445,936.004 L194.191,931.941 L197.746,929.402 L199.524,929.402 L202.825,931.434 L202.825,935.496 L204.348,935.75 L204.856,941.591 L203.078,941.591 L203.586,952.496 L194.445,952.769 z" fill="#FF0000"/>
      <path d="M199.72,950.954 L199.17,941.336 L199.033,930.207 L201.643,931.581 L202.193,936.115 L203.567,936.665 L203.842,940.649 L202.33,940.649 L202.88,950.954 L199.72,950.954 z" fill="#810606"/>
      <path d="M204.348,935.75 L204.856,940.924 L206.864,940.924 L206.452,935.841 L204.348,935.75 z" fill="#C3C3C3"/>
      <path d="M190.652,936.528 L192.668,936.258 L193.4,940.924 L190.377,941.749 L190.652,936.528 z" fill="#C3C3C3"/>
    </g>
    <path d="M946.144,489.113 L944.798,436.281 L977.775,436.281 L976.429,489.113 L946.144,489.113 z" fill="#484848" id="Pivot_g"/>
  </g>
</svg>
