<?xml version="1.0" encoding="UTF-8"?>
<svg version="1.1" xmlns="http://www.w3.org/2000/svg" xmlns:xlink="http://www.w3.org/1999/xlink" x="0" y="0" width="2500" height="1000" viewBox="0, 0, 2500, 1000">
  <g id="Background">
    <path d="M0,0 L2500,0 L2500,1000 L0,1000 z" fill="#FFFFFF"/>
  </g>
  <g id="Layer_2">
    <path d="M1.393,-2.675 L2679.75,-2.675 L2679.75,998.804 L1.393,998.804 L1.393,-2.675 z" fill="#6DD0FF"/>
    <path d="M1773.352,185.046 L1788.765,218.308 L1843.93,217.497 L1869.079,202.894 L1895.85,202.894 L1908.83,170.444 L1876.38,157.464 L1830.95,166.887 L1795.255,163.143 L1773.352,185.046 z" fill="#E4F1F9"/>
    <path d="M1872.226,195.214 L1887.639,228.476 L1942.804,227.665 L1967.953,213.062 L1994.724,213.062 L2007.704,180.612 L1975.254,167.632 L1929.824,177.055 L1894.129,173.311 L1872.226,195.214 z" fill="#E4F1F9"/>
    <path d="M1080.789,176.002 L1096.202,209.264 L1151.367,208.453 L1176.516,193.85 L1203.287,193.85 L1216.267,161.4 L1183.817,148.42 L1138.387,157.843 L1102.692,154.099 L1080.789,176.002 z" fill="#E4F1F9"/>
    <path d="M1179.662,186.169 L1195.075,219.431 L1250.24,218.62 L1275.389,204.017 L1302.16,204.017 L1315.14,171.567 L1282.69,158.587 L1237.26,168.01 L1201.565,164.266 L1179.662,186.169 z" fill="#E4F1F9"/>
    <path d="M38.407,385.74 L53.82,419.002 L108.985,418.191 L134.134,403.588 L160.905,403.588 L173.885,371.138 L141.435,358.158 L96.005,367.581 L60.31,363.837 L38.407,385.74 z" fill="#E4F1F9"/>
    <path d="M137.28,395.907 L152.693,429.169 L207.858,428.358 L233.007,413.755 L259.778,413.755 L272.758,381.305 L240.308,368.325 L194.878,377.748 L159.183,374.004 L137.28,395.907 z" fill="#E4F1F9"/>
    <path d="M2048.413,239.886 L2059.92,246.213 L2088.047,251.392 L2129.597,233.995 L2144.939,243.69 L2170.509,239.247 L2189.047,218.152 L2164.756,185.646 L2125.762,185.646 L2095.664,170.848 L2072.705,197.166 L2036.268,192.582 L2011.976,230.297 L2025.4,246.469 L2048.413,239.886 z" fill="#F3FAFD"/>
    <path d="M2416.342,211.305 L2427.849,217.632 L2455.976,222.811 L2497.526,205.414 L2512.868,215.109 L2538.438,210.666 L2556.976,189.571 L2532.685,157.065 L2493.691,157.065 L2463.593,142.267 L2440.634,168.585 L2404.197,164.001 L2379.905,201.716 L2393.329,217.888 L2416.342,211.305 z" fill="#F3FAFD"/>
    <path d="M-90.451,228.02 L2746.07,228.02 L2746.07,1019.508 L-90.451,1019.508 L-90.451,228.02 z" fill="#A4E2FF"/>
    <path d="M-81.468,374.393 L468.965,374.298 L612.038,326.165 L2742.628,326.165 L2742.628,1010.01 L-66.354,1010.01 L-81.468,374.393 z" fill="#C0EBFF"/>
  </g>
  <g id="Background">
    <path d="M161.317,487.227 L179.282,484.578 L215.979,483.701 L259.551,488.401 L286.512,483.701 L355.281,486.052 L452.85,570.691 L511.627,611.835 L585.686,650.627 L659.158,673.55 L717.347,703.527 L770.834,742.907 L838.318,764.707 L857.824,779.349 L930.119,779.937 L908.96,798.158 L866.64,824.607 L764.368,874.568 L623.304,882.796 L470.377,893.808 L362.669,891.632 L360.063,990.398 L202.03,995.223 L192.379,693.635 L168.252,597.126 L157.395,529.571 L161.317,487.227 z" fill="#009202"/>
    <path d="M2746.07,228.02 L2536.656,238.978 L2497.503,255.136 L2487.249,271.606 L2486.302,356.325 L2374.489,354.267 L2280.912,355.867 L2247.604,352.139 L2156.941,383.583 L2097.722,379.915 L2033.786,380.439 L2009.837,376.831 L1960.19,356.666 L1897.005,330.273 L1873.952,325.268 L1842.708,320.686 L1773.835,312.677 L1690.236,306.105 L1640.662,313.187 L1604.419,308.605 L1557.344,304.855 L1487.358,326.935 L1399.527,339.911 L1327.79,355.589 L1266.505,368.891 L1212.821,371.266 L1168.667,376.509 L1133.257,376.925 L1103.078,377.917 L1030.866,365.09 L957.705,352.263 L955.329,381.718 L984.619,413.644 L1013.372,450.448 L1020.593,484.944 L953.751,482.916 L899.967,517.733 L865.404,527.156 L773.157,526.521 L715.001,516.899 L646.255,501.588 L559.613,487.322 L473.859,487.709 L422.724,484.787 L361.124,487.122 L444.639,564.411 L508.192,613.354 L558.596,635.999 L604.617,655.723 L663.057,677.638 L720.035,706.857 L774.092,745.574 L810.617,760.914 L848.831,774.49 L865.702,780.564 L938.584,778.764 L1106.812,778.872 L1120.56,682.688 L1135.892,634.858 L1266.812,642.841 L2744.963,641.041 L2746.07,228.02 z" fill="#00C002"/>
    <path d="M461.539,568.886 L437.781,542.918 L430.046,520.265 L426.179,499.27 L430.046,488.219 L406.841,486.009 L358.16,484.944 L444.639,564.411 L461.539,568.886 z" fill="#00AE02"/>
    <path d="M431.151,543.47 L411.813,523.58 L401.868,502.032 L401.316,484.352 L355.281,486.052 L399.106,521.922 L425.626,547.338 L431.151,543.47 z" fill="#007C02"/>
    <path d="M862.51,823.396 L882.116,804.63 L886.878,792.586 L885.197,778.021 L930.119,779.937 L908.96,798.158 L862.51,823.396 z" fill="#017802"/>
    <path d="M880.996,810.792 L899.482,795.107 L905.644,782.783 L930.119,779.937 L902.283,801.549 L880.996,810.792 z" fill="#005B01"/>
    <path d="M358.16,884.233 L420.136,889.165 L496.936,892.489 L530.368,883.401 L623.304,882.796 L764.368,874.568 L827.201,845.216 L872.591,817.839 L930.119,779.937 L1103.375,779.937 L1106.812,674.209 L1111.177,654.705 L1135.892,634.858 L1276.26,640.776 L1511.126,645.073 L2657.342,643.71 L2650.06,1005.289 L356.846,1001.668 L346.822,971.594 L352.55,920.038 L358.16,884.233 z" fill="#7A6302"/>
    <path d="M2251.864,364.005 L2251.864,355.839 L2293.436,355.839 L2359.135,355.839 L2429.289,357.323 L2491.648,359.922 L2492.39,367.345 L2468.263,361.035 L2435.228,363.262 L2406.276,360.293 L2356.537,362.891 L2312.366,361.778 L2277.104,366.232 L2251.864,364.005 z" fill="#8D6637"/>
    <path d="M2514.661,250.794 L2500.556,257.475 L2491.839,273.301 L2489.792,365.49 L2493.875,366.974 L2499.443,361.035 L2492.39,332.825 L2498.7,300.161 L2494.246,282.344 L2500.927,261.929 L2514.661,250.794 z" fill="#8D6637"/>
    <path d="M2009.11,378.852 L2081.862,379.594 L2101.163,377.367 L2155.727,381.45 L2179.854,371.8 L2256.033,354.089 L2254.462,363.262 L2237.387,362.891 L2213.26,373.284 L2190.99,376.254 L2171.317,380.337 L2155.356,389.616 L2123.063,384.049 L2105.246,386.276 L2086.316,384.791 L2062.931,389.616 L2042.887,384.049 L2022.101,388.503 L2005.769,387.761 L2009.11,378.852 z" fill="#8D6637"/>
    <path d="M1718.156,308.694 L1781.954,313.687 L1873.356,321.087 L1947.784,351.989 L2011.738,380.695 L2005.769,387.761 L1973.464,370.705 L1940.82,358.518 L1913.834,345.025 L1874.227,328.051 L1843.76,327.18 L1818.08,324.569 L1782.39,326.745 L1758.016,317.169 L1725.807,320.216 L1715.797,318.91 L1718.156,308.694 z" fill="#8D6637"/>
    <path d="M1266.505,368.891 L1292.175,361.925 L1399.527,339.911 L1487.358,326.935 L1555.607,307.697 L1604.98,305.463 L1719.585,309.119 L1715.797,318.91 L1692.892,314.102 L1653.255,316.643 L1616.159,316.643 L1598.882,313.594 L1572.457,320.2 L1544,317.659 L1507.92,326.806 L1460.153,335.445 L1429.912,342.304 L1397.14,347.641 L1365.557,354.469 L1330.062,361.869 L1288.644,368.596 L1264.509,378.639 L1266.505,368.891 z" fill="#8D6637"/>
    <path d="M957.705,352.263 L1039.069,367.418 L1109.016,376.895 L1133.257,376.925 L1210.946,372.912 L1241.947,367.811 L1269.808,368.596 L1264.509,378.639 L1241.162,372.912 L1214.085,379.976 L1173.274,378.798 L1147.375,382.33 L1128.539,381.545 L1108.526,390.571 L1062.614,375.659 L1045.348,376.444 L1015.525,369.381 L978.638,364.672 L957.055,361.925 L957.705,352.263 z" fill="#8D6637"/>
    <path d="M955.329,381.718 L981.777,410.191 L1008.069,444.331 L1014.74,457.673 L1020.234,480.041 L1021.611,492.737 L1026.905,498.092 L1022.98,472.585 L1021.803,452.964 L1005.714,430.204 L997.081,412.546 L979.815,403.913 L973.144,394.103 L955.329,381.718 z" fill="#8D6637"/>
    <path d="M766.343,528.308 L871.509,529.877 L953.523,487.497 L1019.841,489.066 L1026.905,498.092 L1011.6,497.307 L984.524,493.383 L969.612,498.877 L953.916,495.345 L940.181,502.016 L924.485,516.143 L908.004,517.713 L892.307,526.738 L872.294,539.295 L846.787,536.548 L812.647,539.295 L786.356,535.371 L763.203,537.726 L766.343,528.308 z" fill="#8D6637"/>
    <path d="M552.412,484.171 L592.218,492.766 L715.001,516.899 L766.343,528.308 L763.203,537.726 L746.015,530.763 L721.588,526.691 L702.59,518.549 L678.616,516.74 L631.12,511.312 L616.645,501.812 L597.194,500.908 L568.244,494.123 L551.959,492.766 L552.412,484.171 z" fill="#8D6637"/>
    <path d="M358.16,484.944 L380.521,484.623 L422.724,484.787 L465.109,487.79 L511.701,484.171 L554.673,485.528 L554.673,492.766 L537.484,490.956 L503.559,495.932 L471.895,494.123 L455.61,494.575 L426.208,490.956 L396.353,495.48 L372.831,492.766 L363.332,492.766 L358.16,484.944 z" fill="#8D6637"/>
    <path d="M161.317,487.227 L189.18,486.885 L215.979,483.701 L259.381,486.037 L286.512,483.701 L356.662,486.145 L353.508,493.49 L324.546,489.87 L286.852,488.379 L273.316,493.218 L249.794,498.646 L217.677,491.409 L199.131,493.67 L175.157,498.646 L159.777,497.741 L161.317,487.227 z" fill="#8D6637"/>
    <path d="M593.575,654.705 L546.079,629.373 L507.63,610.375 L436.159,557.451 L358.809,491.409 L349.309,492.766 L371.927,511.312 L394.996,526.239 L410.828,547.952 L432.088,565.593 L458.777,590.02 L489.084,606.756 L508.534,621.231 L551.055,641.134 L575.934,656.966 L595.837,664.204 L593.575,654.705 z" fill="#8D6637"/>
    <path d="M866.791,779.099 L777.227,748.792 L697.162,692.249 L628.858,665.561 L593.575,654.705 L593.575,663.299 L625.691,667.823 L649.666,682.75 L682.234,693.154 L712.994,718.485 L723.85,720.747 L749.634,737.936 L780.393,761.005 L812.962,769.148 L835.127,772.766 L859.553,789.051 L886.694,784.075 L925.143,783.17 L925.595,778.647 L866.791,779.099 z" fill="#8D6637"/>
    <path d="M1104.464,678.567 L1113.619,690.827 L1107.976,706.888 L1111.014,722.949 L1111.014,742.048 L1107.541,758.977 L1108.844,775.907 L1106.812,784.109 L1085.635,784.109 L1053.504,784.109 L997.623,789.051 L940.575,784.057 L936.872,776.462 L1101.882,775.853 L1104.464,678.567 z" fill="#554400"/>
    <path d="M761.3,876.974 L871.122,824.884 L934.932,778.872 L940.575,784.081 L929.289,791.46 L924.948,802.746 L907.585,806.219 L894.996,823.582 L885.013,827.489 L857.665,840.077 L828.582,857.44 L811.219,861.347 L790.817,872.633 L779.965,874.804 L763.47,886.09 L761.3,876.974 z" fill="#554400"/>
    <path d="M357.916,887.834 L387.161,886.75 L496.021,886.75 L621.858,881.727 L717.75,875.8 L761.3,876.974 L763.47,886.09 L741.902,881.876 L711.573,887.292 L682.327,884.043 L656.872,888.375 L636.834,889.458 L592.423,887.834 L560.47,890.542 L534.473,893.25 L516.601,893.25 L491.688,897.041 L458.651,895.416 L431.03,899.207 L413.158,894.333 L391.494,898.665 L368.206,893.25 L356.291,901.373 L357.916,887.834 z" fill="#554400"/>
  </g>
  <g id="Gfx">
    <g id="Panel">
      <path d="M1589.494,81.965 L1588.752,67.375 L1579.663,67.334 L1579.811,63.466 L1589.823,62.105 L1588.461,52.327 L1578.543,51.269 L1578.728,46.429 L1588.685,46.521 L1593.292,27.875 L1599.773,28.252 L1594.3,46.844 L1604.128,50.323 L1604.034,52.742 L1593.233,52.117 L1594.703,58.992 L1604.567,61.5 L1603.965,65.83 L1594.479,64.798 L1595.599,80.866 L1589.494,81.965 z" fill="#000000"/>
      <path d="M1570.694,307.289 L1553.825,76.168 L1723.97,77.619 L1715.126,309.311 z" fill="#C0A496"/>
      <path d="M1571.853,94.591 L1613.667,92.815 L1617.505,132.593 L1575.13,134.936 L1571.853,94.591 z" fill="#FCFAFA"/>
      <path d="M1627.019,95.016 L1630.525,129.381 L1662.612,130.037 L1667.764,93.178 L1627.019,95.016 z" fill="#FFFFFF"/>
      <path d="M1665.806,143.56 L1628.058,143.923 L1630.655,179.026 L1667.051,178.804 L1665.806,143.56 z" fill="#FFFFFF"/>
      <path d="M1677.22,96.49 L1677.1,127.645 L1711.79,130.253 L1716.899,94.588 L1677.22,96.49 z" fill="#FCFAFA"/>
      <path d="M1576.855,145.825 L1616.975,146.347 L1621.507,181.971 L1580.201,184.375 L1576.855,145.825 z" fill="#FFFFFF"/>
      <path d="M1627.895,309.33 L1627.354,255.536 L1661.384,256.498 L1667.488,309.33 L1627.895,309.33 z" fill="#FCFAFA"/>
      <path d="M1583.506,195.954 L1584.023,238.535 L1621.703,232.924 L1621.049,193.93 L1583.506,195.954 z" fill="#FFFFFF"/>
      <path d="M1679.153,145.287 L1677.137,183.98 L1714.016,181.737 L1713.362,142.743 L1679.153,145.287 z" fill="#FFFFFF"/>
      <path d="M1633.867,194.672 L1635.54,234.921 L1662.265,235.868 L1663.908,192.81 L1633.867,194.672 z" fill="#FCFAFA"/>
      <path d="M1676.051,197.109 L1674.686,232.99 L1707.216,236.069 L1708.768,195.405 L1676.051,197.109 z" fill="#FFFFFF"/>
      <path d="M1624.339,309.33 L1620.308,250.079 L1627.354,255.536 L1627.895,309.33 L1624.339,309.33 z" fill="#815E13"/>
      <path d="M1661.384,256.498 L1627.354,255.536 L1620.308,250.079 L1663.031,250.079 L1661.384,256.498 z" fill="#7C5314"/>
      <path d="M1667.488,309.33 L1661.384,256.498 L1663.031,250.079 L1671.092,310.739 L1667.488,309.33 z" fill="#8D6637"/>
      <path d="M1584.023,238.535 L1582.422,242.824 L1620.308,240.003 L1621.703,232.924 L1584.023,238.535 z" fill="#8D6637"/>
      <path d="M1635.54,234.921 L1635.624,238.794 L1663.031,241.212 L1662.265,235.868 L1635.54,234.921 z" fill="#8D6637"/>
      <path d="M1674.686,232.99 L1674.316,239.197 L1708.978,241.212 L1707.216,236.069 L1674.686,232.99 z" fill="#8D6637"/>
      <path d="M1580.201,184.375 L1579.198,187.607 L1624.742,185.995 L1621.507,181.971 L1580.201,184.375 z" fill="#8D6637"/>
      <path d="M1630.655,179.026 L1630.787,181.971 L1667.867,184.786 L1667.051,178.804 L1630.655,179.026 z" fill="#8D6637"/>
      <path d="M1677.137,183.98 L1676.734,187.607 L1715.83,187.607 L1714.016,181.737 L1677.137,183.98 z" fill="#8D6637"/>
      <path d="M1677.1,127.645 L1676.734,131.987 L1714.016,134.002 L1711.79,130.253 L1677.1,127.645 z" fill="#8D6637"/>
      <path d="M1630.525,129.381 L1627.895,134.002 L1663.031,134.002 L1662.612,130.037 L1630.525,129.381 z" fill="#8D6637"/>
      <path d="M1575.13,134.936 L1573.958,139.601 L1617.89,136.824 L1617.084,129.381 L1575.13,134.936 z" fill="#8D6637"/>
      <path d="M1711.027,308.819 L1713.286,261.008 L1715.545,197.762 L1719.686,139.034 L1719.686,79.553 L1723.074,78.047 L1722.321,146.94 L1719.309,192.116 L1718.933,241.432 L1717.803,308.443 L1711.027,308.819 z" fill="#8A6740"/>
      <path d="M1569.477,307.313 L1564.206,241.432 L1560.065,177.81 L1553.289,116.823 L1550.654,77.294 L1554.042,76.165 L1558.183,131.505 L1566.089,192.868 L1570.23,260.632 L1576.253,306.56 L1569.477,307.313 z" fill="#8E6639"/>
      <path d="M1550.654,76.918 L1588.676,75.412 L1624.064,75.788 L1659.828,76.918 L1690.698,76.165 L1723.827,76.918 L1720.815,80.682 L1686.557,79.93 L1649.663,78.047 L1615.029,78.8 L1578.136,77.671 L1551.783,81.812 L1550.654,76.918 z" fill="#7D5D39"/>
      <path d="M1586.343,289.564 L1586.819,293.847 L1593.482,293.847 L1593.482,287.66 L1586.343,289.564 z" fill="#AD7E49"/>
      <path d="M1596.816,288.043 L1596.816,292.339 L1602.9,293.054 L1602.9,289.475 L1596.816,288.043 z" fill="#AD7E49"/>
      <path d="M1605.764,289.475 L1610.417,288.759 L1610.417,293.054 L1605.048,292.339 L1605.764,289.475 z" fill="#AD7E49"/>
      <path d="M1592.52,295.918 L1592.52,300.213 L1598.247,300.213 L1598.963,296.276 L1592.52,295.918 z" fill="#AD7E49"/>
      <path d="M1602.542,295.918 L1602.542,299.855 L1608.269,299.855 L1608.269,296.276 L1602.542,295.918 z" fill="#AD7E49"/>
      <path d="M1685.583,286.612 L1685.941,292.697 L1689.878,298.423 L1699.184,298.423 L1702.763,285.896 L1689.878,282.674 L1685.583,286.612 z" fill="#D6AE9B"/>
      <path d="M1580.351,249.029 L1590.373,246.881 L1604.69,251.176 L1598.963,257.977 L1597.889,264.062 L1584.646,266.568 L1575.698,261.199 L1580.351,249.029 z" fill="#D6AE9B"/>
      <path d="M1576.91,134.338 L1574.407,96.441 L1611.589,93.938 L1614.807,129.69 L1618.025,134.338 L1614.092,90.363 L1570.832,93.223 L1574.05,137.556 L1576.91,134.338 z" fill="#8D6637"/>
      <path d="M1630.18,129.69 L1625.533,94.296 L1669.15,92.866 L1662.715,131.12 L1660.212,131.12 L1665.217,95.726 L1630.538,96.441 L1633.398,128.975 L1630.18,129.69 z" fill="#8D6637"/>
      <path d="M1677.015,128.26 L1675.585,95.726 L1716.7,93.581 L1712.41,130.405 L1708.835,130.405 L1713.84,96.083 L1679.518,98.586 L1680.948,127.545 L1677.015,128.26 z" fill="#8D6637"/>
      <path d="M1580.127,184.033 L1575.837,145.064 L1618.025,145.421 L1621.6,181.888 L1618.74,182.246 L1615.164,148.639 L1581.2,149.354 L1582.63,182.961 L1580.127,184.033 z" fill="#8D6637"/>
      <path d="M1629.823,178.671 L1627.678,143.991 L1666.647,143.276 L1667.005,179.386 L1664.145,179.028 L1663.787,146.494 L1630.895,146.494 L1633.04,178.313 L1629.823,178.671 z" fill="#8D6637"/>
      <path d="M1676.658,184.391 L1678.446,143.991 L1713.483,141.846 L1714.198,181.531 L1710.265,181.531 L1710.265,144.706 L1680.233,145.779 L1679.518,184.391 L1676.658,184.391 z" fill="#8D6637"/>
      <path d="M1583.703,238.376 L1583.345,195.474 L1621.957,194.044 L1621.6,233.371 L1617.667,233.729 L1619.097,197.262 L1586.205,197.619 L1587.635,236.946 L1583.703,238.376 z" fill="#8D6637"/>
      <path d="M1635.901,235.159 L1634.113,194.402 L1664.502,193.686 L1662,236.946 L1659.497,236.589 L1661.285,196.547 L1637.688,197.262 L1640.191,234.801 L1635.901,235.159 z" fill="#8D6637"/>
      <path d="M1674.87,233.014 L1675.228,196.189 L1708.12,194.044 L1707.047,235.516 L1703.114,235.516 L1705.975,196.547 L1678.446,198.334 L1678.088,232.299 L1674.87,233.014 z" fill="#8D6637"/>
    </g>
    <g id="Panel">
      <path d="M1855.924,93.316 L1857.729,78.819 L1866.797,79.442 L1866.931,75.573 L1857.045,73.485 L1859.117,63.833 L1869.086,63.502 L1869.255,58.661 L1859.318,58.026 L1856.084,39.093 L1849.593,38.996 L1853.694,57.938 L1843.638,60.69 L1843.556,63.11 L1854.373,63.275 L1852.406,70.024 L1842.385,71.806 L1842.669,76.168 L1852.205,75.831 L1849.915,91.775 L1855.924,93.316 z" fill="#000000"/>
      <path d="M1858.226,319.411 L1891.921,90.138 L1722.124,79.166 L1714.032,310.885 z" fill="#C0A496"/>
      <path d="M1872.596,107.196 L1831.023,102.373 L1824.292,141.765 L1866.383,147.194 L1872.596,107.196 z" fill="#FCFAFA"/>
      <path d="M1817.546,103.593 L1811.541,137.611 L1779.492,135.923 L1777.044,98.786 L1817.546,103.593 z" fill="#FFFFFF"/>
      <path d="M1775.319,149.177 L1812.94,152.294 L1807.788,187.114 L1771.505,184.236 L1775.319,149.177 z" fill="#FFFFFF"/>
      <path d="M1767.371,101.399 L1765.217,132.48 L1730.429,132.548 L1727.937,96.606 L1767.371,101.399 z" fill="#FCFAFA"/>
      <path d="M1863.868,157.928 L1823.817,155.521 L1816.696,190.719 L1857.717,196.131 L1863.868,157.928 z" fill="#FFFFFF"/>
      <path d="M1801.029,317.272 L1805.495,263.661 L1771.485,262.136 L1761.541,314.382 L1801.029,317.272 z" fill="#FCFAFA"/>
      <path d="M1853.575,207.438 L1849.951,249.868 L1812.781,241.521 L1816.28,202.679 L1853.575,207.438 z" fill="#FFFFFF"/>
      <path d="M1761.882,149.925 L1761.068,188.662 L1724.451,183.733 L1727.95,144.89 L1761.882,149.925 z" fill="#FFFFFF"/>
      <path d="M1803.442,202.484 L1798.836,242.503 L1772.113,241.497 L1773.617,198.434 L1803.442,202.484 z" fill="#FCFAFA"/>
      <path d="M1761.193,201.835 L1759.935,237.72 L1727.267,238.416 L1728.687,197.747 L1761.193,201.835 z" fill="#FFFFFF"/>
      <path d="M1804.575,317.531 L1812.921,258.733 L1805.495,263.661 L1801.029,317.272 L1804.575,317.531 z" fill="#815E13"/>
      <path d="M1771.485,262.136 L1805.495,263.661 L1812.921,258.733 L1770.312,255.614 L1771.485,262.136 z" fill="#7C5314"/>
      <path d="M1761.541,314.382 L1771.485,262.136 L1770.312,255.614 L1757.844,315.524 L1761.541,314.382 z" fill="#8D6637"/>
      <path d="M1849.951,249.868 L1851.235,254.262 L1813.656,248.683 L1812.781,241.521 L1849.951,249.868 z" fill="#8D6637"/>
      <path d="M1798.836,242.503 L1798.469,246.36 L1770.959,246.771 L1772.113,241.497 L1798.836,242.503 z" fill="#8D6637"/>
      <path d="M1759.935,237.72 L1759.851,243.937 L1725.134,243.417 L1727.267,238.416 L1759.935,237.72 z" fill="#8D6637"/>
      <path d="M1857.717,196.131 L1858.481,199.428 L1813.176,194.496 L1816.696,190.719 L1857.717,196.131 z" fill="#8D6637"/>
      <path d="M1807.788,187.114 L1807.441,190.041 L1770.254,190.142 L1771.505,184.236 L1807.788,187.114 z" fill="#8D6637"/>
      <path d="M1761.068,188.662 L1761.205,192.308 L1722.214,189.455 L1724.451,183.733 L1761.068,188.662 z" fill="#8D6637"/>
      <path d="M1765.217,132.48 L1765.265,136.837 L1727.936,136.125 L1730.429,132.548 L1765.217,132.48 z" fill="#8D6637"/>
      <path d="M1811.541,137.611 L1813.827,142.411 L1778.784,139.847 L1779.492,135.923 L1811.541,137.611 z" fill="#8D6637"/>
      <path d="M1866.383,147.194 L1867.211,151.933 L1823.599,145.956 L1824.946,138.592 L1866.383,147.194 z" fill="#8D6637"/>
      <path d="M1718.156,310.694 L1719.393,262.845 L1721.756,199.603 L1721.913,140.73 L1726.255,81.407 L1722.986,79.658 L1718.708,148.422 L1718.415,193.698 L1715.19,242.909 L1711.425,309.824 L1718.156,310.694 z" fill="#8A6740"/>
      <path d="M1859.438,319.524 L1869.504,254.204 L1878.278,191.054 L1889.488,130.724 L1895.001,91.493 L1891.705,90.12 L1883.535,145.01 L1871.171,205.632 L1862.095,272.913 L1852.735,318.279 L1859.438,319.524 z" fill="#8E6639"/>
      <path d="M1895.029,91.118 L1857.218,86.84 L1821.897,84.632 L1786.146,83.149 L1755.413,80.144 L1722.318,78.477 L1725.047,82.451 L1759.268,84.202 L1796.201,85.017 L1830.688,88.296 L1867.565,89.863 L1893.545,95.916 L1895.029,91.118 z" fill="#7D5D39"/>
      <path d="M1843.913,300.591 L1843.125,304.828 L1836.48,304.342 L1836.932,298.171 L1843.913,300.591 z" fill="#AD7E49"/>
      <path d="M1833.579,298.31 L1833.265,302.595 L1827.145,302.864 L1827.406,299.294 L1833.579,298.31 z" fill="#AD7E49"/>
      <path d="M1824.55,299.085 L1819.962,298.031 L1819.648,302.315 L1825.055,301.994 L1824.55,299.085 z" fill="#AD7E49"/>
      <path d="M1837.288,306.478 L1836.975,310.761 L1831.263,310.343 L1830.836,306.364 L1837.288,306.478 z" fill="#AD7E49"/>
      <path d="M1827.293,305.746 L1827.006,309.673 L1821.294,309.255 L1821.555,305.685 L1827.293,305.746 z" fill="#AD7E49"/>
      <path d="M1745.153,290.403 L1744.352,296.446 L1740.007,301.869 L1730.726,301.19 L1728.071,288.435 L1741.157,286.162 L1745.153,290.403 z" fill="#D6AE9B"/>
      <path d="M1852.848,260.602 L1843.009,257.728 L1828.417,260.967 L1833.632,268.168 L1834.259,274.315 L1847.284,277.781 L1856.6,273.079 L1852.848,260.602 z" fill="#D6AE9B"/>
      <path d="M1864.651,146.468 L1869.914,108.855 L1833.014,103.645 L1827.195,139.066 L1823.646,143.467 L1830.778,99.896 L1873.714,105.906 L1867.269,149.886 L1864.651,146.468 z" fill="#8D6637"/>
      <path d="M1811.863,137.944 L1819.081,102.984 L1775.685,98.374 L1779.31,136.995 L1781.806,137.178 L1779.398,101.513 L1813.933,104.758 L1808.705,136.996 L1811.863,137.944 z" fill="#8D6637"/>
      <path d="M1765.257,133.099 L1769.058,100.756 L1728.209,95.616 L1729.8,132.655 L1733.365,132.916 L1730.879,98.32 L1764.927,103.322 L1761.387,132.099 L1765.257,133.099 z" fill="#8D6637"/>
      <path d="M1857.815,195.796 L1864.938,157.244 L1822.837,154.52 L1816.609,190.629 L1819.436,191.195 L1825.455,157.939 L1859.277,161.131 L1855.397,194.544 L1857.815,195.796 z" fill="#8D6637"/>
      <path d="M1808.643,186.82 L1813.314,152.39 L1774.501,148.832 L1771.508,184.819 L1774.387,184.671 L1777.119,152.25 L1809.923,154.651 L1805.461,186.229 L1808.643,186.82 z" fill="#8D6637"/>
      <path d="M1761.516,189.107 L1762.682,148.684 L1727.895,143.987 L1724.285,183.514 L1728.207,183.801 L1730.895,147.074 L1760.769,150.337 L1758.663,188.898 L1761.516,189.107 z" fill="#8D6637"/>
      <path d="M1850.282,249.733 L1853.771,206.971 L1815.366,202.727 L1812.852,241.975 L1816.748,242.619 L1817.984,206.145 L1850.762,208.902 L1846.465,248.02 L1850.282,249.733 z" fill="#8D6637"/>
      <path d="M1798.458,242.714 L1803.216,202.196 L1772.961,199.264 L1772.298,242.591 L1774.821,242.418 L1775.96,202.352 L1799.442,204.788 L1794.206,242.044 L1798.458,242.714 z" fill="#8D6637"/>
      <path d="M1759.75,237.73 L1762.081,200.977 L1729.433,196.437 L1727.476,237.877 L1731.398,238.164 L1731.39,199.09 L1758.715,202.882 L1756.593,236.782 L1759.75,237.73 z" fill="#8D6637"/>
    </g>
    <g id="Panel">
      <path d="M2374.589,134.39 L2373.847,119.8 L2364.758,119.759 L2364.906,115.891 L2374.918,114.53 L2373.556,104.752 L2363.638,103.694 L2363.823,98.854 L2373.78,98.946 L2378.387,80.3 L2384.868,80.677 L2379.395,99.269 L2389.223,102.748 L2389.129,105.167 L2378.328,104.542 L2379.798,111.417 L2389.662,113.925 L2389.06,118.255 L2379.574,117.223 L2380.694,133.291 L2374.589,134.39 z" fill="#000000"/>
      <path d="M2292.458,355.076 L2286.451,133.066 L2465.901,126.057 L2443.013,356.006 z" fill="#C09696"/>
      <path d="M2299.74,141.286 L2341.554,139.51 L2345.392,179.288 L2303.017,181.631 L2299.74,141.286 z" fill="#FCFAFA"/>
      <path d="M2354.906,141.711 L2358.412,176.076 L2390.499,176.732 L2395.651,139.873 L2354.906,141.711 z" fill="#FFFFFF"/>
      <path d="M2393.693,190.255 L2355.945,190.618 L2358.542,225.721 L2394.938,225.499 L2393.693,190.255 z" fill="#FFFFFF"/>
      <path d="M2405.107,143.185 L2404.987,174.34 L2439.677,176.948 L2444.786,141.283 L2405.107,143.185 z" fill="#FCFAFA"/>
      <path d="M2304.742,192.52 L2344.862,193.042 L2349.394,228.666 L2308.088,231.07 L2304.742,192.52 z" fill="#FFFFFF"/>
      <path d="M2355.783,356.025 L2355.241,302.231 L2391.899,304.382 L2395.375,356.025 L2355.783,356.025 z" fill="#FCFAFA"/>
      <path d="M2311.393,242.649 L2311.91,285.23 L2349.59,279.619 L2348.936,240.625 L2311.393,242.649 z" fill="#FFFFFF"/>
      <path d="M2407.04,192.982 L2405.025,231.674 L2441.903,229.432 L2441.249,190.438 L2407.04,192.982 z" fill="#FFFFFF"/>
      <path d="M2359.754,241.367 L2361.427,281.616 L2388.152,282.563 L2389.795,239.505 L2359.754,241.367 z" fill="#FCFAFA"/>
      <path d="M2403.938,243.804 L2402.573,279.685 L2435.103,282.764 L2436.655,242.1 L2403.938,243.804 z" fill="#FFFFFF"/>
      <path d="M2352.226,356.025 L2348.196,296.774 L2355.241,302.231 L2355.783,356.025 L2352.226,356.025 z" fill="#815E13"/>
      <path d="M2391.899,304.382 L2355.241,302.231 L2348.196,296.774 L2396.653,296.776 L2391.899,304.382 z" fill="#7C5314"/>
      <path d="M2395.375,356.025 L2391.899,304.382 L2396.653,296.776 L2398.979,357.434 L2395.375,356.025 z" fill="#8D6637"/>
      <path d="M2311.91,285.23 L2310.31,289.519 L2348.196,286.697 L2349.59,279.619 L2311.91,285.23 z" fill="#8D6637"/>
      <path d="M2363.427,281.616 L2363.511,285.488 L2390.918,287.907 L2390.152,282.563 L2363.427,281.616 z" fill="#8D6637"/>
      <path d="M2402.573,279.685 L2402.203,285.891 L2436.865,287.907 L2435.103,282.764 L2402.573,279.685 z" fill="#8D6637"/>
      <path d="M2308.088,231.07 L2307.085,234.302 L2352.629,232.69 L2349.394,228.666 L2308.088,231.07 z" fill="#8D6637"/>
      <path d="M2358.542,225.721 L2358.675,228.666 L2395.755,231.481 L2394.938,225.499 L2358.542,225.721 z" fill="#8D6637"/>
      <path d="M2405.025,230.674 L2404.622,234.302 L2443.717,234.302 L2441.903,228.432 L2405.025,230.674 z" fill="#8D6637"/>
      <path d="M2404.987,174.34 L2404.622,178.682 L2441.903,180.697 L2439.677,176.948 L2404.987,174.34 z" fill="#8D6637"/>
      <path d="M2358.412,176.076 L2355.783,180.697 L2390.918,180.697 L2390.499,176.732 L2358.412,176.076 z" fill="#8D6637"/>
      <path d="M2303.017,181.631 L2301.846,186.296 L2345.777,183.518 L2344.971,176.076 L2303.017,181.631 z" fill="#8D6637"/>
      <path d="M2436.647,354.93 L2441.658,328.801 L2441.658,276.901 L2451.68,241.824 L2452.396,192.429 L2458.122,150.193 L2460.986,128.002 L2465.997,125.496 L2463.491,162.363 L2459.196,197.44 L2456.691,238.96 L2452.038,274.753 L2448.816,310.547 L2444.879,354.93 L2436.647,354.93 z" fill="#7A5353"/>
      <path d="M2465.997,125.854 L2462.06,129.433 L2432.351,130.865 L2392.263,131.581 L2354.68,134.444 L2318.887,134.086 L2286.315,138.024 L2284.884,130.865 L2318.529,129.433 L2345.016,126.928 L2376.872,126.928 L2416.602,125.854 L2465.997,125.854 z" fill="#7C5656"/>
      <path d="M2295.622,354.572 L2293.474,312.694 L2294.906,271.174 L2292.042,222.853 L2291.684,174.175 L2288.463,132.297 L2284.884,130.507 L2284.884,164.511 L2287.031,195.293 L2287.747,238.96 L2290.968,286.207 L2290.253,315.558 L2292.758,355.288 L2295.622,354.572 z" fill="#794E4E"/>
      <path d="M2299.836,141.595 L2343.197,139.186 L2345.606,180.138 L2342.509,177.04 L2340.1,143.315 L2303.277,144.348 L2308.095,181.858 L2303.621,182.202 L2299.836,141.595 z" fill="#8D6637"/>
      <path d="M2304.998,192.182 L2308.095,231.413 L2310.848,230.381 L2307.751,195.624 L2341.82,195.279 L2346.638,228.66 L2349.391,228.316 L2344.917,191.838 L2304.998,192.182 z" fill="#8D6637"/>
      <path d="M2359.027,225.563 L2355.241,189.085 L2394.129,189.085 L2395.505,224.875 L2392.408,225.563 L2391.031,191.15 L2357.65,192.182 L2362.812,226.251 L2359.027,225.563 z" fill="#8D6637"/>
      <path d="M2404.797,230.381 L2407.55,191.838 L2441.963,190.462 L2441.619,228.66 L2438.866,229.004 L2439.21,193.559 L2410.647,194.935 L2411.335,230.725 L2404.797,230.381 z" fill="#8D6637"/>
      <path d="M2312.225,284.754 L2309.816,241.737 L2349.391,240.017 L2349.391,279.248 L2346.294,279.936 L2346.638,242.77 L2313.601,244.146 L2316.354,284.41 L2312.225,284.754 z" fill="#8D6637"/>
      <path d="M2362.124,281.657 L2359.371,241.049 L2391.72,238.296 L2390.687,282.345 L2386.902,282.345 L2388.278,241.737 L2362.812,244.146 L2365.91,281.313 L2362.124,281.657 z" fill="#8D6637"/>
      <path d="M2401.699,280.28 L2402.732,243.114 L2436.801,241.049 L2436.457,283.377 L2431.983,284.41 L2432.327,244.835 L2405.829,246.555 L2406.173,280.624 L2401.699,280.28 z" fill="#8D6637"/>
      <path d="M2356.962,176.008 L2353.521,140.562 L2395.849,139.186 L2391.375,176.696 L2388.622,176.696 L2389.999,143.659 L2357.306,142.627 L2361.436,176.008 L2356.962,176.008 z" fill="#8D6637"/>
      <path d="M2404.797,174.631 L2404.452,141.595 L2445.404,140.218 L2439.898,176.352 L2436.801,176.696 L2441.619,143.659 L2408.238,145.036 L2408.582,174.976 L2404.797,174.631 z" fill="#8D6637"/>
      <path d="M2401.502,349.819 L2400.661,320.801 L2415.801,318.698 L2417.063,323.324 L2412.857,333.838 L2409.493,345.614 L2408.652,353.184 L2401.502,349.819 z" fill="#BDB0B0"/>
      <path d="M2322.017,298.091 L2346.409,297.25 L2346.83,309.866 L2337.998,307.764 L2330.849,312.39 L2319.073,317.857 L2313.606,309.446 L2322.017,298.091 z" fill="#BDB0B0"/>
    </g>
    <g id="Panel">
      <path d="M2032.333,152.476 L2031.591,137.886 L2022.502,137.845 L2022.65,133.977 L2032.662,132.616 L2031.3,122.838 L2021.382,121.78 L2021.567,116.94 L2031.524,117.032 L2036.131,98.386 L2042.612,98.763 L2037.139,117.355 L2046.967,120.834 L2046.873,123.253 L2036.072,122.628 L2037.542,129.503 L2047.406,132.011 L2046.804,136.341 L2037.318,135.309 L2038.438,151.377 L2032.333,152.476 z" fill="#000000"/>
      <path d="M2013.533,377.8 L1996.664,146.679 L2166.809,148.13 L2157.965,379.822 z" fill="#C0A496"/>
      <path d="M2014.692,165.102 L2056.506,163.326 L2060.344,203.104 L2017.969,205.447 L2014.692,165.102 z" fill="#FCFAFA"/>
      <path d="M2069.858,165.527 L2073.364,199.892 L2105.451,200.548 L2110.603,163.689 L2069.858,165.527 z" fill="#FFFFFF"/>
      <path d="M2108.645,214.071 L2070.897,214.434 L2073.494,249.537 L2109.89,249.315 L2108.645,214.071 z" fill="#FFFFFF"/>
      <path d="M2120.059,167.001 L2119.939,198.156 L2154.629,200.764 L2159.738,165.099 L2120.059,167.001 z" fill="#FCFAFA"/>
      <path d="M2019.694,216.336 L2059.814,216.858 L2064.346,252.482 L2023.04,254.886 L2019.694,216.336 z" fill="#FFFFFF"/>
      <path d="M2070.734,379.841 L2070.193,326.047 L2104.223,327.009 L2110.327,379.841 L2070.734,379.841 z" fill="#FCFAFA"/>
      <path d="M2026.345,266.465 L2026.862,309.046 L2064.542,303.435 L2063.888,264.441 L2026.345,266.465 z" fill="#FFFFFF"/>
      <path d="M2121.992,215.798 L2119.976,254.491 L2156.855,252.248 L2156.201,213.254 L2121.992,215.798 z" fill="#FFFFFF"/>
      <path d="M2076.706,265.183 L2078.379,305.432 L2105.104,306.379 L2106.747,263.321 L2076.706,265.183 z" fill="#FCFAFA"/>
      <path d="M2118.89,267.62 L2117.525,303.501 L2150.055,306.58 L2151.607,265.916 L2118.89,267.62 z" fill="#FFFFFF"/>
      <path d="M2067.178,379.841 L2063.147,320.59 L2070.193,326.047 L2070.734,379.841 L2067.178,379.841 z" fill="#815E13"/>
      <path d="M2104.223,327.009 L2070.193,326.047 L2063.147,320.59 L2105.87,320.59 L2104.223,327.009 z" fill="#7C5314"/>
      <path d="M2110.327,379.841 L2104.223,327.009 L2105.87,320.59 L2113.931,381.25 L2110.327,379.841 z" fill="#8D6637"/>
      <path d="M2026.862,309.046 L2025.261,313.335 L2063.147,310.514 L2064.542,303.435 L2026.862,309.046 z" fill="#8D6637"/>
      <path d="M2078.379,305.432 L2078.463,309.305 L2105.87,311.723 L2105.104,306.379 L2078.379,305.432 z" fill="#8D6637"/>
      <path d="M2117.525,303.501 L2117.155,309.708 L2151.817,311.723 L2150.055,306.58 L2117.525,303.501 z" fill="#8D6637"/>
      <path d="M2023.04,254.886 L2022.037,258.118 L2067.581,256.506 L2064.346,252.482 L2023.04,254.886 z" fill="#8D6637"/>
      <path d="M2073.494,249.537 L2073.626,252.482 L2110.706,255.297 L2109.89,249.315 L2073.494,249.537 z" fill="#8D6637"/>
      <path d="M2119.976,254.491 L2119.573,258.118 L2158.669,258.118 L2156.855,252.248 L2119.976,254.491 z" fill="#8D6637"/>
      <path d="M2119.939,198.156 L2119.573,202.498 L2156.855,204.513 L2154.629,200.764 L2119.939,198.156 z" fill="#8D6637"/>
      <path d="M2073.364,199.892 L2070.734,204.513 L2105.87,204.513 L2105.451,200.548 L2073.364,199.892 z" fill="#8D6637"/>
      <path d="M2017.969,205.447 L2016.797,210.112 L2060.729,207.335 L2059.923,199.892 L2017.969,205.447 z" fill="#8D6637"/>
      <path d="M2153.866,379.33 L2156.125,331.519 L2158.384,268.273 L2162.525,209.545 L2162.525,150.064 L2165.913,148.558 L2165.16,217.451 L2162.148,262.627 L2161.772,311.943 L2160.642,378.954 L2153.866,379.33 z" fill="#8A6740"/>
      <path d="M2012.316,377.824 L2007.045,311.943 L2002.904,248.321 L1996.128,187.334 L1993.493,147.805 L1996.881,146.676 L2001.022,202.016 L2008.928,263.379 L2013.069,331.143 L2019.092,377.071 L2012.316,377.824 z" fill="#8E6639"/>
      <path d="M1993.493,147.429 L2031.515,145.923 L2066.903,146.299 L2102.667,147.429 L2133.537,146.676 L2166.666,147.429 L2163.654,151.193 L2129.396,150.441 L2092.502,148.558 L2057.868,149.311 L2020.975,148.182 L1994.622,152.323 L1993.493,147.429 z" fill="#7D5D39"/>
      <path d="M2029.182,360.075 L2029.658,364.358 L2036.321,364.358 L2036.321,358.171 L2029.182,360.075 z" fill="#AD7E49"/>
      <path d="M2039.655,358.554 L2039.655,362.85 L2045.739,363.565 L2045.739,359.986 L2039.655,358.554 z" fill="#AD7E49"/>
      <path d="M2048.603,359.986 L2053.256,359.27 L2053.256,363.565 L2047.887,362.85 L2048.603,359.986 z" fill="#AD7E49"/>
      <path d="M2035.359,366.429 L2035.359,370.724 L2041.086,370.724 L2041.802,366.787 L2035.359,366.429 z" fill="#AD7E49"/>
      <path d="M2045.381,366.429 L2045.381,370.366 L2051.108,370.366 L2051.108,366.787 L2045.381,366.429 z" fill="#AD7E49"/>
      <path d="M2128.422,357.123 L2128.78,363.208 L2132.717,368.934 L2142.023,368.934 L2145.602,356.407 L2132.717,353.185 L2128.422,357.123 z" fill="#D6AE9B"/>
      <path d="M2023.19,319.54 L2033.212,317.392 L2047.529,321.687 L2041.802,328.488 L2040.728,334.573 L2027.485,337.079 L2018.537,331.71 L2023.19,319.54 z" fill="#D6AE9B"/>
      <path d="M2019.749,204.849 L2017.246,166.952 L2054.428,164.449 L2057.646,200.201 L2060.864,204.849 L2056.931,160.874 L2013.671,163.734 L2016.889,208.067 L2019.749,204.849 z" fill="#8D6637"/>
      <path d="M2073.019,200.201 L2068.372,164.807 L2111.989,163.377 L2105.554,201.631 L2103.051,201.631 L2108.056,166.237 L2073.377,166.952 L2076.237,199.486 L2073.019,200.201 z" fill="#8D6637"/>
      <path d="M2119.854,198.771 L2118.424,166.237 L2159.539,164.092 L2155.249,200.916 L2151.674,200.916 L2156.679,166.594 L2122.357,169.097 L2123.787,198.056 L2119.854,198.771 z" fill="#8D6637"/>
      <path d="M2022.966,254.544 L2018.676,215.575 L2060.864,215.932 L2064.439,252.399 L2061.579,252.757 L2058.003,219.15 L2024.039,219.865 L2025.469,253.472 L2022.966,254.544 z" fill="#8D6637"/>
      <path d="M2072.662,249.182 L2070.517,214.502 L2109.486,213.787 L2109.844,249.897 L2106.984,249.539 L2106.626,217.005 L2073.734,217.005 L2075.879,248.824 L2072.662,249.182 z" fill="#8D6637"/>
      <path d="M2119.497,254.902 L2121.285,214.502 L2156.322,212.357 L2157.037,252.042 L2153.104,252.042 L2153.104,215.217 L2123.072,216.29 L2122.357,254.902 L2119.497,254.902 z" fill="#8D6637"/>
      <path d="M2026.542,308.887 L2026.184,265.985 L2064.796,264.555 L2064.439,303.882 L2060.506,304.24 L2061.936,267.773 L2029.044,268.13 L2030.474,307.457 L2026.542,308.887 z" fill="#8D6637"/>
      <path d="M2078.74,305.67 L2076.952,264.913 L2107.341,264.197 L2104.839,307.457 L2102.336,307.1 L2104.124,267.058 L2080.527,267.773 L2083.03,305.312 L2078.74,305.67 z" fill="#8D6637"/>
      <path d="M2117.709,303.525 L2118.067,266.7 L2150.959,264.555 L2149.886,306.027 L2145.953,306.027 L2148.814,267.058 L2121.285,268.845 L2120.927,302.81 L2117.709,303.525 z" fill="#8D6637"/>
    </g>
    <g id="Tree">
      <path d="M1513.849,264.815 L1529.238,274.854 L1544.537,271.014 L1558.218,258.748 L1554.543,248.939 L1556.573,237.253 L1574.552,225.45 L1574.781,201.394 L1556.122,186.798 L1538.603,193.479 L1536.693,168.521 L1516.627,167.385 L1506.008,168.732 L1499.745,156.926 L1480.121,148.814 L1461.07,160.954 L1457.689,186.852 L1442.835,190.127 L1420.276,202.536 L1412.861,237.825 L1436.281,250.942 L1460.072,262.523 L1470.775,275.057 L1483.565,257.518 L1513.849,264.815 z" fill="#006414"/>
      <path d="M1455.183,247.95 L1443.506,229.469 L1423.773,218.064 L1420.206,233.943 L1434.113,246.872 L1455.183,247.95 z" fill="#083B12"/>
      <path d="M1462.616,183.339 L1461.07,160.954 L1482.307,152.314 L1483.939,173.634 L1462.616,183.339 z" fill="#083B12"/>
      <path d="M1505.786,318.474 L1504.256,292.259 L1509.974,265.112 L1534.465,241.292 L1552.913,227.64 L1549.641,223.083 L1513.633,242.886 L1503.46,243.665 L1501.803,234.755 L1514.546,203.867 L1511.355,200.373 L1498.043,223.826 L1490.401,200.374 L1482.367,203.659 L1488.927,244.777 L1482.43,249.058 L1461.425,229.298 L1457.836,233.313 L1478.843,259.481 L1482.457,275.231 L1481.729,297.186 L1481.392,324.688 L1505.786,318.474 z" fill="#9B7F41"/>
      <path d="M1488.508,323.918 L1489.959,293.669 L1495.307,264.198 L1494.242,250.287 L1480.39,262.648 L1486.506,283.707 L1483.83,307.592 L1482.791,324.355 L1488.508,323.918 z" fill="#634B16"/>
    </g>
    <g id="Tree">
      <path d="M1288.818,308.037 L1304.207,318.076 L1319.506,314.235 L1333.187,301.969 L1329.512,292.16 L1331.541,280.474 L1349.521,268.672 L1349.75,244.615 L1331.091,230.02 L1313.572,236.701 L1311.661,211.743 L1291.596,210.607 L1280.977,211.953 L1274.714,200.148 L1255.09,192.036 L1236.038,204.176 L1232.658,230.073 L1217.803,233.348 L1195.245,245.757 L1187.83,281.047 L1211.25,294.164 L1235.04,305.744 L1245.744,318.279 L1258.534,300.74 L1288.818,308.037 z" fill="#006414"/>
      <path d="M1230.152,291.172 L1218.475,272.691 L1198.742,261.286 L1195.175,277.165 L1209.081,290.094 L1230.152,291.172 z" fill="#083B12"/>
      <path d="M1237.585,226.56 L1236.038,204.176 L1257.276,195.536 L1258.908,216.856 L1237.585,226.56 z" fill="#083B12"/>
      <path d="M1280.755,361.696 L1279.224,335.48 L1284.943,308.334 L1309.434,284.513 L1327.882,270.862 L1324.61,266.305 L1288.602,286.108 L1278.429,286.886 L1276.772,277.977 L1289.515,247.089 L1286.324,243.594 L1273.012,267.048 L1265.37,243.595 L1257.335,246.88 L1263.895,287.998 L1257.399,292.28 L1236.394,272.52 L1232.805,276.535 L1253.812,302.703 L1257.426,318.453 L1256.698,340.408 L1256.361,367.909 L1280.755,361.696 z" fill="#9B7F41"/>
      <path d="M1263.477,367.139 L1264.928,336.89 L1270.276,307.419 L1269.211,293.509 L1255.359,305.87 L1261.475,326.929 L1258.799,350.814 L1257.76,367.577 L1263.477,367.139 z" fill="#634B16"/>
    </g>
    <g id="Tree">
      <path d="M1151.23,326.314 L1139.81,340.708 L1124.082,341.907 L1107.222,334.602 L1107.603,324.135 L1101.979,313.692 L1081.188,308.187 L1073.357,285.44 L1086.437,265.688 L1105.17,266.481 L1099.082,242.202 L1117.756,234.773 L1128.256,232.689 L1130.46,219.508 L1146.508,205.601 L1168.422,211.087 L1179.826,234.583 L1194.953,232.988 L1220.28,237.619 L1238.483,268.747 L1220.419,288.603 L1201.517,307.118 L1195.331,322.396 L1177.647,309.807 L1151.23,326.314 z" fill="#006414"/>
      <path d="M1201.542,291.747 L1206.769,270.521 L1221.877,253.456 L1230.287,267.39 L1221.188,284.055 L1201.542,291.747 z" fill="#083B12"/>
      <path d="M1174.04,232.81 L1168.422,211.087 L1145.542,209.614 L1150.742,230.354 L1174.04,232.81 z" fill="#083B12"/>
      <path d="M1175.863,374.662 L1169.017,349.31 L1155,325.369 L1124.228,310.525 L1102.408,303.415 L1104.07,298.057 L1144.494,305.444 L1154.391,302.963 L1153.142,293.987 L1131.278,268.721 L1133.198,264.396 L1153.25,282.43 L1153.075,257.764 L1161.737,258.337 L1168.529,299.418 L1176.046,301.423 L1189.717,276.03 L1194.392,278.702 L1182.748,310.174 L1184.306,326.259 L1191.945,346.854 L1200.97,372.835 L1175.863,374.662 z" fill="#9B7F41"/>
      <path d="M1193.976,374.357 L1183.024,346.123 L1168.623,319.859 L1165.23,306.327 L1182.283,313.668 L1183.147,335.58 L1193.245,357.39 L1199.537,372.963 L1193.976,374.357 z" fill="#634B16"/>
    </g>
    <g id="Tree2">
      <path d="M1384.239,275.902 L1412.199,284.568 L1429.25,266.303 L1447.766,263.975 L1457.476,247.168 L1444.368,228.395 L1436.743,201.945 L1438.036,186.586 L1419.471,179.985 L1404.053,177.036 L1387.039,152.841 L1360.653,156.697 L1335.467,174.373 L1326.951,196.404 L1301.896,210.839 L1293.183,235.581 L1294.26,261.241 L1312.282,276.173 L1340.23,267.822 L1354.612,279.627 L1384.239,275.902 z" fill="#007005"/>
      <path d="M1384.729,343.913 L1390.457,308.261 L1383.429,282.275 L1385.468,268.582 L1403.323,265.263 L1420.25,246.014 L1417.326,239.857 L1400.868,254.285 L1385.627,252.744 L1386.768,236.175 L1391.976,213.486 L1387.012,208.198 L1372.817,240.616 L1360.651,246.444 L1349.937,246.717 L1321.495,242.769 L1319.319,251.104 L1346.477,257.666 L1354.052,266.621 L1355.679,292.389 L1351.507,314.771 L1352.59,349.029 L1384.729,343.913 z" fill="#AF9B5C"/>
      <path d="M1380.098,341.271 L1384.638,308.993 L1375.955,282.677 L1379.45,267.727 L1383.923,234.92 L1371.966,255.232 L1367.351,274.085 L1366.904,296.175 L1369.564,317.337 L1367.53,339.627 L1380.098,341.271 z" fill="#704E00"/>
      <path d="M1386.319,164.218 L1395.589,178.1 L1387.205,201.188 L1374.39,223.217 L1366.464,237.115 L1349,230.712 L1340.162,198.892 L1340.189,182.017 L1365.783,163.303 L1386.319,164.218 z" fill="#07410A"/>
      <path d="M1309.771,217.91 L1316.724,230.468 L1316.487,267.045 L1307.154,256.933 L1303.831,234.78 L1309.771,217.91 z" fill="#07410A"/>
    </g>
    <g id="Bush">
      <path d="M1081.24,374.585 L1109.016,378.895 L1127.833,354.174 L1124.637,324.402 L1109.126,324.165 L1100.392,298.479 L1079.063,295.025 L1062.52,311.199 L1050.506,312.45 L1037.424,323.984 L1050.35,356.904 L1044.818,367.239 L1081.24,374.585 z" fill="#056818"/>
      <path d="M1071.991,365.308 L1069.244,352.645 L1076.577,333.462 L1077.333,318.09 L1082.298,299.44 L1070.648,311.86 L1063.138,317.091 L1055.174,317.753 L1047.215,326.757 L1052.034,344.17 L1056.125,358.052 L1052.145,362.554 L1071.991,365.308 z" fill="#123D1A"/>
      <path d="M1106.883,363.779 C1109.928,360.697 1109.928,360.697 1109.928,360.697 L1104.907,356.579 L1106.883,363.779 z" fill="#FF1717"/>
      <path d="M1083.547,363.685 L1088.185,358.801 L1082.991,357.418 L1083.547,363.685 z" fill="#FF1717"/>
      <path d="M1099.896,329.869 L1095.272,332.186 L1094.773,328.282 L1099.896,329.869 z" fill="#FF1717"/>
      <path d="M1072.314,310.989 L1072.302,315.2 L1067.524,314.816 L1072.314,310.989 z" fill="#FF1717"/>
      <path d="M1062.67,333.045 L1061.898,335.945 L1058.444,333.917 L1062.67,333.045 z" fill="#FF1717"/>
      <path d="M1094.033,305.236 L1093.081,309.642 L1089.587,306.936 L1094.033,305.236 z" fill="#FF1717"/>
      <path d="M1119.866,336.517 L1120.144,338.809 L1115.074,333.688 L1119.866,336.517 z" fill="#FF1717"/>
      <path d="M1082.791,339.956 L1082.172,343.118 L1080.541,340.909 L1082.791,339.956 z" fill="#FF1717"/>
      <path d="M1060.676,354.698 L1056.989,354.382 L1057.955,350.752 L1060.676,354.698 z" fill="#FF1717"/>
    </g>
    <g id="Bush">
      <path d="M631.944,664.221 L605.772,653.969 L601.948,623.137 L619.691,599.016 L633.215,606.616 L653.687,588.814 L673.857,596.56 L680.016,618.862 L689.768,625.988 L695.27,642.538 L667.535,664.483 L667.116,676.198 L631.944,664.221 z" fill="#056818"/>
      <path d="M644.605,660.857 L653.35,651.296 L656.665,631.029 L663.747,617.364 L668.84,598.748 L672.658,615.344 L676.517,623.643 L683.066,628.221 L685.414,640.008 L672.488,652.631 L661.968,662.57 L663.141,668.463 L644.605,660.857 z" fill="#123D1A"/>
      <path d="M615.221,641.979 C614.14,637.784 614.14,637.784 614.14,637.784 L620.551,636.752 L615.221,641.979 z" fill="#FF1717"/>
      <path d="M635.435,653.64 L633.884,647.085 L639.069,648.504 L635.435,653.64 z" fill="#FF1717"/>
      <path d="M638.321,616.19 L641.152,620.519 L643.547,617.397 L638.321,616.19 z" fill="#FF1717"/>
      <path d="M671.658,613.752 L669.549,617.398 L673.871,619.47 L671.658,613.752 z" fill="#FF1717"/>
      <path d="M668.894,637.665 L668.102,640.56 L672.107,640.545 L668.894,637.665 z" fill="#FF1717"/>
      <path d="M655.782,597.853 L654.388,602.139 L658.769,601.559 L655.782,597.853 z" fill="#FF1717"/>
      <path d="M617.718,611.887 L616.325,613.728 L623.283,611.853 L617.718,611.887 z" fill="#FF1717"/>
      <path d="M648.028,633.513 L646.972,636.558 L649.492,635.469 L648.028,633.513 z" fill="#FF1717"/>
      <path d="M659.722,657.381 L663.067,658.963 L664.058,655.34 L659.722,657.381 z" fill="#FF1717"/>
    </g>
    <g id="Bush">
      <path d="M734.991,715.193 L712.877,697.842 L718.09,667.215 L742.025,649.222 L752.789,660.393 L777.52,649.236 L794.606,662.461 L794.084,685.591 L801.372,695.223 L801.877,712.656 L769,725.69 L765.226,736.788 L734.991,715.193 z" fill="#056818"/>
      <path d="M748.084,715.617 L759.211,708.977 L768.22,690.522 L778.935,679.474 L789.171,663.112 L788.051,680.104 L789.357,689.163 L794.311,695.433 L793.167,707.396 L777.155,715.765 L764.219,722.254 L763.646,728.236 L748.084,715.617 z" fill="#123D1A"/>
      <path d="M725.377,689.08 C725.55,684.75 725.55,684.75 725.55,684.75 L731.987,685.608 L725.377,689.08 z" fill="#FF1717"/>
      <path d="M741.379,706.065 L741.781,699.341 L746.338,702.192 L741.379,706.065 z" fill="#FF1717"/>
      <path d="M754.923,671.031 L756.388,675.992 L759.58,673.691 L754.923,671.031 z" fill="#FF1717"/>
      <path d="M787.551,678.292 L784.482,681.177 L788.025,684.405 L787.551,678.292 z" fill="#FF1717"/>
      <path d="M778.02,700.398 L776.429,702.942 L780.268,704.081 L778.02,700.398 z" fill="#FF1717"/>
      <path d="M776.924,658.496 L774.355,662.199 L778.717,662.905 L776.924,658.496 z" fill="#FF1717"/>
      <path d="M736.431,660.98 L734.567,662.341 L741.77,662.549 L736.431,660.98 z" fill="#FF1717"/>
      <path d="M759.233,690.415 L757.345,693.027 L760.073,692.71 L759.233,690.415 z" fill="#FF1717"/>
      <path d="M763.562,716.639 L766.31,719.117 L768.302,715.932 L763.562,716.639 z" fill="#FF1717"/>
    </g>
    <g id="Tree">
      <path d="M1106.073,589.471 L1124.406,588.244 L1134.324,575.979 L1137.885,557.953 L1129.052,552.322 L1123.65,541.763 L1130.925,521.524 L1116.648,502.16 L1092.963,501.711 L1082.978,517.581 L1066.449,498.783 L1049.731,509.936 L1042.053,517.395 L1029.952,511.724 L1009.392,517.037 L1001.464,538.19 L1014.328,560.919 L1004.425,572.465 L993.855,595.942 L1009.141,628.602 L1035.743,625.008 L1061.716,619.963 L1077.805,623.547 L1077.484,601.842 L1106.073,589.471 z" fill="#006414"/>
      <path d="M1049.05,611.255 L1028.61,603.504 L1005.984,606.25 L1012.678,621.085 L1031.563,623.058 L1049.05,611.255 z" fill="#083B12"/>
      <path d="M1016.154,555.15 L1001.464,538.19 L1013.243,518.52 L1027.362,534.578 L1016.154,555.15 z" fill="#083B12"/>
      <path d="M1131.882,637.202 L1114.901,617.17 L1103.154,592.038 L1108.41,558.279 L1114.948,536.28 L1109.594,534.606 L1092.719,572.075 L1085.057,578.812 L1078.377,572.687 L1069.996,540.343 L1065.345,539.468 L1068.803,566.213 L1048.599,552.064 L1044.153,559.518 L1074.11,588.437 L1071.492,595.763 L1042.828,592.597 L1042.372,597.963 L1074.89,606.249 L1087.245,616.665 L1099.86,634.648 L1116.121,656.83 L1131.882,637.202 z" fill="#9B7F41"/>
      <path d="M1121.345,651.937 L1104.323,626.89 L1090.883,600.122 L1081.671,589.645 L1078.03,607.85 L1095.576,621.004 L1107.794,641.701 L1117.04,655.723 L1121.345,651.937 z" fill="#634B16"/>
    </g>
    <g id="Fence1">
      <path d="M569.077,839.857 L569.687,849.727 L607.898,846.263 L637.523,848.287 L674.438,842.702 L717.208,843.913 L716.767,836.784 L675.761,832.712 L638.914,839.395 L610.655,836.736 L569.077,839.857 z" fill="#7F4400"/>
      <path d="M571.043,871.659 L571.043,871.659 L609.491,872.035 L637.934,867.525 L671.526,870.951 L706.76,863.271 L718.495,864.747 L717.953,855.975 L705.126,855.666 L670.528,861.108 L640.134,859.132 L608.983,863.81 L570.433,861.789 L571.043,871.659 z" fill="#7F4400"/>
      <path d="M575.847,884.571 L570.103,829.338 L578.259,829.383 L579.259,883.261 L575.847,884.571 z" fill="#C56A00"/>
      <path d="M585.869,883.951 L582.582,830.768 L590.21,828.095 L590.927,883.639 L585.869,883.951 z" fill="#C56A00"/>
      <path d="M598.274,883.185 L595.372,829.977 L603.174,830.595 L604.073,882.826 L598.274,883.185 z" fill="#94632B"/>
      <path d="M608.712,882.539 L608.758,829.15 L614.705,828.782 L616.446,882.061 L608.712,882.539 z" fill="#C56A00"/>
      <path d="M621.858,881.727 L619.093,830.712 L625.531,828.113 L628.431,881.321 L621.858,881.727 z" fill="#996427"/>
      <path d="M634.232,880.962 L629.011,827.898 L635.366,830.257 L640.032,880.604 L634.232,880.962 z" fill="#C56A00"/>
      <path d="M644.285,880.341 L641.167,829.899 L647.957,826.727 L650.689,877.193 L644.285,880.341 z" fill="#C56A00"/>
      <path d="M655.11,879.672 L652.346,828.657 L661.308,829.203 L662.071,879.241 L655.11,879.672 z" fill="#C56A00"/>
      <path d="M667.485,878.907 L665.107,827.868 L670.384,825.341 L672.897,878.572 L667.485,878.907 z" fill="#7F501A"/>
      <path d="M677.15,878.309 L673.999,827.319 L681.346,826.864 L684.497,877.855 L677.15,878.309 z" fill="#C56A00"/>
      <path d="M690.683,877.473 L686.929,829.272 L692.945,826.147 L695.324,877.186 L690.683,877.473 z" fill="#C56A00"/>
      <path d="M700.35,876.875 L697.063,823.692 L704.553,823.229 L705.376,876.565 L700.35,876.875 z" fill="#955305"/>
      <path d="M711.176,876.206 L708.025,825.215 L713.188,827.099 L717.75,875.8 L711.176,876.206 z" fill="#C56A00"/>
    </g>
    <g id="Tree">
      <path d="M400.415,829.673 L385.837,840.857 L370.29,838.195 L355.713,827.009 L358.628,816.948 L355.713,805.451 L336.885,795.055 L334.821,771.086 L352.312,755.109 L370.29,760.434 L370.29,735.403 L390.21,732.739 L400.901,733.271 L406.245,721.022 L425.193,711.436 L445.115,722.087 L450.462,747.651 L465.523,749.783 L488.963,760.434 L499.049,795.055 L476.698,809.921 L453.861,823.283 L444.145,836.598 L430.054,820.086 L400.415,829.673 z" fill="#006414"/>
      <path d="M457.623,808.38 L467.856,789.062 L486.661,776.184 L491.429,791.745 L478.55,805.697 L457.623,808.38 z" fill="#083B12"/>
      <path d="M445.281,744.524 L445.115,722.087 L423.28,715.093 L423.28,736.475 L445.281,744.524 z" fill="#083B12"/>
      <path d="M412.55,882.56 L412.075,856.304 L404.302,829.673 L378.064,807.791 L358.628,795.587 L361.543,790.794 L398.957,807.791 L409.16,807.791 L410.132,798.781 L395.069,768.956 L397.984,765.228 L413.047,787.597 L418.877,763.63 L427.139,766.292 L423.736,807.791 L430.54,811.564 L449.976,790.259 L453.861,793.988 L434.912,821.683 L432.511,837.663 L434.912,859.498 L437.347,886.894 L412.55,882.56 z" fill="#9B7F41"/>
      <path d="M430.193,886.669 L426.437,856.619 L418.856,827.642 L418.856,813.691 L433.611,824.959 L429.12,846.423 L433.611,870.034 L435.926,886.669 L430.193,886.669 z" fill="#634B16"/>
    </g>
    <g id="Tree2">
      <path d="M496.199,818.941 L469.867,831.728 L450.255,816.246 L431.6,816.739 L419.464,801.591 L429.588,781.054 L433.134,753.756 L429.537,738.768 L446.893,729.441 L461.689,724.198 L474.857,697.713 L501.523,697.542 L529.088,711.214 L540.832,731.706 L567.778,742.194 L580.126,765.338 L582.935,790.867 L567.373,808.347 L538.484,804.311 L526.049,818.151 L496.199,818.941 z" fill="#007005"/>
      <path d="M505.98,886.247 L494.937,851.868 L497.962,825.118 L493.879,811.891 L475.728,811.304 L456.09,794.831 L458.051,788.303 L476.498,800.082 L491.332,796.258 L487.703,780.051 L479.13,758.408 L483.238,752.431 L502.165,782.335 L515.071,786.26 L525.703,784.913 L553.223,776.717 L556.632,784.628 L530.776,795.214 L524.639,805.21 L526.92,830.928 L534.423,852.424 L538.523,886.453 L505.98,886.247 z" fill="#AF9B5C"/>
      <path d="M510.16,882.936 L500.8,851.713 L505.411,824.388 L499.7,810.137 L490.326,778.381 L505.211,796.656 L512.619,814.596 L516.396,836.365 L516.96,857.686 L522.336,879.414 L510.16,882.936 z" fill="#704E00"/>
      <path d="M477.285,708.85 L470.217,723.973 L481.99,745.531 L497.983,765.373 L507.916,777.916 L524.214,768.95 L528.147,736.16 L525.573,719.482 L497.448,704.846 L477.285,708.85 z" fill="#07410A"/>
      <path d="M561.06,750.373 L556.082,763.836 L561.839,799.959 L569.538,788.554 L569.479,766.153 L561.06,750.373 z" fill="#07410A"/>
    </g>
    <g id="EndSign">
      <path d="M462.462,866.721 L464.858,886.294 L461.504,887.461 L457.911,866.721 L462.462,866.721 z" fill="#000000"/>
      <path d="M472.046,848.751 L475.641,876.247 L443.533,876.013 L440.181,847.354 L472.046,848.751 z" fill="#FFFFFF"/>
      <path d="M470.172,850.645 L473.245,874.15 L445.799,873.95 L442.932,849.45 L470.172,850.645 z" fill="#000000"/>
      <path d="M465.577,862.033 L457.671,861.334 L456.712,856.905 L450.961,863.898 L456.952,866.926 L457.19,864.363 L466.536,864.596 L465.577,862.033 z" fill="#FFFFFF"/>
    </g>
    <g id="Bush">
      <path d="M2213.438,362.253 L2240.358,354.168 L2246.681,323.75 L2230.962,298.264 L2216.864,304.736 L2197.91,285.325 L2177.177,291.403 L2169.222,313.128 L2158.921,319.436 L2152.089,335.483 L2177.944,359.615 L2177.407,371.325 L2213.438,362.253 z" fill="#056818"/>
      <path d="M2201.093,357.869 L2193.156,347.627 L2191.503,327.157 L2185.558,312.961 L2181.999,293.992 L2176.841,310.221 L2172.319,318.179 L2165.419,322.208 L2162.118,333.764 L2173.973,347.399 L2183.649,358.161 L2181.999,363.939 L2201.093,357.869 z" fill="#123D1A"/>
      <path d="M2231.917,341.448 C2233.337,337.354 2233.337,337.354 2233.337,337.354 L2227.031,335.803 L2231.917,341.448 z" fill="#FF1717"/>
      <path d="M2210.821,351.423 L2212.9,345.016 L2207.617,346.007 L2210.821,351.423 z" fill="#FF1717"/>
      <path d="M2210.995,313.862 L2207.821,317.947 L2205.689,314.639 L2210.995,313.862 z" fill="#FF1717"/>
      <path d="M2177.968,308.717 L2179.773,312.522 L2175.296,314.235 L2177.968,308.717 z" fill="#FF1717"/>
      <path d="M2178.775,332.775 L2179.328,335.725 L2175.338,335.384 L2178.775,332.775 z" fill="#FF1717"/>
      <path d="M2195.086,294.163 L2196.126,298.549 L2191.807,297.614 L2195.086,294.163 z" fill="#FF1717"/>
      <path d="M2231.88,311.252 L2233.119,313.2 L2226.336,310.765 L2231.88,311.252 z" fill="#FF1717"/>
      <path d="M2199.909,330.337 L2200.714,333.457 L2198.29,332.167 L2199.909,330.337 z" fill="#FF1717"/>
      <path d="M2186.309,353.173 L2182.846,354.477 L2182.154,350.785 L2186.309,353.173 z" fill="#FF1717"/>
    </g>
    <g id="Bush">
      <path d="M2255.571,354.033 L2283.586,351.743 L2296.117,323.315 L2286.063,295.109 L2270.925,298.498 L2256.439,275.558 L2234.893,277.175 L2222.58,296.762 L2211.19,300.782 L2201.16,315.05 L2221.409,344.046 L2218.44,355.386 L2255.571,354.033 z" fill="#056818"/>
      <path d="M2244.413,347.169 L2238.788,335.496 L2241.443,315.132 L2238.591,300.008 L2239.069,280.714 L2230.638,295.51 L2224.555,302.348 L2216.966,304.849 L2211.327,315.462 L2220.075,331.27 L2227.292,343.814 L2224.472,349.121 L2244.413,347.169 z" fill="#123D1A"/>
      <path d="M2277.985,337.542 C2280.228,333.835 2280.228,333.835 2280.228,333.835 L2274.384,331.002 L2277.985,337.542 z" fill="#FF1717"/>
      <path d="M2255.272,342.895 L2258.642,337.063 L2253.269,336.93 L2255.272,342.895 z" fill="#FF1717"/>
      <path d="M2263.281,306.198 L2259.324,309.53 L2257.929,305.85 L2263.281,306.198 z" fill="#FF1717"/>
      <path d="M2232.054,294.273 L2233.025,298.371 L2228.289,299.112 L2232.054,294.273 z" fill="#FF1717"/>
      <path d="M2227.822,317.971 L2227.748,320.971 L2223.917,319.805 L2227.822,317.971 z" fill="#FF1717"/>
      <path d="M2251.832,283.612 L2251.935,288.118 L2247.906,286.303 L2251.832,283.612 z" fill="#FF1717"/>
      <path d="M2284.25,308.003 L2285.055,310.167 L2278.93,306.37 L2284.25,308.003 z" fill="#FF1717"/>
      <path d="M2249.001,319.997 L2249.136,323.216 L2247.035,321.448 L2249.001,319.997 z" fill="#FF1717"/>
      <path d="M2230.935,339.491 L2227.276,340.044 L2227.369,336.289 L2230.935,339.491 z" fill="#FF1717"/>
    </g>
    <g id="Lamp">
      <path d="M2302.385,254.369 L2304.891,247.604 L2304.139,237.832 L2297.624,227.059 L2306.895,236.078 L2308.648,247.353 L2306.644,253.116 L2302.385,254.369 z" fill="#757575"/>
      <path d="M2260.793,353.087 L2262.296,333.042 L2260.041,300.22 L2259.541,275.165 L2263.549,249.859 L2269.062,235.076 L2271.818,229.314 L2283.343,221.797 L2271.818,226.307 L2266.306,231.318 L2261.545,247.353 L2257.536,264.141 L2256.534,282.18 L2257.035,305.983 L2258.539,327.029 L2256.033,354.089 L2260.793,353.087 z" fill="#757575"/>
      <path d="M2259.322,352.697 L2260.278,321.732 L2258.178,283.735 L2259.877,257.551 L2269.554,229.112 L2282.962,220.561 L2298.5,223.458 L2308.696,235.553 L2312.173,246.456 L2322.146,252.993 L2300.824,255.734 L2306.03,247.658 L2305.577,236.586 L2297.695,226.74 L2283.704,225.348 L2274.217,229.578 L2264.478,258.581 L2262.811,280.725 L2265.809,318.349 L2265.37,352.315 z" fill="#CECECE"/>
      <path d="M2311.405,247.604 L2313.159,252.364 L2318.42,252.364 L2311.405,247.604 z" fill="#757575"/>
    </g>
    <g id="Lamp">
      <path d="M2058.09,280.975 L2060.596,274.211 L2059.844,264.439 L2053.329,253.665 L2062.6,262.685 L2064.354,273.959 L2062.349,279.723 L2058.09,280.975 z" fill="#757575"/>
      <path d="M2016.498,379.693 L2018.002,359.649 L2015.746,326.826 L2015.245,301.771 L2019.254,276.465 L2024.767,261.683 L2027.523,255.92 L2039.048,248.403 L2027.523,252.914 L2022.011,257.924 L2017.25,273.959 L2013.241,290.747 L2012.239,308.786 L2012.74,332.589 L2014.244,353.635 L2011.738,380.695 L2016.498,379.693 z" fill="#757575"/>
      <path d="M2015.027,379.303 L2015.983,348.338 L2013.883,310.341 L2015.582,284.157 L2025.259,255.718 L2038.668,247.168 L2054.205,250.064 L2064.402,262.16 L2067.878,273.062 L2077.852,279.599 L2056.529,282.341 L2061.735,274.264 L2061.282,263.192 L2053.4,253.347 L2039.409,251.954 L2029.922,256.184 L2020.183,285.187 L2018.516,307.331 L2021.514,344.956 L2021.075,378.922 z" fill="#CECECE"/>
      <path d="M2067.11,274.211 L2068.864,278.971 L2074.125,278.971 L2067.11,274.211 z" fill="#757575"/>
    </g>
    <g id="Lamp">
      <path d="M1908.088,221.34 L1910.593,214.576 L1909.842,204.804 L1903.327,194.03 L1912.598,203.05 L1914.351,214.325 L1912.347,220.088 L1908.088,221.34 z" fill="#757575"/>
      <path d="M1866.495,320.059 L1867.999,300.014 L1865.744,267.192 L1865.243,242.137 L1869.252,216.83 L1874.765,202.048 L1877.521,196.285 L1889.046,188.769 L1877.521,193.279 L1872.008,198.289 L1867.248,214.325 L1863.239,231.112 L1862.237,249.152 L1862.738,272.954 L1864.241,294.001 L1861.736,321.06 L1866.495,320.059 z" fill="#757575"/>
      <path d="M1865.025,319.668 L1865.981,288.703 L1863.881,250.706 L1865.58,224.523 L1875.257,196.084 L1888.665,187.533 L1904.203,190.43 L1914.399,202.525 L1917.875,213.427 L1927.849,219.964 L1906.526,222.706 L1911.732,214.629 L1911.28,203.557 L1903.398,193.712 L1889.406,192.319 L1879.92,196.55 L1870.181,225.552 L1868.514,247.697 L1871.511,285.321 L1871.073,319.287 z" fill="#CECECE"/>
      <path d="M1917.107,214.576 L1918.861,219.336 L1924.123,219.336 L1917.107,214.576 z" fill="#757575"/>
    </g>
    <g id="Lamp">
      <path d="M1756.6,211.172 L1759.106,204.408 L1758.354,194.636 L1751.839,183.862 L1761.11,192.882 L1762.864,204.156 L1760.859,209.92 L1756.6,211.172 z" fill="#757575"/>
      <path d="M1715.008,309.89 L1716.511,289.845 L1714.256,257.023 L1713.755,231.968 L1717.764,206.662 L1723.277,191.88 L1726.033,186.117 L1737.558,178.6 L1726.033,183.11 L1720.521,188.121 L1715.76,204.156 L1711.751,220.944 L1710.749,238.983 L1711.25,262.786 L1712.754,283.832 L1710.248,310.892 L1715.008,309.89 z" fill="#757575"/>
      <path d="M1713.537,309.5 L1714.493,278.535 L1712.393,240.538 L1714.092,214.354 L1723.769,185.915 L1737.177,177.365 L1752.715,180.261 L1762.911,192.357 L1766.388,203.259 L1776.361,209.796 L1755.039,212.538 L1760.245,204.461 L1759.792,193.389 L1751.91,183.544 L1737.919,182.151 L1728.432,186.381 L1718.693,215.384 L1717.026,237.528 L1720.024,275.153 L1719.585,309.119 z" fill="#CECECE"/>
      <path d="M1765.62,204.408 L1767.374,209.167 L1772.635,209.167 L1765.62,204.408 z" fill="#757575"/>
    </g>
    <g id="Lamp">
      <path d="M1610.31,210.429 L1612.816,203.665 L1612.065,193.893 L1605.55,183.119 L1614.821,192.139 L1616.574,203.414 L1614.569,209.177 L1610.31,210.429 z" fill="#757575"/>
      <path d="M1568.718,309.147 L1570.222,289.103 L1567.967,256.281 L1567.466,231.226 L1571.474,205.919 L1576.987,191.137 L1579.743,185.374 L1591.269,177.858 L1579.743,182.368 L1574.231,187.378 L1569.47,203.414 L1565.461,220.201 L1564.459,238.241 L1564.96,262.043 L1566.464,283.09 L1563.958,310.149 L1568.718,309.147 z" fill="#757575"/>
      <path d="M1567.247,308.757 L1568.204,277.792 L1566.103,239.795 L1567.802,213.611 L1577.479,185.173 L1590.888,176.622 L1606.426,179.519 L1616.622,191.614 L1620.098,202.516 L1630.072,209.053 L1608.749,211.795 L1613.955,203.718 L1613.503,192.646 L1605.621,182.801 L1591.629,181.408 L1582.143,185.638 L1572.404,214.641 L1570.736,236.786 L1573.734,274.41 L1573.295,308.376 z" fill="#CECECE"/>
      <path d="M1619.33,203.665 L1621.084,208.425 L1626.346,208.425 L1619.33,203.665 z" fill="#757575"/>
    </g>
    <g id="Lamp">
      <path d="M1001.192,252.113 L1003.698,245.349 L1002.946,235.577 L996.431,224.803 L1005.702,233.823 L1007.455,245.097 L1005.451,250.861 L1001.192,252.113 z" fill="#757575"/>
      <path d="M959.6,350.831 L961.103,330.786 L958.848,297.964 L958.347,272.909 L962.356,247.603 L967.869,232.821 L970.625,227.058 L982.15,219.541 L970.625,224.051 L965.113,229.062 L960.352,245.097 L956.343,261.885 L955.341,279.924 L955.842,303.727 L957.345,324.773 L954.84,351.833 L959.6,350.831 z" fill="#757575"/>
      <path d="M958.129,350.441 L959.085,319.476 L956.985,281.479 L958.684,255.295 L968.361,226.856 L981.769,218.306 L997.307,221.202 L1007.503,233.298 L1010.98,244.2 L1020.953,250.737 L999.631,253.479 L1004.837,245.402 L1004.384,234.33 L996.502,224.485 L982.51,223.092 L973.024,227.322 L963.285,256.325 L961.618,278.469 L964.616,316.094 L964.177,350.06 z" fill="#CECECE"/>
      <path d="M1010.212,245.349 L1011.966,250.108 L1017.227,250.108 L1010.212,245.349 z" fill="#757575"/>
    </g>
    <g id="Lamp">
      <path d="M847.904,315.311 L850.409,308.546 L849.658,298.774 L843.143,288.001 L852.414,297.02 L854.167,308.295 L852.163,314.058 L847.904,315.311 z" fill="#757575"/>
      <path d="M806.312,414.029 L807.815,393.984 L805.56,361.162 L805.059,336.107 L809.068,310.801 L814.581,296.018 L817.337,290.256 L828.862,282.739 L817.337,287.249 L811.825,292.26 L807.064,308.295 L803.055,325.083 L802.053,343.122 L802.554,366.924 L804.057,387.971 L801.552,415.031 L806.312,414.029 z" fill="#757575"/>
      <path d="M804.841,413.639 L805.797,382.674 L803.697,344.677 L805.396,318.493 L815.073,290.054 L828.481,281.503 L844.019,284.4 L854.215,296.495 L857.692,307.398 L867.665,313.935 L846.343,316.676 L851.549,308.6 L851.096,297.528 L843.214,287.682 L829.222,286.29 L819.736,290.52 L809.997,319.523 L808.33,341.667 L811.328,379.291 L810.889,413.257 z" fill="#CECECE"/>
      <path d="M856.923,308.546 L858.678,313.306 L863.939,313.306 L856.923,308.546 z" fill="#757575"/>
    </g>
    <g id="Trash">
      <path d="M1942.833,350.963 L1943.005,332.598 L1946.617,332.598 L1946.273,350.963 L1942.833,350.963 z" fill="#989898"/>
      <path d="M1944.643,351.139 L1944.643,339.46 L1946.366,338.502 L1946.273,350.963 L1944.643,351.139 z" fill="#717171"/>
      <path d="M1943.349,344.192 L1938.532,343.332 L1936.295,336.451 L1936.295,327.505 L1937.5,322.516 L1943.005,319.592 L1949.37,318.731 L1953.154,320.452 L1954.531,324.377 L1954.531,329.397 L1954.531,336.279 L1952.982,340.72 L1947.993,343.848 L1943.349,344.192 z" fill="#ED6C00"/>
      <path d="M1939.564,324.377 L1943.005,321.656 L1947.133,320.624 L1951.262,321.14 L1952.466,324.377 L1951.09,325.742 L1941.284,325.742 L1939.564,324.377 z" fill="#000000"/>
      <path d="M1945.452,343.715 L1949.281,342.757 L1952.153,341.417 L1954.068,337.396 L1954.068,329.355 L1951.962,336.439 L1950.047,340.077 L1945.452,343.715 z" fill="#A84D00"/>
    </g>
    <g id="Bench">
      <path d="M795.389,528.578 L795.389,488.471 L804.745,488.471 L806.527,527.8 L795.389,528.578 z" fill="#B5B5B5"/>
      <path d="M849.286,528.578 L859.532,528.578 L857.426,490.807 L847.503,488.471 L849.286,528.578 z" fill="#B5B5B5"/>
      <path d="M856.958,529.031 L853.746,491.62 L857.336,491.809 L859.532,528.578 L856.958,529.031 z" fill="#7D7D7D"/>
      <path d="M804.621,527.708 L803.676,507.114 L800.842,491.242 L803.865,491.242 L806.699,526.953 L804.621,527.708 z" fill="#7D7D7D"/>
      <path d="M783.797,514.171 L783.797,518.844 L870.67,521.57 L870.67,516.118 L783.797,514.171 z" fill="#FF0000"/>
      <path d="M783.797,493.143 L783.797,505.215 L870.67,505.994 L868.887,494.312 L783.797,493.143 z" fill="#FF0000"/>
      <path d="M784.215,504.768 L784.404,506.279 L870.373,506.846 L869.617,504.579 L784.215,504.768 z" fill="#9E1C1C"/>
      <path d="M784.026,517.505 L821.248,519.017 L870.184,519.017 L870.562,520.717 L821.248,519.962 L783.797,518.844 L784.026,517.505 z" fill="#9E1C1C"/>
    </g>
    <g id="Trash">
      <path d="M1311.497,357.8 L1311.669,339.435 L1315.281,339.435 L1314.937,357.8 L1311.497,357.8 z" fill="#989898"/>
      <path d="M1313.307,357.977 L1313.307,346.297 L1315.03,345.34 L1314.937,357.8 L1313.307,357.977 z" fill="#717171"/>
      <path d="M1312.013,351.029 L1307.196,350.169 L1304.958,343.288 L1304.958,334.342 L1306.164,329.353 L1311.669,326.429 L1318.034,325.568 L1321.818,327.289 L1323.195,331.214 L1323.195,336.234 L1323.195,343.116 L1321.646,347.557 L1316.656,350.685 L1312.013,351.029 z" fill="#ED6C00"/>
      <path d="M1308.228,331.214 L1311.669,328.493 L1315.797,327.461 L1319.926,327.977 L1321.13,331.214 L1319.754,332.579 L1309.948,332.579 L1308.228,331.214 z" fill="#000000"/>
      <path d="M1314.115,350.552 L1317.945,349.595 L1320.817,348.255 L1322.731,344.234 L1322.731,336.193 L1320.625,343.277 L1318.71,346.915 L1314.115,350.552 z" fill="#A84D00"/>
    </g>
  </g>
  <g id="Surfaces">
    <path d="M2485.238,353.127 L2427.882,354.235 L2376,350.043 L2328.31,353.711 L2280.096,350.043 L2247.604,352.139 L2205.679,364.193 L2176.856,369.957 L2155.57,378.724 L2156.941,383.583 L2177.904,375.722 L2208.3,368.385 L2248.128,356.856 L2280.096,359.476 L2327.786,358.952 L2369.187,357.38 L2411.636,358.428 L2455.657,359.476 L2486.577,362.096 L2485.238,353.127 z" fill="#676767"/>
    <path d="M2155.57,378.724 L2100.866,375.722 L2052.653,378.342 L2009.837,376.831 L2009.155,383.059 L2033.786,380.439 L2066.802,383.583 L2097.722,379.915 L2137.027,382.535 L2156.941,383.583 L2155.57,378.724 z" fill="#676767"/>
    <path d="M2009.837,376.831 L1966.435,356.096 L1925.193,340.682 L1881.451,319.436 L1875.619,318.186 L1873.952,325.268 L1901.031,333.6 L1927.692,347.764 L1952.688,355.679 L1985.598,374.426 L2009.155,383.059 L2009.837,376.831 z" fill="#676767"/>
    <path d="M1875.619,318.186 L1835.21,316.52 L1785.219,311.104 L1745.226,309.855 L1709.816,304.022 L1711.483,311.104 L1746.059,314.437 L1777.304,316.103 L1807.298,320.686 L1842.708,320.686 L1873.952,325.268 L1875.619,318.186 z" fill="#676767"/>
    <path d="M1709.816,304.022 L1690.236,306.105 L1639.413,305.689 L1609.418,304.022 L1575.674,306.938 L1557.344,304.855 L1557.761,313.604 L1582.756,313.604 L1604.419,308.605 L1640.662,313.187 L1674.823,311.104 L1711.483,311.104 L1709.816,304.022 z" fill="#676767"/>
    <path d="M1557.344,304.855 L1511.103,317.353 L1463.195,326.518 L1431.951,330.684 L1385.71,342.349 L1340.302,350.68 L1299.059,359.429 L1262.25,365.476 L1264.066,373.593 L1284.479,364.844 L1321.972,359.012 L1359.048,350.264 L1402.373,342.765 L1446.532,333.184 L1487.358,326.935 L1526.517,317.353 L1557.761,313.604 L1557.344,304.855 z" fill="#676767"/>
    <path d="M1264.066,365.261 L1231.988,365.261 L1192.412,371.926 L1159.502,372.343 L1112.732,376.831 L1111.177,384.424 L1133.257,376.925 L1168.667,376.509 L1209.076,374.426 L1239.903,369.843 L1265.315,371.926 L1264.066,365.261 z" fill="#676767"/>
    <path d="M1112.732,376.831 L1086.182,370.26 L1049.106,366.511 L1016.612,357.346 L980.785,354.43 L967.454,347.764 L953.751,348.442 L953.29,356.513 L971.62,356.513 L999.948,360.678 L1031.609,369.843 L1063.686,371.926 L1090.765,380.258 L1111.177,384.424 L1112.732,376.831 z" fill="#676767"/>
    <path d="M953.751,348.026 L868.583,410.483 L798.556,410.483 L799.152,418.168 L868.722,419.002 L953.29,356.097 L953.751,348.026 z" fill="#FF0000"/>
    <path d="M868.583,410.899 L953.751,482.916 L952.457,490.654 L868.722,419.418 L799.152,418.584 L798.556,410.899 L868.583,410.899 z" fill="#BA0000"/>
    <path d="M953.751,482.916 L947.458,486.072 L915.797,501.902 L887.469,517.733 L859.141,526.898 L817.065,525.648 L773.157,526.521 L772.907,531.48 L796.236,533.146 L839.145,532.313 L871.222,531.897 L899.967,517.733 L929.544,504.402 L952.457,490.654 L970.715,490.635 L1021.611,492.737 L1020.593,484.944 L953.751,482.916 z" fill="#9A9A9A"/>
    <path d="M773.157,526.521 L710.418,511.9 L672.092,501.069 L625.018,494.82 L578.36,486.905 L538.367,480.24 L528.369,481.073 L530.868,489.405 L559.613,487.322 L593.773,495.237 L632.1,501.069 L676.675,510.234 L715.001,516.899 L749.161,528.147 L772.907,531.48 L773.157,526.521 z" fill="#9A9A9A"/>
    <path d="M528.369,481.073 L489.738,482.88 L452.365,480.756 L413.292,482.455 L367.849,480.331 L330.9,483.304 L291.828,481.606 L254.454,484.578 L217.505,481.181 L179.282,484.578 L159.322,483.304 L158.472,491.374 L178.008,489.25 L215.382,486.702 L259.551,488.401 L287.156,486.277 L319.245,488.042 L351.121,490.246 L379.741,488.825 L419.238,487.127 L451.94,490.524 L496.534,490.1 L530.868,489.405 L528.369,481.073 z" fill="#9A9A9A"/>
    <path d="M361.124,487.122 L390.972,510.254 L417.462,533.013 L445.444,561.368 L482.381,584.127 L500.29,602.036 L527.899,614.722 L553.27,630.392 L572.298,639.346 L570.433,647.181 L540.958,628.153 L505.14,615.841 L483.874,597.559 L450.668,574.054 L423.058,549.802 L397.688,524.805 L371.944,505.777 L343.322,486.347 L361.124,487.122 z" fill="#9A9A9A"/>
    <path d="M572.298,639.346 L611.847,655.389 L654.753,668.075 L684.974,681.879 L714.076,695.684 L738.7,717.324 L760.34,730.755 L777.597,745.46 L773.772,752.022 L762.206,740.083 L740.193,728.144 L716.688,709.489 L692.436,693.445 L661.096,682.253 L626.024,665.463 L591.699,657.628 L570.433,647.181 L572.298,639.346 z" fill="#9A9A9A"/>
    <path d="M777.728,745.46 L809.72,757.619 L838.449,764.707 L868.909,776.462 L908.218,773.289 L942.17,776.273 L972.765,774.035 L1101.882,775.853 L1103.375,779.937 L985.45,780.751 L951.871,781.87 L914.934,782.989 L879.49,780.751 L858.969,784.109 L839.941,771.423 L800.02,763.961 L773.157,750.157 L777.728,745.46 z" fill="#9A9A9A"/>
    <path d="M927.26,781.139 L898.649,800.084 L873.131,814.776 L850.319,833.721 L817.456,844.547 L790.778,860.012 L761.184,873.291 L763.327,880.89 L788.071,866.971 L819.389,853.439 L844.52,839.52 L873.904,827.535 L887.823,813.229 L916.434,798.15 L937.312,781.139 L927.26,781.139 z" fill="#9A9A9A"/>
    <path d="M761.184,873.291 L723.117,872.384 L683.68,875.477 L647.337,878.957 L612.153,878.57 L564.21,882.437 L518.588,883.21 L474.511,886.69 L432.755,885.53 L394.091,883.983 L358.16,884.233 L358.134,891.329 L383.652,888.623 L415.743,891.716 L454.02,891.716 L496.936,892.489 L532.893,887.85 L580.449,887.076 L625.685,886.303 L667.828,882.05 L703.785,881.277 L733.556,878.957 L763.327,880.89 L761.184,873.291 z" fill="#9A9A9A"/>
    <path d="M315.027,485.034 L326.962,484.479 L347.78,484.202 L356.662,486.145 L379.145,503.909 L398.019,518.342 L381.643,507.795 L363.046,495.582 L353.053,489.198 L345.836,486.784 L315.027,485.034 z" fill="#5B5B5B"/>
    <path d="M897.055,804.487 L916.063,789.965 L931.653,779.287 L945.962,776.724 L974.58,775.015 L953.223,779.073 L936.352,782.063 L918.625,792.955 L897.055,804.487 z" fill="#646464"/>
    <path d="M2487.249,271.606 L2497.503,255.136 L2536.656,238.978 L2502.936,257.273 L2491.839,273.301 L2492.456,293.645 L2489.99,320.152 L2494.305,362.689 L2486.577,362.096 L2487.249,271.606 z" fill="#676767"/>
    <path d="M1102.429,682.688 L1100.934,700.878 L1101.28,738.566 L1099.551,774.87 L1103.375,779.937 L1106.812,749.284 L1103.7,720.586 L1106.812,692.234 L1102.429,682.688 z" fill="#9A9A9A"/>
    <path d="M2487.249,271.606 L2485.238,353.127 L2257.771,352.227 L2155.57,378.724 L2009.837,376.831 L1875.461,320.053 L1710.802,307.697 L1555.607,307.697 L1425.016,333.301 L1262.25,365.476 L1112.732,376.831 L953.751,348.442" fill-opacity="0" stroke="#000000" stroke-width="1"/>
    <path d="M953.751,348.424 L868.583,410.881 L798.556,410.881 C798.556,410.483 798.556,336.253 798.556,336.253" fill-opacity="0" stroke="#000000" stroke-width="1"/>
    <path d="M868.943,410.899 L953.909,482.916 L1020.593,484.944 C1020.593,484.944 1020.953,403.627 1020.953,403.627" fill-opacity="0" stroke="#000000" stroke-width="1"/>
    <path d="M953.751,482.916 L873.551,526.521 L773.157,526.521" fill-opacity="0" stroke="#000000" stroke-width="1"/>
    <path d="M773.157,526.521 L710.567,509.857 L546.017,482.916 L407.799,482.916 L163.259,482.916" fill-opacity="0" stroke="#000000" stroke-width="1"/>
    <path d="M358.334,484.202 L493.283,597.004 L571.7,640.771 L697.531,684.538 L777.771,744.718 L868.952,775.72 L1108.453,775.015 L1111.177,685.439" fill-opacity="0" stroke="#000000" stroke-width="1"/>
    <path d="M936.872,776.462 L845.071,834.995 L761.184,873.291 L615.293,878.762 L431.106,887.88 L358.16,884.233 L334.613,781.865" fill-opacity="0" stroke="#000000" stroke-width="1"/>
    <path d="M872.338,412.901 L954.84,351.833 L953.29,356.513 L874.377,414.94 L872.338,412.901 z" fill="#BC0000"/>
    <path d="M798.682,416.724 L870.044,417.234 L949.817,484.518 L947.458,486.072 L868.722,419.418 L799.152,418.584 L798.682,416.724 z" fill="#890202"/>
  </g>
  <g id="Pivots">
    <path d="M2358.384,351.585 L2357.038,298.753 L2390.016,298.753 L2388.67,351.585 L2358.384,351.585 z" fill="#484848" id="Pivot_l0_t0"/>
    <path d="M1784.287,306.156 L1782.941,253.324 L1815.917,253.324 L1814.571,306.156 L1784.287,306.156 z" fill="#484848" id="Pivot_l1_t0_s1_c1"/>
    <path d="M2053.531,371.325 L2052.185,318.493 L2085.161,318.493 L2083.815,371.325 L2053.531,371.325 z" fill="#484848" id="Pivot_l1_t1_s1_c2"/>
    <path d="M1404.114,325.568 L1402.768,272.736 L1435.744,272.736 L1434.398,325.568 L1404.114,325.568 z" fill="#484848" id="Pivot_l1_t1_s1_c2"/>
    <path d="M283.397,477.193 L282.051,424.361 L315.027,424.361 L313.681,477.193 L283.397,477.193 z" fill="#484848" id="Pivot_l2_t2_s1_c8"/>
    <path d="M584.281,634.858 L582.935,582.026 L615.911,582.026 L614.565,634.858 L584.281,634.858 z" fill="#484848" id="Pivot_l2_t2_s1_c1"/>
    <path d="M734.713,702.054 L733.367,649.222 L766.343,649.222 L764.997,702.054 L734.713,702.054 z" fill="#484848" id="Pivot_l2_t2_s1_c1"/>
    <path d="M1062.799,770.535 L1061.453,717.703 L1094.429,717.703 L1093.083,770.535 L1062.799,770.535 z" fill="#484848" id="Pivot_l2_t2_s1_c2"/>
    <path d="M719.841,863.624 L718.495,810.792 L751.471,810.792 L750.125,863.624 L719.841,863.624 z" fill="#484848" id="Pivot_l2_t1_s1_c2"/>
    <path d="M969.999,478.444 L968.653,425.612 L1001.629,425.612 L1000.283,478.444 L969.999,478.444 z" fill="#484848" id="Pivot_l1_t2_s1_c1"/>
    <path d="M644.009,491.409 L642.663,438.577 L675.639,438.577 L674.293,491.409 L644.009,491.409 z" fill="#484848" id="Pivot_l2_t0_s1_c2"/>
    <path d="M387.833,886.09 L386.487,833.258 L419.464,833.258 L418.118,886.09 L387.833,886.09 z" fill="#484848" id="Pivot_e"/>
    <path d="M812.091,523.376 L810.745,470.544 L843.722,470.544 L842.376,523.376 L812.091,523.376 z" fill="#484848" id="Pivot_g"/>
    <path d="M859.107,523.376 L857.761,470.544 L890.737,470.544 L889.391,523.376 L859.107,523.376 z" fill="#484848" id="Pivot_i5"/>
  </g>
</svg>
